<svg width="1359" height="1011" viewBox="0 0 1359 1011" fill="none" xmlns="http://www.w3.org/2000/svg">
<path opacity="0.22" d="M888.022 168.057C889.462 168.057 890.629 166.89 890.629 165.45C890.629 164.011 889.462 162.844 888.022 162.844C886.583 162.844 885.416 164.011 885.416 165.45C885.416 166.89 886.583 168.057 888.022 168.057Z" fill="#E7E5F2"/>
<path opacity="0.22" d="M584.949 263.927C586.388 263.927 587.555 262.76 587.555 261.321C587.555 259.881 586.388 258.714 584.949 258.714C583.509 258.714 582.342 259.881 582.342 261.321C582.342 262.76 583.509 263.927 584.949 263.927Z" fill="#E7E5F2"/>
<path opacity="0.22" d="M928.69 407.313C930.13 407.313 931.297 406.146 931.297 404.706C931.297 403.267 930.13 402.1 928.69 402.1C927.251 402.1 926.084 403.267 926.084 404.706C926.084 406.146 927.251 407.313 928.69 407.313Z" fill="#E7E5F2"/>
<path opacity="0.22" d="M1004.83 531.26C1006.27 531.26 1007.44 530.093 1007.44 528.653C1007.44 527.213 1006.27 526.046 1004.83 526.046C1003.39 526.046 1002.23 527.213 1002.23 528.653C1002.23 530.093 1003.39 531.26 1004.83 531.26Z" fill="#E7E5F2"/>
<path opacity="0.22" d="M854.402 350.608C854.342 351.255 854.042 351.856 853.562 352.294C853.082 352.732 852.456 352.975 851.806 352.975C851.156 352.975 850.53 352.732 850.05 352.294C849.569 351.856 849.27 351.255 849.21 350.608C849.177 350.247 849.219 349.883 849.335 349.539C849.45 349.196 849.636 348.88 849.88 348.612C850.124 348.344 850.422 348.13 850.753 347.984C851.085 347.837 851.443 347.762 851.806 347.762C852.169 347.762 852.527 347.837 852.859 347.984C853.19 348.13 853.488 348.344 853.732 348.612C853.976 348.88 854.162 349.196 854.277 349.539C854.393 349.883 854.435 350.247 854.402 350.608V350.608Z" fill="#E7E5F2"/>
<path opacity="0.22" d="M1144.24 330.484C1145.68 330.484 1146.85 329.317 1146.85 327.877C1146.85 326.438 1145.68 325.271 1144.24 325.271C1142.8 325.271 1141.64 326.438 1141.64 327.877C1141.64 329.317 1142.8 330.484 1144.24 330.484Z" fill="#E7E5F2"/>
<path opacity="0.22" d="M785.658 94.4974C785.658 95.013 785.505 95.5169 785.218 95.9456C784.932 96.3742 784.525 96.7083 784.048 96.9056C783.572 97.1029 783.048 97.1545 782.542 97.0539C782.037 96.9534 781.572 96.7051 781.208 96.3406C780.843 95.976 780.595 95.5116 780.494 95.006C780.394 94.5003 780.445 93.9762 780.643 93.4999C780.84 93.0236 781.174 92.6165 781.603 92.3301C782.031 92.0437 782.535 91.8908 783.051 91.8908C783.742 91.8908 784.405 92.1654 784.894 92.6543C785.383 93.1431 785.658 93.8061 785.658 94.4974V94.4974Z" fill="#E7E5F2"/>
<path opacity="0.22" d="M619.056 142.72C619.06 143.236 618.911 143.742 618.627 144.174C618.343 144.605 617.938 144.943 617.462 145.144C616.986 145.344 616.461 145.399 615.954 145.301C615.447 145.203 614.981 144.956 614.614 144.593C614.247 144.229 613.997 143.765 613.894 143.259C613.792 142.752 613.842 142.227 614.039 141.75C614.235 141.272 614.569 140.864 614.999 140.576C615.428 140.289 615.932 140.135 616.449 140.135C617.136 140.135 617.796 140.407 618.284 140.891C618.773 141.375 619.05 142.032 619.056 142.72V142.72Z" fill="#E7E5F2"/>
<path opacity="0.22" d="M532.618 147.491C534.058 147.491 535.225 146.324 535.225 144.885C535.225 143.445 534.058 142.278 532.618 142.278C531.179 142.278 530.012 143.445 530.012 144.885C530.012 146.324 531.179 147.491 532.618 147.491Z" fill="#E7E5F2"/>
<path opacity="0.22" d="M489.211 290.612C489.211 291.128 489.058 291.633 488.77 292.062C488.483 292.491 488.074 292.825 487.597 293.022C487.119 293.219 486.594 293.269 486.088 293.167C485.581 293.064 485.117 292.814 484.753 292.447C484.39 292.08 484.143 291.614 484.045 291.107C483.947 290.6 484.002 290.075 484.203 289.599C484.403 289.123 484.741 288.717 485.172 288.434C485.604 288.15 486.11 288.001 486.627 288.005C486.968 288.005 487.306 288.073 487.621 288.204C487.936 288.335 488.222 288.528 488.462 288.77C488.702 289.012 488.892 289.3 489.021 289.616C489.149 289.932 489.214 290.271 489.211 290.612V290.612Z" fill="#E7E5F2"/>
<path opacity="0.22" d="M540.349 373.228C541.789 373.228 542.956 372.061 542.956 370.622C542.956 369.182 541.789 368.015 540.349 368.015C538.91 368.015 537.743 369.182 537.743 370.622C537.743 372.061 538.91 373.228 540.349 373.228Z" fill="#E7E5F2"/>
<path opacity="0.22" d="M355.854 562.495C355.794 563.142 355.495 563.743 355.015 564.181C354.535 564.619 353.908 564.861 353.258 564.861C352.609 564.861 351.982 564.619 351.502 564.181C351.022 563.743 350.723 563.142 350.663 562.495C350.629 562.134 350.672 561.77 350.787 561.426C350.902 561.082 351.088 560.766 351.332 560.498C351.577 560.231 351.874 560.017 352.206 559.87C352.537 559.724 352.896 559.648 353.258 559.648C353.621 559.648 353.979 559.724 354.311 559.87C354.643 560.017 354.94 560.231 355.184 560.498C355.429 560.766 355.614 561.082 355.73 561.426C355.845 561.77 355.887 562.134 355.854 562.495V562.495Z" fill="#E7E5F2"/>
<path opacity="0.22" d="M374.631 511.931C374.631 512.446 374.478 512.95 374.192 513.379C373.905 513.808 373.498 514.142 373.022 514.339C372.546 514.536 372.021 514.588 371.516 514.487C371.01 514.387 370.546 514.139 370.181 513.774C369.817 513.409 369.568 512.945 369.468 512.439C369.367 511.934 369.419 511.41 369.616 510.933C369.813 510.457 370.148 510.05 370.576 509.763C371.005 509.477 371.509 509.324 372.024 509.324C372.367 509.321 372.708 509.387 373.025 509.517C373.343 509.647 373.631 509.838 373.874 510.081C374.117 510.324 374.309 510.612 374.439 510.93C374.568 511.247 374.634 511.588 374.631 511.931Z" fill="#E7E5F2"/>
<path opacity="0.22" d="M268.886 795.566C268.886 796.081 268.733 796.585 268.447 797.014C268.16 797.442 267.753 797.776 267.277 797.974C266.801 798.171 266.277 798.223 265.771 798.122C265.265 798.021 264.801 797.773 264.436 797.409C264.072 797.044 263.824 796.58 263.723 796.074C263.622 795.568 263.674 795.044 263.871 794.568C264.069 794.092 264.403 793.685 264.831 793.398C265.26 793.112 265.764 792.959 266.28 792.959C266.623 792.956 266.963 793.021 267.281 793.151C267.598 793.281 267.887 793.473 268.129 793.716C268.372 793.958 268.564 794.247 268.694 794.565C268.824 794.882 268.889 795.222 268.886 795.566Z" fill="#E7E5F2"/>
<path opacity="0.22" d="M310.437 710.232C310.437 710.748 310.284 711.252 309.998 711.68C309.712 712.109 309.304 712.443 308.828 712.64C308.352 712.838 307.828 712.889 307.322 712.789C306.816 712.688 306.352 712.44 305.987 712.075C305.623 711.711 305.375 711.246 305.274 710.741C305.174 710.235 305.225 709.711 305.422 709.235C305.62 708.758 305.954 708.351 306.382 708.065C306.811 707.778 307.315 707.625 307.831 707.625C308.522 707.625 309.185 707.9 309.674 708.389C310.163 708.878 310.437 709.541 310.437 710.232V710.232Z" fill="#E7E5F2"/>
<path opacity="0.22" d="M337.453 954.304C338.893 954.304 340.06 953.137 340.06 951.697C340.06 950.257 338.893 949.09 337.453 949.09C336.014 949.09 334.847 950.257 334.847 951.697C334.847 953.137 336.014 954.304 337.453 954.304Z" fill="#E7E5F2"/>
<path opacity="0.22" d="M246.31 1007.78C246.31 1008.3 246.157 1008.8 245.871 1009.23C245.584 1009.66 245.177 1009.99 244.701 1010.19C244.225 1010.39 243.701 1010.44 243.195 1010.34C242.689 1010.24 242.225 1009.99 241.86 1009.63C241.496 1009.26 241.248 1008.8 241.147 1008.29C241.046 1007.79 241.098 1007.26 241.295 1006.79C241.493 1006.31 241.827 1005.9 242.255 1005.62C242.684 1005.33 243.188 1005.18 243.704 1005.18C244.047 1005.17 244.387 1005.24 244.704 1005.37C245.022 1005.5 245.311 1005.69 245.553 1005.93C245.796 1006.18 245.988 1006.46 246.118 1006.78C246.248 1007.1 246.313 1007.44 246.31 1007.78V1007.78Z" fill="#E7E5F2"/>
<path opacity="0.22" d="M698.049 981.364C698.082 981.725 698.04 982.089 697.925 982.432C697.809 982.776 697.624 983.092 697.379 983.36C697.135 983.628 696.838 983.842 696.506 983.988C696.174 984.134 695.816 984.21 695.453 984.21C695.091 984.21 694.732 984.134 694.401 983.988C694.069 983.842 693.772 983.628 693.527 983.36C693.283 983.092 693.097 982.776 692.982 982.432C692.867 982.089 692.824 981.725 692.858 981.364C692.918 980.717 693.217 980.115 693.697 979.677C694.177 979.24 694.804 978.997 695.453 978.997C696.103 978.997 696.73 979.24 697.21 979.677C697.69 980.115 697.989 980.717 698.049 981.364V981.364Z" fill="#E7E5F2"/>
<path opacity="0.22" d="M871.19 960.688C871.19 961.204 871.037 961.709 870.75 962.138C870.462 962.567 870.054 962.901 869.576 963.098C869.099 963.294 868.573 963.345 868.067 963.242C867.561 963.14 867.096 962.89 866.733 962.523C866.369 962.156 866.123 961.69 866.025 961.183C865.927 960.675 865.981 960.151 866.182 959.675C866.383 959.199 866.72 958.793 867.152 958.51C867.583 958.226 868.089 958.077 868.606 958.081C868.947 958.081 869.285 958.149 869.6 958.28C869.915 958.411 870.201 958.603 870.441 958.846C870.682 959.088 870.871 959.376 871 959.692C871.129 960.008 871.193 960.346 871.19 960.688V960.688Z" fill="#E7E5F2"/>
<path opacity="0.22" d="M910.93 858.809C910.934 859.325 910.785 859.831 910.501 860.263C910.218 860.695 909.812 861.032 909.336 861.233C908.86 861.434 908.336 861.488 907.828 861.39C907.321 861.292 906.855 861.046 906.488 860.682C906.121 860.318 905.871 859.854 905.769 859.348C905.666 858.841 905.716 858.316 905.913 857.839C906.11 857.361 906.444 856.953 906.873 856.665C907.302 856.378 907.807 856.224 908.323 856.224C909.011 856.224 909.671 856.496 910.159 856.98C910.647 857.464 910.924 858.121 910.93 858.809V858.809Z" fill="#E7E5F2"/>
<path opacity="0.22" d="M723.011 834.002C723.011 834.517 722.858 835.021 722.572 835.45C722.285 835.879 721.878 836.213 721.402 836.41C720.926 836.607 720.401 836.659 719.896 836.558C719.39 836.458 718.926 836.21 718.561 835.845C718.197 835.48 717.948 835.016 717.848 834.51C717.747 834.005 717.799 833.481 717.996 833.004C718.193 832.528 718.528 832.121 718.956 831.835C719.385 831.548 719.889 831.395 720.404 831.395C721.096 831.395 721.759 831.67 722.247 832.159C722.736 832.648 723.011 833.311 723.011 834.002V834.002Z" fill="#E7E5F2"/>
<path opacity="0.22" d="M706.201 773.122C706.141 773.769 705.842 774.371 705.361 774.808C704.881 775.246 704.255 775.489 703.605 775.489C702.955 775.489 702.329 775.246 701.849 774.808C701.369 774.371 701.069 773.769 701.01 773.122C700.976 772.761 701.019 772.397 701.134 772.053C701.249 771.71 701.435 771.394 701.679 771.126C701.923 770.858 702.221 770.644 702.552 770.498C702.884 770.351 703.243 770.276 703.605 770.276C703.968 770.276 704.326 770.351 704.658 770.498C704.989 770.644 705.287 770.858 705.531 771.126C705.775 771.394 705.961 771.71 706.076 772.053C706.192 772.397 706.234 772.761 706.201 773.122V773.122Z" fill="#E7E5F2"/>
<path opacity="0.22" d="M666.129 775.265C666.129 775.78 665.976 776.284 665.69 776.713C665.404 777.142 664.996 777.476 664.52 777.673C664.044 777.87 663.52 777.922 663.014 777.821C662.508 777.721 662.044 777.472 661.679 777.108C661.315 776.743 661.067 776.279 660.966 775.773C660.866 775.268 660.917 774.744 661.114 774.267C661.312 773.791 661.646 773.384 662.074 773.097C662.503 772.811 663.007 772.658 663.523 772.658C663.866 772.655 664.206 772.721 664.524 772.851C664.841 772.981 665.13 773.172 665.372 773.415C665.615 773.658 665.807 773.946 665.937 774.264C666.067 774.581 666.132 774.922 666.129 775.265V775.265Z" fill="#E7E5F2"/>
<path opacity="0.22" d="M1154.49 808.974C1155.93 808.974 1157.1 807.807 1157.1 806.367C1157.1 804.928 1155.93 803.761 1154.49 803.761C1153.05 803.761 1151.89 804.928 1151.89 806.367C1151.89 807.807 1153.05 808.974 1154.49 808.974Z" fill="#E7E5F2"/>
<path opacity="0.22" d="M1046.14 790.419C1047.58 790.419 1048.75 789.252 1048.75 787.812C1048.75 786.372 1047.58 785.205 1046.14 785.205C1044.7 785.205 1043.54 786.372 1043.54 787.812C1043.54 789.252 1044.7 790.419 1046.14 790.419Z" fill="#E7E5F2"/>
<path opacity="0.22" d="M1163.66 704.135C1163.66 704.651 1163.51 705.155 1163.22 705.583C1162.94 706.012 1162.53 706.346 1162.05 706.543C1161.58 706.741 1161.05 706.792 1160.55 706.692C1160.04 706.591 1159.58 706.343 1159.21 705.978C1158.85 705.614 1158.6 705.149 1158.5 704.644C1158.4 704.138 1158.45 703.614 1158.65 703.138C1158.84 702.661 1159.18 702.254 1159.61 701.968C1160.04 701.681 1160.54 701.529 1161.05 701.529C1161.75 701.529 1162.41 701.803 1162.9 702.292C1163.39 702.781 1163.66 703.444 1163.66 704.135V704.135Z" fill="#E7E5F2"/>
<path opacity="0.22" d="M1190.5 583.635C1191.94 583.635 1193.11 582.468 1193.11 581.028C1193.11 579.589 1191.94 578.422 1190.5 578.422C1189.06 578.422 1187.89 579.589 1187.89 581.028C1187.89 582.468 1189.06 583.635 1190.5 583.635Z" fill="#E7E5F2"/>
<path opacity="0.22" d="M1134.24 543.873C1135.68 543.873 1136.84 542.706 1136.84 541.266C1136.84 539.827 1135.68 538.66 1134.24 538.66C1132.8 538.66 1131.63 539.827 1131.63 541.266C1131.63 542.706 1132.8 543.873 1134.24 543.873Z" fill="#E7E5F2"/>
<path opacity="0.22" d="M1211.61 167.213C1213.05 167.213 1214.21 166.046 1214.21 164.607C1214.21 163.167 1213.05 162 1211.61 162C1210.17 162 1209 163.167 1209 164.607C1209 166.046 1210.17 167.213 1211.61 167.213Z" fill="#E7E5F2"/>
<path opacity="0.22" d="M1172.54 432.959C1173.98 432.959 1175.15 431.792 1175.15 430.353C1175.15 428.913 1173.98 427.746 1172.54 427.746C1171.1 427.746 1169.93 428.913 1169.93 430.353C1169.93 431.792 1171.1 432.959 1172.54 432.959Z" fill="#E7E5F2"/>
<path opacity="0.22" d="M860.609 234.857C862.049 234.857 863.216 233.69 863.216 232.25C863.216 230.811 862.049 229.644 860.609 229.644C859.17 229.644 858.003 230.811 858.003 232.25C858.003 233.69 859.17 234.857 860.609 234.857Z" fill="#E7E5F2"/>
<path opacity="0.22" d="M664.538 318.445C665.978 318.445 667.145 317.278 667.145 315.838C667.145 314.399 665.978 313.232 664.538 313.232C663.099 313.232 661.932 314.399 661.932 315.838C661.932 317.278 663.099 318.445 664.538 318.445Z" fill="#E7E5F2"/>
<path opacity="0.22" d="M686.607 449.213C688.046 449.213 689.213 448.046 689.213 446.607C689.213 445.167 688.046 444 686.607 444C685.167 444 684 445.167 684 446.607C684 448.046 685.167 449.213 686.607 449.213Z" fill="#E7E5F2"/>
<path opacity="0.22" d="M799.243 349.526C800.682 349.526 801.849 348.359 801.849 346.919C801.849 345.479 800.682 344.312 799.243 344.312C797.803 344.312 796.636 345.479 796.636 346.919C796.636 348.359 797.803 349.526 799.243 349.526Z" fill="#E7E5F2"/>
<path opacity="0.22" d="M339.397 349.349C339.402 349.866 339.252 350.373 338.967 350.805C338.683 351.237 338.276 351.575 337.799 351.775C337.321 351.975 336.795 352.028 336.288 351.928C335.78 351.829 335.314 351.58 334.948 351.214C334.582 350.848 334.333 350.382 334.233 349.874C334.133 349.366 334.187 348.84 334.387 348.363C334.587 347.886 334.924 347.479 335.357 347.194C335.789 346.91 336.296 346.76 336.813 346.764C337.498 346.764 338.156 347.037 338.64 347.521C339.125 348.006 339.397 348.663 339.397 349.349V349.349Z" fill="#E7E5F2"/>
<path opacity="0.22" d="M257.532 468.679C258.972 468.679 260.139 467.512 260.139 466.072C260.139 464.632 258.972 463.465 257.532 463.465C256.092 463.465 254.925 464.632 254.925 466.072C254.925 467.512 256.092 468.679 257.532 468.679Z" fill="#E7E5F2"/>
<path opacity="0.22" d="M228.903 553.88C228.844 554.527 228.544 555.128 228.064 555.566C227.584 556.004 226.958 556.246 226.308 556.246C225.658 556.246 225.032 556.004 224.551 555.566C224.071 555.128 223.772 554.527 223.712 553.88C223.679 553.519 223.721 553.155 223.836 552.811C223.952 552.467 224.137 552.151 224.382 551.883C224.626 551.616 224.923 551.402 225.255 551.255C225.587 551.109 225.945 551.033 226.308 551.033C226.67 551.033 227.029 551.109 227.36 551.255C227.692 551.402 227.99 551.616 228.234 551.883C228.478 552.151 228.664 552.467 228.779 552.811C228.894 553.155 228.937 553.519 228.903 553.88Z" fill="#E7E5F2"/>
<path opacity="0.22" d="M247.812 295.14C247.817 295.658 247.667 296.165 247.382 296.597C247.097 297.029 246.691 297.366 246.213 297.566C245.736 297.766 245.21 297.82 244.703 297.72C244.195 297.62 243.728 297.371 243.363 297.005C242.997 296.639 242.748 296.173 242.648 295.665C242.548 295.158 242.602 294.632 242.802 294.155C243.002 293.677 243.339 293.27 243.771 292.986C244.203 292.701 244.71 292.551 245.228 292.556C245.913 292.556 246.571 292.828 247.055 293.313C247.54 293.797 247.812 294.455 247.812 295.14V295.14Z" fill="#E7E5F2"/>
<path opacity="0.22" d="M262.634 93.2162C262.634 93.7318 262.482 94.2357 262.195 94.6644C261.909 95.093 261.502 95.4271 261.025 95.6244C260.549 95.8217 260.025 95.8733 259.519 95.7727C259.014 95.6722 258.549 95.4239 258.185 95.0594C257.82 94.6948 257.572 94.2304 257.471 93.7247C257.371 93.2191 257.422 92.695 257.62 92.2187C257.817 91.7424 258.151 91.3353 258.58 91.0489C259.008 90.7625 259.512 90.6096 260.028 90.6096C260.371 90.6066 260.711 90.6721 261.029 90.802C261.346 90.932 261.635 91.1238 261.878 91.3665C262.12 91.6091 262.312 91.8977 262.442 92.2152C262.572 92.5328 262.637 92.8731 262.634 93.2162Z" fill="#E7E5F2"/>
<path opacity="0.22" d="M331.091 78.9682C332.531 78.9682 333.698 77.8012 333.698 76.3616C333.698 74.922 332.531 73.755 331.091 73.755C329.652 73.755 328.485 74.922 328.485 76.3616C328.485 77.8012 329.652 78.9682 331.091 78.9682Z" fill="#E7E5F2"/>
<path opacity="0.22" d="M669.067 63.3065C669.008 63.9535 668.708 64.5549 668.228 64.9928C667.748 65.4306 667.122 65.6734 666.472 65.6734C665.822 65.6734 665.196 65.4306 664.715 64.9928C664.235 64.5549 663.936 63.9535 663.876 63.3065C663.843 62.9455 663.885 62.5815 664 62.2378C664.116 61.8941 664.301 61.5783 664.546 61.3104C664.79 61.0425 665.087 60.8286 665.419 60.6822C665.751 60.5358 666.109 60.4601 666.472 60.4601C666.834 60.4601 667.193 60.5358 667.524 60.6822C667.856 60.8286 668.153 61.0425 668.398 61.3104C668.642 61.5783 668.828 61.8941 668.943 62.2378C669.058 62.5815 669.101 62.9455 669.067 63.3065V63.3065Z" fill="#E7E5F2"/>
<path opacity="0.22" d="M564.626 90.3445C564.626 90.86 564.473 91.364 564.187 91.7927C563.9 92.2213 563.493 92.5554 563.017 92.7527C562.541 92.95 562.017 93.0016 561.511 92.901C561.005 92.8004 560.541 92.5522 560.176 92.1877C559.812 91.8231 559.564 91.3587 559.463 90.853C559.362 90.3474 559.414 89.8233 559.611 89.347C559.809 88.8707 560.143 88.4636 560.571 88.1772C561 87.8908 561.504 87.7379 562.02 87.7379C562.363 87.7349 562.703 87.8004 563.021 87.9303C563.338 88.0603 563.627 88.2522 563.869 88.4948C564.112 88.7374 564.304 89.0259 564.434 89.3435C564.564 89.6611 564.629 90.0014 564.626 90.3445Z" fill="#E7E5F2"/>
<path opacity="0.22" d="M864.784 61.6497C866.224 61.6497 867.391 60.4827 867.391 59.0431C867.391 57.6035 866.224 56.4365 864.784 56.4365C863.344 56.4365 862.177 57.6035 862.177 59.0431C862.177 60.4827 863.344 61.6497 864.784 61.6497Z" fill="#E7E5F2"/>
<path opacity="0.22" d="M840.065 140.4C840.065 140.916 839.913 141.42 839.626 141.848C839.34 142.277 838.933 142.611 838.456 142.808C837.98 143.006 837.456 143.057 836.95 142.957C836.445 142.856 835.98 142.608 835.616 142.243C835.251 141.879 835.003 141.414 834.902 140.909C834.802 140.403 834.853 139.879 835.051 139.403C835.248 138.926 835.582 138.519 836.011 138.233C836.439 137.947 836.943 137.794 837.459 137.794C837.802 137.791 838.142 137.856 838.46 137.986C838.777 138.116 839.066 138.308 839.309 138.551C839.551 138.793 839.743 139.082 839.873 139.399C840.003 139.717 840.068 140.057 840.065 140.4V140.4Z" fill="#E7E5F2"/>
<path opacity="0.22" d="M789.214 228.605C790.654 228.605 791.821 227.438 791.821 225.999C791.821 224.559 790.654 223.392 789.214 223.392C787.775 223.392 786.608 224.559 786.608 225.999C786.608 227.438 787.775 228.605 789.214 228.605Z" fill="#E7E5F2"/>
<path opacity="0.22" d="M612.76 326.331C612.76 326.847 612.607 327.351 612.321 327.779C612.034 328.208 611.627 328.542 611.151 328.739C610.674 328.937 610.15 328.988 609.645 328.888C609.139 328.787 608.675 328.539 608.31 328.174C607.946 327.81 607.697 327.345 607.597 326.84C607.496 326.334 607.548 325.81 607.745 325.334C607.942 324.857 608.276 324.45 608.705 324.164C609.134 323.877 609.638 323.725 610.153 323.725C610.496 323.722 610.837 323.787 611.154 323.917C611.472 324.047 611.76 324.239 612.003 324.481C612.246 324.724 612.437 325.013 612.567 325.33C612.697 325.648 612.763 325.988 612.76 326.331Z" fill="#E7E5F2"/>
<path opacity="0.22" d="M550.378 365.806C551.818 365.806 552.985 364.639 552.985 363.199C552.985 361.76 551.818 360.593 550.378 360.593C548.939 360.593 547.772 361.76 547.772 363.199C547.772 364.639 548.939 365.806 550.378 365.806Z" fill="#E7E5F2"/>
<path opacity="0.22" d="M459.655 479.127C461.095 479.127 462.262 477.96 462.262 476.521C462.262 475.081 461.095 473.914 459.655 473.914C458.215 473.914 457.048 475.081 457.048 476.521C457.048 477.96 458.215 479.127 459.655 479.127Z" fill="#E7E5F2"/>
<path opacity="0.22" d="M443.109 533.711C444.549 533.711 445.716 532.544 445.716 531.105C445.716 529.665 444.549 528.498 443.109 528.498C441.67 528.498 440.503 529.665 440.503 531.105C440.503 532.544 441.67 533.711 443.109 533.711Z" fill="#E7E5F2"/>
<path opacity="0.22" d="M489.609 685.646C489.642 686.007 489.6 686.371 489.484 686.715C489.369 687.058 489.183 687.374 488.939 687.642C488.695 687.91 488.397 688.124 488.066 688.27C487.734 688.417 487.376 688.492 487.013 688.492C486.651 688.492 486.292 688.417 485.96 688.27C485.629 688.124 485.331 687.91 485.087 687.642C484.843 687.374 484.657 687.058 484.542 686.715C484.427 686.371 484.384 686.007 484.418 685.646C484.477 684.999 484.777 684.398 485.257 683.96C485.737 683.522 486.363 683.279 487.013 683.279C487.663 683.279 488.289 683.522 488.769 683.96C489.25 684.398 489.549 684.999 489.609 685.646V685.646Z" fill="#E7E5F2"/>
<path opacity="0.22" d="M630.366 727.374C631.806 727.374 632.973 726.207 632.973 724.767C632.973 723.328 631.806 722.161 630.366 722.161C628.926 722.161 627.759 723.328 627.759 724.767C627.759 726.207 628.926 727.374 630.366 727.374Z" fill="#E7E5F2"/>
<path opacity="0.22" d="M743.157 744.096C744.596 744.096 745.763 742.929 745.763 741.489C745.763 740.05 744.596 738.883 743.157 738.883C741.717 738.883 740.55 740.05 740.55 741.489C740.55 742.929 741.717 744.096 743.157 744.096Z" fill="#E7E5F2"/>
<path opacity="0.22" d="M787.867 752.402C787.872 752.918 787.722 753.424 787.439 753.856C787.155 754.287 786.749 754.625 786.273 754.826C785.798 755.026 785.273 755.081 784.766 754.983C784.259 754.885 783.792 754.638 783.425 754.275C783.059 753.911 782.808 753.447 782.706 752.94C782.603 752.434 782.654 751.909 782.85 751.431C783.047 750.954 783.381 750.545 783.81 750.258C784.239 749.971 784.744 749.817 785.261 749.817C785.948 749.817 786.608 750.089 787.096 750.573C787.584 751.057 787.861 751.714 787.867 752.402V752.402Z" fill="#E7E5F2"/>
<path opacity="0.22" d="M914.685 715.6C916.125 715.6 917.292 714.433 917.292 712.993C917.292 711.554 916.125 710.387 914.685 710.387C913.245 710.387 912.078 711.554 912.078 712.993C912.078 714.433 913.245 715.6 914.685 715.6Z" fill="#E7E5F2"/>
<path opacity="0.22" d="M925.509 633.757C925.509 634.272 925.356 634.776 925.07 635.205C924.783 635.634 924.376 635.968 923.9 636.165C923.424 636.362 922.899 636.414 922.394 636.313C921.888 636.213 921.424 635.965 921.059 635.6C920.695 635.235 920.446 634.771 920.346 634.265C920.245 633.76 920.297 633.236 920.494 632.759C920.691 632.283 921.025 631.876 921.454 631.59C921.883 631.303 922.387 631.15 922.902 631.15C923.245 631.147 923.586 631.213 923.903 631.343C924.221 631.473 924.509 631.664 924.752 631.907C924.995 632.15 925.187 632.438 925.317 632.756C925.446 633.073 925.512 633.414 925.509 633.757V633.757Z" fill="#E7E5F2"/>
<path opacity="0.22" d="M895.025 485.688C896.464 485.688 897.631 484.521 897.631 483.081C897.631 481.642 896.464 480.475 895.025 480.475C893.585 480.475 892.418 481.642 892.418 483.081C892.418 484.521 893.585 485.688 895.025 485.688Z" fill="#E7E5F2"/>
<path opacity="0.22" d="M861.935 453.569C861.939 454.086 861.79 454.592 861.506 455.023C861.222 455.455 860.817 455.792 860.341 455.993C859.865 456.194 859.34 456.248 858.833 456.15C858.326 456.052 857.86 455.806 857.493 455.442C857.126 455.079 856.876 454.614 856.773 454.108C856.671 453.602 856.721 453.076 856.918 452.599C857.114 452.121 857.449 451.713 857.878 451.426C858.307 451.138 858.812 450.985 859.328 450.985C860.016 450.985 860.675 451.256 861.164 451.74C861.652 452.224 861.929 452.882 861.935 453.569V453.569Z" fill="#E7E5F2"/>
<path opacity="0.22" d="M859.88 393.33C861.32 393.33 862.487 392.163 862.487 390.723C862.487 389.284 861.32 388.117 859.88 388.117C858.441 388.117 857.273 389.284 857.273 390.723C857.273 392.163 858.441 393.33 859.88 393.33Z" fill="#E7E5F2"/>
<path opacity="0.22" d="M527.051 414.161C527.084 414.522 527.042 414.886 526.927 415.229C526.812 415.573 526.626 415.889 526.382 416.157C526.137 416.425 525.84 416.639 525.508 416.785C525.177 416.931 524.818 417.007 524.456 417.007C524.093 417.007 523.734 416.931 523.403 416.785C523.071 416.639 522.774 416.425 522.529 416.157C522.285 415.889 522.1 415.573 521.984 415.229C521.869 414.886 521.827 414.522 521.86 414.161C521.92 413.514 522.219 412.912 522.699 412.474C523.179 412.037 523.806 411.794 524.456 411.794C525.105 411.794 525.732 412.037 526.212 412.474C526.692 412.912 526.991 413.514 527.051 414.161V414.161Z" fill="#E7E5F2"/>
<path opacity="0.22" d="M514.747 458.142C514.747 458.657 514.594 459.161 514.308 459.59C514.022 460.019 513.614 460.353 513.138 460.55C512.662 460.747 512.138 460.799 511.632 460.698C511.127 460.598 510.662 460.35 510.298 459.985C509.933 459.62 509.685 459.156 509.584 458.65C509.484 458.145 509.535 457.621 509.732 457.144C509.93 456.668 510.264 456.261 510.692 455.975C511.121 455.688 511.625 455.535 512.141 455.535C512.484 455.532 512.824 455.598 513.142 455.728C513.459 455.858 513.748 456.049 513.99 456.292C514.233 456.535 514.425 456.823 514.555 457.141C514.685 457.458 514.75 457.799 514.747 458.142Z" fill="#E7E5F2"/>
<path opacity="0.22" d="M517 568.658C517 569.174 516.847 569.679 516.559 570.108C516.272 570.537 515.863 570.871 515.386 571.068C514.908 571.265 514.383 571.315 513.877 571.213C513.371 571.11 512.906 570.86 512.542 570.493C512.179 570.126 511.932 569.66 511.834 569.153C511.736 568.646 511.791 568.121 511.992 567.645C512.192 567.169 512.53 566.763 512.961 566.48C513.393 566.196 513.899 566.047 514.416 566.051C514.757 566.051 515.095 566.119 515.41 566.25C515.725 566.381 516.011 566.574 516.251 566.816C516.491 567.058 516.681 567.346 516.81 567.662C516.938 567.978 517.003 568.316 517 568.658V568.658Z" fill="#E7E5F2"/>
<path opacity="0.22" d="M828.335 686.154C829.775 686.154 830.942 684.987 830.942 683.547C830.942 682.108 829.775 680.941 828.335 680.941C826.896 680.941 825.729 682.108 825.729 683.547C825.729 684.987 826.896 686.154 828.335 686.154Z" fill="#E7E5F2"/>
<path opacity="0.22" d="M858.025 654.19C858.029 654.706 857.88 655.213 857.596 655.644C857.313 656.076 856.907 656.413 856.431 656.614C855.955 656.815 855.43 656.869 854.923 656.771C854.416 656.673 853.95 656.427 853.583 656.063C853.216 655.699 852.966 655.235 852.863 654.729C852.761 654.223 852.811 653.697 853.008 653.22C853.205 652.742 853.539 652.334 853.968 652.046C854.397 651.759 854.902 651.605 855.418 651.605C856.106 651.605 856.765 651.877 857.254 652.361C857.742 652.845 858.019 653.503 858.025 654.19V654.19Z" fill="#E7E5F2"/>
<path opacity="0.22" d="M882.809 637.777C884.249 637.777 885.416 636.61 885.416 635.171C885.416 633.731 884.249 632.564 882.809 632.564C881.37 632.564 880.203 633.731 880.203 635.171C880.203 636.61 881.37 637.777 882.809 637.777Z" fill="#E7E5F2"/>
<path opacity="0.22" d="M942.164 606.122C942.198 606.483 942.155 606.847 942.04 607.191C941.925 607.535 941.739 607.85 941.495 608.118C941.251 608.386 940.953 608.6 940.622 608.747C940.29 608.893 939.931 608.969 939.569 608.969C939.206 608.969 938.848 608.893 938.516 608.747C938.185 608.6 937.887 608.386 937.643 608.118C937.399 607.85 937.213 607.535 937.098 607.191C936.982 606.847 936.94 606.483 936.973 606.122C937.033 605.475 937.332 604.874 937.813 604.436C938.293 603.998 938.919 603.755 939.569 603.755C940.219 603.755 940.845 603.998 941.325 604.436C941.805 604.874 942.105 605.475 942.164 606.122V606.122Z" fill="#E7E5F2"/>
<path opacity="0.22" d="M977.222 551.892C977.226 552.409 977.076 552.916 976.792 553.348C976.507 553.78 976.1 554.117 975.623 554.317C975.146 554.517 974.62 554.571 974.112 554.471C973.604 554.371 973.138 554.123 972.772 553.757C972.406 553.391 972.157 552.924 972.058 552.417C971.958 551.909 972.011 551.383 972.211 550.906C972.411 550.429 972.749 550.022 973.181 549.737C973.613 549.452 974.12 549.303 974.637 549.307C975.323 549.307 975.98 549.579 976.465 550.064C976.949 550.549 977.222 551.206 977.222 551.892Z" fill="#E7E5F2"/>
<path opacity="0.22" d="M987.781 499.737C989.221 499.737 990.388 498.57 990.388 497.131C990.388 495.691 989.221 494.524 987.781 494.524C986.341 494.524 985.174 495.691 985.174 497.131C985.174 498.57 986.341 499.737 987.781 499.737Z" fill="#E7E5F2"/>
<path opacity="0.22" d="M995.092 465.299C995.096 465.816 994.947 466.323 994.662 466.755C994.377 467.187 993.97 467.525 993.493 467.725C993.016 467.925 992.49 467.978 991.982 467.879C991.475 467.779 991.008 467.53 990.642 467.164C990.277 466.798 990.028 466.332 989.928 465.824C989.828 465.316 989.882 464.79 990.082 464.313C990.282 463.836 990.619 463.429 991.051 463.145C991.483 462.86 991.99 462.71 992.508 462.714C993.193 462.714 993.85 462.987 994.335 463.471C994.82 463.956 995.092 464.614 995.092 465.299V465.299Z" fill="#E7E5F2"/>
<path opacity="0.22" d="M937.769 463.863C937.773 464.381 937.624 464.888 937.339 465.32C937.054 465.752 936.647 466.089 936.17 466.289C935.693 466.489 935.167 466.543 934.659 466.443C934.152 466.343 933.685 466.094 933.319 465.728C932.953 465.362 932.705 464.896 932.605 464.388C932.505 463.881 932.558 463.355 932.758 462.878C932.958 462.4 933.296 461.993 933.728 461.709C934.16 461.424 934.667 461.274 935.184 461.279C935.87 461.279 936.527 461.551 937.012 462.036C937.497 462.52 937.769 463.178 937.769 463.863Z" fill="#E7E5F2"/>
<path opacity="0.22" d="M960.08 406.451C961.52 406.451 962.687 405.284 962.687 403.845C962.687 402.405 961.52 401.238 960.08 401.238C958.64 401.238 957.473 402.405 957.473 403.845C957.473 405.284 958.64 406.451 960.08 406.451Z" fill="#E7E5F2"/>
<path opacity="0.22" d="M971.059 409.5C971.059 410.016 970.905 410.521 970.618 410.95C970.33 411.379 969.922 411.713 969.444 411.91C968.967 412.107 968.442 412.157 967.935 412.055C967.429 411.952 966.965 411.702 966.601 411.335C966.237 410.968 965.991 410.502 965.893 409.995C965.795 409.488 965.85 408.963 966.05 408.487C966.251 408.011 966.588 407.605 967.02 407.322C967.452 407.038 967.958 406.889 968.474 406.893C968.815 406.893 969.153 406.961 969.468 407.092C969.783 407.223 970.069 407.416 970.31 407.658C970.55 407.9 970.74 408.188 970.868 408.504C970.997 408.82 971.062 409.158 971.059 409.5V409.5Z" fill="#E7E5F2"/>
<path opacity="0.22" d="M1041.64 528.609C1041.64 529.124 1041.48 529.628 1041.2 530.057C1040.91 530.485 1040.5 530.82 1040.03 531.017C1039.55 531.214 1039.03 531.266 1038.52 531.165C1038.02 531.065 1037.55 530.816 1037.19 530.452C1036.82 530.087 1036.57 529.623 1036.47 529.117C1036.37 528.612 1036.42 528.087 1036.62 527.611C1036.82 527.135 1037.15 526.728 1037.58 526.441C1038.01 526.155 1038.51 526.002 1039.03 526.002C1039.72 526.002 1040.38 526.277 1040.87 526.766C1041.36 527.254 1041.64 527.917 1041.64 528.609Z" fill="#E7E5F2"/>
<path opacity="0.22" d="M1009.32 588.075C1010.76 588.075 1011.92 586.908 1011.92 585.468C1011.92 584.029 1010.76 582.862 1009.32 582.862C1007.88 582.862 1006.71 584.029 1006.71 585.468C1006.71 586.908 1007.88 588.075 1009.32 588.075Z" fill="#E7E5F2"/>
<path opacity="0.22" d="M1007.37 582.221C1007.37 582.737 1007.22 583.242 1006.93 583.671C1006.65 584.101 1006.24 584.435 1005.76 584.631C1005.28 584.828 1004.76 584.878 1004.25 584.776C1003.75 584.673 1003.28 584.423 1002.92 584.056C1002.55 583.689 1002.31 583.223 1002.21 582.716C1002.11 582.209 1002.17 581.684 1002.37 581.208C1002.57 580.732 1002.9 580.327 1003.34 580.043C1003.77 579.759 1004.27 579.61 1004.79 579.614C1005.13 579.614 1005.47 579.682 1005.78 579.813C1006.1 579.944 1006.39 580.137 1006.63 580.379C1006.87 580.621 1007.06 580.909 1007.18 581.225C1007.31 581.541 1007.38 581.88 1007.37 582.221V582.221Z" fill="#E7E5F2"/>
<path opacity="0.22" d="M927.232 771.974C928.671 771.974 929.838 770.807 929.838 769.367C929.838 767.927 928.671 766.76 927.232 766.76C925.792 766.76 924.625 767.927 924.625 769.367C924.625 770.807 925.792 771.974 927.232 771.974Z" fill="#E7E5F2"/>
<path opacity="0.42" d="M541.388 241.484C542.827 241.484 543.994 240.317 543.994 238.877C543.994 237.438 542.827 236.271 541.388 236.271C539.948 236.271 538.781 237.438 538.781 238.877C538.781 240.317 539.948 241.484 541.388 241.484Z" fill="#E7E5F2"/>
<path opacity="0.42" d="M688.131 287.276C688.131 287.792 687.978 288.296 687.691 288.724C687.405 289.153 686.998 289.487 686.522 289.684C686.045 289.882 685.521 289.933 685.016 289.833C684.51 289.732 684.046 289.484 683.681 289.119C683.316 288.755 683.068 288.29 682.968 287.785C682.867 287.279 682.919 286.755 683.116 286.279C683.313 285.802 683.647 285.395 684.076 285.109C684.505 284.822 685.009 284.67 685.524 284.67C685.867 284.667 686.208 284.732 686.525 284.862C686.843 284.992 687.131 285.184 687.374 285.426C687.617 285.669 687.808 285.958 687.938 286.275C688.068 286.593 688.134 286.933 688.131 287.276Z" fill="#E7E5F2"/>
<path opacity="0.42" d="M837.988 368.346C837.988 368.862 837.836 369.366 837.549 369.794C837.263 370.223 836.856 370.557 836.379 370.754C835.903 370.952 835.379 371.003 834.873 370.903C834.368 370.802 833.903 370.554 833.539 370.189C833.174 369.825 832.926 369.36 832.825 368.855C832.725 368.349 832.776 367.825 832.974 367.349C833.171 366.872 833.505 366.465 833.934 366.179C834.362 365.892 834.866 365.74 835.382 365.74C835.725 365.737 836.065 365.802 836.383 365.932C836.7 366.062 836.989 366.254 837.232 366.497C837.474 366.739 837.666 367.028 837.796 367.345C837.926 367.663 837.991 368.003 837.988 368.346V368.346Z" fill="#E7E5F2"/>
<path opacity="0.42" d="M506.816 524.279C506.816 524.795 506.664 525.299 506.377 525.727C506.091 526.156 505.684 526.49 505.207 526.687C504.731 526.885 504.207 526.936 503.701 526.836C503.196 526.735 502.731 526.487 502.367 526.122C502.002 525.758 501.754 525.293 501.653 524.788C501.553 524.282 501.604 523.758 501.802 523.282C501.999 522.805 502.333 522.398 502.762 522.112C503.19 521.825 503.694 521.672 504.21 521.672C504.553 521.67 504.893 521.735 505.211 521.865C505.528 521.995 505.817 522.187 506.06 522.429C506.302 522.672 506.494 522.96 506.624 523.278C506.754 523.596 506.819 523.936 506.816 524.279Z" fill="#E7E5F2"/>
<path opacity="0.42" d="M875.387 493.419C875.387 493.935 875.234 494.439 874.948 494.868C874.661 495.296 874.254 495.63 873.778 495.828C873.302 496.025 872.777 496.077 872.272 495.976C871.766 495.875 871.302 495.627 870.937 495.263C870.573 494.898 870.324 494.434 870.224 493.928C870.123 493.422 870.175 492.898 870.372 492.422C870.569 491.946 870.904 491.539 871.332 491.252C871.761 490.966 872.265 490.813 872.78 490.813C873.123 490.81 873.464 490.875 873.781 491.005C874.099 491.135 874.387 491.327 874.63 491.57C874.873 491.812 875.065 492.101 875.195 492.418C875.325 492.736 875.39 493.076 875.387 493.419V493.419Z" fill="#E7E5F2"/>
<path opacity="0.42" d="M900.127 422.93C901.567 422.93 902.734 421.763 902.734 420.324C902.734 418.884 901.567 417.717 900.127 417.717C898.688 417.717 897.521 418.884 897.521 420.324C897.521 421.763 898.688 422.93 900.127 422.93Z" fill="#E7E5F2"/>
<path opacity="0.42" d="M792.218 291.23C792.251 291.591 792.209 291.955 792.094 292.299C791.979 292.643 791.793 292.959 791.549 293.227C791.304 293.494 791.007 293.708 790.675 293.855C790.344 294.001 789.985 294.077 789.623 294.077C789.26 294.077 788.902 294.001 788.57 293.855C788.238 293.708 787.941 293.494 787.697 293.227C787.452 292.959 787.267 292.643 787.151 292.299C787.036 291.955 786.994 291.591 787.027 291.23C787.087 290.583 787.386 289.982 787.866 289.544C788.346 289.106 788.973 288.864 789.623 288.864C790.272 288.864 790.899 289.106 791.379 289.544C791.859 289.982 792.158 290.583 792.218 291.23V291.23Z" fill="#E7E5F2"/>
<path opacity="0.42" d="M837.613 218.709C839.053 218.709 840.22 217.542 840.22 216.102C840.22 214.663 839.053 213.496 837.613 213.496C836.173 213.496 835.006 214.663 835.006 216.102C835.006 217.542 836.173 218.709 837.613 218.709Z" fill="#E7E5F2"/>
<path opacity="0.42" d="M643.752 189.219C645.192 189.219 646.359 188.052 646.359 186.612C646.359 185.173 645.192 184.006 643.752 184.006C642.312 184.006 641.145 185.173 641.145 186.612C641.145 188.052 642.312 189.219 643.752 189.219Z" fill="#E7E5F2"/>
<path opacity="0.42" d="M646.336 234.989C646.37 235.35 646.327 235.714 646.212 236.058C646.097 236.402 645.911 236.718 645.667 236.985C645.422 237.253 645.125 237.467 644.793 237.614C644.462 237.76 644.103 237.836 643.741 237.836C643.378 237.836 643.02 237.76 642.688 237.614C642.356 237.467 642.059 237.253 641.815 236.985C641.57 236.718 641.385 236.402 641.269 236.058C641.154 235.714 641.112 235.35 641.145 234.989C641.205 234.342 641.504 233.741 641.984 233.303C642.465 232.865 643.091 232.622 643.741 232.622C644.391 232.622 645.017 232.865 645.497 233.303C645.977 233.741 646.277 234.342 646.336 234.989V234.989Z" fill="#E7E5F2"/>
<path opacity="0.42" d="M995.755 566.581C997.195 566.581 998.362 565.414 998.362 563.975C998.362 562.535 997.195 561.368 995.755 561.368C994.316 561.368 993.148 562.535 993.148 563.975C993.148 565.414 994.316 566.581 995.755 566.581Z" fill="#E7E5F2"/>
<path opacity="0.42" d="M956.656 705.483C956.656 705.998 956.503 706.502 956.217 706.931C955.93 707.36 955.523 707.694 955.047 707.891C954.571 708.088 954.047 708.14 953.541 708.039C953.035 707.939 952.571 707.69 952.206 707.326C951.842 706.961 951.594 706.497 951.493 705.991C951.392 705.486 951.444 704.961 951.641 704.485C951.839 704.009 952.173 703.602 952.601 703.315C953.03 703.029 953.534 702.876 954.05 702.876C954.741 702.876 955.404 703.151 955.893 703.64C956.382 704.128 956.656 704.791 956.656 705.483V705.483Z" fill="#E7E5F2"/>
<path opacity="0.42" d="M958.246 814.386C959.686 814.386 960.853 813.219 960.853 811.78C960.853 810.34 959.686 809.173 958.246 809.173C956.807 809.173 955.639 810.34 955.639 811.78C955.639 813.219 956.807 814.386 958.246 814.386Z" fill="#E7E5F2"/>
<path opacity="0.42" d="M809.213 886.607C809.213 887.122 809.06 887.626 808.774 888.055C808.487 888.483 808.08 888.818 807.604 889.015C807.128 889.212 806.604 889.264 806.098 889.163C805.592 889.063 805.128 888.814 804.763 888.45C804.399 888.085 804.151 887.621 804.05 887.115C803.949 886.609 804.001 886.085 804.198 885.609C804.396 885.133 804.73 884.726 805.158 884.439C805.587 884.153 806.091 884 806.607 884C807.298 884 807.961 884.275 808.45 884.763C808.939 885.252 809.213 885.915 809.213 886.607V886.607Z" fill="#E7E5F2"/>
<path opacity="0.42" d="M703.607 933.213C705.046 933.213 706.213 932.046 706.213 930.607C706.213 929.167 705.046 928 703.607 928C702.167 928 701 929.167 701 930.607C701 932.046 702.167 933.213 703.607 933.213Z" fill="#E7E5F2"/>
<path opacity="0.42" d="M653.671 843.655C655.11 843.655 656.277 842.488 656.277 841.049C656.277 839.609 655.11 838.442 653.671 838.442C652.231 838.442 651.064 839.609 651.064 841.049C651.064 842.488 652.231 843.655 653.671 843.655Z" fill="#E7E5F2"/>
<path opacity="0.42" d="M559.607 952.213C561.046 952.213 562.213 951.046 562.213 949.607C562.213 948.167 561.046 947 559.607 947C558.167 947 557 948.167 557 949.607C557 951.046 558.167 952.213 559.607 952.213Z" fill="#E7E5F2"/>
<path opacity="0.42" d="M727.893 780.103C727.893 780.618 727.74 781.122 727.453 781.551C727.167 781.979 726.76 782.313 726.283 782.511C725.807 782.708 725.283 782.76 724.777 782.659C724.272 782.558 723.807 782.31 723.443 781.946C723.078 781.581 722.83 781.117 722.729 780.611C722.629 780.105 722.68 779.581 722.878 779.105C723.075 778.629 723.409 778.222 723.838 777.935C724.267 777.649 724.77 777.496 725.286 777.496C725.977 777.496 726.64 777.771 727.129 778.259C727.618 778.748 727.893 779.411 727.893 780.103V780.103Z" fill="#E7E5F2"/>
<path opacity="0.42" d="M687.07 791.17C688.51 791.17 689.677 790.003 689.677 788.563C689.677 787.123 688.51 785.956 687.07 785.956C685.631 785.956 684.464 787.123 684.464 788.563C684.464 790.003 685.631 791.17 687.07 791.17Z" fill="#E7E5F2"/>
<path opacity="0.42" d="M212.607 683.213C214.046 683.213 215.213 682.046 215.213 680.607C215.213 679.167 214.046 678 212.607 678C211.167 678 210 679.167 210 680.607C210 682.046 211.167 683.213 212.607 683.213Z" fill="#E7E5F2"/>
<path opacity="0.42" d="M442.607 835.213C444.046 835.213 445.213 834.046 445.213 832.607C445.213 831.167 444.046 830 442.607 830C441.167 830 440 831.167 440 832.607C440 834.046 441.167 835.213 442.607 835.213Z" fill="#E7E5F2"/>
<path opacity="0.42" d="M571.297 699.298C571.301 699.814 571.152 700.32 570.868 700.752C570.584 701.183 570.179 701.521 569.703 701.722C569.227 701.922 568.702 701.977 568.195 701.879C567.688 701.781 567.222 701.534 566.855 701.171C566.488 700.807 566.238 700.343 566.135 699.836C566.033 699.33 566.083 698.805 566.28 698.327C566.476 697.85 566.811 697.441 567.24 697.154C567.669 696.867 568.174 696.713 568.69 696.713C569.378 696.713 570.037 696.985 570.525 697.469C571.014 697.953 571.291 698.61 571.297 699.298V699.298Z" fill="#E7E5F2"/>
<path opacity="0.42" d="M500.013 571.065C501.453 571.065 502.62 569.898 502.62 568.459C502.62 567.019 501.453 565.852 500.013 565.852C498.574 565.852 497.407 567.019 497.407 568.459C497.407 569.898 498.574 571.065 500.013 571.065Z" fill="#E7E5F2"/>
<path opacity="0.42" d="M379.468 563.953C379.468 564.469 379.315 564.974 379.027 565.403C378.74 565.832 378.332 566.166 377.854 566.363C377.376 566.559 376.851 566.61 376.345 566.507C375.839 566.405 375.374 566.154 375.011 565.788C374.647 565.421 374.4 564.954 374.302 564.447C374.204 563.94 374.259 563.416 374.46 562.94C374.66 562.464 374.998 562.058 375.43 561.774C375.861 561.491 376.367 561.342 376.884 561.346C377.225 561.346 377.563 561.413 377.878 561.545C378.193 561.676 378.479 561.868 378.719 562.111C378.959 562.353 379.149 562.641 379.278 562.957C379.406 563.273 379.471 563.611 379.468 563.953V563.953Z" fill="#E7E5F2"/>
<path opacity="0.42" d="M170.277 55.089C170.31 55.4499 170.268 55.8139 170.152 56.1576C170.037 56.5013 169.851 56.8172 169.607 57.085C169.363 57.3529 169.065 57.5668 168.734 57.7132C168.402 57.8596 168.044 57.9353 167.681 57.9353C167.319 57.9353 166.96 57.8596 166.628 57.7132C166.297 57.5668 165.999 57.3529 165.755 57.085C165.511 56.8172 165.325 56.5013 165.21 56.1576C165.094 55.8139 165.052 55.4499 165.086 55.089C165.145 54.4419 165.445 53.8405 165.925 53.4026C166.405 52.9648 167.031 52.722 167.681 52.722C168.331 52.722 168.957 52.9648 169.437 53.4026C169.918 53.8405 170.217 54.4419 170.277 55.089V55.089Z" fill="#E7E5F2"/>
<path opacity="0.42" d="M314.435 103.488C314.435 104.004 314.282 104.508 313.996 104.936C313.71 105.365 313.302 105.699 312.826 105.896C312.35 106.094 311.826 106.145 311.32 106.045C310.815 105.944 310.35 105.696 309.985 105.331C309.621 104.967 309.373 104.502 309.272 103.997C309.172 103.491 309.223 102.967 309.42 102.491C309.618 102.014 309.952 101.607 310.381 101.321C310.809 101.034 311.313 100.881 311.829 100.881C312.171 100.881 312.51 100.949 312.826 101.08C313.142 101.211 313.43 101.403 313.672 101.645C313.914 101.887 314.106 102.174 314.237 102.491C314.368 102.807 314.435 103.146 314.435 103.488V103.488Z" fill="#E7E5F2"/>
<path opacity="0.42" d="M148.96 164.39C150.4 164.39 151.567 163.223 151.567 161.783C151.567 160.344 150.4 159.177 148.96 159.177C147.52 159.177 146.353 160.344 146.353 161.783C146.353 163.223 147.52 164.39 148.96 164.39Z" fill="#E7E5F2"/>
<path opacity="0.42" d="M464.293 184.558C464.293 185.074 464.141 185.578 463.854 186.006C463.568 186.435 463.161 186.769 462.684 186.966C462.208 187.164 461.684 187.215 461.178 187.115C460.673 187.014 460.208 186.766 459.844 186.401C459.479 186.037 459.231 185.572 459.13 185.067C459.03 184.561 459.081 184.037 459.279 183.561C459.476 183.084 459.81 182.677 460.239 182.391C460.667 182.104 461.171 181.951 461.687 181.951C462.378 181.951 463.041 182.226 463.53 182.715C464.019 183.204 464.293 183.867 464.293 184.558V184.558Z" fill="#E7E5F2"/>
<path opacity="0.42" d="M139.607 354.213C141.046 354.213 142.213 353.046 142.213 351.607C142.213 350.167 141.046 349 139.607 349C138.167 349 137 350.167 137 351.607C137 353.046 138.167 354.213 139.607 354.213Z" fill="#E7E5F2"/>
<path opacity="0.42" d="M51.6066 269.213C53.0462 269.213 54.2132 268.046 54.2132 266.607C54.2132 265.167 53.0462 264 51.6066 264C50.167 264 49 265.167 49 266.607C49 268.046 50.167 269.213 51.6066 269.213Z" fill="#E7E5F2"/>
<path opacity="0.42" d="M501.691 309.587C501.691 310.103 501.538 310.607 501.252 311.035C500.966 311.464 500.559 311.798 500.082 311.995C499.606 312.193 499.082 312.244 498.576 312.144C498.071 312.043 497.606 311.795 497.242 311.43C496.877 311.066 496.629 310.601 496.528 310.096C496.428 309.59 496.479 309.066 496.677 308.59C496.874 308.113 497.208 307.706 497.637 307.42C498.065 307.133 498.569 306.98 499.085 306.98C499.776 306.98 500.439 307.255 500.928 307.744C501.417 308.233 501.691 308.896 501.691 309.587V309.587Z" fill="#E7E5F2"/>
<path opacity="0.42" d="M529.017 236.536C529.05 236.897 529.008 237.261 528.893 237.604C528.777 237.948 528.592 238.264 528.347 238.532C528.103 238.8 527.806 239.014 527.474 239.16C527.142 239.306 526.784 239.382 526.421 239.382C526.059 239.382 525.7 239.306 525.369 239.16C525.037 239.014 524.74 238.8 524.495 238.532C524.251 238.264 524.065 237.948 523.95 237.604C523.835 237.261 523.792 236.897 523.826 236.536C523.886 235.889 524.185 235.287 524.665 234.849C525.145 234.411 525.772 234.169 526.421 234.169C527.071 234.169 527.698 234.411 528.178 234.849C528.658 235.287 528.957 235.889 529.017 236.536V236.536Z" fill="#E7E5F2"/>
<path opacity="0.42" d="M418.523 107.464C418.523 107.98 418.37 108.484 418.084 108.912C417.798 109.341 417.39 109.675 416.914 109.872C416.438 110.07 415.914 110.121 415.408 110.021C414.903 109.92 414.438 109.672 414.074 109.307C413.709 108.943 413.461 108.478 413.36 107.973C413.26 107.467 413.311 106.943 413.508 106.467C413.706 105.99 414.04 105.583 414.469 105.297C414.897 105.011 415.401 104.858 415.917 104.858C416.26 104.855 416.6 104.92 416.918 105.05C417.235 105.18 417.524 105.372 417.766 105.615C418.009 105.857 418.201 106.146 418.331 106.463C418.461 106.781 418.526 107.121 418.523 107.464Z" fill="#E7E5F2"/>
<path opacity="0.42" d="M466.503 32.3143C466.503 32.8308 466.349 33.3356 466.062 33.7647C465.774 34.1938 465.366 34.5279 464.888 34.7245C464.411 34.9211 463.886 34.9715 463.379 34.8691C462.873 34.7667 462.409 34.5162 462.045 34.1495C461.681 33.7827 461.435 33.3162 461.337 32.8091C461.239 32.3021 461.294 31.7773 461.494 31.3014C461.695 30.8255 462.032 30.4199 462.464 30.1362C462.896 29.8524 463.402 29.7033 463.918 29.7077C464.259 29.7077 464.597 29.7752 464.912 29.9065C465.227 30.0378 465.513 30.2301 465.754 30.4725C465.994 30.7148 466.184 31.0023 466.312 31.3185C466.441 31.6346 466.506 31.973 466.503 32.3143Z" fill="#E7E5F2"/>
<path opacity="0.42" d="M272.642 2.84631C272.582 3.49338 272.282 4.09479 271.802 4.53265C271.322 4.9705 270.696 5.21322 270.046 5.21322C269.396 5.21322 268.77 4.9705 268.29 4.53265C267.809 4.09479 267.51 3.49338 267.45 2.84631C267.417 2.48533 267.459 2.12137 267.575 1.77768C267.69 1.43398 267.876 1.11811 268.12 0.850248C268.364 0.582384 268.662 0.368418 268.993 0.222017C269.325 0.0756152 269.683 0 270.046 0C270.408 0 270.767 0.0756152 271.099 0.222017C271.43 0.368418 271.728 0.582384 271.972 0.850248C272.216 1.11811 272.402 1.43398 272.517 1.77768C272.633 2.12137 272.675 2.48533 272.642 2.84631V2.84631Z" fill="#E7E5F2"/>
<path opacity="0.42" d="M272.641 51.1349C272.641 51.6504 272.488 52.1544 272.202 52.5831C271.915 53.0117 271.508 53.3458 271.032 53.5431C270.556 53.7404 270.032 53.792 269.526 53.6914C269.02 53.5909 268.556 53.3426 268.191 52.9781C267.827 52.6135 267.579 52.1491 267.478 51.6434C267.377 51.1378 267.429 50.6137 267.626 50.1374C267.824 49.6611 268.158 49.254 268.586 48.9676C269.015 48.6812 269.519 48.5283 270.035 48.5283C270.378 48.5253 270.718 48.5908 271.036 48.7207C271.353 48.8507 271.642 49.0426 271.884 49.2852C272.127 49.5278 272.319 49.8163 272.449 50.1339C272.579 50.4515 272.644 50.7918 272.641 51.1349V51.1349Z" fill="#E7E5F2"/>
<path opacity="0.42" d="M622.06 382.815C623.5 382.815 624.667 381.648 624.667 380.208C624.667 378.769 623.5 377.602 622.06 377.602C620.62 377.602 619.453 378.769 619.453 380.208C619.453 381.648 620.62 382.815 622.06 382.815Z" fill="#E7E5F2"/>
<path opacity="0.42" d="M582.938 521.65C582.879 522.297 582.579 522.899 582.099 523.337C581.619 523.774 580.993 524.017 580.343 524.017C579.693 524.017 579.067 523.774 578.587 523.337C578.106 522.899 577.807 522.297 577.747 521.65C577.714 521.289 577.756 520.925 577.872 520.582C577.987 520.238 578.173 519.922 578.417 519.654C578.661 519.386 578.959 519.172 579.29 519.026C579.622 518.88 579.98 518.804 580.343 518.804C580.705 518.804 581.064 518.88 581.396 519.026C581.727 519.172 582.025 519.386 582.269 519.654C582.513 519.922 582.699 520.238 582.814 520.582C582.929 520.925 582.972 521.289 582.938 521.65V521.65Z" fill="#E7E5F2"/>
<path opacity="0.42" d="M587.113 627.991C587.147 628.352 587.104 628.716 586.989 629.06C586.874 629.404 586.688 629.719 586.444 629.987C586.199 630.255 585.902 630.469 585.57 630.615C585.239 630.762 584.88 630.838 584.518 630.838C584.155 630.838 583.797 630.762 583.465 630.615C583.133 630.469 582.836 630.255 582.592 629.987C582.347 629.719 582.162 629.404 582.046 629.06C581.931 628.716 581.889 628.352 581.922 627.991C581.982 627.344 582.281 626.743 582.761 626.305C583.241 625.867 583.868 625.624 584.518 625.624C585.168 625.624 585.794 625.867 586.274 626.305C586.754 626.743 587.054 627.344 587.113 627.991V627.991Z" fill="#E7E5F2"/>
<path opacity="0.42" d="M397.361 718.295C398.8 718.295 399.967 717.128 399.967 715.688C399.967 714.249 398.8 713.082 397.361 713.082C395.921 713.082 394.754 714.249 394.754 715.688C394.754 717.128 395.921 718.295 397.361 718.295Z" fill="#E7E5F2"/>
<path opacity="0.42" d="M97.6066 917.213C99.0462 917.213 100.213 916.046 100.213 914.607C100.213 913.167 99.0462 912 97.6066 912C96.167 912 95 913.167 95 914.607C95 916.046 96.167 917.213 97.6066 917.213Z" fill="#E7E5F2"/>
<path opacity="0.42" d="M56.2022 745.846C56.1424 746.493 55.8431 747.095 55.363 747.533C54.8828 747.971 54.2564 748.213 53.6066 748.213C52.9568 748.213 52.3304 747.971 51.8502 747.533C51.3701 747.095 51.0708 746.493 51.011 745.846C50.9777 745.485 51.02 745.121 51.1353 744.778C51.2506 744.434 51.4363 744.118 51.6806 743.85C51.9249 743.582 52.2223 743.368 52.5539 743.222C52.8856 743.076 53.2441 743 53.6066 743C53.9691 743 54.3277 743.076 54.6593 743.222C54.9909 743.368 55.2884 743.582 55.5326 743.85C55.7769 744.118 55.9626 744.434 56.0779 744.778C56.1932 745.121 56.2355 745.485 56.2022 745.846V745.846Z" fill="#E7E5F2"/>
<path opacity="0.42" d="M370.853 644.713C370.858 645.23 370.708 645.736 370.425 646.168C370.141 646.599 369.735 646.937 369.259 647.137C368.784 647.338 368.259 647.393 367.752 647.295C367.245 647.197 366.778 646.95 366.411 646.586C366.045 646.223 365.794 645.758 365.692 645.252C365.589 644.746 365.64 644.221 365.836 643.743C366.033 643.266 366.367 642.857 366.796 642.57C367.225 642.282 367.73 642.129 368.247 642.129C368.934 642.129 369.594 642.4 370.082 642.885C370.57 643.369 370.847 644.026 370.853 644.713V644.713Z" fill="#E7E5F2"/>
<path opacity="0.42" d="M315.982 604.775C315.982 605.29 315.829 605.794 315.542 606.223C315.256 606.652 314.849 606.986 314.373 607.183C313.896 607.38 313.372 607.432 312.867 607.331C312.361 607.231 311.897 606.982 311.532 606.618C311.167 606.253 310.919 605.789 310.819 605.283C310.718 604.778 310.77 604.253 310.967 603.777C311.164 603.301 311.498 602.894 311.927 602.607C312.356 602.321 312.86 602.168 313.375 602.168C313.717 602.168 314.056 602.235 314.373 602.366C314.689 602.497 314.976 602.689 315.218 602.932C315.46 603.174 315.652 603.461 315.783 603.777C315.914 604.093 315.982 604.432 315.982 604.775V604.775Z" fill="#E7E5F2"/>
<path opacity="0.42" d="M18.0769 576.61C19.5165 576.61 20.6836 575.443 20.6836 574.003C20.6836 572.564 19.5165 571.397 18.0769 571.397C16.6374 571.397 15.4703 572.564 15.4703 574.003C15.4703 575.443 16.6374 576.61 18.0769 576.61Z" fill="#E7E5F2"/>
<path opacity="0.42" d="M197.58 515.532C197.58 516.048 197.426 516.553 197.139 516.982C196.851 517.411 196.443 517.745 195.965 517.942C195.488 518.138 194.963 518.189 194.456 518.086C193.95 517.984 193.486 517.733 193.122 517.367C192.758 517 192.512 516.533 192.414 516.026C192.316 515.519 192.371 514.994 192.571 514.519C192.772 514.043 193.109 513.637 193.541 513.353C193.973 513.07 194.479 512.921 194.995 512.925C195.336 512.925 195.674 512.992 195.989 513.124C196.304 513.255 196.59 513.447 196.831 513.69C197.071 513.932 197.261 514.22 197.389 514.536C197.518 514.852 197.583 515.19 197.58 515.532V515.532Z" fill="#E7E5F2"/>
<path opacity="0.42" d="M5.86142 380.275C5.86142 380.79 5.70854 381.294 5.42213 381.723C5.13571 382.151 4.72861 382.486 4.25232 382.683C3.77602 382.88 3.25191 382.932 2.74628 382.831C2.24065 382.731 1.77619 382.482 1.41165 382.118C1.04711 381.753 0.798856 381.289 0.698279 380.783C0.597702 380.278 0.649325 379.753 0.846613 379.277C1.0439 378.801 1.378 378.394 1.80665 378.107C2.23531 377.821 2.73926 377.668 3.2548 377.668C3.59793 377.665 3.93821 377.731 4.25579 377.86C4.57337 377.99 4.86189 378.182 5.10453 378.425C5.34716 378.668 5.53905 378.956 5.669 379.274C5.79895 379.591 5.86436 379.932 5.86142 380.275V380.275Z" fill="#E7E5F2"/>
<path opacity="0.42" d="M941.613 309.697C941.617 310.215 941.467 310.722 941.183 311.154C940.898 311.586 940.491 311.923 940.014 312.123C939.537 312.323 939.011 312.377 938.503 312.277C937.995 312.177 937.529 311.928 937.163 311.563C936.797 311.197 936.548 310.73 936.449 310.223C936.349 309.715 936.402 309.189 936.602 308.712C936.802 308.235 937.14 307.828 937.572 307.543C938.004 307.258 938.511 307.109 939.028 307.113C939.714 307.113 940.371 307.385 940.856 307.87C941.34 308.355 941.613 309.012 941.613 309.697V309.697Z" fill="#E7E5F2"/>
<path opacity="0.42" d="M1085.77 358.185C1085.77 358.701 1085.62 359.204 1085.33 359.633C1085.05 360.062 1084.64 360.396 1084.16 360.593C1083.69 360.79 1083.16 360.842 1082.66 360.742C1082.15 360.641 1081.69 360.393 1081.32 360.028C1080.96 359.664 1080.71 359.199 1080.61 358.693C1080.51 358.188 1080.56 357.664 1080.76 357.187C1080.95 356.711 1081.29 356.304 1081.72 356.018C1082.15 355.731 1082.65 355.578 1083.17 355.578C1083.86 355.578 1084.52 355.853 1085.01 356.342C1085.5 356.831 1085.77 357.494 1085.77 358.185V358.185Z" fill="#E7E5F2"/>
<path opacity="0.42" d="M922.881 416.392C922.881 416.908 922.727 417.413 922.44 417.842C922.152 418.271 921.744 418.605 921.266 418.802C920.789 418.999 920.264 419.049 919.757 418.947C919.251 418.844 918.787 418.594 918.423 418.227C918.059 417.86 917.813 417.394 917.715 416.887C917.617 416.38 917.672 415.855 917.872 415.379C918.073 414.903 918.41 414.497 918.842 414.214C919.274 413.93 919.78 413.781 920.296 413.785C920.637 413.785 920.975 413.853 921.29 413.984C921.605 414.115 921.891 414.308 922.131 414.55C922.372 414.792 922.562 415.08 922.69 415.396C922.819 415.712 922.884 416.05 922.881 416.392V416.392Z" fill="#E7E5F2"/>
<path opacity="0.42" d="M948.085 372.455C948.085 372.97 947.932 373.474 947.645 373.903C947.359 374.332 946.952 374.666 946.476 374.863C945.999 375.06 945.475 375.112 944.97 375.011C944.464 374.911 943.999 374.663 943.635 374.298C943.27 373.933 943.022 373.469 942.922 372.963C942.821 372.458 942.873 371.934 943.07 371.457C943.267 370.981 943.601 370.574 944.03 370.288C944.459 370.001 944.963 369.848 945.478 369.848C946.169 369.848 946.832 370.123 947.321 370.612C947.81 371.101 948.085 371.764 948.085 372.455V372.455Z" fill="#E7E5F2"/>
<path opacity="0.42" d="M1233.02 441.773C1234.46 441.773 1235.63 440.606 1235.63 439.166C1235.63 437.727 1234.46 436.56 1233.02 436.56C1231.58 436.56 1230.42 437.727 1230.42 439.166C1230.42 440.606 1231.58 441.773 1233.02 441.773Z" fill="#E7E5F2"/>
<path opacity="0.42" d="M914.773 501.637C914.773 502.152 914.62 502.656 914.334 503.085C914.047 503.514 913.64 503.848 913.164 504.045C912.688 504.242 912.163 504.294 911.658 504.193C911.152 504.093 910.688 503.845 910.323 503.48C909.959 503.116 909.71 502.651 909.61 502.145C909.509 501.64 909.561 501.116 909.758 500.639C909.955 500.163 910.29 499.756 910.718 499.47C911.147 499.183 911.651 499.03 912.166 499.03C912.858 499.03 913.521 499.305 914.009 499.794C914.498 500.283 914.773 500.946 914.773 501.637V501.637Z" fill="#E7E5F2"/>
<path opacity="0.42" d="M904.457 595.099C904.457 595.615 904.304 596.119 904.018 596.547C903.731 596.976 903.324 597.31 902.848 597.507C902.372 597.705 901.847 597.756 901.342 597.656C900.836 597.555 900.372 597.307 900.007 596.942C899.643 596.578 899.394 596.113 899.294 595.608C899.193 595.102 899.245 594.578 899.442 594.102C899.64 593.625 899.974 593.218 900.402 592.932C900.831 592.646 901.335 592.493 901.85 592.493C902.542 592.493 903.205 592.767 903.694 593.256C904.182 593.745 904.457 594.408 904.457 595.099V595.099Z" fill="#E7E5F2"/>
<path opacity="0.42" d="M1273.03 564.24C1273.03 564.755 1272.87 565.259 1272.59 565.688C1272.3 566.116 1271.89 566.451 1271.42 566.648C1270.94 566.845 1270.42 566.897 1269.91 566.796C1269.41 566.696 1268.94 566.447 1268.58 566.083C1268.21 565.718 1267.96 565.254 1267.86 564.748C1267.76 564.243 1267.82 563.718 1268.01 563.242C1268.21 562.766 1268.54 562.359 1268.97 562.072C1269.4 561.786 1269.91 561.633 1270.42 561.633C1271.11 561.633 1271.78 561.908 1272.26 562.397C1272.75 562.885 1273.03 563.548 1273.03 564.24V564.24Z" fill="#E7E5F2"/>
<path opacity="0.42" d="M1297.77 493.751C1299.21 493.751 1300.37 492.584 1300.37 491.144C1300.37 489.705 1299.21 488.538 1297.77 488.538C1296.33 488.538 1295.16 489.705 1295.16 491.144C1295.16 492.584 1296.33 493.751 1297.77 493.751Z" fill="#E7E5F2"/>
<path opacity="0.42" d="M1187.25 364.679C1188.69 364.679 1189.86 363.512 1189.86 362.073C1189.86 360.633 1188.69 359.466 1187.25 359.466C1185.81 359.466 1184.65 360.633 1184.65 362.073C1184.65 363.512 1185.81 364.679 1187.25 364.679Z" fill="#E7E5F2"/>
<path opacity="0.42" d="M1235.25 289.529C1236.69 289.529 1237.86 288.362 1237.86 286.923C1237.86 285.483 1236.69 284.316 1235.25 284.316C1233.81 284.316 1232.65 285.483 1232.65 286.923C1232.65 288.362 1233.81 289.529 1235.25 289.529Z" fill="#E7E5F2"/>
<path opacity="0.42" d="M1044 257.455C1044 257.97 1043.85 258.474 1043.56 258.903C1043.27 259.332 1042.87 259.666 1042.39 259.863C1041.91 260.06 1041.39 260.112 1040.88 260.011C1040.38 259.911 1039.91 259.663 1039.55 259.298C1039.19 258.933 1038.94 258.469 1038.84 257.963C1038.74 257.458 1038.79 256.934 1038.98 256.457C1039.18 255.981 1039.52 255.574 1039.94 255.288C1040.37 255.001 1040.88 254.848 1041.39 254.848C1041.74 254.845 1042.08 254.911 1042.39 255.041C1042.71 255.171 1043 255.362 1043.24 255.605C1043.49 255.848 1043.68 256.136 1043.81 256.454C1043.94 256.771 1044 257.112 1044 257.455V257.455Z" fill="#E7E5F2"/>
<path opacity="0.42" d="M1043.98 305.832C1043.98 306.347 1043.82 306.851 1043.54 307.28C1043.25 307.708 1042.84 308.043 1042.37 308.24C1041.89 308.437 1041.37 308.489 1040.86 308.388C1040.36 308.288 1039.89 308.039 1039.53 307.675C1039.16 307.31 1038.91 306.846 1038.81 306.34C1038.71 305.835 1038.76 305.31 1038.96 304.834C1039.16 304.358 1039.49 303.951 1039.92 303.664C1040.35 303.378 1040.85 303.225 1041.37 303.225C1041.71 303.222 1042.05 303.288 1042.37 303.418C1042.69 303.547 1042.98 303.739 1043.22 303.982C1043.46 304.225 1043.65 304.513 1043.78 304.831C1043.91 305.148 1043.98 305.489 1043.98 305.832V305.832Z" fill="#E7E5F2"/>
<path opacity="0.42" d="M1354.3 776.303C1354.3 776.819 1354.14 777.323 1353.86 777.751C1353.57 778.18 1353.16 778.514 1352.69 778.711C1352.21 778.909 1351.69 778.96 1351.18 778.86C1350.68 778.759 1350.21 778.511 1349.85 778.146C1349.48 777.782 1349.23 777.317 1349.13 776.812C1349.03 776.306 1349.08 775.782 1349.28 775.306C1349.48 774.829 1349.81 774.422 1350.24 774.136C1350.67 773.849 1351.17 773.697 1351.69 773.697C1352.03 773.694 1352.37 773.759 1352.69 773.889C1353.01 774.019 1353.3 774.211 1353.54 774.453C1353.78 774.696 1353.97 774.985 1354.1 775.302C1354.23 775.62 1354.3 775.96 1354.3 776.303V776.303Z" fill="#E7E5F2"/>
<path opacity="0.42" d="M1355.89 885.206C1357.33 885.206 1358.49 884.039 1358.49 882.6C1358.49 881.16 1357.33 879.993 1355.89 879.993C1354.45 879.993 1353.28 881.16 1353.28 882.6C1353.28 884.039 1354.45 885.206 1355.89 885.206Z" fill="#E7E5F2"/>
<path opacity="0.42" d="M1171.3 970.297C1171.34 970.658 1171.29 971.022 1171.18 971.366C1171.06 971.709 1170.88 972.025 1170.63 972.293C1170.39 972.561 1170.09 972.775 1169.76 972.921C1169.43 973.068 1169.07 973.143 1168.71 973.143C1168.35 973.143 1167.99 973.068 1167.66 972.921C1167.32 972.775 1167.03 972.561 1166.78 972.293C1166.54 972.025 1166.35 971.709 1166.24 971.366C1166.12 971.022 1166.08 970.658 1166.11 970.297C1166.17 969.65 1166.47 969.048 1166.95 968.611C1167.43 968.173 1168.06 967.93 1168.71 967.93C1169.36 967.93 1169.98 968.173 1170.46 968.611C1170.94 969.048 1171.24 969.65 1171.3 970.297V970.297Z" fill="#E7E5F2"/>
<path opacity="0.42" d="M1091.69 980.834C1091.7 981.35 1091.55 981.856 1091.26 982.288C1090.98 982.719 1090.57 983.057 1090.1 983.258C1089.62 983.458 1089.1 983.513 1088.59 983.415C1088.08 983.317 1087.62 983.07 1087.25 982.707C1086.88 982.343 1086.63 981.879 1086.53 981.373C1086.43 980.866 1086.48 980.341 1086.67 979.864C1086.87 979.386 1087.21 978.977 1087.63 978.69C1088.06 978.403 1088.57 978.249 1089.08 978.249C1089.77 978.249 1090.43 978.521 1090.92 979.005C1091.41 979.489 1091.69 980.146 1091.69 980.834V980.834Z" fill="#E7E5F2"/>
<path opacity="0.42" d="M1063.61 851.213C1065.05 851.213 1066.21 850.046 1066.21 848.607C1066.21 847.167 1065.05 846 1063.61 846C1062.17 846 1061 847.167 1061 848.607C1061 850.046 1062.17 851.213 1063.61 851.213Z" fill="#E7E5F2"/>
<path opacity="0.42" d="M1139.58 901.929C1141.02 901.929 1142.19 900.762 1142.19 899.322C1142.19 897.882 1141.02 896.715 1139.58 896.715C1138.14 896.715 1136.98 897.882 1136.98 899.322C1136.98 900.762 1138.14 901.929 1139.58 901.929Z" fill="#E7E5F2"/>
<path opacity="0.42" d="M1078.21 675.585C1078.22 676.101 1078.07 676.607 1077.78 677.039C1077.5 677.47 1077.1 677.808 1076.62 678.008C1076.14 678.209 1075.62 678.264 1075.11 678.166C1074.6 678.068 1074.14 677.821 1073.77 677.458C1073.4 677.094 1073.15 676.63 1073.05 676.123C1072.95 675.617 1073 675.092 1073.2 674.614C1073.39 674.137 1073.73 673.728 1074.16 673.441C1074.59 673.153 1075.09 673 1075.61 673C1076.29 673 1076.95 673.272 1077.44 673.756C1077.93 674.24 1078.21 674.897 1078.21 675.585V675.585Z" fill="#E7E5F2"/>
<path opacity="0.42" d="M1265.61 837.213C1267.05 837.213 1268.21 836.046 1268.21 834.607C1268.21 833.167 1267.05 832 1265.61 832C1264.17 832 1263 833.167 1263 834.607C1263 836.046 1264.17 837.213 1265.61 837.213Z" fill="#E7E5F2"/>
<path opacity="0.42" d="M730.941 772.724C732.381 772.724 733.548 771.557 733.548 770.118C733.548 768.678 732.381 767.511 730.941 767.511C729.502 767.511 728.335 768.678 728.335 770.118C728.335 771.557 729.502 772.724 730.941 772.724Z" fill="#E7E5F2"/>
<path opacity="0.42" d="M792.019 828.7C792.019 829.217 791.866 829.722 791.579 830.151C791.291 830.58 790.883 830.914 790.405 831.111C789.928 831.307 789.402 831.358 788.896 831.255C788.39 831.153 787.925 830.902 787.562 830.536C787.198 830.169 786.952 829.702 786.854 829.195C786.756 828.688 786.81 828.163 787.011 827.688C787.212 827.212 787.549 826.806 787.981 826.522C788.412 826.239 788.918 826.089 789.435 826.094C789.776 826.094 790.114 826.161 790.429 826.293C790.744 826.424 791.03 826.616 791.27 826.859C791.511 827.101 791.7 827.388 791.829 827.705C791.958 828.021 792.022 828.359 792.019 828.7V828.7Z" fill="#E7E5F2"/>
<path opacity="0.42" d="M1043.21 53.5846C1043.22 54.101 1043.07 54.6071 1042.78 55.0387C1042.5 55.4702 1042.1 55.8077 1041.62 56.0084C1041.14 56.2091 1040.62 56.2639 1040.11 56.1658C1039.6 56.0677 1039.14 55.8213 1038.77 55.4576C1038.4 55.094 1038.15 54.6295 1038.05 54.1233C1037.95 53.6171 1038 53.0919 1038.2 52.6143C1038.39 52.1367 1038.73 51.7283 1039.16 51.4409C1039.59 51.1535 1040.09 51 1040.61 51C1041.29 51 1041.95 51.2716 1042.44 51.7556C1042.93 52.2397 1043.21 52.8971 1043.21 53.5846V53.5846Z" fill="#E7E5F2"/>
<path opacity="0.42" d="M897.654 641.908C899.093 641.908 900.26 640.741 900.26 639.301C900.26 637.862 899.093 636.695 897.654 636.695C896.214 636.695 895.047 637.862 895.047 639.301C895.047 640.741 896.214 641.908 897.654 641.908Z" fill="#E7E5F2"/>
<path opacity="0.42" d="M777.197 634.773C777.137 635.42 776.838 636.021 776.358 636.459C775.878 636.897 775.251 637.14 774.602 637.14C773.952 637.14 773.325 636.897 772.845 636.459C772.365 636.021 772.066 635.42 772.006 634.773C771.973 634.412 772.015 634.048 772.13 633.704C772.246 633.361 772.431 633.045 772.676 632.777C772.92 632.509 773.217 632.295 773.549 632.149C773.881 632.002 774.239 631.927 774.602 631.927C774.964 631.927 775.323 632.002 775.654 632.149C775.986 632.295 776.283 632.509 776.528 632.777C776.772 633.045 776.958 633.361 777.073 633.704C777.188 634.048 777.231 634.412 777.197 634.773V634.773Z" fill="#E7E5F2"/>
<path opacity="0.42" d="M625.859 291.429C625.864 291.946 625.715 292.452 625.431 292.883C625.147 293.315 624.742 293.652 624.266 293.853C623.79 294.054 623.265 294.108 622.758 294.01C622.251 293.912 621.784 293.666 621.417 293.302C621.051 292.939 620.8 292.474 620.698 291.968C620.596 291.462 620.646 290.936 620.842 290.459C621.039 289.981 621.373 289.573 621.802 289.285C622.231 288.998 622.736 288.845 623.253 288.845C623.94 288.845 624.6 289.116 625.088 289.6C625.576 290.084 625.854 290.742 625.859 291.429V291.429Z" fill="#E7E5F2"/>
<path opacity="0.42" d="M665.213 583.585C665.217 584.101 665.068 584.607 664.785 585.039C664.501 585.47 664.095 585.808 663.619 586.008C663.143 586.209 662.619 586.264 662.112 586.166C661.605 586.068 661.138 585.821 660.771 585.458C660.404 585.094 660.154 584.63 660.052 584.123C659.949 583.617 660 583.092 660.196 582.614C660.393 582.137 660.727 581.728 661.156 581.441C661.585 581.153 662.09 581 662.606 581C663.294 581 663.954 581.272 664.442 581.756C664.93 582.24 665.207 582.897 665.213 583.585V583.585Z" fill="#E7E5F2"/>
<path opacity="0.42" d="M585.634 323.283C587.073 323.283 588.24 322.116 588.24 320.676C588.24 319.237 587.073 318.07 585.634 318.07C584.194 318.07 583.027 319.237 583.027 320.676C583.027 322.116 584.194 323.283 585.634 323.283Z" fill="#E7E5F2"/>
<path opacity="0.42" d="M713.203 274.795C713.208 275.312 713.058 275.818 712.775 276.25C712.491 276.681 712.085 277.019 711.609 277.219C711.134 277.42 710.609 277.475 710.102 277.377C709.595 277.279 709.128 277.032 708.761 276.669C708.395 276.305 708.144 275.84 708.042 275.334C707.939 274.828 707.99 274.303 708.186 273.825C708.383 273.348 708.717 272.939 709.146 272.652C709.575 272.364 710.08 272.211 710.597 272.211C711.284 272.211 711.944 272.483 712.432 272.967C712.92 273.451 713.197 274.108 713.203 274.795V274.795Z" fill="#E7E5F2"/>
<path opacity="0.42" d="M769.465 322.974C769.405 323.621 769.106 324.222 768.626 324.66C768.146 325.098 767.519 325.34 766.87 325.34C766.22 325.34 765.593 325.098 765.113 324.66C764.633 324.222 764.334 323.621 764.274 322.974C764.241 322.613 764.283 322.249 764.398 321.905C764.514 321.561 764.699 321.245 764.943 320.977C765.188 320.71 765.485 320.496 765.817 320.349C766.149 320.203 766.507 320.127 766.87 320.127C767.232 320.127 767.591 320.203 767.922 320.349C768.254 320.496 768.551 320.71 768.796 320.977C769.04 321.245 769.226 321.561 769.341 321.905C769.456 322.249 769.498 322.613 769.465 322.974V322.974Z" fill="#E7E5F2"/>
<path opacity="0.42" d="M563.035 210.182C563.04 210.7 562.89 211.207 562.605 211.639C562.321 212.071 561.914 212.408 561.436 212.608C560.959 212.808 560.433 212.862 559.926 212.762C559.418 212.662 558.952 212.413 558.586 212.048C558.22 211.682 557.971 211.215 557.871 210.708C557.771 210.2 557.825 209.674 558.025 209.197C558.225 208.72 558.562 208.313 558.994 208.028C559.426 207.743 559.933 207.594 560.451 207.598C561.136 207.598 561.794 207.87 562.278 208.355C562.763 208.84 563.035 209.497 563.035 210.182Z" fill="#E7E5F2"/>
<path opacity="0.42" d="M439.619 312.989C441.058 312.989 442.225 311.822 442.225 310.382C442.225 308.943 441.058 307.776 439.619 307.776C438.179 307.776 437.012 308.943 437.012 310.382C437.012 311.822 438.179 312.989 439.619 312.989Z" fill="#E7E5F2"/>
<path opacity="0.42" d="M931.23 902.923C931.23 903.438 931.077 903.942 930.791 904.371C930.505 904.799 930.098 905.133 929.621 905.331C929.145 905.528 928.621 905.58 928.115 905.479C927.61 905.378 927.145 905.13 926.781 904.766C926.416 904.401 926.168 903.937 926.067 903.431C925.967 902.925 926.018 902.401 926.216 901.925C926.413 901.449 926.747 901.042 927.176 900.755C927.604 900.469 928.108 900.316 928.624 900.316C929.315 900.316 929.978 900.591 930.467 901.079C930.956 901.568 931.23 902.231 931.23 902.923V902.923Z" fill="#E7E5F2"/>
<path opacity="0.2" d="M437.415 927.414L454.235 932.911L450.585 950.227L459.511 952.959L465.651 926.321L439.511 918.318L437.415 927.414Z" fill="#E7E5F2"/>
<path opacity="0.2" d="M32.5854 67.9143L36.2348 85.2296L19.4146 90.7267L21.5111 99.8228L47.6506 91.8205L41.5111 65.1818L32.5854 67.9143Z" fill="#E7E5F2"/>
<path opacity="0.2" d="M1103.07 117.914L1099.42 135.23L1116.24 140.727L1114.14 149.823L1088 141.821L1094.14 115.182L1103.07 117.914Z" fill="#E7E5F2"/>
</svg>
