<svg width="853" height="765" viewBox="0 0 853 765" fill="none" xmlns="http://www.w3.org/2000/svg">
<g opacity="0.9">
<g style="mix-blend-mode:overlay">
<path d="M179.737 738.098L179.737 716.077C179.739 715.995 179.719 715.914 179.678 715.842C179.638 715.77 179.579 715.71 179.508 715.669L160.472 704.672C160.397 704.633 160.314 704.614 160.23 704.614C160.146 704.614 160.063 704.633 159.988 704.672L140.952 715.669C140.881 715.71 140.822 715.77 140.782 715.842C140.741 715.914 140.721 715.995 140.723 716.077L140.723 738.047C140.721 738.133 140.742 738.217 140.782 738.293C140.822 738.369 140.881 738.434 140.952 738.481L160.115 749.504C160.187 749.552 160.271 749.578 160.358 749.578C160.444 749.578 160.528 749.552 160.6 749.504L179.635 738.532C179.684 738.472 179.718 738.402 179.736 738.327C179.754 738.252 179.754 738.173 179.737 738.098V738.098ZM178.768 716.409L178.768 737.817L160.243 748.534L141.692 737.817L141.692 716.409L160.243 705.718L178.768 716.409Z" fill="#26215B"/>
</g>
<g style="mix-blend-mode:overlay">
<path d="M442.863 538.56L442.863 436.495C442.86 436.102 442.754 435.717 442.558 435.377C442.361 435.037 442.079 434.754 441.74 434.555L353.454 383.523C353.109 383.335 352.723 383.237 352.331 383.237C351.939 383.237 351.553 383.335 351.208 383.523L262.922 434.555C262.583 434.754 262.301 435.037 262.104 435.377C261.908 435.717 261.802 436.102 261.799 436.495L261.799 538.56C261.798 538.957 261.901 539.348 262.098 539.692C262.295 540.037 262.579 540.324 262.922 540.525L351.208 591.558C351.549 591.757 351.936 591.863 352.331 591.863C352.726 591.863 353.113 591.757 353.454 591.558L441.74 540.525C442.083 540.324 442.367 540.037 442.564 539.692C442.761 539.348 442.864 538.957 442.863 538.56V538.56ZM438.372 437.949L438.372 537.31L352.331 586.965L266.29 537.284L266.29 437.949L352.331 388.269L438.372 437.949Z" fill="#26215B"/>
</g>
<g style="mix-blend-mode:overlay">
<path d="M827.676 660.732L827.676 615.134C827.678 614.957 827.632 614.782 827.542 614.629C827.452 614.476 827.322 614.351 827.166 614.267L787.819 591.481C787.668 591.393 787.497 591.347 787.322 591.347C787.147 591.347 786.976 591.393 786.824 591.481L747.35 614.267C747.198 614.355 747.07 614.481 746.981 614.633C746.891 614.785 746.843 614.958 746.84 615.134L746.84 660.732C746.843 660.908 746.891 661.081 746.981 661.233C747.07 661.385 747.198 661.511 747.35 661.6L786.824 684.386C786.976 684.473 787.147 684.519 787.322 684.519C787.496 684.519 787.668 684.473 787.819 684.386L827.293 661.6C827.426 661.5 827.531 661.368 827.598 661.216C827.665 661.064 827.692 660.897 827.676 660.732V660.732ZM825.66 615.721L825.66 660.145L787.207 682.37L748.728 660.145L748.728 615.721L787.207 593.598L825.66 615.721Z" fill="#26215B"/>
</g>
<g style="mix-blend-mode:overlay">
<path d="M481.315 88.3746L481.315 68.9822C481.316 68.9099 481.297 68.8387 481.262 68.7759C481.226 68.7132 481.174 68.6611 481.111 68.6249L464.245 58.8777C464.179 58.8396 464.104 58.8196 464.028 58.8196C463.952 58.8196 463.877 58.8396 463.811 58.8777L446.945 68.6249C446.882 68.6611 446.83 68.7132 446.794 68.7759C446.758 68.8387 446.74 68.9099 446.741 68.9822L446.741 88.3746C446.74 88.4503 446.759 88.5248 446.795 88.5916C446.83 88.6584 446.882 88.7153 446.945 88.7574L463.76 98.5812C463.826 98.6192 463.901 98.6393 463.977 98.6393C464.053 98.6393 464.128 98.6192 464.194 98.5812L481.06 88.8594C481.149 88.8167 481.222 88.7465 481.268 88.6592C481.314 88.5719 481.33 88.4721 481.315 88.3746V88.3746ZM480.473 69.1608L480.473 88.145L464.041 97.6115L447.608 88.145L447.608 69.2373L464.041 59.7452L480.473 69.1608Z" fill="#26215B"/>
</g>
<g style="mix-blend-mode:overlay">
<path d="M188.923 488.675L188.923 410.238C188.923 409.932 188.843 409.633 188.691 409.368C188.539 409.104 188.319 408.885 188.055 408.732L120.105 369.513C119.841 369.364 119.542 369.285 119.238 369.285C118.933 369.285 118.635 369.364 118.37 369.513L50.3943 408.732C50.1301 408.885 49.9108 409.104 49.7585 409.368C49.6062 409.633 49.5263 409.932 49.5268 410.238L49.5268 488.675C49.5236 488.981 49.6024 489.281 49.755 489.546C49.9076 489.811 50.1284 490.03 50.3943 490.18L118.319 529.399C118.579 529.562 118.88 529.649 119.187 529.649C119.493 529.649 119.794 529.562 120.054 529.399L188.183 490.18C188.425 490.014 188.621 489.788 188.75 489.525C188.88 489.261 188.939 488.968 188.923 488.675V488.675ZM185.453 411.233L185.453 487.782L119.238 526.056L52.946 487.68L52.946 411.131L119.289 372.856L185.453 411.233Z" fill="#26215B"/>
</g>
<path d="M177.645 175.308L177.645 75.2837C177.648 74.8995 177.548 74.5215 177.355 74.1894C177.162 73.8572 176.883 73.583 176.548 73.3955L89.9197 23.3833C89.5889 23.1829 89.2094 23.077 88.8226 23.077C88.4357 23.077 88.0562 23.1829 87.7253 23.3833L1.0972 73.3955C0.765396 73.587 0.489525 73.8621 0.297032 74.1934C0.104539 74.5247 0.0021315 74.9006 -2.28203e-06 75.2837L-6.65423e-06 175.308C0.000230495 175.695 0.101603 176.075 0.294064 176.411C0.486524 176.746 0.763388 177.026 1.0972 177.222L87.8529 227.234C88.1881 227.422 88.5659 227.52 88.9501 227.52C89.3343 227.52 89.7121 227.422 90.0473 227.234L176.548 177.222C176.885 177.03 177.165 176.751 177.358 176.415C177.551 176.078 177.65 175.696 177.645 175.308V175.308ZM173.231 76.5595L173.231 174.032L88.8225 222.768L4.46536 174.032L4.46537 76.5595L88.8226 27.8232L173.231 76.5595Z" fill="#26215B"/>
<g style="mix-blend-mode:overlay">
<path d="M659.803 214.168L659.803 136.343C659.806 136.041 659.73 135.743 659.582 135.479C659.434 135.215 659.22 134.994 658.961 134.838L591.546 96.0275C591.287 95.8775 590.992 95.7985 590.692 95.7985C590.392 95.7985 590.097 95.8775 589.837 96.0275L522.448 134.838C522.184 134.99 521.965 135.21 521.812 135.474C521.66 135.739 521.58 136.038 521.581 136.343L521.581 214.168C521.582 214.47 521.663 214.765 521.815 215.025C521.968 215.285 522.186 215.5 522.448 215.648L589.837 254.561C590.097 254.711 590.392 254.79 590.692 254.79C590.992 254.79 591.287 254.711 591.546 254.561L658.961 215.648C659.22 215.499 659.435 215.283 659.583 215.023C659.731 214.763 659.807 214.468 659.803 214.168ZM656.384 137.313L656.384 213.173L590.704 251.091L525 213.173L525 137.313L590.704 99.3957L656.384 137.313Z" fill="#26215B"/>
</g>
<g style="mix-blend-mode:overlay">
<path d="M556.104 357.521L556.104 272.347C556.101 272.017 556.012 271.692 555.847 271.406C555.681 271.12 555.445 270.882 555.16 270.714L481.417 228.127C481.129 227.964 480.804 227.878 480.473 227.878C480.142 227.878 479.817 227.964 479.529 228.127L405.761 270.714C405.482 270.886 405.252 271.127 405.091 271.412C404.931 271.698 404.845 272.019 404.842 272.347L404.842 357.521C404.843 357.849 404.927 358.171 405.088 358.457C405.249 358.743 405.481 358.983 405.761 359.154L479.529 401.741C479.817 401.904 480.142 401.99 480.473 401.99C480.804 401.99 481.129 401.904 481.417 401.741L555.16 359.154C555.446 358.988 555.684 358.75 555.85 358.464C556.016 358.177 556.103 357.852 556.104 357.521V357.521ZM552.353 273.444L552.353 356.424L480.473 397.939L408.593 356.424L408.593 273.444L480.473 231.929L552.353 273.444Z" fill="#26215B"/>
</g>
<path d="M468.43 279.517L468.43 155.916C468.428 155.437 468.302 154.968 468.065 154.552C467.828 154.136 467.488 153.789 467.078 153.543L359.909 91.7422C359.493 91.505 359.022 91.3803 358.544 91.3803C358.065 91.3803 357.594 91.505 357.179 91.7422L250.239 153.543C249.829 153.789 249.489 154.136 249.252 154.552C249.015 154.968 248.889 155.437 248.887 155.916L248.887 279.517C248.884 279.997 249.008 280.469 249.245 280.885C249.482 281.302 249.825 281.648 250.239 281.89L357.408 343.691C357.824 343.928 358.295 344.053 358.773 344.053C359.252 344.053 359.723 343.928 360.138 343.691L467.307 281.89C467.679 281.621 467.976 281.262 468.173 280.848C468.369 280.433 468.457 279.975 468.43 279.517ZM462.97 157.498L462.97 277.961L358.658 338.18L254.322 277.961L254.322 157.498L358.659 97.2537L462.97 157.498Z" fill="#26215B"/>
<g style="mix-blend-mode:overlay">
<path d="M763.987 105.469L763.987 67.3477C763.986 67.2037 763.947 67.0623 763.876 66.9372C763.804 66.8121 763.702 66.7075 763.579 66.6333L730.56 47.547C730.432 47.4731 730.287 47.4342 730.139 47.4342C729.992 47.4342 729.846 47.4731 729.718 47.547L696.7 66.6078C696.577 66.682 696.474 66.7866 696.403 66.9117C696.331 67.0368 696.293 67.1782 696.292 67.3222L696.292 105.469C696.291 105.617 696.328 105.763 696.4 105.892C696.471 106.022 696.575 106.131 696.7 106.209L729.718 125.27C729.846 125.344 729.992 125.383 730.139 125.383C730.287 125.383 730.432 125.344 730.56 125.27L763.579 106.235C763.708 106.154 763.814 106.041 763.885 105.907C763.957 105.772 763.992 105.621 763.987 105.469V105.469ZM762.303 67.9601L762.303 104.984L730.127 123.56L697.976 104.984L697.976 67.9601L730.127 49.4097L762.303 67.9601Z" fill="#26215B"/>
</g>
<path d="M334.852 178.65L334.852 61.275C334.856 60.8185 334.737 60.3694 334.508 59.9745C334.28 59.5795 333.949 59.2532 333.551 59.0296L231.945 0.341861C231.557 0.117907 231.117 4.57248e-06 230.669 4.5529e-06C230.221 4.53332e-06 229.781 0.117907 229.393 0.34186L127.787 59.0296C127.394 59.2565 127.068 59.5842 126.844 59.9789C126.62 60.3737 126.505 60.8211 126.511 61.275L126.511 178.65C126.509 179.1 126.626 179.542 126.85 179.932C127.074 180.322 127.397 180.646 127.787 180.87L229.393 239.558C229.781 239.782 230.221 239.9 230.669 239.9C231.117 239.9 231.557 239.782 231.945 239.558L333.627 180.87C334.007 180.639 334.32 180.313 334.535 179.923C334.75 179.534 334.859 179.095 334.852 178.65V178.65ZM329.749 62.806L329.749 177.145L230.745 234.302L131.64 177.145L131.64 62.857L230.669 5.7003L329.749 62.806Z" fill="#26215B"/>
<g style="mix-blend-mode:overlay">
<path d="M667.075 607.352L667.075 496.636C667.08 496.206 666.969 495.782 666.753 495.409C666.538 495.037 666.226 494.729 665.85 494.518L569.883 439.097C569.495 438.873 569.055 438.755 568.607 438.755C568.159 438.755 567.719 438.873 567.332 439.097L471.415 494.416C471.04 494.627 470.728 494.935 470.513 495.307C470.297 495.68 470.186 496.104 470.191 496.534L470.191 607.352C470.201 607.779 470.319 608.197 470.533 608.567C470.747 608.937 471.05 609.247 471.415 609.47L567.383 664.866C567.77 665.09 568.21 665.208 568.658 665.208C569.106 665.208 569.546 665.09 569.934 664.866L665.85 609.47C666.215 609.248 666.519 608.937 666.733 608.567C666.947 608.197 667.065 607.779 667.075 607.352ZM662.176 497.938L662.176 605.923L568.658 659.941L475.141 605.923L475.141 497.937L568.658 443.945L662.176 497.938Z" fill="#26215B"/>
</g>
<g style="mix-blend-mode:overlay">
<path d="M228.015 636.159L228.015 565.07C228.014 564.795 227.941 564.525 227.802 564.287C227.663 564.05 227.463 563.853 227.224 563.718L165.652 528.174C165.416 528.037 165.147 527.965 164.874 527.965C164.601 527.965 164.333 528.037 164.096 528.174L102.525 563.718C102.285 563.853 102.086 564.05 101.947 564.287C101.808 564.525 101.734 564.795 101.734 565.07L101.734 636.159C101.734 636.434 101.808 636.704 101.947 636.942C102.086 637.179 102.285 637.376 102.525 637.511L164.096 673.056C164.333 673.192 164.601 673.264 164.874 673.264C165.147 673.264 165.416 673.192 165.652 673.056L227.224 637.511C227.463 637.376 227.663 637.179 227.802 636.942C227.941 636.704 228.014 636.434 228.015 636.159V636.159ZM224.876 565.989L224.876 635.266L164.887 669.892L104.872 635.266L104.872 565.989L164.887 531.338L224.876 565.989Z" fill="#26215B"/>
</g>
<path d="M326.84 374.998L326.84 259.46C326.838 259.015 326.718 258.578 326.495 258.193C326.271 257.808 325.95 257.488 325.564 257.266L225.489 199.497C225.101 199.273 224.661 199.155 224.213 199.155C223.765 199.155 223.325 199.273 222.937 199.497L122.888 257.266C122.502 257.488 122.181 257.808 121.958 258.193C121.734 258.578 121.615 259.015 121.612 259.46L121.612 374.998C121.61 375.448 121.727 375.89 121.951 376.28C122.175 376.67 122.498 376.994 122.888 377.218L222.963 434.987C223.351 435.211 223.791 435.329 224.239 435.329C224.687 435.329 225.127 435.211 225.515 434.987L325.564 377.218C325.954 376.994 326.277 376.67 326.501 376.28C326.725 375.89 326.842 375.448 326.84 374.998V374.998ZM321.737 260.94L321.737 373.544L224.239 429.833L126.715 373.544L126.715 260.94L224.239 204.651L321.737 260.94Z" fill="#26215B"/>
<g style="mix-blend-mode:overlay">
<path d="M92.9816 301.639L92.9816 284.211C92.9857 284.144 92.9711 284.078 92.9395 284.02C92.908 283.961 92.8607 283.912 92.803 283.879L77.6973 275.153C77.6361 275.114 77.5654 275.094 77.4931 275.094C77.4209 275.094 77.3501 275.114 77.289 275.153L62.1833 283.879C62.1256 283.912 62.0783 283.961 62.0467 284.02C62.0151 284.078 62.0006 284.144 62.0047 284.211L62.0047 301.639C62.0006 301.705 62.0151 301.771 62.0467 301.83C62.0783 301.889 62.1256 301.937 62.1833 301.97L77.289 310.697C77.3501 310.735 77.4209 310.756 77.4931 310.756C77.5654 310.756 77.6361 310.735 77.6973 310.697L92.803 301.97C92.8607 301.937 92.908 301.889 92.9395 301.83C92.9711 301.771 92.9857 301.705 92.9816 301.639V301.639ZM92.2161 284.415L92.2161 301.434L77.4931 309.931L62.7702 301.434L62.7702 284.415L77.4931 275.918L92.2161 284.415Z" fill="#26215B"/>
</g>
<g style="mix-blend-mode:overlay">
<path d="M460.137 728.197L460.137 658.844C460.137 658.575 460.067 658.311 459.932 658.078C459.798 657.845 459.605 657.651 459.372 657.517L399.306 622.84C399.07 622.715 398.807 622.65 398.541 622.65C398.274 622.65 398.011 622.715 397.775 622.84L337.735 657.517C337.502 657.651 337.309 657.845 337.174 658.078C337.04 658.311 336.969 658.575 336.97 658.844L336.97 728.197C336.969 728.466 337.04 728.731 337.174 728.964C337.309 729.196 337.502 729.39 337.735 729.524L397.775 764.201C398.011 764.326 398.274 764.392 398.541 764.392C398.807 764.392 399.07 764.326 399.306 764.201L459.372 729.524C459.605 729.39 459.798 729.196 459.932 728.964C460.067 728.731 460.137 728.466 460.137 728.197V728.197ZM457.075 659.737L457.075 727.304L398.541 761.088L340.031 727.304L340.031 659.737L398.541 625.928L457.075 659.737Z" fill="#26215B"/>
</g>
<g style="mix-blend-mode:overlay">
<path d="M852.758 288.243L852.758 203.197C852.758 202.872 852.673 202.553 852.512 202.271C852.351 201.989 852.119 201.754 851.839 201.59L778.224 159.156C777.945 158.982 777.622 158.889 777.293 158.889C776.964 158.889 776.641 158.982 776.362 159.156L702.772 201.641C702.486 201.8 702.247 202.033 702.081 202.316C701.915 202.598 701.828 202.92 701.828 203.248L701.828 288.243C701.828 288.571 701.915 288.893 702.081 289.176C702.247 289.458 702.486 289.691 702.772 289.851L776.362 332.336C776.645 332.499 776.966 332.585 777.293 332.585C777.62 332.585 777.941 332.499 778.224 332.336L851.839 289.953C852.134 289.78 852.377 289.529 852.539 289.227C852.701 288.926 852.776 288.585 852.758 288.243ZM849.058 204.345L849.058 287.146L777.357 328.559L705.579 287.146L705.579 204.345L777.306 162.932L849.058 204.345Z" fill="#26215B"/>
</g>
<g style="mix-blend-mode:overlay">
<path d="M786.415 466.015L786.415 444.326C786.417 444.244 786.397 444.162 786.357 444.09C786.316 444.019 786.257 443.959 786.186 443.918L767.406 432.997C767.331 432.959 767.248 432.939 767.163 432.939C767.079 432.939 766.996 432.959 766.921 432.997L748.141 443.841C748.073 443.886 748.016 443.946 747.976 444.017C747.936 444.089 747.914 444.168 747.911 444.25L747.911 466.015C747.912 466.097 747.933 466.177 747.973 466.249C748.014 466.32 748.071 466.38 748.141 466.423L766.921 477.268C766.996 477.306 767.079 477.326 767.163 477.326C767.248 477.326 767.331 477.306 767.406 477.268L786.186 466.423C786.259 466.384 786.32 466.325 786.361 466.253C786.401 466.18 786.42 466.098 786.415 466.015ZM785.471 444.607L785.471 465.734L767.176 476.298L748.881 465.734L748.881 444.607L767.176 434.043L785.471 444.607Z" fill="#26215B"/>
</g>
<path d="M661.206 417.382L661.206 398.347C661.209 398.176 661.165 398.007 661.08 397.859C660.995 397.71 660.87 397.588 660.721 397.505L644.237 387.987C644.092 387.911 643.93 387.872 643.765 387.872C643.601 387.872 643.439 387.911 643.293 387.987L626.784 397.505C626.643 397.595 626.527 397.72 626.446 397.867C626.366 398.014 626.324 398.179 626.325 398.347L626.325 417.382C626.327 417.549 626.369 417.714 626.449 417.861C626.529 418.007 626.644 418.132 626.784 418.224L643.293 427.742C643.439 427.818 643.601 427.858 643.765 427.858C643.93 427.858 644.092 427.818 644.237 427.742L660.721 418.224C660.867 418.137 660.988 418.014 661.073 417.866C661.158 417.719 661.204 417.552 661.206 417.382V417.382ZM659.292 398.908L659.292 416.77L643.752 425.752L628.239 416.77L628.239 398.908L643.752 389.927L659.292 398.908Z" fill="#35B1FF"/>
<path d="M435.233 517.917L435.233 468.696C435.234 468.532 435.192 468.37 435.111 468.227C435.031 468.083 434.914 467.964 434.773 467.879L392.135 443.256C391.99 443.18 391.828 443.14 391.663 443.14C391.499 443.14 391.337 443.18 391.191 443.256L348.553 467.879C348.412 467.964 348.296 468.083 348.215 468.227C348.135 468.37 348.093 468.532 348.094 468.696L348.094 517.917C348.093 518.081 348.135 518.243 348.215 518.386C348.296 518.529 348.412 518.649 348.553 518.734L391.191 543.357C391.337 543.433 391.499 543.473 391.663 543.473C391.828 543.473 391.99 543.433 392.135 543.357L434.773 518.734C434.914 518.649 435.031 518.529 435.111 518.386C435.192 518.243 435.234 518.081 435.233 517.917V517.917ZM433.319 469.257L433.319 517.356L391.676 541.418L350.008 517.356L350.008 469.257L391.676 445.195L433.319 469.257Z" fill="#35B1FF"/>
<path d="M668.479 315.06L668.479 255.531C668.48 255.363 668.435 255.199 668.35 255.055C668.264 254.911 668.141 254.793 667.994 254.714L616.451 224.937C616.305 224.861 616.143 224.821 615.979 224.821C615.814 224.821 615.652 224.861 615.507 224.937L563.938 254.714C563.797 254.799 563.68 254.918 563.6 255.061C563.519 255.205 563.477 255.366 563.479 255.531L563.479 315.06C563.477 315.225 563.519 315.387 563.6 315.53C563.68 315.673 563.797 315.793 563.938 315.877L615.507 345.655C615.652 345.731 615.814 345.77 615.979 345.77C616.143 345.77 616.305 345.731 616.451 345.655L667.892 315.877C668.058 315.813 668.203 315.701 668.307 315.556C668.411 315.411 668.471 315.239 668.479 315.06V315.06ZM666.565 256.092L666.565 314.499L615.966 343.715L565.392 314.499L565.392 256.092L615.966 226.876L666.565 256.092Z" fill="#35B1FF"/>
<path d="M606.269 406.946L606.269 318.021C606.272 317.85 606.229 317.681 606.143 317.533C606.058 317.384 605.934 317.262 605.784 317.179L528.699 272.551C528.549 272.475 528.383 272.435 528.214 272.435C528.046 272.435 527.88 272.475 527.73 272.551L450.619 317.077C450.478 317.167 450.361 317.292 450.281 317.439C450.201 317.586 450.159 317.751 450.16 317.919L450.16 406.946C450.159 407.11 450.2 407.272 450.281 407.415C450.361 407.558 450.478 407.678 450.619 407.762L527.73 452.288C527.876 452.376 528.044 452.422 528.214 452.422C528.385 452.422 528.553 452.376 528.699 452.288L605.784 407.762C605.932 407.683 606.055 407.565 606.14 407.421C606.226 407.277 606.27 407.113 606.269 406.946V406.946ZM604.355 318.455L604.355 406.384L528.214 450.349L452.073 406.384L452.073 318.455L528.214 274.49L604.355 318.455Z" fill="#35B1FF"/>
<path d="M394.867 607.887L394.867 493.063C394.863 492.897 394.816 492.734 394.731 492.591C394.646 492.448 394.526 492.33 394.382 492.246L295.046 434.988C294.905 434.899 294.741 434.853 294.574 434.853C294.408 434.853 294.244 434.899 294.102 434.988L194.742 492.348C194.594 492.428 194.471 492.545 194.385 492.689C194.3 492.833 194.255 492.998 194.257 493.165L194.257 607.989C194.255 608.156 194.3 608.321 194.385 608.465C194.471 608.608 194.594 608.726 194.742 608.805L294.102 666.192C294.248 666.268 294.41 666.307 294.574 666.307C294.739 666.307 294.901 666.268 295.046 666.192L394.407 608.805C394.562 608.711 394.687 608.574 394.769 608.412C394.85 608.249 394.884 608.067 394.867 607.887V607.887ZM392.953 493.726L392.953 607.325L294.536 664.15L196.17 607.325L196.17 493.726L294.562 436.901L392.953 493.726Z" fill="#35B1FF"/>
<path d="M397.417 200.647L397.417 181.969C397.42 181.798 397.377 181.629 397.291 181.48C397.206 181.332 397.082 181.21 396.932 181.127L380.831 171.813C380.681 171.737 380.515 171.697 380.347 171.697C380.178 171.697 380.012 171.737 379.862 171.813L363.735 181.127C363.594 181.217 363.478 181.341 363.398 181.489C363.317 181.636 363.275 181.801 363.276 181.969L363.276 200.647C363.275 200.814 363.317 200.979 363.398 201.127C363.478 201.274 363.594 201.398 363.735 201.489L379.862 210.777C380.008 210.864 380.176 210.911 380.347 210.911C380.517 210.911 380.685 210.864 380.831 210.777L396.932 201.489C397.082 201.405 397.206 201.283 397.291 201.135C397.377 200.987 397.42 200.818 397.417 200.647V200.647ZM395.503 182.581L395.503 200.111L380.347 208.863L365.19 200.111L365.19 182.505L380.347 173.752L395.503 182.581Z" fill="#35B1FF"/>
<path d="M710.326 585.942L710.326 485.357C710.327 485.192 710.285 485.031 710.205 484.887C710.124 484.744 710.007 484.625 709.866 484.54L622.753 434.247C622.612 434.159 622.448 434.112 622.281 434.112C622.115 434.112 621.951 434.159 621.809 434.247L534.696 484.54C534.549 484.619 534.426 484.737 534.34 484.881C534.255 485.025 534.21 485.189 534.212 485.357L534.212 585.942C534.213 586.109 534.259 586.273 534.344 586.416C534.429 586.559 534.551 586.678 534.696 586.759L621.809 636.975C621.951 637.063 622.115 637.11 622.281 637.11C622.448 637.11 622.612 637.063 622.753 636.975L709.866 586.682C709.995 586.603 710.104 586.495 710.184 586.367C710.264 586.238 710.312 586.093 710.326 585.942V585.942ZM708.412 485.918L708.412 585.432L622.269 635.163L536.125 585.432L536.125 485.918L622.269 436.187L708.412 485.918Z" fill="#35B1FF"/>
<path d="M521.198 546.062L521.198 514.498C521.194 514.332 521.148 514.169 521.063 514.026C520.978 513.883 520.858 513.764 520.714 513.681L493.283 497.836C493.137 497.748 492.969 497.702 492.799 497.702C492.628 497.702 492.46 497.748 492.314 497.836L464.884 513.681C464.743 513.766 464.626 513.885 464.546 514.029C464.465 514.172 464.423 514.333 464.424 514.498L464.424 546.164C464.424 546.331 464.466 546.496 464.546 546.644C464.626 546.791 464.742 546.915 464.884 547.006L492.314 562.826C492.46 562.914 492.628 562.96 492.799 562.96C492.969 562.96 493.137 562.914 493.283 562.826L520.714 547.006C520.873 546.908 521.003 546.768 521.088 546.602C521.174 546.435 521.212 546.248 521.198 546.062V546.062ZM519.285 514.957L519.285 545.577L492.799 560.887L466.338 545.577L466.338 514.957L492.799 499.647L519.285 514.957Z" fill="#35B1FF"/>
<path d="M519.106 218.507L519.106 172.577C519.102 172.411 519.055 172.248 518.97 172.105C518.885 171.962 518.765 171.844 518.621 171.761L478.994 148.796C478.848 148.72 478.686 148.68 478.522 148.68C478.358 148.68 478.196 148.72 478.05 148.796L438.423 171.761C438.276 171.84 438.152 171.957 438.067 172.101C437.981 172.245 437.937 172.41 437.938 172.577L437.938 218.507C437.935 218.678 437.979 218.846 438.064 218.995C438.149 219.143 438.274 219.265 438.423 219.349L478.05 242.313C478.192 242.402 478.355 242.448 478.522 242.448C478.689 242.448 478.852 242.402 478.994 242.313L518.621 219.349C518.765 219.26 518.885 219.136 518.97 218.989C519.055 218.842 519.101 218.676 519.106 218.507V218.507ZM517.192 173.317L517.192 217.818L478.509 240.144L439.852 217.818L439.852 173.189L478.509 150.863L517.192 173.317Z" fill="#35B1FF"/>
<path d="M730.764 230.654L730.764 135.478C730.767 135.307 730.724 135.138 730.638 134.99C730.553 134.841 730.429 134.719 730.279 134.636L647.861 87.0477C647.72 86.9595 647.556 86.9128 647.389 86.9128C647.223 86.9128 647.059 86.9595 646.917 87.0477L564.474 134.636C564.33 134.725 564.21 134.848 564.125 134.995C564.04 135.142 563.994 135.308 563.989 135.478L563.989 230.654C563.993 230.82 564.04 230.983 564.125 231.126C564.21 231.269 564.33 231.387 564.474 231.471L646.917 279.059C647.059 279.147 647.223 279.194 647.389 279.194C647.556 279.194 647.72 279.147 647.861 279.059L730.279 231.471C730.427 231.391 730.55 231.274 730.636 231.13C730.721 230.986 730.766 230.821 730.764 230.654V230.654ZM728.851 136.014L728.851 230.093L647.479 277.196L565.826 230.093L565.826 136.014L647.479 88.987L728.851 136.014Z" fill="#35B1FF"/>
<path d="M512.242 425.828L512.242 313.327C512.243 313.159 512.199 312.995 512.113 312.851C512.028 312.707 511.904 312.589 511.757 312.51L414.361 256.374C414.214 256.286 414.047 256.24 413.876 256.24C413.705 256.24 413.538 256.286 413.391 256.374L315.97 312.51C315.826 312.593 315.705 312.712 315.621 312.855C315.536 312.998 315.489 313.16 315.485 313.327L315.485 425.828C315.489 425.995 315.536 426.157 315.62 426.3C315.705 426.443 315.826 426.562 315.97 426.645L413.391 482.781C413.538 482.869 413.705 482.915 413.876 482.915C414.047 482.915 414.214 482.869 414.361 482.781L511.757 426.645C511.904 426.566 512.028 426.448 512.113 426.304C512.199 426.16 512.243 425.996 512.242 425.828V425.828ZM510.328 313.888L510.328 425.191L413.876 480.893L317.475 425.191L317.475 313.888L413.953 258.186L510.328 313.888Z" fill="#35B1FF"/>
<path d="M295.02 296.231L295.02 281.993C295.021 281.825 294.979 281.66 294.899 281.513C294.819 281.365 294.702 281.241 294.561 281.151L282.211 274.031C282.065 273.944 281.897 273.897 281.726 273.897C281.556 273.897 281.388 273.944 281.242 274.031L268.917 281.151C268.768 281.234 268.644 281.356 268.558 281.504C268.473 281.653 268.429 281.821 268.432 281.993L268.432 296.231C268.429 296.402 268.473 296.571 268.558 296.719C268.644 296.867 268.768 296.989 268.917 297.073L281.242 304.192C281.388 304.279 281.556 304.326 281.726 304.326C281.897 304.326 282.065 304.279 282.211 304.192L294.561 297.073C294.702 296.982 294.819 296.858 294.899 296.711C294.979 296.563 295.021 296.398 295.02 296.231V296.231ZM293.107 282.528L293.107 295.695L281.726 302.253L270.346 295.695L270.346 282.528L281.726 275.971L293.107 282.528Z" fill="#35B1FF"/>
<path d="M715.607 603.982C715.642 603.823 715.642 603.657 715.607 603.498C715.475 603.278 715.261 603.12 715.012 603.058C714.764 602.996 714.501 603.035 714.28 603.166L530.843 710.335C530.627 710.463 530.47 710.673 530.408 710.917C530.346 711.161 530.383 711.42 530.511 711.636C530.64 711.853 530.849 712.009 531.093 712.071C531.337 712.134 531.596 712.096 531.813 711.968L715.25 604.799C715.372 604.703 715.469 604.578 715.531 604.435C715.593 604.293 715.62 604.137 715.607 603.982V603.982Z" fill="#35B1FF"/>
<path d="M716.627 607.812C717.116 607.526 717.544 607.146 717.886 606.694C718.229 606.242 718.479 605.727 718.622 605.179C718.766 604.63 718.799 604.059 718.722 603.497C718.644 602.935 718.457 602.395 718.171 601.905C717.884 601.416 717.504 600.988 717.052 600.646C716.6 600.303 716.085 600.053 715.537 599.91C714.988 599.767 714.417 599.733 713.855 599.81C713.294 599.888 712.753 600.075 712.264 600.362C711.276 600.94 710.558 601.888 710.268 602.995C709.979 604.103 710.141 605.281 710.72 606.269C711.298 607.257 712.246 607.974 713.354 608.264C714.461 608.553 715.639 608.391 716.627 607.812V607.812Z" fill="#35B1FF"/>
<path d="M533.547 714.826C532.81 715.253 531.963 715.451 531.114 715.397C530.264 715.343 529.449 715.039 528.772 714.522C528.095 714.006 527.586 713.3 527.309 712.495C527.032 711.69 527 710.821 527.217 709.997C527.433 709.174 527.889 708.433 528.526 707.868C529.163 707.303 529.953 706.939 530.797 706.822C531.64 706.705 532.499 706.841 533.266 707.212C534.032 707.583 534.672 708.172 535.104 708.906C535.392 709.397 535.581 709.939 535.659 710.503C535.737 711.066 535.703 711.64 535.558 712.19C535.413 712.74 535.161 713.257 534.816 713.709C534.471 714.161 534.04 714.541 533.547 714.826Z" fill="#35B1FF"/>
<path d="M365.905 256.525C365.903 256.354 365.857 256.188 365.772 256.04C365.687 255.893 365.566 255.77 365.42 255.683L227.07 176.148C226.961 176.086 226.841 176.046 226.717 176.03C226.592 176.015 226.466 176.024 226.345 176.057C226.224 176.09 226.111 176.147 226.012 176.224C225.913 176.301 225.831 176.396 225.769 176.505C225.707 176.614 225.667 176.734 225.651 176.858C225.635 176.983 225.645 177.109 225.678 177.23C225.711 177.351 225.768 177.464 225.844 177.563C225.921 177.662 226.017 177.744 226.126 177.806L364.45 257.341C364.67 257.472 364.933 257.511 365.182 257.449C365.431 257.387 365.645 257.229 365.777 257.009C365.855 256.859 365.898 256.694 365.905 256.525V256.525Z" fill="#35B1FF"/>
<path d="M362.588 260.148C363.327 260.574 364.175 260.771 365.026 260.714C365.877 260.657 366.692 260.35 367.368 259.83C368.044 259.311 368.551 258.602 368.824 257.795C369.098 256.987 369.126 256.117 368.905 255.293C368.684 254.47 368.224 253.73 367.583 253.168C366.941 252.606 366.148 252.247 365.303 252.136C364.457 252.025 363.598 252.166 362.833 252.543C362.069 252.92 361.433 253.516 361.006 254.254C360.723 254.745 360.539 255.287 360.465 255.849C360.391 256.411 360.428 256.982 360.575 257.529C360.722 258.076 360.976 258.59 361.321 259.039C361.666 259.488 362.097 259.865 362.588 260.148V260.148Z" fill="#35B1FF"/>
<path d="M224.646 180.846C223.907 180.422 223.31 179.788 222.931 179.025C222.552 178.262 222.407 177.404 222.515 176.558C222.624 175.713 222.98 174.919 223.539 174.276C224.098 173.633 224.836 173.17 225.658 172.946C226.48 172.722 227.35 172.746 228.159 173.016C228.967 173.286 229.677 173.789 230.2 174.463C230.722 175.136 231.033 175.949 231.094 176.799C231.155 177.649 230.962 178.498 230.541 179.239C229.969 180.23 229.028 180.955 227.924 181.256C226.82 181.557 225.642 181.41 224.646 180.846V180.846Z" fill="#35B1FF"/>
<path d="M698.919 344.788C698.923 344.62 698.882 344.454 698.801 344.306C698.721 344.159 698.603 344.034 698.46 343.946L587.77 280.308C587.662 280.245 587.541 280.204 587.417 280.187C587.292 280.171 587.166 280.18 587.044 280.213C586.923 280.246 586.81 280.304 586.711 280.381C586.612 280.459 586.53 280.555 586.469 280.665C586.401 280.771 586.355 280.89 586.335 281.015C586.315 281.139 586.321 281.266 586.352 281.388C586.383 281.51 586.439 281.624 586.516 281.724C586.593 281.824 586.69 281.906 586.8 281.967L697.491 345.605C697.599 345.668 697.719 345.709 697.844 345.725C697.968 345.742 698.095 345.733 698.216 345.7C698.338 345.666 698.451 345.609 698.55 345.532C698.649 345.454 698.731 345.357 698.792 345.247C698.884 345.113 698.929 344.951 698.919 344.788Z" fill="#35B1FF"/>
<path d="M695.627 348.411C696.366 348.837 697.214 349.034 698.065 348.977C698.916 348.921 699.731 348.613 700.407 348.094C701.083 347.574 701.59 346.866 701.863 346.058C702.137 345.251 702.165 344.38 701.944 343.557C701.723 342.733 701.263 341.994 700.622 341.432C699.98 340.87 699.187 340.51 698.342 340.399C697.496 340.288 696.637 340.43 695.872 340.807C695.108 341.184 694.472 341.779 694.045 342.517C693.762 343.008 693.578 343.55 693.504 344.112C693.43 344.674 693.467 345.245 693.614 345.792C693.761 346.34 694.015 346.853 694.36 347.302C694.705 347.752 695.136 348.129 695.627 348.411Z" fill="#35B1FF"/>
<path d="M585.32 284.979C584.581 284.552 583.986 283.916 583.609 283.152C583.232 282.387 583.09 281.528 583.202 280.682C583.313 279.837 583.672 279.043 584.234 278.402C584.796 277.761 585.536 277.301 586.359 277.08C587.183 276.859 588.053 276.887 588.861 277.161C589.668 277.434 590.377 277.941 590.896 278.617C591.416 279.293 591.723 280.108 591.78 280.959C591.836 281.809 591.639 282.658 591.214 283.397C590.931 283.888 590.554 284.319 590.105 284.664C589.655 285.009 589.142 285.263 588.595 285.41C588.047 285.557 587.476 285.594 586.914 285.52C586.352 285.446 585.811 285.262 585.32 284.979V284.979Z" fill="#35B1FF"/>
<path d="M368.151 429.655C368.149 429.485 368.103 429.318 368.018 429.171C367.934 429.023 367.812 428.9 367.666 428.813L257.078 365.175C256.97 365.112 256.85 365.071 256.725 365.054C256.6 365.038 256.474 365.047 256.352 365.08C256.231 365.113 256.118 365.17 256.019 365.248C255.92 365.326 255.838 365.422 255.777 365.532C255.714 365.641 255.673 365.761 255.656 365.886C255.64 366.01 255.649 366.137 255.682 366.258C255.715 366.379 255.772 366.493 255.85 366.591C255.928 366.69 256.024 366.773 256.134 366.834L366.799 430.471C366.909 430.535 367.031 430.577 367.158 430.593C367.284 430.61 367.413 430.602 367.536 430.568C367.66 430.535 367.775 430.478 367.876 430.4C367.977 430.322 368.062 430.225 368.126 430.114C368.172 429.966 368.181 429.808 368.151 429.655V429.655Z" fill="#35B1FF"/>
<path d="M364.833 433.278C365.572 433.704 366.421 433.901 367.271 433.844C368.122 433.788 368.937 433.48 369.613 432.96C370.289 432.441 370.796 431.733 371.069 430.925C371.343 430.118 371.371 429.247 371.15 428.424C370.929 427.6 370.469 426.861 369.828 426.299C369.186 425.737 368.393 425.377 367.548 425.266C366.702 425.155 365.843 425.297 365.078 425.674C364.314 426.051 363.678 426.646 363.251 427.384C362.968 427.875 362.784 428.417 362.71 428.979C362.636 429.541 362.673 430.112 362.82 430.659C362.967 431.207 363.221 431.72 363.566 432.169C363.911 432.619 364.342 432.996 364.833 433.278V433.278Z" fill="#35B1FF"/>
<path d="M254.526 369.845C253.788 369.419 253.192 368.783 252.815 368.018C252.438 367.254 252.297 366.394 252.408 365.549C252.519 364.704 252.878 363.91 253.44 363.269C254.002 362.628 254.742 362.168 255.565 361.947C256.389 361.726 257.259 361.754 258.067 362.027C258.874 362.301 259.583 362.808 260.102 363.484C260.622 364.16 260.929 364.975 260.986 365.825C261.042 366.676 260.846 367.525 260.42 368.263C260.137 368.755 259.76 369.185 259.311 369.531C258.862 369.876 258.348 370.13 257.801 370.276C257.254 370.423 256.682 370.461 256.121 370.387C255.559 370.313 255.017 370.129 254.526 369.845Z" fill="#35B1FF"/>
<path d="M240.874 445.96C240.872 445.791 240.828 445.624 240.747 445.475C240.686 445.365 240.604 445.269 240.505 445.191C240.406 445.113 240.293 445.056 240.171 445.023C240.05 444.99 239.923 444.981 239.799 444.997C239.674 445.014 239.554 445.055 239.446 445.118L134.139 506.664C134.011 506.717 133.896 506.796 133.802 506.897C133.707 506.999 133.635 507.119 133.591 507.25C133.547 507.381 133.532 507.521 133.546 507.658C133.56 507.796 133.603 507.929 133.673 508.049C133.743 508.168 133.838 508.272 133.951 508.351C134.064 508.431 134.193 508.486 134.329 508.512C134.465 508.538 134.605 508.534 134.74 508.502C134.874 508.469 135 508.408 135.109 508.322L240.415 446.777C240.558 446.694 240.676 446.575 240.757 446.431C240.838 446.288 240.878 446.125 240.874 445.96V445.96Z" fill="#35B1FF"/>
<path d="M241.922 449.786C242.655 449.354 243.245 448.715 243.616 447.948C243.987 447.182 244.122 446.322 244.006 445.479C243.889 444.635 243.525 443.845 242.96 443.208C242.395 442.571 241.654 442.116 240.831 441.899C240.007 441.683 239.138 441.715 238.333 441.992C237.527 442.268 236.822 442.777 236.306 443.454C235.789 444.131 235.485 444.946 235.431 445.796C235.377 446.646 235.575 447.492 236.002 448.23C236.284 448.725 236.663 449.158 237.115 449.505C237.567 449.852 238.084 450.106 238.635 450.251C239.186 450.396 239.761 450.429 240.325 450.349C240.889 450.27 241.432 450.078 241.922 449.786Z" fill="#35B1FF"/>
<path d="M136.973 511.105C136.236 511.534 135.388 511.735 134.536 511.683C133.685 511.63 132.868 511.327 132.19 510.81C131.511 510.293 131.001 509.587 130.723 508.78C130.446 507.973 130.415 507.103 130.632 506.278C130.85 505.453 131.308 504.711 131.947 504.147C132.586 503.582 133.379 503.22 134.224 503.105C135.069 502.991 135.93 503.13 136.696 503.505C137.462 503.88 138.1 504.473 138.529 505.211C138.817 505.699 139.005 506.24 139.083 506.801C139.161 507.363 139.126 507.934 138.981 508.483C138.837 509.031 138.584 509.545 138.24 509.995C137.895 510.445 137.464 510.822 136.973 511.105V511.105Z" fill="#35B1FF"/>
<path d="M629.898 123.127C629.895 122.954 629.842 122.786 629.745 122.642C629.613 122.43 629.404 122.277 629.161 122.215C628.919 122.153 628.662 122.187 628.444 122.311L489.762 203.376C489.655 203.44 489.561 203.524 489.487 203.624C489.412 203.724 489.358 203.837 489.327 203.958C489.296 204.079 489.289 204.205 489.307 204.328C489.325 204.452 489.367 204.57 489.431 204.678C489.494 204.785 489.578 204.878 489.678 204.953C489.778 205.028 489.892 205.082 490.013 205.113C490.133 205.144 490.259 205.15 490.383 205.133C490.506 205.115 490.625 205.073 490.732 205.009L629.413 124.097C629.579 123.999 629.713 123.856 629.8 123.684C629.886 123.512 629.92 123.318 629.898 123.127Z" fill="#35B1FF"/>
<path d="M630.918 126.98C631.655 126.551 632.249 125.913 632.624 125.147C632.998 124.38 633.137 123.52 633.023 122.675C632.909 121.83 632.546 121.037 631.982 120.398C631.417 119.758 630.675 119.301 629.851 119.083C629.026 118.865 628.155 118.897 627.348 119.174C626.542 119.451 625.835 119.962 625.319 120.64C624.802 121.319 624.498 122.136 624.446 122.987C624.393 123.839 624.594 124.686 625.024 125.424C625.604 126.406 626.548 127.12 627.651 127.412C628.755 127.703 629.928 127.548 630.918 126.98V126.98Z" fill="#35B1FF"/>
<path d="M492.594 207.815C491.857 208.241 491.01 208.44 490.161 208.386C489.311 208.332 488.496 208.028 487.819 207.511C487.142 206.995 486.633 206.289 486.356 205.484C486.079 204.679 486.047 203.81 486.264 202.986C486.48 202.162 486.936 201.421 487.573 200.856C488.21 200.291 489 199.928 489.844 199.811C490.687 199.694 491.546 199.83 492.313 200.201C493.079 200.572 493.719 201.161 494.151 201.895C494.439 202.386 494.628 202.928 494.706 203.492C494.784 204.055 494.75 204.629 494.605 205.179C494.46 205.729 494.208 206.246 493.863 206.698C493.518 207.15 493.087 207.53 492.594 207.815V207.815Z" fill="#35B1FF"/>
<path d="M489.276 249.765C489.325 249.608 489.325 249.439 489.276 249.281C489.215 249.171 489.133 249.074 489.034 248.996C488.935 248.919 488.822 248.862 488.701 248.828C488.579 248.795 488.453 248.786 488.328 248.803C488.204 248.819 488.083 248.86 487.975 248.923L385.399 308.887C385.291 308.95 385.197 309.034 385.122 309.134C385.047 309.234 384.992 309.347 384.961 309.468C384.93 309.589 384.924 309.715 384.942 309.839C384.96 309.963 385.003 310.081 385.067 310.188C385.128 310.299 385.21 310.396 385.31 310.473C385.409 310.55 385.524 310.606 385.646 310.637C385.768 310.668 385.895 310.674 386.019 310.654C386.144 310.633 386.263 310.588 386.369 310.52L488.944 250.582C489.064 250.485 489.157 250.359 489.215 250.216C489.273 250.073 489.294 249.918 489.276 249.765V249.765Z" fill="#35B1FF"/>
<path d="M490.349 253.593C491.087 253.164 491.68 252.526 492.055 251.759C492.43 250.993 492.569 250.133 492.454 249.288C492.34 248.442 491.978 247.65 491.413 247.01C490.848 246.371 490.107 245.914 489.282 245.696C488.457 245.478 487.586 245.51 486.78 245.787C485.973 246.064 485.267 246.574 484.75 247.253C484.233 247.932 483.929 248.748 483.877 249.6C483.824 250.451 484.026 251.299 484.455 252.036C485.03 253.024 485.975 253.743 487.08 254.034C488.185 254.326 489.361 254.167 490.349 253.593Z" fill="#35B1FF"/>
<path d="M388.155 313.324C387.418 313.751 386.571 313.949 385.721 313.895C384.871 313.841 384.056 313.537 383.379 313.02C382.702 312.504 382.193 311.799 381.917 310.993C381.64 310.188 381.608 309.319 381.824 308.495C382.041 307.672 382.496 306.931 383.133 306.366C383.77 305.801 384.561 305.437 385.404 305.32C386.248 305.204 387.107 305.339 387.873 305.71C388.64 306.081 389.279 306.671 389.711 307.404C390.287 308.396 390.447 309.576 390.155 310.686C389.863 311.795 389.144 312.744 388.155 313.324V313.324Z" fill="#35B1FF"/>
<path d="M446.384 554.483C446.384 554.309 446.33 554.14 446.23 553.998C446.17 553.888 446.087 553.791 445.988 553.714C445.888 553.637 445.774 553.581 445.652 553.55C445.53 553.518 445.403 553.513 445.278 553.533C445.154 553.553 445.035 553.598 444.929 553.666L184.177 706.05C183.958 706.183 183.8 706.397 183.737 706.645C183.675 706.894 183.714 707.157 183.845 707.377C183.906 707.488 183.989 707.584 184.088 707.662C184.188 707.739 184.302 707.795 184.424 707.826C184.546 707.857 184.673 707.863 184.797 707.842C184.922 707.822 185.041 707.777 185.147 707.709L445.899 555.325C446.048 555.242 446.172 555.119 446.258 554.971C446.343 554.823 446.387 554.654 446.384 554.483V554.483Z" fill="#35B1FF"/>
</g>
</svg>
