<svg width="133" height="32" viewBox="0 0 133 32" fill="none" xmlns="http://www.w3.org/2000/svg">
    <path d="M1 4.57617H6.7271L12.3091 21.2774L17.7682 4.57617H23.2534L14.8507 27.4511H9.40273L1 4.57617Z" fill="#634CF3"/>
    <path d="M26.0293 4.57617H31.2094V27.4511H26.0293V4.57617Z" fill="#634CF3"/>
    <path d="M33.5913 4.57617H47.5723L48.6887 9.07524L38.7788 9.10501V13.5706H46.9099L48.0263 17.958H38.7676V22.8999H52.0043L53.1914 27.4585H33.5913V4.57617Z" fill="#634CF3"/>
    <path d="M51.0996 4.57617H56.6555L60.0047 21.1434L64.02 5.19391H68.7163L72.7651 21.1434L76.0919 4.57617H81.4394L75.6119 27.4511H70.1676L66.2602 12.4988L62.2821 27.4511H56.8416L51.0996 4.57617Z" fill="#634CF3"/>
    <path d="M92.611 14.8654H102.502V24.7753C101.277 25.8258 99.8641 26.6351 98.3381 27.1606C96.586 27.7443 94.7478 28.0274 92.9012 27.9979C91.1865 28.0253 89.4821 27.7286 87.8775 27.1234C86.4662 26.5814 85.1862 25.7455 84.1227 24.6711C83.0806 23.5959 82.2801 22.3107 81.7745 20.9014C81.2231 19.3489 80.951 17.711 80.9707 16.0637C80.9537 14.435 81.2441 12.8177 81.8266 11.2967C82.3712 9.87293 83.1987 8.57435 84.2591 7.47935C85.3196 6.38436 86.591 5.51568 87.9965 4.92578C89.5169 4.29359 91.1506 3.9795 92.797 4.00289C94.6841 3.96206 96.5554 4.35416 98.2674 5.14906C99.804 5.88973 101.139 6.99011 102.16 8.35683L98.6618 11.6837C97.9724 10.8525 97.1561 10.1354 96.243 9.55882C95.2629 8.98131 94.1386 8.69477 93.0017 8.73269C92.0334 8.7166 91.0737 8.91616 90.1921 9.31692C89.3929 9.6852 88.6803 10.2178 88.1007 10.8799C87.5156 11.5638 87.0717 12.3568 86.7946 13.2131C86.4953 14.1322 86.3457 15.0934 86.3517 16.0599C86.338 17.0755 86.5121 18.0848 86.8653 19.037C87.182 19.889 87.6724 20.6658 88.3054 21.3182C88.9227 21.9521 89.6637 22.4524 90.4824 22.7881C91.3491 23.1366 92.276 23.3111 93.2101 23.3016C94.0547 23.3107 94.8964 23.2018 95.7108 22.9779C96.4496 22.7684 97.1383 22.4114 97.7352 21.9285V19.0668H93.6827L92.611 14.8654Z" fill="#634CF3"/>
    <path d="M104.512 4.57617H109.685V27.4511H104.512V4.57617Z" fill="#634CF3"/>
    <path d="M111.72 4.57617H116.658L126.568 19.4391V4.57617H131.678V27.4511H126.981L116.83 12.3277V27.4511H111.72V4.57617Z" fill="#634CF3"/>
</svg>
