<svg width="38" height="38" viewBox="0 0 38 38" fill="none" xmlns="http://www.w3.org/2000/svg">
    <path fill-rule="evenodd" clip-rule="evenodd" d="M7.12535 30.8196C7.12535 31.2683 7.37726 31.6434 7.73576 31.8594L7.73534 31.8594C8.16306 33.0275 9.1439 33.9736 10.4406 34.2978L15.7169 35.613H2.57553C1.15292 35.613 0 34.4603 0 33.0382V2.57356C0 1.15147 1.15292 0 2.57553 0H28.3002C29.7229 0 30.876 1.15147 30.876 2.57356V11.0612L23.7511 9.28413V4.79332C23.7511 4.11184 23.1987 3.56102 22.5184 3.56102H8.35809C7.67768 3.56102 7.12535 4.11182 7.12535 4.79332V14.199C7.12535 14.8805 7.6777 15.4324 8.35809 15.4324H11.15L9.96609 20.1809H8.35809C7.67768 20.1809 7.12535 20.7328 7.12535 21.4132V30.8196ZM28.5009 2.37399H26.1258V4.74819H28.5009V2.37399ZM28.5009 7.12246H26.1258V9.49666H28.5009V7.12246ZM2.37549 33.2388H4.75029L4.75056 30.8646H2.37549V33.2388ZM2.37549 28.4903H4.75029L4.75056 26.1161H2.37549V28.4903ZM2.37549 23.7418H4.75029L4.75056 21.3676H2.37549V23.7418ZM2.37549 18.9934H4.75029L4.75056 16.6192H2.37549V18.9934ZM2.37549 14.2452H4.75029L4.75056 11.871H2.37549V14.2452ZM2.37549 9.49672H4.75029L4.75056 7.12252H2.37549V9.49672ZM2.37549 4.74826H4.75029L4.75056 2.37406H2.37549V4.74826ZM16.8072 8.77756L35.9596 13.5519L35.9595 13.5523C37.3965 13.9109 38.2787 15.3791 37.9202 16.8158L33.144 35.9598C32.7853 37.3961 31.3162 38.278 29.8806 37.9207L10.7283 33.145C9.29165 32.7864 8.41051 31.3203 8.76901 29.8828L13.5452 10.7375C13.9026 9.30107 15.3717 8.42025 16.8072 8.77756ZM31.618 30.9583L35.0914 17.0326H35.0915C35.2103 16.5565 34.9157 16.0651 34.4384 15.9477L17.0265 11.6063C16.5479 11.4876 16.0587 11.7808 15.9388 12.2592L12.4641 26.1836C12.3466 26.662 12.6412 27.1511 13.1185 27.2698L30.5303 31.6111C31.0076 31.7299 31.4982 31.4354 31.618 30.9583ZM22.4672 16.041C22.4672 17.3864 21.3761 18.4769 20.0304 18.4769C18.6844 18.4769 17.5935 17.3864 17.5935 16.041C17.5935 14.6958 18.6844 13.6052 20.0304 13.6052C21.3761 13.6052 22.4672 14.6957 22.4672 16.041ZM26.5688 19.3378C26.944 18.9757 27.381 19.0859 27.5438 19.5811L30.4853 28.5677C30.6457 29.0628 30.3726 29.3335 29.8666 29.2076L26.1864 28.2899C26.036 28.2524 25.857 28.2076 25.6663 28.16C25.217 28.0476 24.7032 27.9191 24.348 27.8316L19.9993 26.7491C19.4934 26.6219 18.6658 26.4143 18.1599 26.2884L14.481 25.3721C13.9753 25.2462 13.9193 24.9554 14.3659 24.6882L20.0447 21.3024C20.4912 21.0331 21.0764 21.1802 21.3461 21.6266L21.9053 22.5549C22.1723 23.0013 22.7008 23.0713 23.0749 22.7116L26.5688 19.3378Z" fill="url(#paint0_linear_1296_197600)"/>
    <defs>
        <linearGradient id="paint0_linear_1296_197600" x1="1.89996" y1="1.90001" x2="9.28146" y2="40.5799" gradientUnits="userSpaceOnUse">
            <stop stop-color="#9AFFFF"/>
            <stop offset="0.4375" stop-color="#5CD3DB"/>
            <stop offset="1" stop-color="#3C94BA"/>
        </linearGradient>
    </defs>
</svg>
