<svg width="44" height="36" viewBox="0 0 44 36" fill="none" xmlns="http://www.w3.org/2000/svg">
    <path d="M32.7935 26.137H31.0061C29.0127 27.9933 25.7813 29.2305 22.0686 29.2305C18.3564 29.2305 15.1251 27.9933 13.1312 26.137H11.8248C5.29379 26.137 0 30.1244 0 35.0744H43.9993C44.0684 30.1245 38.9813 26.137 32.7936 26.137H32.7935Z" fill="url(#paint0_linear_1296_197595)"/>
    <path d="M22.0683 0.425049C14.7125 0.425049 8.7998 6.33746 8.7998 13.6936C8.7998 20.9809 14.7122 26.9621 22.0683 26.9621C29.3556 26.9621 35.3369 21.0497 35.3369 13.6936C35.2683 6.3377 29.3559 0.425049 22.0683 0.425049ZM22.0683 23.9372C16.4307 23.9372 11.8246 19.331 11.8246 13.6935C11.8246 12.7996 11.9623 11.9747 12.1685 11.2185C13.4057 11.8371 15.5373 12.6625 18.0809 12.6625C19.8682 12.6625 21.7931 12.2501 23.6494 10.9438C23.8556 10.8061 28.3932 7.57494 31.9683 10.8061C32.2431 11.7686 32.3807 12.7311 32.3807 13.7621C32.3121 19.3311 27.706 23.9373 22.0684 23.9373L22.0683 23.9372Z" fill="url(#paint1_linear_1296_197595)"/>
    <defs>
        <linearGradient id="paint0_linear_1296_197595" x1="2.19994" y1="26.5838" x2="2.56488" y2="35.9983" gradientUnits="userSpaceOnUse">
            <stop stop-color="#AE9AFF"/>
            <stop offset="0.4375" stop-color="#755CDB"/>
            <stop offset="1" stop-color="#6C3CBA"/>
        </linearGradient>
        <linearGradient id="paint1_linear_1296_197595" x1="10.1266" y1="1.7519" x2="15.2814" y2="28.7637" gradientUnits="userSpaceOnUse">
            <stop stop-color="#AE9AFF"/>
            <stop offset="0.4375" stop-color="#755CDB"/>
            <stop offset="1" stop-color="#6C3CBA"/>
        </linearGradient>
    </defs>
</svg>
