<svg width="601" height="552" viewBox="0 0 601 552" fill="none" xmlns="http://www.w3.org/2000/svg">
    <circle cx="221" cy="14" r="4" fill="white" fill-opacity="0.1"/>
    <circle cx="404" cy="543" r="4" fill="white" fill-opacity="0.1"/>
    <circle cx="57" cy="466" r="8" fill="white" fill-opacity="0.1"/>
    <circle cx="553" cy="107" r="8" fill="white" fill-opacity="0.1"/>
    <path opacity="0.04" d="M415.165 235.229C639.675 314.388 300.403 552.205 266.477 395.464C249.599 317.454 91.4514 365.715 96.2189 285.225C100.986 204.736 172.193 211.668 242.881 172.243C330.918 122.714 355.722 214.271 415.165 235.229Z" stroke="#7945F3" stroke-width="1.37" stroke-miterlimit="10"/>
    <path opacity="0.07" d="M416.902 231.2C627.528 314.253 311.545 548.04 266.546 398.941C244.37 325.456 88.78 356.907 98.2679 279.111C107.697 201.344 176.959 202.065 246.12 169.51C332.407 128.913 359.527 208.574 416.902 231.2Z" stroke="#7741F2" stroke-width="1.37" stroke-miterlimit="10"/>
    <path opacity="0.11" d="M418.642 227.165C615.337 313.712 322.885 544.05 266.6 402.423C239.239 333.554 86.1004 348.127 100.368 273.019C114.476 197.985 181.692 192.327 249.416 166.776C333.764 134.965 363.283 202.809 418.642 227.165Z" stroke="#753CF1" stroke-width="1.37" stroke-miterlimit="10"/>
    <path opacity="0.15" d="M420.38 223.135C603.126 312.737 334.459 540.184 266.688 405.962C234.241 341.719 83.4128 339.353 102.436 266.927C121.252 194.604 186.306 182.589 252.669 164.043C335.078 141.023 366.995 196.954 420.38 223.135Z" stroke="#7238F0" stroke-width="1.37" stroke-miterlimit="10"/>
    <path opacity="0.19" d="M422.118 219.106C590.956 311.261 346.321 536.375 266.758 409.473C229.39 349.868 80.7365 330.579 104.509 260.836C128.029 191.228 190.914 172.868 255.956 161.31C336.35 147.064 370.648 191.008 422.118 219.106Z" stroke="#7033EF" stroke-width="1.37" stroke-miterlimit="10"/>
    <path opacity="0.23" d="M423.857 215.071C578.846 309.277 358.497 532.582 266.829 412.984C224.7 358.017 78.0497 321.799 106.578 254.744C134.806 187.847 195.505 163.063 259.227 158.577C337.57 153.066 374.296 184.95 423.857 215.071Z" stroke="#6E2EEE" stroke-width="1.37" stroke-miterlimit="10"/>
    <path opacity="0.26" d="M425.601 211.042C566.935 306.764 370.978 528.671 266.9 416.495C220.156 366.109 75.3738 313.019 108.652 248.652C141.583 184.471 200.036 153.246 262.497 155.85C338.76 159.022 377.943 178.763 425.601 211.042Z" stroke="#6C2AED" stroke-width="1.37" stroke-miterlimit="10"/>
    <path opacity="0.3" d="M427.34 207.007C555.22 303.72 383.731 524.569 266.971 420.022C215.736 374.134 72.6872 304.256 110.727 242.577C148.361 181.09 204.569 143.379 265.769 153.145C339.939 164.911 381.627 172.44 427.34 207.007Z" stroke="#6A25EC" stroke-width="1.37" stroke-miterlimit="10"/>
    <path opacity="0.34" d="M429.077 202.978C543.792 300.164 396.665 520.207 267.017 423.51C211.415 382.018 69.981 295.465 112.794 236.468C155.136 177.714 209.105 133.46 269.038 150.383C341.123 170.738 385.386 165.959 429.077 202.978Z" stroke="#6820EB" stroke-width="1.37" stroke-miterlimit="10"/>
    <path opacity="0.38" d="M430.816 198.943C532.767 296.147 409.772 515.558 267.111 427.021C207.12 389.794 67.3351 286.702 114.869 230.377C161.914 174.333 213.673 123.491 272.309 147.65C342.343 176.509 389.264 159.343 430.816 198.943Z" stroke="#661CEA" stroke-width="1.37" stroke-miterlimit="10"/>
    <path opacity="0.41" d="M432.556 194.914C522.131 291.74 422.909 510.61 267.183 430.532C202.854 397.459 64.6372 277.905 116.944 224.279C168.686 170.952 218.306 113.483 275.581 144.911C343.605 182.234 393.337 152.519 432.556 194.914Z" stroke="#6417E9" stroke-width="1.37" stroke-miterlimit="10"/>
    <path opacity="0.45" d="M434.293 190.901C512.006 287.068 436.026 505.403 267.253 434.066C198.563 405.033 61.9552 269.154 119.012 218.233C175.468 167.577 222.937 103.464 278.851 142.184C344.924 187.943 397.638 145.554 434.293 190.901Z" stroke="#6213E8" stroke-width="1.37" stroke-miterlimit="10"/>
    <path opacity="0.49" d="M436.033 186.849C502.442 282.194 449.074 499.914 267.325 437.554C194.25 412.477 59.2981 260.351 121.087 212.101C182.24 164.201 227.635 93.4383 282.122 139.456C346.298 193.651 402.312 138.442 436.033 186.849Z" stroke="#5F0EE7" stroke-width="1.37" stroke-miterlimit="10"/>
    <path opacity="0.53" d="M437.77 182.815C493.466 277.347 462.009 494.251 267.401 441.065C189.865 419.876 56.6044 251.571 123.167 206.01C189.022 160.82 232.366 83.4244 285.392 136.723C347.712 199.354 407.374 131.229 437.77 182.815Z" stroke="#5D09E6" stroke-width="1.37" stroke-miterlimit="10"/>
    <path opacity="0.56" d="M439.51 178.785C485.081 272.681 474.839 488.446 267.46 444.575C185.411 427.219 53.9119 242.797 125.23 199.918C195.794 157.444 237.129 73.4216 288.664 133.984C349.162 205.102 412.902 123.97 439.51 178.785Z" stroke="#5B05E5" stroke-width="1.37" stroke-miterlimit="10"/>
    <path opacity="0.6" d="M441.247 174.756C477.271 268.387 487.496 482.518 267.53 448.07C180.901 434.505 51.2237 234 127.274 193.809C202.576 154.063 241.913 63.4304 291.927 131.257C350.635 210.856 418.924 116.741 441.247 174.756Z" stroke="#5900E4" stroke-width="1.37" stroke-miterlimit="10"/>
    <path d="M323.573 455.914C162.933 768.229 -38.7938 210.625 173.735 217.066C280.165 220.29 243.928 -17.2 348.041 2.1179C452.155 21.4358 414.728 119.846 452.827 230.349C500.384 368.363 365.084 375.205 323.573 455.914Z" stroke="#1CA4E9" stroke-width="1.37" stroke-miterlimit="10"/>
    <g style="mix-blend-mode:hard-light" opacity="0.94">
        <path d="M328.135 459.255C165.798 751.921 -36.595 226.883 169.322 216.345C271.632 211.11 255.668 -18.8738 355.084 6.3894C454.501 31.6526 425.801 128.569 455.332 235.516C492.659 368.82 370.99 381.995 328.135 459.255Z" stroke="#1CA4E9" stroke-width="1.37" stroke-miterlimit="10"/>
    </g>
    <g style="mix-blend-mode:hard-light" opacity="0.88">
        <path d="M332.691 462.597C169.075 735.578 -34.7616 243.31 164.909 215.629C262.934 202.037 267.401 -20.5473 362.133 10.6724C456.812 41.7399 436.48 137.366 457.831 240.673C484.433 369.366 376.966 388.701 332.691 462.597Z" stroke="#1CA4E9" stroke-width="1.37" stroke-miterlimit="10"/>
    </g>
    <g style="mix-blend-mode:hard-light" opacity="0.81">
        <path d="M337.252 465.934C172.834 719.247 -33.2476 260.024 160.494 214.914C254.1 193.116 279.152 -22.221 369.175 14.9496C459.139 51.8948 447.353 146.089 460.335 245.835C476.471 369.817 383.035 395.407 337.252 465.934Z" stroke="#1CA4E9" stroke-width="1.37" stroke-miterlimit="10"/>
    </g>
    <g style="mix-blend-mode:hard-light" opacity="0.75">
        <path d="M341.813 469.286C177.078 702.955 -31.9685 277.122 156.08 214.192C245.172 184.393 290.891 -23.8947 376.217 19.21C461.467 62.0384 458.243 154.751 462.846 250.968C468.527 370.229 389.206 402.046 341.813 469.286Z" stroke="#1CA4E9" stroke-width="1.37" stroke-miterlimit="10"/>
    </g>
    <g style="mix-blend-mode:hard-light" opacity="0.69">
        <path d="M346.369 472.617C181.91 686.759 -30.7896 294.591 151.673 213.477C236.209 175.895 302.636 -25.5684 383.26 23.5322C463.795 72.2327 469.164 163.446 465.339 256.164C460.619 370.601 395.494 408.65 346.369 472.617Z" stroke="#1CA4E9" stroke-width="1.37" stroke-miterlimit="10"/>
    </g>
    <g style="mix-blend-mode:hard-light" opacity="0.63">
        <path d="M350.93 475.958C187.367 670.721 -29.623 312.534 147.259 212.789C227.269 167.622 314.375 -27.2423 390.302 27.7923C466.123 82.3761 480.119 172.057 467.843 261.309C452.763 370.939 401.923 415.238 350.93 475.958Z" stroke="#1CA4E9" stroke-width="1.37" stroke-miterlimit="10"/>
    </g>
    <g style="mix-blend-mode:hard-light" opacity="0.56">
        <path d="M355.486 479.3C193.472 654.914 -28.2556 330.917 142.845 212.039C218.406 159.541 326.12 -28.9159 397.35 32.0753C468.445 92.5367 491.121 180.673 470.342 266.465C444.967 371.26 408.5 421.837 355.486 479.3Z" stroke="#1CA4E9" stroke-width="1.37" stroke-miterlimit="10"/>
    </g>
    <g style="mix-blend-mode:hard-light" opacity="0.5">
        <path d="M360.047 482.642C200.256 639.423 -26.5995 349.649 138.431 211.324C209.679 151.589 337.854 -30.5895 404.393 36.3582C470.773 102.692 502.183 189.278 472.847 271.627C437.241 371.576 415.248 428.481 360.047 482.642Z" stroke="#1CA4E9" stroke-width="1.37" stroke-miterlimit="10"/>
    </g>
    <g style="mix-blend-mode:hard-light" opacity="0.44">
        <path d="M364.637 485.984C207.704 624.331 -24.5849 368.6 134.016 210.625C201.092 143.784 349.598 -32.2575 411.434 40.6354C473.099 112.852 513.302 197.906 475.351 276.784C429.579 371.908 422.189 435.215 364.637 485.984Z" stroke="#1CA4E9" stroke-width="1.37" stroke-miterlimit="10"/>
    </g>
    <g style="mix-blend-mode:hard-light" opacity="0.38">
        <path d="M369.162 489.326C215.776 609.741 -22.1934 387.721 129.601 209.887C192.657 136.013 361.336 -33.9481 418.475 44.9464C475.426 123.013 524.469 206.556 477.848 281.946C421.987 372.28 429.324 442.096 369.162 489.326Z" stroke="#1CA4E9" stroke-width="1.37" stroke-miterlimit="10"/>
    </g>
    <g style="mix-blend-mode:hard-light" opacity="0.31">
        <path d="M373.724 492.667C224.381 595.76 -19.4282 406.903 125.189 209.171C184.373 128.248 373.076 -35.6106 425.525 49.201C477.755 133.167 535.679 215.252 480.331 287.102C414.44 372.703 436.674 449.208 373.724 492.667Z" stroke="#1CA4E9" stroke-width="1.37" stroke-miterlimit="10"/>
    </g>
    <g style="mix-blend-mode:hard-light" opacity="0.25">
        <path d="M378.28 496.009C233.445 582.472 -16.3399 426.08 120.751 208.455C176.211 120.46 384.815 -37.2844 432.567 53.4781C480.083 143.333 546.893 224.003 482.859 292.258C406.915 373.181 444.224 456.641 378.28 496.009Z" stroke="#1CA4E9" stroke-width="1.37" stroke-miterlimit="10"/>
    </g>
    <g style="mix-blend-mode:hard-light" opacity="0.19">
        <path d="M382.841 499.351C242.727 569.967 -12.9692 445.19 116.361 207.734C168.155 112.649 396.56 -38.9579 439.609 57.7612C482.411 153.494 558.155 232.8 485.358 297.409C399.407 373.723 451.95 464.519 382.841 499.351Z" stroke="#1CA4E9" stroke-width="1.37" stroke-miterlimit="10"/>
    </g>
    <g style="mix-blend-mode:hard-light" opacity="0.13">
        <path d="M387.402 502.692C251.996 558.324 -9.37494 464.214 111.946 207.018C160.176 104.782 408.299 -40.6318 446.675 62.0438C484.762 163.649 569.41 241.647 487.885 302.576C391.869 374.32 459.799 472.961 387.402 502.692Z" stroke="#1CA4E9" stroke-width="1.37" stroke-miterlimit="10"/>
    </g>
    <g style="mix-blend-mode:hard-light" opacity="0.06">
        <path d="M391.956 506.034C260.917 547.482 -5.61002 483.116 107.532 206.303C152.266 96.859 420.031 -42.2997 453.693 66.3212C487.065 173.809 580.607 250.529 490.36 307.739C384.325 374.957 467.659 482.084 391.956 506.034Z" stroke="#1CA4E9" stroke-width="1.37" stroke-miterlimit="10"/>
    </g>
    <path opacity="0.03" d="M143.646 379.848C-210.052 339.674 210.504 -93.5193 310.068 112.666C359.57 215.229 575.481 99.8006 594.168 212.468C612.855 325.135 506.485 337.487 415.684 413.756C302.725 509.365 237.223 390.471 143.646 379.848Z" stroke="#2AEFFF" stroke-width="1.37" stroke-miterlimit="10"/>
    <path opacity="0.05" d="M142.402 385.957C-192.426 336.084 195.505 -84.3956 308.847 107.837C364.661 202.51 582.199 111.1 593.077 221.524C604.086 331.841 502.536 352.224 411.782 418.535C298.575 501.216 233.409 399.51 142.402 385.957Z" stroke="#2AEFFF" stroke-width="1.37" stroke-miterlimit="10"/>
    <path opacity="0.07" d="M141.141 392.082C-174.583 333.007 180.118 -75.4581 307.627 102.99C369.551 189.667 588.916 122.387 591.987 230.563C595.251 338.581 498.823 367.095 407.857 423.291C294.668 493.259 229.684 408.622 141.141 392.082Z" stroke="#2AEFFF" stroke-width="1.37" stroke-miterlimit="10"/>
    <path opacity="0.1" d="M139.886 398.169C-156.602 330.528 164.336 -66.6331 306.407 98.1833C374.225 176.852 595.635 133.686 590.897 239.63C586.418 345.349 495.134 381.995 403.944 428.098C290.82 485.296 226.084 417.83 139.886 398.169Z" stroke="#2AEFFF" stroke-width="1.37" stroke-miterlimit="10"/>
    <path opacity="0.13" d="M138.624 404.272C-138.481 328.708 148.1 -57.7799 305.181 93.3539C378.668 164.055 602.358 145.002 589.818 248.692C577.596 352.111 491.503 396.901 400.06 432.888C287.036 477.351 222.554 427.162 138.624 404.272Z" stroke="#2AEFFF" stroke-width="1.37" stroke-miterlimit="10"/>
    <path opacity="0.15" d="M137.369 410.38C-120.289 327.62 131.423 -48.7918 303.938 88.5242C382.905 151.341 609.077 156.306 588.716 257.742C568.75 358.868 487.909 411.806 396.118 437.672C283.312 469.438 219.077 436.63 137.369 410.38Z" stroke="#2AEFFF" stroke-width="1.37" stroke-miterlimit="10"/>
    <path opacity="0.18" d="M136.108 416.489C-102.097 327.31 114.351 -39.527 302.759 83.695C386.948 138.763 615.813 167.605 587.644 266.798C559.946 365.625 484.391 426.785 392.228 442.451C279.664 461.583 215.677 446.272 136.108 416.489Z" stroke="#2AEFFF" stroke-width="1.37" stroke-miterlimit="10"/>
    <path opacity="0.2" d="M134.852 422.592C-84.047 327.84 96.9774 -29.8907 301.521 78.8711C390.831 126.36 622.513 178.904 586.535 275.854C551.082 372.359 480.872 441.82 388.297 447.235C276.045 453.806 212.27 456.117 134.852 422.592Z" stroke="#2AEFFF" stroke-width="1.37" stroke-miterlimit="10"/>
    <path opacity="0.23" d="M133.592 428.712C-66.19 329.13 79.4109 -19.8147 300.302 74.0416C394.657 114.137 629.237 190.208 585.446 284.91C542.249 379.121 477.378 456.923 384.385 452.02C272.434 446.12 208.818 466.193 133.592 428.712Z" stroke="#2AEFFF" stroke-width="1.37" stroke-miterlimit="10"/>
    <path opacity="0.25" d="M132.337 434.804C-48.6642 331.221 61.808 -9.28803 299.076 69.212C398.463 102.094 635.949 201.507 584.355 293.966C533.415 385.884 473.866 472.104 380.472 456.804C268.803 438.517 205.258 476.533 132.337 434.804Z" stroke="#2AEFFF" stroke-width="1.37" stroke-miterlimit="10"/>
    <path opacity="0.28" d="M131.076 440.913C-31.6087 334.039 44.2473 1.66147 297.857 64.3883C402.306 90.215 642.674 212.806 583.272 303.044C524.582 392.646 470.313 487.319 376.559 461.589C265.127 430.966 201.511 487.173 131.076 440.913Z" stroke="#2AEFFF" stroke-width="1.37" stroke-miterlimit="10"/>
    <path opacity="0.3" d="M129.821 447.021C-15.1493 337.488 26.8155 12.9773 296.637 59.5589C406.214 78.471 649.393 224.11 582.182 312.072C515.749 399.42 466.677 502.608 372.646 466.367C261.385 423.5 197.468 498.128 129.821 447.021Z" stroke="#2AEFFF" stroke-width="1.37" stroke-miterlimit="10"/>
    <path opacity="0.33" d="M128.56 453.124C0.567579 341.364 9.56633 24.5915 295.417 54.7292C410.203 66.8339 656.111 235.42 581.091 321.128C506.915 406.171 463.052 517.908 368.763 471.152C257.572 416.038 193.007 509.399 128.56 453.124Z" stroke="#2AEFFF" stroke-width="1.37" stroke-miterlimit="10"/>
    <path opacity="0.35" d="M127.305 459.233C15.43 345.444 -7.46477 36.4201 294.197 49.8998C414.293 55.2703 662.829 246.708 580.013 330.184C498.081 412.933 459.322 533.214 364.826 475.936C253.7 408.583 188.004 520.968 127.305 459.233Z" stroke="#2AEFFF" stroke-width="1.37" stroke-miterlimit="10"/>
    <path opacity="0.38" d="M126.043 465.342C29.349 349.491 -24.3077 48.4064 292.971 45.0759C418.494 43.7572 669.54 258.012 578.91 339.24C489.247 419.695 455.556 548.508 360.913 480.72C249.769 401.099 182.334 532.774 126.043 465.342Z" stroke="#2AEFFF" stroke-width="1.37" stroke-miterlimit="10"/>
    <path opacity="0.4" d="M124.788 471.445C42.2841 353.199 -40.8852 60.4885 291.751 40.2465C422.761 32.2725 676.27 269.311 577.82 348.296C480.413 426.458 451.755 563.785 356.976 485.505C245.791 393.626 175.91 544.71 124.788 471.445Z" stroke="#2AEFFF" stroke-width="1.37" stroke-miterlimit="10"/>
    <circle cx="310.5" cy="278.5" r="69" fill="white" fill-opacity="0.05" stroke="url(#paint0_linear_1296_197508)" stroke-width="3"/>
    <mask id="mask0_1296_197508" style="mask-type:alpha" maskUnits="userSpaceOnUse" x="243" y="211" width="135" height="135">
        <circle cx="310.5" cy="278.5" r="67.5" fill="white"/>
    </mask>
    <g mask="url(#mask0_1296_197508)">
        <g filter="url(#filter0_f_1296_197508)">
            <circle cx="362" cy="201" r="64" fill="#4643F0"/>
        </g>
        <g filter="url(#filter1_f_1296_197508)">
            <circle cx="286.221" cy="375.221" r="58.2205" fill="#439DF0"/>
        </g>
        <path d="M336.013 299.811L326.539 290.326C329.598 286.304 331.456 281.261 331.456 275.799C331.456 262.712 320.843 252.087 307.772 252.087C294.7 252.087 284.087 262.712 284.087 275.799C284.087 288.885 294.7 299.57 307.772 299.57C313.228 299.57 318.265 297.71 322.282 294.588L331.756 304.013C332.296 304.613 333.075 304.913 333.855 304.913C334.635 304.913 335.414 304.613 336.014 304.073C337.213 302.872 337.213 301.011 336.013 299.81L336.013 299.811ZM290.083 275.799C290.083 266.014 297.998 258.09 307.771 258.09C317.545 258.09 325.46 266.014 325.46 275.799C325.46 285.583 317.545 293.507 307.771 293.507C297.998 293.507 290.083 285.583 290.083 275.799Z" fill="url(#paint1_linear_1296_197508)"/>
    </g>
    <defs>
        <filter id="filter0_f_1296_197508" x="236.56" y="75.56" width="250.88" height="250.88" filterUnits="userSpaceOnUse" color-interpolation-filters="sRGB">
            <feFlood flood-opacity="0" result="BackgroundImageFix"/>
            <feBlend mode="normal" in="SourceGraphic" in2="BackgroundImageFix" result="shape"/>
            <feGaussianBlur stdDeviation="30.72" result="effect1_foregroundBlur_1296_197508"/>
        </filter>
        <filter id="filter1_f_1296_197508" x="165.059" y="254.059" width="242.324" height="242.323" filterUnits="userSpaceOnUse" color-interpolation-filters="sRGB">
            <feFlood flood-opacity="0" result="BackgroundImageFix"/>
            <feBlend mode="normal" in="SourceGraphic" in2="BackgroundImageFix" result="shape"/>
            <feGaussianBlur stdDeviation="31.4706" result="effect1_foregroundBlur_1296_197508"/>
        </filter>
        <linearGradient id="paint0_linear_1296_197508" x1="348.652" y1="340.13" x2="276.503" y2="207.145" gradientUnits="userSpaceOnUse">
            <stop stop-color="#BCE6FF"/>
            <stop offset="0.478079" stop-color="#51ABDE"/>
            <stop offset="1" stop-color="#4A5AE4"/>
        </linearGradient>
        <linearGradient id="paint1_linear_1296_197508" x1="267.317" y1="263.826" x2="339.261" y2="304.13" gradientUnits="userSpaceOnUse">
            <stop stop-color="#AADFFF"/>
            <stop offset="0.478079" stop-color="#7BCBF9"/>
            <stop offset="1" stop-color="#5464F3"/>
        </linearGradient>
    </defs>
</svg>
