<svg width="40" height="40" viewBox="0 0 40 40" fill="none" xmlns="http://www.w3.org/2000/svg">
    <path fill-rule="evenodd" clip-rule="evenodd" d="M20.8368 9.4038V0.000130038V0C23.741 0.641006 26.2882 4.56847 27.7163 10.0571C25.5733 9.67246 23.2617 9.44663 20.8368 9.4038ZM29.5627 10.4356C28.5527 6.09752 26.866 2.60224 24.7667 0.481069L24.7665 0.48087C32.023 2.25408 37.7442 7.97528 39.5173 15.2317C37.3961 13.1323 33.9008 11.4456 29.5627 10.4356ZM29.9422 12.2825L29.9422 12.2825H29.942L29.9422 12.2825ZM29.9422 12.2825C30.3264 14.4255 30.5527 16.7371 30.5955 19.162H39.9992C39.3583 16.2578 35.431 13.7108 29.9422 12.2825ZM30.5943 20.8365C30.5515 23.2614 30.3257 25.5731 29.941 27.7161C35.4297 26.2879 39.3571 23.7407 39.9981 20.8365H30.5943ZM28.1341 28.1337C25.8759 28.5927 23.4108 28.8703 20.8368 28.9201L20.8368 20.8364H28.9206C28.8711 23.4104 28.5935 25.8754 28.1341 28.1337ZM20.8368 19.162H28.9206C28.8707 16.588 28.5931 14.123 28.1341 11.8647C25.8759 11.4053 23.4108 11.1277 20.8368 11.0782L20.8368 19.162ZM19.162 0.000128489C16.2582 0.641005 13.7107 4.5684 12.2825 10.0573C14.4255 9.67297 16.7371 9.44676 19.162 9.40393V0.000128489ZM27.7163 29.9408C26.2881 35.4297 23.7406 39.3571 20.8368 39.9979V30.5941C23.2618 30.5513 25.5733 30.3251 27.7163 29.9408ZM29.5635 29.563C28.5535 33.9012 26.8669 37.3964 24.7675 39.5176C32.0239 37.7449 37.7451 32.0233 39.5183 24.7668C37.3972 26.8661 33.9019 28.5528 29.5637 29.5628L29.5635 29.563ZM19.1626 19.162H11.0788L11.0789 19.162C11.1283 16.588 11.4059 14.123 11.8654 11.8647C14.1236 11.4057 16.5886 11.1281 19.1626 11.0782V19.162ZM0.481062 24.7667C2.25377 32.0231 7.97538 37.7443 15.2319 39.5175C13.1325 37.3963 11.4458 33.901 10.4358 29.5629C6.09771 28.5529 2.60243 26.8662 0.481263 24.7669L0.481062 24.7667ZM10.057 27.716L10.057 27.7161H10.0571L10.057 27.716ZM9.40367 20.8365C9.4465 23.2615 9.67271 25.573 10.057 27.716C4.56821 26.2878 0.640871 23.7407 0 20.8365H9.40367ZM9.4038 19.162C9.44663 16.7372 9.67246 14.4255 10.0571 12.2825C4.56847 13.7106 0.641006 16.2578 0 19.162H9.4038ZM10.4358 10.4358C6.09771 11.4458 2.60243 13.1325 0.481262 15.2319L0.481062 15.2321C2.25427 7.97557 7.97548 2.25436 15.2319 0.481255C13.1325 2.60242 11.4458 6.0977 10.4358 10.4358ZM11.8654 28.1337C14.1236 28.5931 16.5886 28.8707 19.1626 28.9202V20.8364H11.0788C11.1283 23.4104 11.4059 25.8754 11.8653 28.1337L11.8654 28.1337ZM19.162 30.5943V39.9979V39.9981C16.2578 39.3571 13.7106 35.4296 12.2825 29.9409C14.4255 30.3256 16.7372 30.5514 19.162 30.5943Z" fill="url(#paint0_linear_1296_197575)"/>
    <defs>
        <linearGradient id="paint0_linear_1296_197575" x1="1.99991" y1="1.9999" x2="9.76928" y2="42.7135" gradientUnits="userSpaceOnUse">
            <stop stop-color="#9AF3FF"/>
            <stop offset="0.4375" stop-color="#5CADDB"/>
            <stop offset="1" stop-color="#3C49BA"/>
        </linearGradient>
    </defs>
</svg>
