<svg width="1146" height="793" viewBox="0 0 1146 793" fill="none" xmlns="http://www.w3.org/2000/svg">
    <rect x="42" y="513" width="3" height="120" rx="1.5" fill="#629AEE"/>
    <rect x="307" y="206" width="3" height="120" rx="1.5" fill="#A35FF9"/>
    <rect x="835" y="593" width="3" height="120" rx="1.5" fill="#7A64FF"/>
    <rect x="1099" y="163" width="3" height="137" rx="1.5" fill="#4CC2C2"/>
    <rect opacity="0.2" x="352" y="581" width="2" height="120" rx="1" fill="#629AEE"/>
    <rect opacity="0.2" x="88" y="212" width="2" height="88" rx="1" fill="#629AEE"/>
    <rect opacity="0.2" x="264" y="100" width="2" height="120" rx="1" fill="#629AEE"/>
    <rect opacity="0.2" x="572" y="641" width="2" height="80" rx="1" fill="#629AEE"/>
    <rect opacity="0.2" x="440" y="641" width="2" height="80" rx="1" fill="#629AEE"/>
    <rect opacity="0.2" x="792" y="522" width="2" height="80" rx="1" fill="#629AEE"/>
    <rect opacity="0.2" x="132" y="413" width="2" height="80" rx="1" fill="#629AEE"/>
    <rect opacity="0.2" x="880" y="373" width="2" height="80" rx="1" fill="#629AEE"/>
    <rect opacity="0.2" x="660" y="373" width="2" height="80" rx="1" fill="#629AEE"/>
    <rect opacity="0.2" x="484" y="373" width="2" height="80" rx="1" fill="#629AEE"/>
    <rect opacity="0.2" x="176" y="373" width="2" height="80" rx="1" fill="#629AEE"/>
    <rect opacity="0.2" x="748" y="373" width="2" height="80" rx="1" fill="#629AEE"/>
    <rect opacity="0.2" x="924" y="220" width="2" height="80" rx="1" fill="#629AEE"/>
    <rect opacity="0.2" x="704" y="220" width="2" height="80" rx="1" fill="#629AEE"/>
    <rect opacity="0.2" x="528" y="220" width="2" height="80" rx="1" fill="#629AEE"/>
    <rect opacity="0.2" y="69" width="2" height="80" rx="1" fill="#629AEE"/>
    <rect opacity="0.2" x="220" y="713" width="2" height="80" rx="1" fill="#629AEE"/>
    <rect opacity="0.2" x="1012" y="621" width="2" height="80" rx="1" fill="#629AEE"/>
    <rect opacity="0.2" x="1144" y="583" width="2" height="88" rx="1" fill="#629AEE"/>
    <rect opacity="0.2" x="1056" y="409" width="2" height="88" rx="1" fill="#629AEE"/>
    <rect opacity="0.2" x="968" width="2" height="109" rx="1" fill="#629AEE"/>
    <rect opacity="0.2" x="616" width="2" height="109" rx="1" fill="#629AEE"/>
    <rect opacity="0.2" x="396" width="2" height="109" rx="1" fill="#629AEE"/>
</svg>
