<svg width="1205" height="571" viewBox="0 0 1205 571" fill="none" xmlns="http://www.w3.org/2000/svg">
<rect x="12" y="497" width="40" height="74" rx="4" fill="#939EFF" fill-opacity="0.2"/>
<rect x="100" y="525" width="40" height="46" rx="4" fill="#939EFF" fill-opacity="0.08"/>
<rect x="144" y="479" width="40" height="92" rx="4" fill="#939EFF" fill-opacity="0.2"/>
<rect x="188" y="551" width="40" height="20" rx="4" fill="#939EFF" fill-opacity="0.15"/>
<rect x="232" y="516" width="40" height="55" rx="4" fill="#939EFF" fill-opacity="0.08"/>
<rect x="276" y="488" width="40" height="83" rx="4" fill="#939EFF" fill-opacity="0.2"/>
<rect x="320" y="421" width="40" height="150" rx="4" fill="#A35FF9"/>
<rect x="364" y="525" width="40" height="46" rx="4" fill="#939EFF" fill-opacity="0.15"/>
<rect x="408" y="543" width="40" height="28" rx="4" fill="#939EFF" fill-opacity="0.2"/>
<rect x="452" y="488" width="40" height="83" rx="4" fill="#939EFF" fill-opacity="0.08"/>
<rect x="496" y="507" width="40" height="64" rx="4" fill="#939EFF" fill-opacity="0.15"/>
<rect x="540" y="553" width="40" height="18" rx="4" fill="#939EFF" fill-opacity="0.15"/>
<rect x="584" y="516" width="40" height="55" rx="4" fill="#939EFF" fill-opacity="0.08"/>
<rect x="628" y="456" width="40" height="115" rx="4" fill="#939EFF" fill-opacity="0.2"/>
<rect x="672" y="525" width="40" height="46" rx="4" fill="#939EFF" fill-opacity="0.15"/>
<rect x="716" y="488" width="40" height="83" rx="4" fill="#939EFF" fill-opacity="0.08"/>
<rect x="760" y="507" width="40" height="64" rx="4" fill="#939EFF" fill-opacity="0.2"/>
<rect x="804" y="553" width="40" height="18" rx="4" fill="#939EFF" fill-opacity="0.15"/>
<rect x="848" y="421" width="40" height="150" rx="4" fill="#7A64FF"/>
<rect x="892" y="470" width="40" height="101" rx="4" fill="#939EFF" fill-opacity="0.15"/>
<rect x="936" y="525" width="40" height="46" rx="4" fill="#939EFF" fill-opacity="0.08"/>
<rect x="980" y="456" width="40" height="115" rx="4" fill="#939EFF" fill-opacity="0.2"/>
<rect x="1024" y="543" width="40" height="28" rx="4" fill="#939EFF" fill-opacity="0.15"/>
<rect x="1068" y="507" width="40" height="64" rx="4" fill="#939EFF" fill-opacity="0.08"/>
<rect x="1112" y="371" width="40" height="200" rx="4" fill="#4CC2C2"/>
<rect x="1156" y="525" width="40" height="46" rx="4" fill="#939EFF" fill-opacity="0.15"/>
<rect x="56" y="371" width="40" height="200" rx="4" fill="#6AA6FF"/>
<line x1="76.5" y1="187" x2="76.5" y2="355" stroke="#93D8FF" stroke-opacity="0.2"/>
<line x1="340.5" y1="373" x2="340.5" y2="405" stroke="#F693FF" stroke-opacity="0.2"/>
<line x1="1129.5" y1="237" x2="1129.5" y2="355" stroke="#93FFEC" stroke-opacity="0.2"/>
<line x1="868.5" y1="373" x2="868.5" y2="405" stroke="#93A4FF" stroke-opacity="0.2"/>
<g filter="url(#filter0_b_4_206)">
<rect x="265" y="187" width="150" height="170" rx="16" fill="#A168EA" fill-opacity="0.15"/>
<rect x="264.5" y="186.5" width="151" height="171" rx="16.5" stroke="#A168EA" stroke-opacity="0.4"/>
</g>
<path d="M319.377 313.396C320.404 313.396 321.346 313.284 322.205 313.06C323.082 312.817 323.838 312.472 324.473 312.024C325.126 311.576 325.63 311.044 325.985 310.428C326.34 309.812 326.517 309.131 326.517 308.384C326.517 307.413 326.274 306.536 325.789 305.752C325.322 304.949 324.641 304.305 323.745 303.82C322.849 303.335 321.766 303.092 320.497 303.092C319.302 303.092 318.248 303.335 317.333 303.82C316.418 304.287 315.7 304.931 315.177 305.752C314.673 306.573 314.421 307.525 314.421 308.608H317.529C317.529 308.085 317.66 307.619 317.921 307.208C318.201 306.797 318.565 306.48 319.013 306.256C319.461 306.013 319.965 305.892 320.525 305.892C321.122 305.892 321.617 306.004 322.009 306.228C322.401 306.452 322.69 306.769 322.877 307.18C323.082 307.572 323.185 308.029 323.185 308.552C323.185 308.963 323.092 309.355 322.905 309.728C322.737 310.101 322.485 310.437 322.149 310.736C321.832 311.016 321.44 311.24 320.973 311.408C320.506 311.557 319.974 311.632 319.377 311.632V313.396ZM320.357 323.336C321.701 323.336 322.877 323.103 323.885 322.636C324.893 322.169 325.677 321.525 326.237 320.704C326.797 319.864 327.077 318.884 327.077 317.764C327.077 316.775 326.881 315.935 326.489 315.244C326.097 314.535 325.546 313.965 324.837 313.536C324.146 313.088 323.334 312.761 322.401 312.556C321.468 312.332 320.46 312.22 319.377 312.22V314.124C320.049 314.124 320.646 314.199 321.169 314.348C321.71 314.479 322.168 314.684 322.541 314.964C322.933 315.244 323.232 315.589 323.437 316C323.642 316.411 323.745 316.877 323.745 317.4C323.745 318.053 323.605 318.613 323.325 319.08C323.045 319.528 322.653 319.873 322.149 320.116C321.664 320.359 321.085 320.48 320.413 320.48C319.76 320.48 319.162 320.359 318.621 320.116C318.098 319.855 317.678 319.491 317.361 319.024C317.062 318.557 316.913 318.016 316.913 317.4H313.581C313.581 318.203 313.74 318.968 314.057 319.696C314.374 320.405 314.822 321.04 315.401 321.6C315.998 322.141 316.708 322.571 317.529 322.888C318.369 323.187 319.312 323.336 320.357 323.336ZM328.734 323H343.686V319.92H335.202L340.746 314.46C341.548 313.695 342.192 312.845 342.678 311.912C343.182 310.96 343.434 309.971 343.434 308.944C343.434 308.291 343.294 307.628 343.014 306.956C342.752 306.265 342.342 305.631 341.782 305.052C341.24 304.455 340.55 303.979 339.71 303.624C338.87 303.251 337.88 303.064 336.742 303.064C335.248 303.064 333.979 303.381 332.934 304.016C331.907 304.651 331.123 305.519 330.582 306.62C330.059 307.703 329.798 308.944 329.798 310.344H333.074C333.074 309.467 333.214 308.711 333.494 308.076C333.792 307.423 334.212 306.919 334.754 306.564C335.295 306.209 335.939 306.032 336.686 306.032C337.227 306.032 337.703 306.125 338.114 306.312C338.524 306.48 338.87 306.713 339.15 307.012C339.448 307.292 339.663 307.619 339.794 307.992C339.943 308.347 340.018 308.72 340.018 309.112C340.018 309.635 339.924 310.139 339.738 310.624C339.57 311.091 339.318 311.557 338.982 312.024C338.646 312.472 338.244 312.948 337.778 313.452L328.734 323ZM345.885 307.768C345.885 308.645 346.09 309.448 346.501 310.176C346.912 310.885 347.472 311.455 348.181 311.884C348.909 312.313 349.74 312.528 350.673 312.528C351.606 312.528 352.428 312.313 353.137 311.884C353.865 311.455 354.425 310.885 354.817 310.176C355.228 309.448 355.433 308.645 355.433 307.768C355.433 306.891 355.228 306.097 354.817 305.388C354.425 304.66 353.865 304.081 353.137 303.652C352.428 303.223 351.606 303.008 350.673 303.008C349.74 303.008 348.909 303.223 348.181 303.652C347.472 304.081 346.912 304.66 346.501 305.388C346.09 306.097 345.885 306.891 345.885 307.768ZM348.461 307.768C348.461 307.339 348.554 306.956 348.741 306.62C348.928 306.265 349.18 305.985 349.497 305.78C349.833 305.556 350.225 305.444 350.673 305.444C351.121 305.444 351.504 305.556 351.821 305.78C352.157 305.985 352.409 306.265 352.577 306.62C352.745 306.956 352.829 307.339 352.829 307.768C352.829 308.179 352.745 308.571 352.577 308.944C352.409 309.299 352.157 309.588 351.821 309.812C351.504 310.017 351.121 310.12 350.673 310.12C350.225 310.12 349.833 310.017 349.497 309.812C349.18 309.588 348.928 309.299 348.741 308.944C348.554 308.571 348.461 308.179 348.461 307.768ZM357.589 318.632C357.589 319.509 357.785 320.312 358.177 321.04C358.588 321.749 359.148 322.319 359.857 322.748C360.585 323.177 361.416 323.392 362.349 323.392C363.282 323.392 364.104 323.177 364.813 322.748C365.541 322.319 366.101 321.749 366.493 321.04C366.904 320.312 367.109 319.509 367.109 318.632C367.109 317.755 366.904 316.961 366.493 316.252C366.101 315.524 365.541 314.945 364.813 314.516C364.104 314.087 363.282 313.872 362.349 313.872C361.416 313.872 360.585 314.087 359.857 314.516C359.148 314.945 358.588 315.524 358.177 316.252C357.785 316.961 357.589 317.755 357.589 318.632ZM360.165 318.632C360.165 318.203 360.249 317.811 360.417 317.456C360.604 317.101 360.856 316.821 361.173 316.616C361.509 316.392 361.901 316.28 362.349 316.28C362.797 316.28 363.18 316.392 363.497 316.616C363.833 316.821 364.085 317.101 364.253 317.456C364.44 317.811 364.533 318.203 364.533 318.632C364.533 319.043 364.44 319.425 364.253 319.78C364.085 320.135 363.833 320.424 363.497 320.648C363.18 320.853 362.797 320.956 362.349 320.956C361.901 320.956 361.509 320.853 361.173 320.648C360.856 320.424 360.604 320.135 360.417 319.78C360.249 319.425 360.165 319.043 360.165 318.632ZM361.789 303.4L348.209 323H351.205L364.813 303.4H361.789Z" fill="#E5E8F8"/>
<path d="M298.572 268H304.22V266.336H298.572V268ZM298.572 258.464H304.22V256.8H298.572V258.464ZM298.572 262.816H303.9V261.184H298.572V262.816ZM297.404 256.8V268H299.26V256.8H297.404ZM311.137 263.52V268H312.913V263.328C312.913 262.731 312.812 262.224 312.609 261.808C312.417 261.381 312.129 261.056 311.745 260.832C311.372 260.597 310.908 260.48 310.353 260.48C309.852 260.48 309.414 260.587 309.041 260.8C308.668 261.013 308.364 261.339 308.129 261.776V260.64H306.401V268H308.129V263.52C308.129 263.189 308.198 262.901 308.337 262.656C308.476 262.411 308.668 262.219 308.913 262.08C309.169 261.941 309.457 261.872 309.777 261.872C310.086 261.872 310.342 261.936 310.545 262.064C310.748 262.192 310.897 262.379 310.993 262.624C311.089 262.859 311.137 263.157 311.137 263.52ZM314.704 268.496C314.725 269.136 314.885 269.696 315.184 270.176C315.493 270.667 315.93 271.051 316.496 271.328C317.061 271.605 317.744 271.744 318.544 271.744C319.216 271.744 319.84 271.605 320.416 271.328C320.992 271.051 321.456 270.619 321.808 270.032C322.17 269.456 322.352 268.725 322.352 267.84V260.64H320.656V267.84C320.656 268.395 320.549 268.848 320.336 269.2C320.133 269.552 319.866 269.813 319.536 269.984C319.205 270.155 318.858 270.24 318.496 270.24C318.08 270.24 317.717 270.16 317.408 270C317.109 269.851 316.874 269.643 316.704 269.376C316.533 269.12 316.442 268.827 316.432 268.496H314.704ZM314.56 264.288C314.56 265.088 314.725 265.771 315.056 266.336C315.386 266.901 315.824 267.333 316.368 267.632C316.912 267.931 317.504 268.08 318.144 268.08C318.602 268.08 319.024 267.995 319.408 267.824C319.792 267.653 320.122 267.408 320.4 267.088C320.677 266.757 320.89 266.357 321.04 265.888C321.2 265.419 321.28 264.885 321.28 264.288C321.28 263.691 321.2 263.157 321.04 262.688C320.89 262.219 320.677 261.819 320.4 261.488C320.122 261.157 319.792 260.907 319.408 260.736C319.024 260.565 318.602 260.48 318.144 260.48C317.504 260.48 316.912 260.629 316.368 260.928C315.824 261.227 315.386 261.659 315.056 262.224C314.725 262.789 314.56 263.477 314.56 264.288ZM316.352 264.288C316.352 263.797 316.453 263.381 316.656 263.04C316.858 262.699 317.125 262.437 317.456 262.256C317.797 262.075 318.165 261.984 318.56 261.984C318.805 261.984 319.05 262.037 319.296 262.144C319.552 262.24 319.781 262.384 319.984 262.576C320.186 262.768 320.346 263.008 320.464 263.296C320.592 263.584 320.656 263.915 320.656 264.288C320.656 264.661 320.592 264.992 320.464 265.28C320.346 265.568 320.186 265.808 319.984 266C319.781 266.192 319.552 266.336 319.296 266.432C319.05 266.528 318.805 266.576 318.56 266.576C318.165 266.576 317.797 266.491 317.456 266.32C317.125 266.139 316.858 265.877 316.656 265.536C316.453 265.195 316.352 264.779 316.352 264.288ZM325.583 265.712C325.583 265.477 325.636 265.28 325.743 265.12C325.849 264.96 326.015 264.837 326.239 264.752C326.473 264.656 326.772 264.608 327.135 264.608C327.551 264.608 327.945 264.661 328.319 264.768C328.692 264.875 329.044 265.045 329.375 265.28V264.4C329.279 264.283 329.113 264.155 328.879 264.016C328.644 263.867 328.345 263.739 327.983 263.632C327.631 263.525 327.209 263.472 326.719 263.472C326.111 263.472 325.593 263.568 325.167 263.76C324.74 263.952 324.409 264.224 324.175 264.576C323.951 264.917 323.839 265.328 323.839 265.808C323.839 266.309 323.956 266.736 324.191 267.088C324.425 267.44 324.74 267.707 325.135 267.888C325.529 268.069 325.956 268.16 326.415 268.16C326.841 268.16 327.257 268.085 327.663 267.936C328.079 267.776 328.42 267.541 328.687 267.232C328.964 266.912 329.103 266.517 329.103 266.048L328.847 265.088C328.847 265.461 328.761 265.781 328.591 266.048C328.42 266.315 328.191 266.517 327.903 266.656C327.615 266.795 327.3 266.864 326.959 266.864C326.692 266.864 326.452 266.821 326.239 266.736C326.036 266.64 325.876 266.507 325.759 266.336C325.641 266.165 325.583 265.957 325.583 265.712ZM325.039 262.56C325.145 262.485 325.305 262.395 325.519 262.288C325.743 262.181 326.004 262.085 326.303 262C326.601 261.915 326.927 261.872 327.279 261.872C327.503 261.872 327.711 261.893 327.903 261.936C328.095 261.979 328.26 262.048 328.399 262.144C328.548 262.24 328.66 262.368 328.735 262.528C328.809 262.677 328.847 262.864 328.847 263.088V268H330.543V262.752C330.543 262.261 330.409 261.851 330.143 261.52C329.876 261.179 329.508 260.917 329.039 260.736C328.58 260.555 328.047 260.464 327.439 260.464C326.756 260.464 326.153 260.56 325.631 260.752C325.108 260.944 324.676 261.141 324.335 261.344L325.039 262.56ZM332.141 268.496C332.162 269.136 332.322 269.696 332.621 270.176C332.93 270.667 333.368 271.051 333.933 271.328C334.498 271.605 335.181 271.744 335.981 271.744C336.653 271.744 337.277 271.605 337.853 271.328C338.429 271.051 338.893 270.619 339.245 270.032C339.608 269.456 339.789 268.725 339.789 267.84V260.64H338.093V267.84C338.093 268.395 337.986 268.848 337.773 269.2C337.57 269.552 337.304 269.813 336.973 269.984C336.642 270.155 336.296 270.24 335.933 270.24C335.517 270.24 335.154 270.16 334.845 270C334.546 269.851 334.312 269.643 334.141 269.376C333.97 269.12 333.88 268.827 333.869 268.496H332.141ZM331.997 264.288C331.997 265.088 332.162 265.771 332.493 266.336C332.824 266.901 333.261 267.333 333.805 267.632C334.349 267.931 334.941 268.08 335.581 268.08C336.04 268.08 336.461 267.995 336.845 267.824C337.229 267.653 337.56 267.408 337.837 267.088C338.114 266.757 338.328 266.357 338.477 265.888C338.637 265.419 338.717 264.885 338.717 264.288C338.717 263.691 338.637 263.157 338.477 262.688C338.328 262.219 338.114 261.819 337.837 261.488C337.56 261.157 337.229 260.907 336.845 260.736C336.461 260.565 336.04 260.48 335.581 260.48C334.941 260.48 334.349 260.629 333.805 260.928C333.261 261.227 332.824 261.659 332.493 262.224C332.162 262.789 331.997 263.477 331.997 264.288ZM333.789 264.288C333.789 263.797 333.89 263.381 334.093 263.04C334.296 262.699 334.562 262.437 334.893 262.256C335.234 262.075 335.602 261.984 335.997 261.984C336.242 261.984 336.488 262.037 336.733 262.144C336.989 262.24 337.218 262.384 337.421 262.576C337.624 262.768 337.784 263.008 337.901 263.296C338.029 263.584 338.093 263.915 338.093 264.288C338.093 264.661 338.029 264.992 337.901 265.28C337.784 265.568 337.624 265.808 337.421 266C337.218 266.192 336.989 266.336 336.733 266.432C336.488 266.528 336.242 266.576 335.997 266.576C335.602 266.576 335.234 266.491 334.893 266.32C334.562 266.139 334.296 265.877 334.093 265.536C333.89 265.195 333.789 264.779 333.789 264.288ZM345.132 268.16C345.985 268.16 346.716 267.995 347.324 267.664C347.943 267.323 348.444 266.821 348.828 266.16L347.324 265.568C347.089 265.963 346.796 266.256 346.444 266.448C346.092 266.64 345.681 266.736 345.212 266.736C344.764 266.736 344.385 266.64 344.076 266.448C343.767 266.245 343.532 265.963 343.372 265.6C343.212 265.227 343.132 264.779 343.132 264.256C343.132 263.851 343.18 263.499 343.276 263.2C343.372 262.891 343.505 262.635 343.676 262.432C343.857 262.219 344.071 262.059 344.316 261.952C344.572 261.845 344.865 261.792 345.196 261.792C345.559 261.792 345.873 261.872 346.14 262.032C346.417 262.192 346.631 262.416 346.78 262.704C346.94 262.992 347.02 263.333 347.02 263.728C347.02 263.803 346.999 263.893 346.956 264C346.924 264.107 346.887 264.192 346.844 264.256L347.388 263.52H342.396V264.72H348.876C348.876 264.677 348.876 264.613 348.876 264.528C348.887 264.432 348.892 264.336 348.892 264.24C348.892 263.451 348.743 262.779 348.444 262.224C348.156 261.659 347.74 261.227 347.196 260.928C346.652 260.629 345.991 260.48 345.212 260.48C344.625 260.48 344.097 260.571 343.628 260.752C343.159 260.933 342.753 261.195 342.412 261.536C342.081 261.867 341.825 262.272 341.644 262.752C341.463 263.221 341.372 263.744 341.372 264.32C341.372 265.088 341.527 265.76 341.836 266.336C342.145 266.912 342.583 267.36 343.148 267.68C343.713 268 344.375 268.16 345.132 268.16ZM361.07 263.328C361.07 262.72 360.984 262.208 360.814 261.792C360.643 261.365 360.387 261.04 360.046 260.816C359.704 260.592 359.267 260.48 358.734 260.48C358.243 260.48 357.8 260.592 357.406 260.816C357.011 261.04 356.686 261.365 356.43 261.792C356.323 261.504 356.168 261.264 355.966 261.072C355.774 260.88 355.539 260.736 355.262 260.64C354.984 260.533 354.664 260.48 354.302 260.48C353.992 260.48 353.704 260.528 353.438 260.624C353.182 260.709 352.952 260.843 352.75 261.024C352.558 261.205 352.387 261.435 352.238 261.712V260.64H350.542V268H352.238V263.52C352.238 263.168 352.296 262.869 352.414 262.624C352.531 262.379 352.696 262.192 352.91 262.064C353.134 261.936 353.395 261.872 353.694 261.872C353.971 261.872 354.2 261.936 354.382 262.064C354.563 262.181 354.696 262.363 354.782 262.608C354.867 262.843 354.91 263.147 354.91 263.52V268H356.654V263.52C356.654 263.168 356.712 262.869 356.83 262.624C356.958 262.379 357.128 262.192 357.342 262.064C357.566 261.936 357.827 261.872 358.126 261.872C358.403 261.872 358.632 261.936 358.814 262.064C358.995 262.181 359.128 262.363 359.214 262.608C359.299 262.843 359.342 263.147 359.342 263.52V268H361.07V263.328ZM366.476 268.16C367.329 268.16 368.06 267.995 368.668 267.664C369.287 267.323 369.788 266.821 370.172 266.16L368.668 265.568C368.433 265.963 368.14 266.256 367.788 266.448C367.436 266.64 367.025 266.736 366.556 266.736C366.108 266.736 365.729 266.64 365.42 266.448C365.111 266.245 364.876 265.963 364.716 265.6C364.556 265.227 364.476 264.779 364.476 264.256C364.476 263.851 364.524 263.499 364.62 263.2C364.716 262.891 364.849 262.635 365.02 262.432C365.201 262.219 365.415 262.059 365.66 261.952C365.916 261.845 366.209 261.792 366.54 261.792C366.903 261.792 367.217 261.872 367.484 262.032C367.761 262.192 367.975 262.416 368.124 262.704C368.284 262.992 368.364 263.333 368.364 263.728C368.364 263.803 368.343 263.893 368.3 264C368.268 264.107 368.231 264.192 368.188 264.256L368.732 263.52H363.74V264.72H370.22C370.22 264.677 370.22 264.613 370.22 264.528C370.231 264.432 370.236 264.336 370.236 264.24C370.236 263.451 370.087 262.779 369.788 262.224C369.5 261.659 369.084 261.227 368.54 260.928C367.996 260.629 367.335 260.48 366.556 260.48C365.969 260.48 365.441 260.571 364.972 260.752C364.503 260.933 364.097 261.195 363.756 261.536C363.425 261.867 363.169 262.272 362.988 262.752C362.807 263.221 362.716 263.744 362.716 264.32C362.716 265.088 362.871 265.76 363.18 266.336C363.489 266.912 363.927 267.36 364.492 267.68C365.057 268 365.719 268.16 366.476 268.16ZM376.621 263.52V268H378.397V263.328C378.397 262.731 378.296 262.224 378.093 261.808C377.901 261.381 377.613 261.056 377.229 260.832C376.856 260.597 376.392 260.48 375.837 260.48C375.336 260.48 374.899 260.587 374.525 260.8C374.152 261.013 373.848 261.339 373.613 261.776V260.64H371.885V268H373.613V263.52C373.613 263.189 373.683 262.901 373.821 262.656C373.96 262.411 374.152 262.219 374.397 262.08C374.653 261.941 374.941 261.872 375.261 261.872C375.571 261.872 375.827 261.936 376.029 262.064C376.232 262.192 376.381 262.379 376.477 262.624C376.573 262.859 376.621 263.157 376.621 263.52ZM379.58 260.64V262.16H383.756V260.64H379.58ZM380.812 258.08V268H382.524V258.08H380.812Z" fill="#A35FF9"/>
<path d="M346.43 212.002C345.213 212.002 344.009 212.284 342.9 212.831C341.791 213.378 340.802 214.176 340 215.173C338.851 213.747 337.329 212.737 335.638 212.278C333.947 211.818 332.167 211.931 330.537 212.601C328.907 213.272 327.503 214.468 326.514 216.029C325.524 217.591 324.996 219.444 325 221.341C325 226.493 327.143 230.672 340 240C352.857 230.661 355 226.482 355 221.33C355 218.856 354.097 216.484 352.49 214.734C350.883 212.985 348.703 212.002 346.43 212.002V212.002Z" fill="#A35FF9"/>
<g filter="url(#filter1_b_4_206)">
<rect x="1" y="1" width="150" height="170" rx="16" fill="#6AA6FF" fill-opacity="0.1"/>
<rect x="0.5" y="0.5" width="151" height="171" rx="16.5" stroke="#6AA6FF" stroke-opacity="0.4"/>
</g>
<path d="M83.6075 44.2936H82.2663C80.7705 45.6865 78.3458 46.6149 75.5599 46.6149C72.7744 46.6149 70.3497 45.6865 68.8535 44.2936H67.8732C62.9725 44.2936 59.0002 47.2856 59.0002 51H92.0161C92.0679 47.2857 88.2506 44.2936 83.6076 44.2936H83.6075Z" fill="#6AA6FF"/>
<path d="M75.5597 25C70.04 25 65.6033 29.4365 65.6033 34.9564C65.6033 40.4245 70.0398 44.9127 75.5597 44.9127C81.0278 44.9127 85.516 40.4762 85.516 34.9564C85.4646 29.4367 81.028 25 75.5597 25V25ZM75.5597 42.6429C71.3293 42.6429 67.8731 39.1865 67.8731 34.9563C67.8731 34.2855 67.9764 33.6666 68.1311 33.0991C69.0595 33.5633 70.659 34.1826 72.5676 34.1826C73.9088 34.1826 75.3531 33.8732 76.7461 32.893C76.9008 32.7897 80.3057 30.3651 82.9883 32.7897C83.1945 33.5119 83.2978 34.2341 83.2978 35.0077C83.2463 39.1866 79.79 42.6429 75.5597 42.6429L75.5597 42.6429Z" fill="#6AA6FF"/>
<path d="M40.56 137H55.512V133.92H47.028L52.572 128.46C53.3747 127.695 54.0187 126.845 54.504 125.912C55.008 124.96 55.26 123.971 55.26 122.944C55.26 122.291 55.12 121.628 54.84 120.956C54.5787 120.265 54.168 119.631 53.608 119.052C53.0667 118.455 52.376 117.979 51.536 117.624C50.696 117.251 49.7067 117.064 48.568 117.064C47.0747 117.064 45.8053 117.381 44.76 118.016C43.7333 118.651 42.9493 119.519 42.408 120.62C41.8853 121.703 41.624 122.944 41.624 124.344H44.9C44.9 123.467 45.04 122.711 45.32 122.076C45.6187 121.423 46.0387 120.919 46.58 120.564C47.1213 120.209 47.7653 120.032 48.512 120.032C49.0533 120.032 49.5293 120.125 49.94 120.312C50.3507 120.48 50.696 120.713 50.976 121.012C51.2747 121.292 51.4893 121.619 51.62 121.992C51.7693 122.347 51.844 122.72 51.844 123.112C51.844 123.635 51.7507 124.139 51.564 124.624C51.396 125.091 51.144 125.557 50.808 126.024C50.472 126.472 50.0707 126.948 49.604 127.452L40.56 137ZM72.4391 130.616C72.4391 129.291 72.1684 128.143 71.6271 127.172C71.1044 126.201 70.3951 125.445 69.4991 124.904C68.6218 124.363 67.6418 124.092 66.5591 124.092C66.0178 124.092 65.4858 124.148 64.9631 124.26C64.4404 124.372 63.9364 124.549 63.4511 124.792L64.6831 120.312H72.2711V117.4H62.1911L59.5311 128.18C60.2031 127.769 60.8191 127.452 61.3791 127.228C61.9578 127.004 62.5178 126.855 63.0591 126.78C63.6004 126.687 64.1604 126.64 64.7391 126.64C65.5044 126.64 66.1951 126.789 66.8111 127.088C67.4458 127.387 67.9498 127.816 68.3231 128.376C68.7151 128.936 68.9111 129.617 68.9111 130.42C68.9111 131.204 68.7431 131.885 68.4071 132.464C68.0898 133.024 67.6138 133.463 66.9791 133.78C66.3631 134.079 65.6164 134.228 64.7391 134.228C64.1231 134.228 63.5071 134.107 62.8911 133.864C62.2751 133.603 61.6964 133.267 61.1551 132.856C60.6324 132.427 60.1751 131.96 59.7831 131.456L57.8511 133.836C58.3551 134.471 58.9431 135.049 59.6151 135.572C60.3058 136.095 61.1084 136.515 62.0231 136.832C62.9378 137.149 63.9924 137.308 65.1871 137.308C66.1391 137.308 67.0444 137.177 67.9031 136.916C68.7804 136.636 69.5551 136.216 70.2271 135.656C70.9178 135.096 71.4591 134.396 71.8511 133.556C72.2431 132.716 72.4391 131.736 72.4391 130.616ZM77.9188 127.2C77.9188 126.136 78.0214 125.175 78.2268 124.316C78.4321 123.439 78.7214 122.683 79.0948 122.048C79.4681 121.413 79.9254 120.928 80.4668 120.592C81.0081 120.237 81.6148 120.06 82.2868 120.06C82.8281 120.06 83.3228 120.172 83.7708 120.396C84.2374 120.62 84.6481 120.947 85.0028 121.376C85.3574 121.787 85.6561 122.281 85.8988 122.86C86.1601 123.439 86.3561 124.101 86.4868 124.848C86.6174 125.576 86.6828 126.36 86.6828 127.2C86.6828 128.264 86.5801 129.235 86.3748 130.112C86.1694 130.971 85.8708 131.717 85.4788 132.352C85.1054 132.987 84.6481 133.481 84.1068 133.836C83.5654 134.172 82.9588 134.34 82.2868 134.34C81.7454 134.34 81.2508 134.228 80.8028 134.004C80.3548 133.78 79.9534 133.463 79.5988 133.052C79.2441 132.623 78.9361 132.119 78.6748 131.54C78.4321 130.961 78.2454 130.308 78.1148 129.58C77.9841 128.833 77.9188 128.04 77.9188 127.2ZM74.6708 127.2C74.6708 128.413 74.7828 129.543 75.0068 130.588C75.2494 131.615 75.5948 132.548 76.0428 133.388C76.4908 134.209 77.0228 134.919 77.6388 135.516C78.2734 136.095 78.9734 136.543 79.7388 136.86C80.5228 137.159 81.3721 137.308 82.2868 137.308C83.4441 137.308 84.4894 137.075 85.4228 136.608C86.3561 136.123 87.1588 135.432 87.8308 134.536C88.5028 133.64 89.0161 132.576 89.3708 131.344C89.7441 130.093 89.9308 128.712 89.9308 127.2C89.9308 125.987 89.8094 124.867 89.5668 123.84C89.3428 122.795 89.0068 121.861 88.5588 121.04C88.1108 120.2 87.5694 119.491 86.9348 118.912C86.3188 118.315 85.6188 117.867 84.8348 117.568C84.0508 117.251 83.2014 117.092 82.2868 117.092C81.1481 117.092 80.1121 117.335 79.1788 117.82C78.2454 118.287 77.4428 118.968 76.7708 119.864C76.0988 120.76 75.5761 121.833 75.2028 123.084C74.8481 124.316 74.6708 125.688 74.6708 127.2ZM101.238 115.16V137H104.206V115.16H101.238ZM108.938 124.12L103.394 129.44L109.526 137H113.194L107.09 129.44L112.634 124.12H108.938Z" fill="#E5E8F8"/>
<path d="M50.864 82L49.584 79.12H45.456L44.176 82H42.048L47.52 70.176L52.992 82H50.864ZM47.52 73.968L46 77.52H49.04L47.52 73.968ZM55.6144 79.12C55.6144 79.6427 55.7264 80.048 55.9504 80.336C56.1744 80.624 56.5157 80.768 56.9744 80.768C57.465 80.768 57.8597 80.6187 58.1584 80.32C58.4677 80.0107 58.6224 79.6107 58.6224 79.12V74.64H60.3504V82H58.6224V80.864C58.153 81.728 57.4117 82.16 56.3984 82.16C55.577 82.16 54.9424 81.904 54.4944 81.392C54.057 80.88 53.8384 80.1867 53.8384 79.312V74.64H55.6144V79.12ZM61.9971 78.32C61.9971 77.5093 62.1625 76.8213 62.4931 76.256C62.8238 75.68 63.2611 75.2427 63.8051 74.944C64.3491 74.6347 64.9411 74.48 65.5811 74.48C66.6798 74.48 67.5171 74.9387 68.0931 75.856V69.52H69.8371V82H68.0931V80.784C67.5171 81.7013 66.6798 82.16 65.5811 82.16C64.9411 82.16 64.3491 82.0107 63.8051 81.712C63.2611 81.4027 62.8238 80.96 62.4931 80.384C62.1625 79.808 61.9971 79.12 61.9971 78.32ZM63.7891 78.32C63.7891 79.056 64.0078 79.632 64.4451 80.048C64.8825 80.4533 65.3998 80.656 65.9971 80.656C66.3278 80.656 66.6531 80.5653 66.9731 80.384C67.2931 80.2027 67.5598 79.9413 67.7731 79.6C67.9865 79.248 68.0931 78.8213 68.0931 78.32C68.0931 77.8187 67.9865 77.3973 67.7731 77.056C67.5598 76.704 67.2931 76.4373 66.9731 76.256C66.6531 76.0747 66.3278 75.984 65.9971 75.984C65.3998 75.984 64.8825 76.192 64.4451 76.608C64.0078 77.0133 63.7891 77.584 63.7891 78.32ZM71.8994 71.712C71.8994 71.4133 72.006 71.1627 72.2194 70.96C72.4327 70.7573 72.6887 70.656 72.9874 70.656C73.2967 70.656 73.5527 70.7573 73.7554 70.96C73.9687 71.1627 74.0754 71.4133 74.0754 71.712C74.0754 72.0107 73.9687 72.2613 73.7554 72.464C73.5527 72.6667 73.2967 72.768 72.9874 72.768C72.6887 72.768 72.4327 72.6667 72.2194 72.464C72.006 72.2613 71.8994 72.0107 71.8994 71.712ZM72.1394 74.64H73.8354V82H72.1394V74.64ZM79.4134 82.16C78.656 82.16 77.9947 82 77.4294 81.68C76.864 81.36 76.4267 80.912 76.1174 80.336C75.808 79.76 75.6534 79.088 75.6534 78.32C75.6534 77.5413 75.808 76.8693 76.1174 76.304C76.4374 75.728 76.8854 75.28 77.4614 74.96C78.0374 74.64 78.7147 74.48 79.4934 74.48C80.656 74.48 81.5574 74.816 82.1974 75.488C82.848 76.1493 83.1734 77.0667 83.1734 78.24C83.1734 78.336 83.168 78.432 83.1574 78.528C83.1574 78.6133 83.1574 78.6773 83.1574 78.72H77.4294C77.4934 79.36 77.7014 79.856 78.0534 80.208C78.416 80.56 78.896 80.736 79.4934 80.736C80.432 80.736 81.136 80.3467 81.6054 79.568L83.1094 80.16C82.3414 81.4933 81.1094 82.16 79.4134 82.16ZM79.4774 75.792C78.3574 75.792 77.6907 76.368 77.4774 77.52H81.2854C81.2534 76.9973 81.072 76.5813 80.7414 76.272C80.4107 75.952 79.9894 75.792 79.4774 75.792ZM89.5588 77.52C89.5588 76.4213 89.1054 75.872 88.1988 75.872C87.7081 75.872 87.3081 76.0213 86.9988 76.32C86.7001 76.6187 86.5508 77.0187 86.5508 77.52V82H84.8228V74.64H86.5508V75.776C87.0201 74.912 87.7614 74.48 88.7748 74.48C89.6068 74.48 90.2414 74.736 90.6788 75.248C91.1161 75.7493 91.3348 76.4427 91.3348 77.328V82H89.5588V77.52ZM94.6935 78.32C94.6935 78.7787 94.7948 79.1893 94.9975 79.552C95.2002 79.904 95.4722 80.1813 95.8135 80.384C96.1655 80.576 96.5548 80.672 96.9815 80.672C97.5148 80.672 98.0002 80.5547 98.4375 80.32C98.8855 80.0853 99.2002 79.7867 99.3815 79.424V81.328C99.1255 81.5947 98.7788 81.8027 98.3415 81.952C97.9042 82.0907 97.4242 82.16 96.9015 82.16C96.1442 82.16 95.4615 82 94.8535 81.68C94.2562 81.3493 93.7815 80.896 93.4295 80.32C93.0882 79.7333 92.9175 79.0667 92.9175 78.32C92.9175 77.5627 93.0882 76.896 93.4295 76.32C93.7815 75.744 94.2562 75.296 94.8535 74.976C95.4615 74.6453 96.1442 74.48 96.9015 74.48C97.4242 74.48 97.9042 74.5547 98.3415 74.704C98.7788 74.8533 99.1255 75.0507 99.3815 75.296V77.216C99.2002 76.8533 98.8802 76.5547 98.4215 76.32C97.9735 76.0853 97.4935 75.968 96.9815 75.968C96.5548 75.968 96.1655 76.0693 95.8135 76.272C95.4722 76.4747 95.2002 76.752 94.9975 77.104C94.7948 77.456 94.6935 77.8613 94.6935 78.32ZM104.492 82.16C103.734 82.16 103.073 82 102.508 81.68C101.942 81.36 101.505 80.912 101.196 80.336C100.886 79.76 100.732 79.088 100.732 78.32C100.732 77.5413 100.886 76.8693 101.196 76.304C101.516 75.728 101.964 75.28 102.539 74.96C103.116 74.64 103.793 74.48 104.572 74.48C105.734 74.48 106.636 74.816 107.276 75.488C107.926 76.1493 108.252 77.0667 108.252 78.24C108.252 78.336 108.246 78.432 108.236 78.528C108.236 78.6133 108.236 78.6773 108.236 78.72H102.508C102.572 79.36 102.78 79.856 103.132 80.208C103.494 80.56 103.974 80.736 104.572 80.736C105.51 80.736 106.214 80.3467 106.684 79.568L108.188 80.16C107.42 81.4933 106.188 82.16 104.492 82.16ZM104.556 75.792C103.436 75.792 102.769 76.368 102.556 77.52H106.364C106.332 76.9973 106.15 76.5813 105.82 76.272C105.489 75.952 105.068 75.792 104.556 75.792Z" fill="#6AA6FF"/>
<g filter="url(#filter2_b_4_206)">
<rect x="793" y="187" width="150" height="170" rx="16" fill="#7A64FF" fill-opacity="0.15"/>
<rect x="792.5" y="186.5" width="151" height="171" rx="16.5" stroke="#7A64FF" stroke-opacity="0.4"/>
</g>
<path d="M883 235.085C883 242.41 874.445 241.542 871.383 239.775C867.626 240.547 856.924 240.064 853.609 235.085C852.915 234.057 852.82 232.772 853.294 231.615C854.399 229.013 856.956 223.455 859.955 220.467C863.995 216.451 866.395 213.239 866.931 212.468C867.468 211.696 868.194 210.765 869.962 211.054C871.73 211.343 874.666 212.371 874.255 213.238C873.877 214.138 872.614 215.134 872.866 215.295C873.308 215.552 874.003 215.423 874.003 216.162C874.003 216.933 873.15 217.511 871.509 217.511C870.152 217.511 868.889 218.025 866.9 218.186C865.385 218.315 863.932 222.138 863.175 224.997C862.67 226.925 862.196 228.949 861.912 230.073C861.849 230.394 862.196 230.651 862.449 230.458C863.522 229.72 865.7 228.499 867.784 228.691C869.836 228.852 870.657 229.463 871.162 229.88C871.667 230.298 872.172 230.972 872.488 231.711C872.551 231.872 872.709 231.968 872.898 231.968C872.962 231.968 872.993 231.936 873.056 231.936C873.277 231.84 873.372 231.583 873.277 231.39C873.025 230.812 872.709 230.33 872.362 229.945C876.244 227.278 883 228.146 883 235.085L883 235.085Z" fill="#7A64FF"/>
<path d="M854.397 307.992L858.933 306.732V323H862.209V303.092L854.397 304.856V307.992ZM870.151 316.392C870.151 315.589 870.319 314.88 870.655 314.264C871.01 313.648 871.486 313.163 872.083 312.808C872.699 312.453 873.381 312.276 874.127 312.276C874.893 312.276 875.565 312.453 876.143 312.808C876.741 313.163 877.207 313.648 877.543 314.264C877.898 314.88 878.075 315.589 878.075 316.392C878.075 317.195 877.898 317.904 877.543 318.52C877.207 319.117 876.741 319.593 876.143 319.948C875.565 320.284 874.893 320.452 874.127 320.452C873.381 320.452 872.699 320.284 872.083 319.948C871.486 319.593 871.01 319.117 870.655 318.52C870.319 317.904 870.151 317.195 870.151 316.392ZM874.799 303.428L868.583 311.772C868.098 312.407 867.697 313.107 867.379 313.872C867.081 314.637 866.931 315.477 866.931 316.392C866.931 317.829 867.249 319.071 867.883 320.116C868.518 321.161 869.377 321.964 870.459 322.524C871.561 323.065 872.783 323.336 874.127 323.336C875.471 323.336 876.685 323.065 877.767 322.524C878.869 321.964 879.737 321.161 880.371 320.116C881.006 319.071 881.323 317.829 881.323 316.392C881.323 315.459 881.155 314.609 880.819 313.844C880.502 313.06 880.063 312.388 879.503 311.828C878.962 311.249 878.337 310.811 877.627 310.512C876.918 310.195 876.181 310.036 875.415 310.036C874.762 310.036 874.183 310.111 873.679 310.26C873.194 310.409 872.737 310.727 872.307 311.212L872.783 311.128L878.999 303.428H874.799Z" fill="#E5E8F8"/>
<path d="M827.914 266.4C827.914 265.803 828.015 265.264 828.218 264.784C828.42 264.293 828.698 263.877 829.05 263.536C829.412 263.184 829.823 262.917 830.282 262.736C830.74 262.544 831.226 262.448 831.738 262.448C832.271 262.448 832.751 262.517 833.178 262.656C833.615 262.795 834.004 262.987 834.346 263.232C834.687 263.467 834.986 263.739 835.242 264.048V261.792C834.783 261.408 834.276 261.115 833.722 260.912C833.178 260.709 832.495 260.608 831.674 260.608C830.852 260.608 830.09 260.752 829.386 261.04C828.682 261.317 828.063 261.712 827.53 262.224C827.007 262.736 826.596 263.349 826.298 264.064C826.01 264.768 825.866 265.547 825.866 266.4C825.866 267.253 826.01 268.037 826.298 268.752C826.596 269.456 827.007 270.064 827.53 270.576C828.063 271.088 828.682 271.488 829.386 271.776C830.09 272.053 830.852 272.192 831.674 272.192C832.495 272.192 833.178 272.091 833.722 271.888C834.276 271.685 834.783 271.392 835.242 271.008V268.752C834.986 269.051 834.687 269.323 834.346 269.568C834.004 269.813 833.615 270.005 833.178 270.144C832.751 270.283 832.271 270.352 831.738 270.352C831.226 270.352 830.74 270.261 830.282 270.08C829.823 269.888 829.412 269.621 829.05 269.28C828.698 268.928 828.42 268.512 828.218 268.032C828.015 267.541 827.914 266.997 827.914 266.4ZM836.864 268.32C836.864 269.067 837.035 269.733 837.376 270.32C837.728 270.896 838.203 271.349 838.8 271.68C839.408 272 840.086 272.16 840.832 272.16C841.59 272.16 842.267 272 842.864 271.68C843.462 271.349 843.931 270.896 844.272 270.32C844.624 269.733 844.8 269.067 844.8 268.32C844.8 267.563 844.624 266.896 844.272 266.32C843.931 265.744 843.462 265.296 842.864 264.976C842.267 264.645 841.59 264.48 840.832 264.48C840.086 264.48 839.408 264.645 838.8 264.976C838.203 265.296 837.728 265.744 837.376 266.32C837.035 266.896 836.864 267.563 836.864 268.32ZM838.64 268.32C838.64 267.861 838.736 267.461 838.928 267.12C839.12 266.768 839.382 266.496 839.712 266.304C840.043 266.101 840.416 266 840.832 266C841.248 266 841.622 266.101 841.952 266.304C842.283 266.496 842.544 266.768 842.736 267.12C842.928 267.461 843.024 267.861 843.024 268.32C843.024 268.779 842.928 269.184 842.736 269.536C842.544 269.877 842.283 270.149 841.952 270.352C841.622 270.544 841.248 270.64 840.832 270.64C840.416 270.64 840.043 270.544 839.712 270.352C839.382 270.149 839.12 269.877 838.928 269.536C838.736 269.184 838.64 268.779 838.64 268.32ZM856.968 267.328C856.968 266.72 856.883 266.208 856.712 265.792C856.541 265.365 856.285 265.04 855.944 264.816C855.603 264.592 855.165 264.48 854.632 264.48C854.141 264.48 853.699 264.592 853.304 264.816C852.909 265.04 852.584 265.365 852.328 265.792C852.221 265.504 852.067 265.264 851.864 265.072C851.672 264.88 851.437 264.736 851.16 264.64C850.883 264.533 850.563 264.48 850.2 264.48C849.891 264.48 849.603 264.528 849.336 264.624C849.08 264.709 848.851 264.843 848.648 265.024C848.456 265.205 848.285 265.435 848.136 265.712V264.64H846.44V272H848.136V267.52C848.136 267.168 848.195 266.869 848.312 266.624C848.429 266.379 848.595 266.192 848.808 266.064C849.032 265.936 849.293 265.872 849.592 265.872C849.869 265.872 850.099 265.936 850.28 266.064C850.461 266.181 850.595 266.363 850.68 266.608C850.765 266.843 850.808 267.147 850.808 267.52V272H852.552V267.52C852.552 267.168 852.611 266.869 852.728 266.624C852.856 266.379 853.027 266.192 853.24 266.064C853.464 265.936 853.725 265.872 854.024 265.872C854.301 265.872 854.531 265.936 854.712 266.064C854.893 266.181 855.027 266.363 855.112 266.608C855.197 266.843 855.24 267.147 855.24 267.52V272H856.968V267.328ZM860.854 275.52V264.64H859.11V275.52H860.854ZM866.95 268.32C866.95 267.499 866.785 266.8 866.454 266.224C866.124 265.648 865.686 265.211 865.142 264.912C864.598 264.603 864.006 264.448 863.366 264.448C862.897 264.448 862.47 264.539 862.086 264.72C861.713 264.901 861.388 265.163 861.11 265.504C860.844 265.835 860.636 266.24 860.486 266.72C860.348 267.189 860.278 267.723 860.278 268.32C860.278 268.917 860.348 269.456 860.486 269.936C860.636 270.405 860.844 270.811 861.11 271.152C861.388 271.483 861.713 271.739 862.086 271.92C862.47 272.101 862.897 272.192 863.366 272.192C864.006 272.192 864.598 272.043 865.142 271.744C865.686 271.435 866.124 270.992 866.454 270.416C866.785 269.84 866.95 269.141 866.95 268.32ZM865.158 268.32C865.158 268.811 865.057 269.227 864.854 269.568C864.652 269.909 864.385 270.171 864.054 270.352C863.724 270.533 863.356 270.624 862.95 270.624C862.705 270.624 862.454 270.576 862.198 270.48C861.953 270.373 861.729 270.224 861.526 270.032C861.324 269.84 861.158 269.6 861.03 269.312C860.913 269.024 860.854 268.693 860.854 268.32C860.854 267.947 860.913 267.616 861.03 267.328C861.158 267.04 861.324 266.8 861.526 266.608C861.729 266.416 861.953 266.272 862.198 266.176C862.454 266.069 862.705 266.016 862.95 266.016C863.356 266.016 863.724 266.107 864.054 266.288C864.385 266.469 864.652 266.731 864.854 267.072C865.057 267.413 865.158 267.829 865.158 268.32ZM871.781 272.16C872.634 272.16 873.365 271.995 873.973 271.664C874.591 271.323 875.093 270.821 875.477 270.16L873.973 269.568C873.738 269.963 873.445 270.256 873.093 270.448C872.741 270.64 872.33 270.736 871.861 270.736C871.413 270.736 871.034 270.64 870.725 270.448C870.415 270.245 870.181 269.963 870.021 269.6C869.861 269.227 869.781 268.779 869.781 268.256C869.781 267.851 869.829 267.499 869.925 267.2C870.021 266.891 870.154 266.635 870.325 266.432C870.506 266.219 870.719 266.059 870.965 265.952C871.221 265.845 871.514 265.792 871.845 265.792C872.207 265.792 872.522 265.872 872.789 266.032C873.066 266.192 873.279 266.416 873.429 266.704C873.589 266.992 873.669 267.333 873.669 267.728C873.669 267.803 873.647 267.893 873.605 268C873.573 268.107 873.535 268.192 873.493 268.256L874.037 267.52H869.045V268.72H875.525C875.525 268.677 875.525 268.613 875.525 268.528C875.535 268.432 875.541 268.336 875.541 268.24C875.541 267.451 875.391 266.779 875.093 266.224C874.805 265.659 874.389 265.227 873.845 264.928C873.301 264.629 872.639 264.48 871.861 264.48C871.274 264.48 870.746 264.571 870.277 264.752C869.807 264.933 869.402 265.195 869.061 265.536C868.73 265.867 868.474 266.272 868.293 266.752C868.111 267.221 868.021 267.744 868.021 268.32C868.021 269.088 868.175 269.76 868.485 270.336C868.794 270.912 869.231 271.36 869.797 271.68C870.362 272 871.023 272.16 871.781 272.16ZM876.166 264.64V266.16H880.342V264.64H876.166ZM877.398 262.08V272H879.11V262.08H877.398ZM881.47 261.712C881.47 262.011 881.576 262.261 881.79 262.464C882.003 262.667 882.259 262.768 882.558 262.768C882.867 262.768 883.123 262.667 883.326 262.464C883.539 262.261 883.646 262.011 883.646 261.712C883.646 261.413 883.539 261.163 883.326 260.96C883.123 260.757 882.867 260.656 882.558 260.656C882.259 260.656 882.003 260.757 881.79 260.96C881.576 261.163 881.47 261.413 881.47 261.712ZM881.71 264.64V272H883.406V264.64H881.71ZM884.76 264.64V266.16H888.936V264.64H884.76ZM885.992 262.08V272H887.704V262.08H885.992ZM889.567 268.32C889.567 269.067 889.738 269.733 890.079 270.32C890.431 270.896 890.906 271.349 891.503 271.68C892.111 272 892.789 272.16 893.535 272.16C894.293 272.16 894.97 272 895.567 271.68C896.165 271.349 896.634 270.896 896.975 270.32C897.327 269.733 897.503 269.067 897.503 268.32C897.503 267.563 897.327 266.896 896.975 266.32C896.634 265.744 896.165 265.296 895.567 264.976C894.97 264.645 894.293 264.48 893.535 264.48C892.789 264.48 892.111 264.645 891.503 264.976C890.906 265.296 890.431 265.744 890.079 266.32C889.738 266.896 889.567 267.563 889.567 268.32ZM891.343 268.32C891.343 267.861 891.439 267.461 891.631 267.12C891.823 266.768 892.085 266.496 892.415 266.304C892.746 266.101 893.119 266 893.535 266C893.951 266 894.325 266.101 894.655 266.304C894.986 266.496 895.247 266.768 895.439 267.12C895.631 267.461 895.727 267.861 895.727 268.32C895.727 268.779 895.631 269.184 895.439 269.536C895.247 269.877 894.986 270.149 894.655 270.352C894.325 270.544 893.951 270.64 893.535 270.64C893.119 270.64 892.746 270.544 892.415 270.352C892.085 270.149 891.823 269.877 891.631 269.536C891.439 269.184 891.343 268.779 891.343 268.32ZM900.855 264.64H899.143V272H900.855V264.64ZM903.047 266.496L903.895 265.024C903.724 264.832 903.522 264.693 903.287 264.608C903.052 264.523 902.802 264.48 902.535 264.48C902.162 264.48 901.799 264.613 901.447 264.88C901.106 265.147 900.823 265.509 900.599 265.968C900.386 266.416 900.279 266.933 900.279 267.52L900.855 267.856C900.855 267.504 900.898 267.195 900.983 266.928C901.068 266.661 901.196 266.459 901.367 266.32C901.548 266.171 901.783 266.096 902.071 266.096C902.284 266.096 902.46 266.133 902.599 266.208C902.738 266.272 902.887 266.368 903.047 266.496ZM905.401 269.584L904.393 270.592C904.606 270.88 904.873 271.147 905.193 271.392C905.513 271.637 905.881 271.84 906.297 272C906.724 272.149 907.188 272.224 907.689 272.224C908.222 272.224 908.686 272.128 909.081 271.936C909.476 271.744 909.78 271.477 909.993 271.136C910.206 270.784 910.313 270.379 910.313 269.92C910.313 269.472 910.206 269.109 909.993 268.832C909.79 268.555 909.518 268.325 909.177 268.144C908.836 267.952 908.462 267.776 908.057 267.616C907.758 267.499 907.486 267.387 907.241 267.28C906.996 267.173 906.804 267.056 906.665 266.928C906.526 266.789 906.457 266.629 906.457 266.448C906.457 266.245 906.537 266.091 906.697 265.984C906.857 265.877 907.06 265.824 907.305 265.824C907.668 265.824 908.02 265.92 908.361 266.112C908.713 266.293 909.006 266.523 909.241 266.8L910.201 265.776C909.998 265.531 909.748 265.312 909.449 265.12C909.161 264.917 908.841 264.763 908.489 264.656C908.137 264.539 907.758 264.48 907.353 264.48C906.905 264.48 906.489 264.555 906.105 264.704C905.721 264.853 905.412 265.077 905.177 265.376C904.942 265.664 904.825 266.032 904.825 266.48C904.825 266.928 904.926 267.296 905.129 267.584C905.342 267.861 905.609 268.091 905.929 268.272C906.26 268.443 906.59 268.592 906.921 268.72C907.252 268.837 907.54 268.955 907.785 269.072C908.03 269.189 908.222 269.323 908.361 269.472C908.5 269.621 908.569 269.803 908.569 270.016C908.569 270.251 908.478 270.443 908.297 270.592C908.126 270.731 907.886 270.8 907.577 270.8C907.332 270.8 907.086 270.752 906.841 270.656C906.596 270.56 906.356 270.427 906.121 270.256C905.886 270.075 905.646 269.851 905.401 269.584Z" fill="#7A64FF"/>
<g filter="url(#filter3_b_4_206)">
<rect x="1054" y="51" width="150" height="170" rx="16" fill="#4CC2C2" fill-opacity="0.15"/>
<rect x="1053.5" y="50.5" width="151" height="171" rx="16.5" stroke="#4CC2C2" stroke-opacity="0.4"/>
</g>
<path d="M1118.23 93.5194H1127.23L1122.52 105.294C1122.41 105.563 1122.4 105.863 1122.48 106.14C1122.57 106.418 1122.75 106.656 1122.99 106.811C1123.23 106.966 1123.51 107.029 1123.79 106.988C1124.07 106.947 1124.33 106.805 1124.52 106.587L1140.69 88.2728C1140.85 88.0953 1140.95 87.875 1140.99 87.6388C1141.02 87.4026 1140.99 87.1607 1140.89 86.9426C1140.8 86.7246 1140.64 86.5398 1140.45 86.4108C1140.25 86.2818 1140.03 86.2141 1139.79 86.216L1130.68 86.3515L1133.67 76.6464C1133.76 76.377 1133.76 76.0824 1133.67 75.8133C1133.58 75.5442 1133.39 75.3174 1133.15 75.1717C1132.91 75.026 1132.63 74.9705 1132.36 75.0149C1132.08 75.0593 1131.83 75.2006 1131.65 75.4148L1117.34 91.4257C1117.18 91.6008 1117.06 91.8233 1117.02 92.0645C1116.98 92.3058 1117 92.5548 1117.1 92.7798C1117.19 93.0047 1117.35 93.1953 1117.55 93.3271C1117.76 93.4589 1117.99 93.5258 1118.23 93.5194V93.5194Z" fill="#4CC2C2"/>
<path d="M1103.57 172.132C1103.57 172.953 1103.72 173.681 1104.02 174.316C1104.33 174.932 1104.76 175.455 1105.3 175.884C1105.84 176.313 1106.47 176.64 1107.18 176.864C1107.89 177.088 1108.64 177.2 1109.45 177.2C1110.25 177.2 1111.01 177.088 1111.72 176.864C1112.42 176.64 1113.05 176.313 1113.59 175.884C1114.15 175.455 1114.58 174.932 1114.88 174.316C1115.2 173.681 1115.36 172.953 1115.36 172.132C1115.36 171.385 1115.21 170.704 1114.91 170.088C1114.61 169.453 1114.19 168.912 1113.65 168.464C1113.11 168.016 1112.47 167.671 1111.74 167.428C1111.03 167.185 1110.27 167.064 1109.45 167.064C1108.35 167.064 1107.35 167.279 1106.45 167.708C1105.57 168.137 1104.87 168.735 1104.35 169.5C1103.83 170.247 1103.57 171.124 1103.57 172.132ZM1106.7 172.468C1106.7 171.927 1106.82 171.451 1107.04 171.04C1107.28 170.611 1107.61 170.275 1108.02 170.032C1108.45 169.789 1108.92 169.668 1109.45 169.668C1109.99 169.668 1110.46 169.789 1110.88 170.032C1111.29 170.275 1111.6 170.611 1111.83 171.04C1112.07 171.451 1112.19 171.927 1112.19 172.468C1112.19 173.009 1112.07 173.495 1111.83 173.924C1111.58 174.335 1111.25 174.661 1110.82 174.904C1110.41 175.128 1109.95 175.24 1109.45 175.24C1108.94 175.24 1108.49 175.128 1108.08 174.904C1107.66 174.661 1107.33 174.335 1107.07 173.924C1106.82 173.495 1106.7 173.009 1106.7 172.468ZM1102.87 181.68C1102.87 182.501 1103.04 183.257 1103.37 183.948C1103.71 184.639 1104.17 185.236 1104.77 185.74C1105.39 186.244 1106.09 186.636 1106.87 186.916C1107.67 187.196 1108.53 187.336 1109.45 187.336C1110.36 187.336 1111.21 187.196 1112 186.916C1112.8 186.636 1113.5 186.244 1114.1 185.74C1114.71 185.236 1115.19 184.639 1115.52 183.948C1115.88 183.257 1116.06 182.501 1116.06 181.68C1116.06 180.728 1115.86 179.897 1115.47 179.188C1115.09 178.479 1114.59 177.891 1113.96 177.424C1113.32 176.957 1112.61 176.612 1111.83 176.388C1111.04 176.145 1110.25 176.024 1109.45 176.024C1108.64 176.024 1107.85 176.145 1107.07 176.388C1106.28 176.612 1105.57 176.957 1104.94 177.424C1104.3 177.891 1103.8 178.479 1103.43 179.188C1103.05 179.897 1102.87 180.728 1102.87 181.68ZM1106.12 181.232C1106.12 180.616 1106.27 180.056 1106.59 179.552C1106.91 179.048 1107.32 178.656 1107.82 178.376C1108.33 178.077 1108.87 177.928 1109.45 177.928C1110.03 177.928 1110.57 178.077 1111.07 178.376C1111.59 178.656 1112.01 179.048 1112.33 179.552C1112.65 180.056 1112.81 180.616 1112.81 181.232C1112.81 181.941 1112.65 182.548 1112.33 183.052C1112.01 183.537 1111.59 183.911 1111.07 184.172C1110.57 184.433 1110.03 184.564 1109.45 184.564C1108.87 184.564 1108.33 184.433 1107.82 184.172C1107.32 183.911 1106.91 183.537 1106.59 183.052C1106.27 182.548 1106.12 181.941 1106.12 181.232ZM1119.75 172.132C1119.75 172.953 1119.9 173.681 1120.2 174.316C1120.52 174.932 1120.95 175.455 1121.49 175.884C1122.03 176.313 1122.66 176.64 1123.37 176.864C1124.08 177.088 1124.83 177.2 1125.63 177.2C1126.44 177.2 1127.19 177.088 1127.9 176.864C1128.61 176.64 1129.24 176.313 1129.78 175.884C1130.34 175.455 1130.77 174.932 1131.07 174.316C1131.38 173.681 1131.54 172.953 1131.54 172.132C1131.54 171.385 1131.39 170.704 1131.09 170.088C1130.8 169.453 1130.38 168.912 1129.83 168.464C1129.29 168.016 1128.66 167.671 1127.93 167.428C1127.22 167.185 1126.46 167.064 1125.63 167.064C1124.53 167.064 1123.53 167.279 1122.64 167.708C1121.76 168.137 1121.06 168.735 1120.54 169.5C1120.02 170.247 1119.75 171.124 1119.75 172.132ZM1122.89 172.468C1122.89 171.927 1123 171.451 1123.23 171.04C1123.47 170.611 1123.8 170.275 1124.21 170.032C1124.64 169.789 1125.11 169.668 1125.63 169.668C1126.18 169.668 1126.65 169.789 1127.06 170.032C1127.47 170.275 1127.79 170.611 1128.01 171.04C1128.26 171.451 1128.38 171.927 1128.38 172.468C1128.38 173.009 1128.26 173.495 1128.01 173.924C1127.77 174.335 1127.44 174.661 1127.01 174.904C1126.6 175.128 1126.14 175.24 1125.63 175.24C1125.13 175.24 1124.67 175.128 1124.26 174.904C1123.85 174.661 1123.52 174.335 1123.25 173.924C1123.01 173.495 1122.89 173.009 1122.89 172.468ZM1119.05 181.68C1119.05 182.501 1119.22 183.257 1119.56 183.948C1119.89 184.639 1120.36 185.236 1120.96 185.74C1121.57 186.244 1122.27 186.636 1123.06 186.916C1123.86 187.196 1124.72 187.336 1125.63 187.336C1126.55 187.336 1127.4 187.196 1128.18 186.916C1128.99 186.636 1129.69 186.244 1130.28 185.74C1130.9 185.236 1131.37 184.639 1131.71 183.948C1132.07 183.257 1132.24 182.501 1132.24 181.68C1132.24 180.728 1132.05 179.897 1131.65 179.188C1131.28 178.479 1130.78 177.891 1130.14 177.424C1129.51 176.957 1128.8 176.612 1128.01 176.388C1127.23 176.145 1126.44 176.024 1125.63 176.024C1124.83 176.024 1124.04 176.145 1123.25 176.388C1122.47 176.612 1121.76 176.957 1121.13 177.424C1120.49 177.891 1119.99 178.479 1119.61 179.188C1119.24 179.897 1119.05 180.728 1119.05 181.68ZM1122.3 181.232C1122.3 180.616 1122.46 180.056 1122.78 179.552C1123.1 179.048 1123.51 178.656 1124.01 178.376C1124.51 178.077 1125.06 177.928 1125.63 177.928C1126.21 177.928 1126.75 178.077 1127.26 178.376C1127.78 178.656 1128.2 179.048 1128.52 179.552C1128.84 180.056 1128.99 180.616 1128.99 181.232C1128.99 181.941 1128.84 182.548 1128.52 183.052C1128.2 183.537 1127.78 183.911 1127.26 184.172C1126.75 184.433 1126.21 184.564 1125.63 184.564C1125.06 184.564 1124.51 184.433 1124.01 184.172C1123.51 183.911 1123.1 183.537 1122.78 183.052C1122.46 182.548 1122.3 181.941 1122.3 181.232ZM1134.57 171.768C1134.57 172.645 1134.78 173.448 1135.19 174.176C1135.6 174.885 1136.16 175.455 1136.87 175.884C1137.59 176.313 1138.43 176.528 1139.36 176.528C1140.29 176.528 1141.11 176.313 1141.82 175.884C1142.55 175.455 1143.11 174.885 1143.5 174.176C1143.91 173.448 1144.12 172.645 1144.12 171.768C1144.12 170.891 1143.91 170.097 1143.5 169.388C1143.11 168.66 1142.55 168.081 1141.82 167.652C1141.11 167.223 1140.29 167.008 1139.36 167.008C1138.43 167.008 1137.59 167.223 1136.87 167.652C1136.16 168.081 1135.6 168.66 1135.19 169.388C1134.78 170.097 1134.57 170.891 1134.57 171.768ZM1137.15 171.768C1137.15 171.339 1137.24 170.956 1137.43 170.62C1137.61 170.265 1137.87 169.985 1138.18 169.78C1138.52 169.556 1138.91 169.444 1139.36 169.444C1139.81 169.444 1140.19 169.556 1140.51 169.78C1140.84 169.985 1141.09 170.265 1141.26 170.62C1141.43 170.956 1141.51 171.339 1141.51 171.768C1141.51 172.179 1141.43 172.571 1141.26 172.944C1141.09 173.299 1140.84 173.588 1140.51 173.812C1140.19 174.017 1139.81 174.12 1139.36 174.12C1138.91 174.12 1138.52 174.017 1138.18 173.812C1137.87 173.588 1137.61 173.299 1137.43 172.944C1137.24 172.571 1137.15 172.179 1137.15 171.768ZM1146.27 182.632C1146.27 183.509 1146.47 184.312 1146.86 185.04C1147.27 185.749 1147.83 186.319 1148.54 186.748C1149.27 187.177 1150.1 187.392 1151.03 187.392C1151.97 187.392 1152.79 187.177 1153.5 186.748C1154.23 186.319 1154.79 185.749 1155.18 185.04C1155.59 184.312 1155.79 183.509 1155.79 182.632C1155.79 181.755 1155.59 180.961 1155.18 180.252C1154.79 179.524 1154.23 178.945 1153.5 178.516C1152.79 178.087 1151.97 177.872 1151.03 177.872C1150.1 177.872 1149.27 178.087 1148.54 178.516C1147.83 178.945 1147.27 179.524 1146.86 180.252C1146.47 180.961 1146.27 181.755 1146.27 182.632ZM1148.85 182.632C1148.85 182.203 1148.93 181.811 1149.1 181.456C1149.29 181.101 1149.54 180.821 1149.86 180.616C1150.19 180.392 1150.59 180.28 1151.03 180.28C1151.48 180.28 1151.87 180.392 1152.18 180.616C1152.52 180.821 1152.77 181.101 1152.94 181.456C1153.13 181.811 1153.22 182.203 1153.22 182.632C1153.22 183.043 1153.13 183.425 1152.94 183.78C1152.77 184.135 1152.52 184.424 1152.18 184.648C1151.87 184.853 1151.48 184.956 1151.03 184.956C1150.59 184.956 1150.19 184.853 1149.86 184.648C1149.54 184.424 1149.29 184.135 1149.1 183.78C1148.93 183.425 1148.85 183.043 1148.85 182.632ZM1150.47 167.4L1136.89 187H1139.89L1153.5 167.4H1150.47Z" fill="#E5E8F8"/>
<path d="M1106.04 133.12H1111.96L1111.59 131.52H1106.41L1106.04 133.12ZM1108.97 127.968L1110.74 132.128L1110.79 132.592L1112.31 136H1114.44L1108.97 124.176L1103.49 136H1105.62L1107.17 132.496L1107.21 132.08L1108.97 127.968ZM1116.75 132.32C1116.75 131.861 1116.85 131.456 1117.05 131.104C1117.25 130.752 1117.53 130.475 1117.87 130.272C1118.22 130.069 1118.61 129.968 1119.04 129.968C1119.38 129.968 1119.71 130.021 1120.03 130.128C1120.35 130.235 1120.63 130.384 1120.88 130.576C1121.13 130.757 1121.32 130.971 1121.44 131.216V129.296C1121.18 129.051 1120.83 128.853 1120.4 128.704C1119.96 128.555 1119.48 128.48 1118.96 128.48C1118.2 128.48 1117.52 128.645 1116.91 128.976C1116.31 129.296 1115.84 129.744 1115.48 130.32C1115.14 130.896 1114.97 131.563 1114.97 132.32C1114.97 133.067 1115.14 133.733 1115.48 134.32C1115.84 134.896 1116.31 135.349 1116.91 135.68C1117.52 136 1118.2 136.16 1118.96 136.16C1119.48 136.16 1119.96 136.091 1120.4 135.952C1120.83 135.803 1121.18 135.595 1121.44 135.328V133.424C1121.32 133.659 1121.14 133.872 1120.89 134.064C1120.65 134.256 1120.36 134.405 1120.04 134.512C1119.72 134.619 1119.39 134.672 1119.04 134.672C1118.61 134.672 1118.22 134.576 1117.87 134.384C1117.53 134.181 1117.25 133.904 1117.05 133.552C1116.85 133.189 1116.75 132.779 1116.75 132.32ZM1122.32 128.64V130.16H1126.5V128.64H1122.32ZM1123.55 126.08V136H1125.27V126.08H1123.55ZM1127.63 125.712C1127.63 126.011 1127.73 126.261 1127.95 126.464C1128.16 126.667 1128.42 126.768 1128.71 126.768C1129.02 126.768 1129.28 126.667 1129.48 126.464C1129.7 126.261 1129.8 126.011 1129.8 125.712C1129.8 125.413 1129.7 125.163 1129.48 124.96C1129.28 124.757 1129.02 124.656 1128.71 124.656C1128.42 124.656 1128.16 124.757 1127.95 124.96C1127.73 125.163 1127.63 125.413 1127.63 125.712ZM1127.87 128.64V136H1129.56V128.64H1127.87ZM1130.82 128.64L1134.64 136.688L1138.45 128.64H1136.56L1134.64 133.392L1132.72 128.64H1130.82ZM1139.45 125.712C1139.45 126.011 1139.56 126.261 1139.77 126.464C1139.99 126.667 1140.24 126.768 1140.54 126.768C1140.85 126.768 1141.11 126.667 1141.31 126.464C1141.52 126.261 1141.63 126.011 1141.63 125.712C1141.63 125.413 1141.52 125.163 1141.31 124.96C1141.11 124.757 1140.85 124.656 1140.54 124.656C1140.24 124.656 1139.99 124.757 1139.77 124.96C1139.56 125.163 1139.45 125.413 1139.45 125.712ZM1139.69 128.64V136H1141.39V128.64H1139.69ZM1142.74 128.64V130.16H1146.92V128.64H1142.74ZM1143.98 126.08V136H1145.69V126.08H1143.98ZM1154.62 128.64H1152.77L1150.46 134.416L1151.28 134.464L1148.93 128.64H1146.94L1149.92 135.136L1147.98 139.52H1149.82L1154.62 128.64Z" fill="#4CC2C2"/>
<defs>
<filter id="filter0_b_4_206" x="14" y="-64" width="652" height="672" filterUnits="userSpaceOnUse" color-interpolation-filters="sRGB">
<feFlood flood-opacity="0" result="BackgroundImageFix"/>
<feGaussianBlur in="BackgroundImage" stdDeviation="125"/>
<feComposite in2="SourceAlpha" operator="in" result="effect1_backgroundBlur_4_206"/>
<feBlend mode="normal" in="SourceGraphic" in2="effect1_backgroundBlur_4_206" result="shape"/>
</filter>
<filter id="filter1_b_4_206" x="-250" y="-250" width="652" height="672" filterUnits="userSpaceOnUse" color-interpolation-filters="sRGB">
<feFlood flood-opacity="0" result="BackgroundImageFix"/>
<feGaussianBlur in="BackgroundImage" stdDeviation="125"/>
<feComposite in2="SourceAlpha" operator="in" result="effect1_backgroundBlur_4_206"/>
<feBlend mode="normal" in="SourceGraphic" in2="effect1_backgroundBlur_4_206" result="shape"/>
</filter>
<filter id="filter2_b_4_206" x="542" y="-64" width="652" height="672" filterUnits="userSpaceOnUse" color-interpolation-filters="sRGB">
<feFlood flood-opacity="0" result="BackgroundImageFix"/>
<feGaussianBlur in="BackgroundImage" stdDeviation="125"/>
<feComposite in2="SourceAlpha" operator="in" result="effect1_backgroundBlur_4_206"/>
<feBlend mode="normal" in="SourceGraphic" in2="effect1_backgroundBlur_4_206" result="shape"/>
</filter>
<filter id="filter3_b_4_206" x="803" y="-200" width="652" height="672" filterUnits="userSpaceOnUse" color-interpolation-filters="sRGB">
<feFlood flood-opacity="0" result="BackgroundImageFix"/>
<feGaussianBlur in="BackgroundImage" stdDeviation="125"/>
<feComposite in2="SourceAlpha" operator="in" result="effect1_backgroundBlur_4_206"/>
<feBlend mode="normal" in="SourceGraphic" in2="effect1_backgroundBlur_4_206" result="shape"/>
</filter>
</defs>
</svg>
