<svg width="48" height="48" viewBox="0 0 48 48" fill="none" xmlns="http://www.w3.org/2000/svg">
<path fill-rule="evenodd" clip-rule="evenodd" d="M34.0003 38.9665C31.0402 40.9443 27.5601 42 24 42C19.2261 42 14.6477 40.1036 11.2721 36.7279C7.89643 33.3523 6.00001 28.7739 6 24C6 20.4399 7.05568 16.9598 9.03355 13.9997C11.0114 11.0397 13.8226 8.73255 17.1117 7.37018C20.4008 6.0078 24.02 5.65134 27.5116 6.34587C31.0033 7.04041 34.2106 8.75474 36.7279 11.2721C39.2453 13.7894 40.9596 16.9967 41.6541 20.4884C42.3487 23.98 41.9922 27.5992 40.6298 30.8883C39.2674 34.1774 36.9603 36.9886 34.0003 38.9665ZM22.4978 14.1956C18.8599 14.694 16.1868 16.9743 16.1868 19.7969C16.1868 22.6194 18.8599 24.8997 22.4978 25.398V30.7632C20.4923 30.3731 19.1909 29.2401 19.1909 28.2032H16.1868C16.1868 31.0257 18.8599 33.306 22.4978 33.8043V36.6384H25.5018V33.8043C29.14 33.306 31.8132 31.0258 31.8132 28.2032C31.8132 25.3806 29.14 23.1003 25.5018 22.6019V17.2368C27.5076 17.6268 28.8091 18.7598 28.8091 19.7969H31.8132C31.8132 16.9742 29.14 14.694 25.5018 14.1956V11.3616H22.4978V14.1956ZM22.498 17.2368C20.4925 17.6268 19.191 18.7598 19.191 19.7968C19.191 20.8337 20.4925 21.9668 22.498 22.3568V17.2368ZM28.8093 28.2031C28.8093 27.1661 27.5078 26.0331 25.502 25.6431V30.7632C27.5078 30.3732 28.8093 29.2402 28.8093 28.2031Z" fill="#5FCAA4"/>
</svg>
