<svg width="48" height="48" viewBox="0 0 48 48" fill="none" xmlns="http://www.w3.org/2000/svg">
<path fill-rule="evenodd" clip-rule="evenodd" d="M23.252 6.16835L6.98033 14.2663C6.69243 14.4096 6.44827 14.6344 6.2753 14.9155C6.10233 15.1965 6.00739 15.5227 6.00116 15.8574C5.99494 16.192 6.07766 16.5218 6.24004 16.8098C6.40243 17.0977 6.63803 17.3324 6.92038 17.4874L23.1921 26.4851C23.4377 26.6207 23.711 26.6915 23.9885 26.6915C24.266 26.6915 24.5393 26.6207 24.785 26.4851L41.0566 17.4874C41.339 17.3324 41.5746 17.0977 41.737 16.8098C41.8994 16.5218 41.9821 16.192 41.9758 15.8574C41.9696 15.5227 41.8747 15.1965 41.7017 14.9155C41.5287 14.6344 41.2846 14.4096 40.9967 14.2663L24.725 6.16835C24.4938 6.05741 24.2427 6 23.9885 6C23.7344 6 23.4832 6.05741 23.252 6.16835ZM23.1751 34.574L6.90344 25.5763C6.7055 25.464 6.53054 25.3119 6.38855 25.1286C6.24657 24.9453 6.14033 24.7345 6.07592 24.508C6.0115 24.2816 5.99017 24.0441 6.01313 23.809C6.03609 23.5739 6.1029 23.3459 6.20975 23.1379C6.31647 22.924 6.46308 22.7349 6.64084 22.5818C6.8186 22.4286 7.02387 22.3147 7.24443 22.2467C7.46499 22.1787 7.69632 22.158 7.92464 22.1859C8.15297 22.2138 8.37361 22.2897 8.57342 22.4091L23.6461 30.7229C23.77 30.7923 23.9083 30.8285 24.0486 30.8285C24.189 30.8285 24.3272 30.7923 24.4512 30.7229L39.404 22.4001C39.6035 22.2906 39.8217 22.2235 40.046 22.2027C40.2703 22.1819 40.4963 22.2078 40.711 22.2788C40.9258 22.3498 41.1251 22.4647 41.2976 22.6167C41.4701 22.7687 41.6124 22.955 41.7163 23.1649C41.9234 23.5886 41.9621 24.0813 41.8241 24.535C41.686 24.9887 41.3824 25.3664 40.9797 25.5853L24.7081 34.583C24.4694 34.7067 24.2067 34.7703 23.9406 34.7687C23.6745 34.7671 23.4124 34.7005 23.1751 34.574ZM6.86076 32.7475L23.1324 41.7452C23.3906 41.9072 23.6847 41.9951 23.9854 41.9998C24.2861 42.0045 24.5826 41.926 24.8452 41.7722L41.1169 32.7745C41.3138 32.6599 41.4873 32.5058 41.6274 32.3208C41.7675 32.1357 41.8716 31.9235 41.9336 31.6962C41.9957 31.469 42.0145 31.2311 41.9889 30.9961C41.9634 30.7612 41.8941 30.5339 41.7849 30.3271C41.6781 30.1192 41.5333 29.9353 41.3588 29.7862C41.1844 29.637 40.9837 29.5254 40.7682 29.4577C40.5526 29.39 40.3265 29.3676 40.1028 29.3917C39.879 29.4159 39.662 29.486 39.4641 29.5983L24.4599 37.8762C24.3297 37.9551 24.182 37.9967 24.0317 37.9967C23.8813 37.9967 23.7336 37.9551 23.6035 37.8762L8.57357 29.6343C8.37859 29.5149 8.16308 29.4372 7.93943 29.4057C7.71579 29.3741 7.4884 29.3893 7.27035 29.4503C7.0523 29.5113 6.84788 29.617 6.66883 29.7613C6.48978 29.9056 6.33963 30.0857 6.22702 30.2911C6.11511 30.4961 6.04273 30.7223 6.01402 30.9567C5.9853 31.1911 6.00081 31.4291 6.05966 31.6572C6.1185 31.8853 6.21954 32.099 6.35699 32.2861C6.49445 32.4731 6.66563 32.6299 6.86076 32.7475Z" fill="#7270ED"/>
</svg>
