<svg width="48" height="48" viewBox="0 0 48 48" fill="none" xmlns="http://www.w3.org/2000/svg">
<path fill-rule="evenodd" clip-rule="evenodd" d="M23.3179 33.6253C25.4779 33.6253 27.4484 32.9432 29.1158 31.8063L35.2926 38.0211C32.2232 40.4842 28.2821 42 24 42C14.0716 42 6 33.9284 6 24C6 14.0716 14.0716 6 24 6C33.9284 6 42 14.0716 42 24C42 28.2821 40.5221 32.1853 38.0211 35.2926L31.8063 29.1158C32.9432 27.4863 33.6253 25.4779 33.6253 23.3179C33.6253 17.6337 29.0021 13.0105 23.3179 13.0105C17.6337 13.0105 13.0105 17.6337 13.0105 23.3179C13.0105 29.0021 17.6337 33.6253 23.3179 33.6253ZM16.8 23.28C16.8 19.7179 19.7179 16.8 23.28 16.8C26.88 16.8 29.7979 19.7179 29.76 23.28C29.76 26.8421 26.8421 29.76 23.28 29.76C19.7179 29.76 16.8 26.8421 16.8 23.28Z" fill="#6DB4DD"/>
</svg>
