<svg width="48" height="48" viewBox="0 0 48 48" fill="none" xmlns="http://www.w3.org/2000/svg">
<path d="M32.1315 17.2763C31.9867 19.7063 31.4421 22.0668 30.4975 24.3086C30.0334 25.404 28.9993 26.0582 27.913 26.0582C27.5369 26.0582 27.1549 25.9811 26.7878 25.8144C25.3627 25.1711 24.7092 23.4554 25.3299 21.9804C26.1327 20.0765 26.5401 18.0539 26.5401 15.9679C26.5401 10.0079 23.1781 4.847 18.312 2.40002C21.6755 17.7823 9.10791 17.8317 9.10791 30.7115C9.10791 38.9349 15.5543 45.6 23.5064 45.6C31.4615 45.6 37.9079 38.9349 37.9079 30.7115C37.9094 25.2158 34.6743 20.2956 32.1315 17.2763Z" fill="#F5A153"/>
</svg>
