<svg width="16" height="16" viewBox="0 0 16 16" fill="none" xmlns="http://www.w3.org/2000/svg">
    <path fill-rule="evenodd" clip-rule="evenodd" d="M1.77002 4.71157C2.06164 4.05415 2.47336 3.47946 2.95722 2.95991C4.05002 1.78452 5.37458 1.03178 6.93858 0.774957C9.12917 0.415329 11.0918 0.945909 12.7859 2.4443C12.893 2.53922 12.9195 2.59437 12.8032 2.71136C12.2046 3.31284 11.616 3.92417 11.0235 4.53195C10.9629 4.59419 10.9219 4.67021 10.814 4.56898C9.32141 3.16513 6.88524 3.18128 5.29976 4.69503C4.76529 5.2074 4.35875 5.84427 4.11448 6.55186C4.07611 6.52704 4.03774 6.50499 4.00359 6.47741L1.77002 4.71157Z" fill="#EA4335"/>
    <path fill-rule="evenodd" clip-rule="evenodd" d="M4.09709 9.4187C4.3112 9.97646 4.57711 10.5039 4.97195 10.9518C5.97676 12.0909 7.22419 12.5814 8.71426 12.4234C9.40724 12.3493 10.0392 12.1082 10.6294 11.738C10.6858 11.79 10.7399 11.8455 10.7993 11.8936C11.49 12.4471 12.1813 13 12.8733 13.5523C12.124 14.283 11.2019 14.8004 10.1981 15.053C7.81063 15.6742 5.61006 15.2803 3.65583 13.698C2.8525 13.0513 2.2053 12.2232 1.76453 11.2779L4.09709 9.4187Z" fill="#34A853"/>
    <path fill-rule="evenodd" clip-rule="evenodd" d="M12.8734 13.5522C12.1827 12.9992 11.4914 12.4462 10.7994 11.8935C10.74 11.8454 10.6843 11.7899 10.6295 11.7379C11.0976 11.3712 11.4882 10.9375 11.7445 10.3864C11.8423 10.1658 11.9233 9.9377 11.9866 9.7042C12.0334 9.54388 12.0189 9.48125 11.8259 9.48322C10.6747 9.49307 9.5236 9.48795 8.37247 9.48795C8.12882 9.48795 8.12882 9.48795 8.12882 9.22916C8.12882 8.42836 8.13227 7.62796 8.12537 6.82638C8.12537 6.67197 8.15031 6.61289 8.31952 6.61328C10.4427 6.61959 12.5659 6.61959 14.6891 6.61328C14.8042 6.61328 14.8756 6.62195 14.8955 6.76493C15.1595 8.67061 14.9477 10.4912 13.9746 12.1731C13.678 12.6907 13.3208 13.1606 12.8734 13.5522Z" fill="#4285F4"/>
    <path fill-rule="evenodd" clip-rule="evenodd" d="M4.09707 9.41862L1.7645 11.2778C1.38424 10.5534 1.16591 9.77471 1.06346 8.96367C0.885422 7.55982 1.08111 6.20718 1.66166 4.91795C1.69351 4.84705 1.7338 4.78048 1.77025 4.71155L4.00382 6.47739C4.03874 6.50496 4.07788 6.52702 4.11472 6.55184C3.80161 7.50546 3.81849 8.46145 4.09707 9.41862Z" fill="#FBBC05"/>
</svg>
