<svg width="20" height="20" viewBox="0 0 20 20" fill="none" xmlns="http://www.w3.org/2000/svg">
<g clip-path="url(#clip0)">
<path d="M13.5545 1.54452L2.41793 4.52855C1.75895 4.70512 1.36787 5.38248 1.54445 6.04147L4.52848 17.178C4.70506 17.837 5.38241 18.2281 6.0414 18.0515L17.178 15.0675C17.8369 14.8909 18.228 14.2135 18.0514 13.5546L15.0674 2.418C14.8908 1.75901 14.2135 1.36794 13.5545 1.54452Z" fill="url(#paint0_linear)"/>
<path d="M16.7802 15.1741L16.3825 15.2806L15.9562 13.6897L14.3653 14.116L14.7916 15.7069L14.3938 15.8135L13.9675 14.2226L12.3766 14.6488L12.8029 16.2398L12.4051 16.3463L11.9789 14.7554L10.3879 15.1817L10.8142 16.7726L10.4165 16.8792L9.99019 15.2883L8.39925 15.7146L8.82554 17.3055L8.42781 17.4121L8.00152 15.8211L6.41058 16.2474L6.83687 17.8384L6.43913 17.9449L6.01284 16.354L4.42191 16.7803L4.31534 16.3826L5.90627 15.9563L5.47998 14.3653L3.88905 14.7916L3.78247 14.3939L5.37341 13.9676L4.94712 12.3767L3.35618 12.8029L3.24961 12.4052L4.84055 11.9789L4.41426 10.388L2.82332 10.8143L2.71675 10.4165L4.30768 9.99025L3.88139 8.39932L2.29046 8.82561L2.18388 8.42787L3.77482 8.00158L3.34853 6.41065L1.75759 6.83694L1.65102 6.4392L3.24196 6.01291L2.81567 4.42198L3.2134 4.3154L3.63969 5.90634L5.23063 5.48005L4.80434 3.88911L5.20207 3.78254L5.62836 5.37348L7.2193 4.94719L6.79301 3.35625L7.19074 3.24968L7.61703 4.84062L9.20797 4.41432L8.78168 2.82339L9.17941 2.71682L9.6057 4.30775L11.1966 3.88146L10.7704 2.29053L11.1681 2.18395L11.5944 3.77489L13.1853 3.3486L12.759 1.75766L13.1568 1.65109L13.583 3.24203L15.174 2.81574L15.2806 3.21347L13.6896 3.63976L14.1159 5.2307L15.7068 4.80441L15.8134 5.20214L14.2225 5.62843L14.6488 7.21937L16.2397 6.79308L16.3463 7.19081L14.7553 7.6171L15.1816 9.20804L16.7726 8.78175L16.8791 9.17948L15.2882 9.60577L15.7145 11.1967L17.3054 10.7704L17.412 11.1682L15.8211 11.5944L16.2474 13.1854L17.8383 12.7591L17.9449 13.1568L16.3539 13.5831L16.7802 15.1741ZM14.2587 13.7182L15.8496 13.292L15.4233 11.701L13.8324 12.1273L14.2587 13.7182ZM12.27 14.2511L13.861 13.8248L13.4347 12.2339L11.8437 12.6602L12.27 14.2511ZM10.2813 14.784L11.8723 14.3577L11.446 12.7667L9.85506 13.193L10.2813 14.784ZM8.29268 15.3168L9.88361 14.8905L9.45732 13.2996L7.86639 13.7259L8.29268 15.3168ZM6.30401 15.8497L7.89494 15.4234L7.46865 13.8325L5.87772 14.2588L6.30401 15.8497ZM13.7258 11.7296L15.3168 11.3033L14.8905 9.71235L13.2995 10.1386L13.7258 11.7296ZM11.7372 12.2624L13.3281 11.8361L12.9018 10.2452L11.3109 10.6715L11.7372 12.2624ZM9.74849 12.7953L11.3394 12.369L10.9131 10.7781L9.32219 11.2044L9.74849 12.7953ZM7.75981 13.3282L9.35075 12.9019L8.92446 11.3109L7.33352 11.7372L7.75981 13.3282ZM5.77114 13.861L7.36208 13.4347L6.93579 11.8438L5.34485 12.2701L5.77114 13.861ZM13.193 9.7409L14.7839 9.31461L14.3576 7.72368L12.7667 8.14997L13.193 9.7409ZM11.2043 10.2738L12.7952 9.84747L12.3689 8.25654L10.778 8.68283L11.2043 10.2738ZM9.21562 10.8066L10.8066 10.3803L10.3803 8.7894L8.78933 9.21569L9.21562 10.8066ZM7.22695 11.3395L8.81789 10.9132L8.3916 9.32226L6.80066 9.74855L7.22695 11.3395ZM5.23828 11.8724L6.82922 11.4461L6.40293 9.85513L4.81199 10.2814L5.23828 11.8724ZM12.6601 7.75223L14.251 7.32594L13.8247 5.735L12.2338 6.16129L12.6601 7.75223ZM10.6714 8.28509L12.2624 7.8588L11.8361 6.26787L10.2451 6.69416L10.6714 8.28509ZM8.68276 8.81796L10.2737 8.39167L9.84741 6.80073L8.25647 7.22702L8.68276 8.81796ZM6.69409 9.35082L8.28503 8.92453L7.85874 7.33359L6.2678 7.75988L6.69409 9.35082ZM4.70542 9.88368L6.29635 9.45739L5.87006 7.86646L4.27913 8.29275L4.70542 9.88368ZM12.1272 5.76356L13.7182 5.33727L13.2919 3.74633L11.7009 4.17262L12.1272 5.76356ZM10.1386 6.29642L11.7295 5.87013L11.3032 4.2792L9.71228 4.70549L10.1386 6.29642ZM8.1499 6.82929L9.74083 6.403L9.31454 4.81206L7.72361 5.23835L8.1499 6.82929ZM6.16123 7.36215L7.75216 6.93586L7.32587 5.34492L5.73494 5.77121L6.16123 7.36215ZM4.17256 7.89501L5.76349 7.46872L5.3372 5.87778L3.74627 6.30407L4.17256 7.89501Z" fill="url(#paint1_linear)"/>
<path d="M4.49222 9.08825L6.08315 8.66196C6.18864 8.6337 6.30103 8.64849 6.39561 8.7031C6.49018 8.7577 6.5592 8.84764 6.58746 8.95312L8.82548 17.3055L6.43908 17.945L4.20105 9.59256C4.17279 9.48707 4.18759 9.37468 4.24219 9.2801C4.29679 9.18553 4.38673 9.11652 4.49222 9.08825V9.08825Z" fill="url(#paint2_linear)"/>
<path d="M9.53549 11.9999L11.1264 11.5736C11.2319 11.5453 11.3443 11.5601 11.4389 11.6147C11.5335 11.6693 11.6025 11.7593 11.6307 11.8647L12.803 16.2398L10.4166 16.8793L9.24433 12.5042C9.21606 12.3987 9.23086 12.2863 9.28546 12.1917C9.34007 12.0971 9.43 12.0281 9.53549 11.9999Z" fill="url(#paint3_linear)"/>
<path d="M11.914 4.96813L13.5049 4.54184C13.6104 4.51358 13.7228 4.52838 13.8174 4.58298C13.9119 4.63758 13.9809 4.72752 14.0092 4.83301L16.7801 15.1741L14.3937 15.8135L11.6228 5.47244C11.5945 5.36696 11.6093 5.25456 11.6639 5.15999C11.7185 5.06541 11.8085 4.9964 11.914 4.96813Z" fill="url(#paint4_linear)"/>
</g>
<defs>
<linearGradient id="paint0_linear" x1="7.98343" y1="3.03728" x2="11.6069" y2="16.5602" gradientUnits="userSpaceOnUse">
<stop stop-color="#F7F7F7"/>
<stop offset="1" stop-color="#CADBC9"/>
</linearGradient>
<linearGradient id="paint1_linear" x1="7.98621" y1="3.03653" x2="11.6097" y2="16.5595" gradientUnits="userSpaceOnUse">
<stop stop-color="#DFF2DD"/>
<stop offset="1" stop-color="#C1CFBF"/>
</linearGradient>
<linearGradient id="paint2_linear" x1="7.63228" y1="17.6253" x2="4.04185" y2="4.22559" gradientUnits="userSpaceOnUse">
<stop stop-color="#1263A1"/>
<stop offset="0.09" stop-color="#136BAF"/>
<stop offset="0.278" stop-color="#1679C6"/>
<stop offset="0.481" stop-color="#1883D6"/>
<stop offset="0.706" stop-color="#1989E0"/>
<stop offset="1" stop-color="#198BE3"/>
</linearGradient>
<linearGradient id="paint3_linear" x1="11.6098" y1="16.5595" x2="8.00235" y2="3.09624" gradientUnits="userSpaceOnUse">
<stop stop-color="#CF3B32"/>
<stop offset="0.054" stop-color="#D23F36"/>
<stop offset="0.341" stop-color="#E05147"/>
<stop offset="0.647" stop-color="#E85C52"/>
<stop offset="1" stop-color="#EB5F55"/>
</linearGradient>
<linearGradient id="paint4_linear" x1="15.5869" y1="15.4938" x2="12.0017" y2="2.11364" gradientUnits="userSpaceOnUse">
<stop stop-color="#18AB43"/>
<stop offset="0.012" stop-color="#19AC44"/>
<stop offset="0.435" stop-color="#3DCA66"/>
<stop offset="0.779" stop-color="#53DD7A"/>
<stop offset="1" stop-color="#5BE482"/>
</linearGradient>
<clipPath id="clip0">
<rect width="16" height="16" fill="white" transform="translate(0 4.14111) rotate(-15)"/>
</clipPath>
</defs>
</svg>
