<svg width="16" height="16" viewBox="0 0 16 16" fill="none" xmlns="http://www.w3.org/2000/svg">
<path d="M0.86907 8.66683C0.493537 8.32292 0.169262 7.89868 0.0511124 7.40317C-0.0888493 6.8157 0.0758328 6.19442 0.336489 5.64947C1.08101 4.0939 2.59042 2.99311 4.23142 2.46307C5.87243 1.93304 7.64031 1.92177 9.35438 2.11335C10.4653 2.23732 11.5978 2.4558 12.5444 3.05091C13.3969 3.58677 14.04 4.39055 14.6664 5.17906C15.0601 5.67492 15.4771 6.3082 15.2346 6.89313C15.0757 7.2763 14.666 7.50424 14.2581 7.57876C13.8499 7.65329 13.4311 7.60385 13.0163 7.59439C11.3513 7.55586 9.76409 8.1557 8.22633 8.72318C6.68638 9.29175 5.07737 9.88904 3.40801 9.8127C2.48608 9.77016 1.54016 9.28157 0.86907 8.66683Z" fill="url(#paint0_radial)"/>
<path d="M0.86907 8.66683C0.493537 8.32292 0.169262 7.89868 0.0511124 7.40317C-0.0888493 6.8157 0.0758328 6.19442 0.336489 5.64947C1.08101 4.0939 2.59042 2.99311 4.23142 2.46307C5.87243 1.93304 7.64031 1.92177 9.35438 2.11335C10.4653 2.23732 11.5978 2.4558 12.5444 3.05091C13.3969 3.58677 14.04 4.39055 14.6664 5.17906C15.0601 5.67492 15.4771 6.3082 15.2346 6.89313C15.0757 7.2763 14.666 7.50424 14.2581 7.57876C13.8499 7.65329 13.4311 7.60385 13.0163 7.59439C11.3513 7.55586 9.76409 8.1557 8.22633 8.72318C6.68638 9.29175 5.07737 9.88904 3.40801 9.8127C2.48608 9.77016 1.54016 9.28157 0.86907 8.66683Z" fill="url(#paint1_radial)"/>
<path d="M6.78493 12.0739C7.03795 12.3393 7.40258 12.4676 7.76212 12.5392C8.15656 12.6178 8.57208 12.6381 8.95525 12.5163C9.33841 12.3946 9.68486 12.1128 9.81246 11.7315C9.86736 11.5675 9.87681 11.3748 9.77902 11.232C9.66378 11.0633 9.44057 11.0138 9.23808 10.9862C8.70368 10.9128 8.16164 10.8961 7.62361 10.9357C7.35459 10.9557 7.08667 10.9895 6.82129 11.0375C6.58535 11.08 6.521 11.1731 6.51882 11.4232C6.517 11.6624 6.62134 11.9016 6.78493 12.0739Z" fill="url(#paint2_radial)"/>
<path d="M9.04493 12.7573C9.45427 13.187 10.0447 13.3946 10.6267 13.5106C11.265 13.6378 11.938 13.6709 12.5585 13.4735C13.1787 13.2761 13.74 12.8202 13.9465 12.2029C14.0352 11.9375 14.0505 11.6256 13.8927 11.3944C13.7062 11.1214 13.3445 11.0414 13.0169 10.9964C12.1517 10.8775 11.2741 10.8506 10.4035 10.9149C9.96795 10.9469 9.53425 11.0022 9.10455 11.0796C8.72247 11.1487 8.6185 11.2988 8.61486 11.7038C8.61123 12.091 8.77955 12.4785 9.04493 12.7573Z" fill="url(#paint3_radial)"/>
<path d="M3.98351 11.0865C3.52799 10.735 3.13392 10.2428 3.09102 9.66911C3.04158 9.00893 3.48037 8.38619 4.04385 8.03829C4.60733 7.69038 5.27842 7.56896 5.93497 7.48171C6.59152 7.39446 7.26152 7.33266 7.87553 7.08509C8.31686 6.90696 8.77601 6.62958 9.23407 6.75791C9.42892 6.81244 9.60487 6.93895 9.80664 6.9524C10.08 6.97058 10.3185 6.78081 10.5261 6.60195C10.8005 6.36529 11.075 6.12899 11.3495 5.89233C11.7327 5.56224 12.1365 5.22088 12.6291 5.10564C13.1217 4.9904 13.7263 5.1838 13.9026 5.65785C14.0033 5.92868 13.9826 6.29149 14.2363 6.43C14.4428 6.54306 14.6969 6.42237 14.9321 6.43727C15.1881 6.45363 15.4102 6.63613 15.5411 6.85679C15.6719 7.07746 15.7272 7.33339 15.7785 7.58496C15.9544 8.44581 16.1085 9.34266 15.8988 10.1959C15.689 11.0491 15.0212 11.8511 14.1473 11.9416C13.5765 12.0008 13.0243 11.7591 12.4775 11.5846C11.288 11.2054 10.0022 11.14 8.77892 11.3857C8.25761 11.4904 7.77083 11.7042 7.25316 11.8136C6.72348 11.9256 6.17127 11.9263 5.64014 11.8234C5.0414 11.7089 4.46701 11.4595 3.98351 11.0865Z" fill="url(#paint4_radial)"/>
<path d="M3.98351 11.0865C3.52799 10.735 3.13392 10.2428 3.09102 9.66911C3.04158 9.00893 3.48037 8.38619 4.04385 8.03829C4.60733 7.69038 5.27842 7.56896 5.93497 7.48171C6.59152 7.39446 7.26152 7.33266 7.87553 7.08509C8.31686 6.90696 8.77601 6.62958 9.23407 6.75791C9.42892 6.81244 9.60487 6.93895 9.80664 6.9524C10.08 6.97058 10.3185 6.78081 10.5261 6.60195C10.8005 6.36529 11.075 6.12899 11.3495 5.89233C11.7327 5.56224 12.1365 5.22088 12.6291 5.10564C13.1217 4.9904 13.7263 5.1838 13.9026 5.65785C14.0033 5.92868 13.9826 6.29149 14.2363 6.43C14.4428 6.54306 14.6969 6.42237 14.9321 6.43727C15.1881 6.45363 15.4102 6.63613 15.5411 6.85679C15.6719 7.07746 15.7272 7.33339 15.7785 7.58496C15.9544 8.44581 16.1085 9.34266 15.8988 10.1959C15.689 11.0491 15.0212 11.8511 14.1473 11.9416C13.5765 12.0008 13.0243 11.7591 12.4775 11.5846C11.288 11.2054 10.0022 11.14 8.77892 11.3857C8.25761 11.4904 7.77083 11.7042 7.25316 11.8136C6.72348 11.9256 6.17127 11.9263 5.64014 11.8234C5.0414 11.7089 4.46701 11.4595 3.98351 11.0865Z" fill="url(#paint5_radial)"/>
<path d="M5.46808 7.19234C5.49535 7.28613 5.5317 7.3872 5.61459 7.43736C5.68184 7.47808 5.76509 7.47626 5.84325 7.4719C6.52997 7.43227 7.2047 7.27196 7.86415 7.07455C8.08191 7.00948 8.30113 6.93896 8.49634 6.82117C8.69156 6.70338 8.86315 6.53216 8.94277 6.31622C9.03801 6.05665 8.99112 5.76873 8.94277 5.49608C8.89333 5.21688 8.84389 4.93769 8.79408 4.65849C8.78281 4.59451 8.76682 4.52362 8.71338 4.48763C8.6443 4.44146 8.55269 4.47781 8.47926 4.51671C8.10809 4.71266 7.75691 4.94786 7.37302 5.11655C6.98912 5.28523 6.55906 5.38484 6.15117 5.29141C5.91451 5.23724 5.41028 5.06529 5.3423 5.44591C5.27977 5.79709 5.29468 6.1908 5.33685 6.54306C5.36302 6.76264 5.40665 6.98003 5.46808 7.19234Z" fill="url(#paint6_radial)"/>
<path d="M3.10845 6.94475C3.04192 6.72699 3.05101 6.45288 3.2335 6.31656C3.34947 6.22967 3.50506 6.22167 3.65012 6.21731C4.05037 6.20531 4.45062 6.19295 4.85088 6.18096C4.97121 6.17732 5.10135 6.17623 5.19951 6.24603C5.30239 6.31874 5.34347 6.44961 5.37801 6.57067C5.4678 6.88585 5.55759 7.20104 5.64739 7.51586C5.33475 7.59002 5.00938 7.64601 4.70219 7.74053C4.47425 7.81069 4.3452 7.88703 4.09436 7.83105C3.74464 7.75362 3.10845 7.37263 3.10845 6.94475Z" fill="url(#paint7_radial)"/>
<path d="M8.46802 8.32405C8.40331 8.55126 8.44912 8.82209 8.6218 8.97732C8.75558 9.09765 9.02096 9.04749 9.19728 9.06894C9.91235 9.15546 10.5649 9.16491 11.2491 8.93224C11.6381 8.79992 12.018 8.61342 12.3157 8.32223C12.6134 8.03104 12.8228 7.62533 12.8192 7.20145C12.8188 7.15819 12.8926 7.04622 12.8686 7.01059C12.8283 6.95061 13.0482 6.80701 12.9777 6.80483C12.3513 6.78592 11.3454 7.04113 10.7303 7.16473C10.1181 7.28797 9.5241 7.48391 8.95044 7.73657C8.71886 7.83909 8.53891 8.07539 8.46802 8.32405Z" fill="url(#paint8_radial)"/>
<path d="M1.17813 8.86714C1.04217 8.72791 0.913473 8.54832 0.943647 8.35637C0.965822 8.21314 1.0767 8.09463 1.20648 8.03028C1.33663 7.96593 1.48459 7.94812 1.62928 7.94158C2.09933 7.92086 2.57447 8.01319 3.00272 8.20841C3.0936 8.24986 3.1834 8.29675 3.25538 8.36582C3.32736 8.4349 3.37934 8.53014 3.37753 8.62975C3.37571 8.73045 3.32154 8.82134 3.27755 8.91186C3.17976 9.11289 3.16304 9.3092 3.12305 9.52369C3.09142 9.69346 2.94782 9.70255 2.80205 9.68292C2.4127 9.63093 2.03389 9.4917 1.70053 9.28485C1.51004 9.16742 1.33409 9.0271 1.17813 8.86714Z" fill="url(#paint9_radial)"/>
<path d="M4.08166 3.66673C4.32014 3.80342 4.47355 4.0768 4.46555 4.35163C4.78038 3.84777 5.10719 3.67872 5.55834 3.29192C5.4042 3.321 5.27406 3.04253 5.11737 3.03345C5.0792 3.03126 5.0792 3.03017 5.04139 3.0269C5.00359 3.02363 4.96578 3.02036 4.92797 3.01709C4.57934 2.98655 4.21617 2.92148 3.86644 2.92766C3.65268 2.93129 3.5498 3.05235 3.47382 3.23921C3.41457 3.38462 3.35967 3.53258 3.30078 3.67763C3.54653 3.54967 3.833 3.52422 4.08166 3.66673Z" fill="url(#paint10_radial)"/>
<path d="M5.55829 3.29191C5.70153 3.31227 5.82113 3.31809 5.96509 3.30354C6.10905 3.28937 6.29336 3.35698 6.39843 3.45659C6.56311 3.61291 6.67362 3.90992 6.71725 4.13241C6.76342 4.36762 7.15458 4.00953 7.36471 3.89465C7.62209 3.75397 7.93255 3.63036 8.10123 3.39043C8.26991 3.1505 8.37316 2.72879 8.17103 2.51612C8.0009 2.33726 7.61809 2.3529 7.37161 2.34308C7.00917 2.3289 6.64672 2.31436 6.28464 2.30018C6.03707 2.29037 5.72552 2.2093 5.48159 2.2402C4.89411 2.31472 5.02389 3.21266 5.55829 3.29191Z" fill="url(#paint11_radial)"/>
<path d="M8.19909 3.28724C8.36632 3.17418 8.54154 3.05784 8.74185 3.02985C8.9418 3.00186 9.1741 3.09129 9.24171 3.28142C9.2628 3.33995 9.27625 3.4152 9.33551 3.4341C9.39076 3.45192 9.4442 3.40611 9.48456 3.36431C9.5689 3.27633 9.6536 3.18872 9.73794 3.10074C9.75612 3.08184 9.77466 3.06257 9.78666 3.03894C9.85282 2.90843 9.68705 2.73684 9.76812 2.61506C9.81174 2.54998 9.91898 2.51181 9.90117 2.43583C9.88917 2.38421 9.82519 2.36712 9.77248 2.36022C9.37622 2.30859 8.97706 2.28097 8.57753 2.27769C8.47683 2.27697 8.37613 2.27733 8.27507 2.27988C8.24017 2.2806 8.15438 2.26824 8.12384 2.28424C8.06967 2.31259 8.0893 2.29551 8.10893 2.35149C8.16274 2.50418 8.25217 2.61687 8.27252 2.78701C8.28561 2.88953 8.30088 3.21853 8.19909 3.28724Z" fill="url(#paint12_radial)"/>
<path d="M10.6689 5.73966C11.6878 5.73966 12.5138 5.11857 12.5138 4.35241C12.5138 3.58624 11.6878 2.96515 10.6689 2.96515C9.64993 2.96515 8.82391 3.58624 8.82391 4.35241C8.82391 5.11857 9.64993 5.73966 10.6689 5.73966Z" fill="url(#paint13_radial)"/>
<path d="M12.2456 9.89121C12.6236 9.94683 12.9632 9.68618 13.1999 9.39753L13.9302 8.49196C14.1618 8.18368 14.4501 7.90012 14.6024 7.56567C14.7547 7.23303 14.6373 6.81133 14.3555 6.58666C14.2883 6.52741 14.2029 6.49941 14.1112 6.41834C14.0291 6.33764 13.9851 6.23403 13.9564 6.13697C13.8982 5.94211 13.8848 5.74653 13.7986 5.59275C13.6241 5.27648 13.2271 5.12888 12.8654 5.1456C12.4971 5.16305 12.1503 5.35318 11.8482 5.57894C11.5443 5.80906 11.2575 6.07517 10.9619 6.32637L10.5206 6.70808C10.3701 6.8335 10.2039 6.96438 9.98946 7.01491C9.76807 7.07271 9.54813 6.97383 9.38163 6.89749C9.21004 6.81678 9.03918 6.78915 8.85705 6.81605C8.49314 6.86659 8.15724 7.07598 7.78243 7.2094C7.40726 7.34136 7.01791 7.41334 6.63184 7.46606C5.86187 7.57148 5.07772 7.61656 4.37682 7.93066C4.02855 8.0848 3.717 8.31528 3.48288 8.61483C3.24767 8.91039 3.10117 9.2852 3.12153 9.66691C3.12262 9.68327 3.11026 9.69745 3.09353 9.69854C3.07754 9.69963 3.06372 9.68727 3.06227 9.67163C3.02701 9.27356 3.1677 8.87331 3.40363 8.55521C3.63484 8.22985 3.96784 7.98519 4.32629 7.82014C5.05118 7.48496 5.85096 7.43152 6.61075 7.31701C6.99246 7.25993 7.37018 7.18468 7.72717 7.05417C8.08198 6.92802 8.42371 6.71499 8.83669 6.65573C9.03954 6.62338 9.26711 6.6641 9.44597 6.75171C9.62592 6.83423 9.78879 6.90548 9.95602 6.86259C10.124 6.82514 10.2777 6.71172 10.4228 6.59066L10.8645 6.21222C11.1619 5.96211 11.4462 5.7 11.7624 5.46224C12.0776 5.23031 12.4448 5.02454 12.8607 5.00564C13.2609 4.99037 13.7066 5.14887 13.9182 5.52877C14.0207 5.71926 14.0305 5.92393 14.0843 6.09952C14.1094 6.18786 14.1465 6.2682 14.2036 6.32492C14.2559 6.37545 14.3581 6.41798 14.4384 6.48633C14.7638 6.74844 14.8932 7.23085 14.718 7.61438C14.6373 7.80415 14.5111 7.96229 14.3879 8.11243L14.0164 8.56139L13.2704 9.45824C13.0239 9.74907 12.6567 10.0326 12.2343 9.96501C12.2139 9.96174 12.2001 9.94283 12.2034 9.92248C12.2052 9.90175 12.2252 9.8883 12.2456 9.89121Z" fill="#891D46"/>
<path d="M13.1785 6.71644C13.0632 6.76951 12.9705 6.86403 12.9207 6.97564C12.8702 7.08834 12.8745 7.21594 12.9156 7.32972C12.9589 7.44569 13.0443 7.53658 13.1603 7.59183C13.2697 7.64273 13.4289 7.74379 13.4028 7.90957C13.401 7.92229 13.389 7.93101 13.3759 7.9292C13.3639 7.92738 13.3555 7.91647 13.3562 7.90448L13.3566 7.90157C13.3646 7.78087 13.2417 7.70817 13.1272 7.65473C13.0032 7.60056 12.8909 7.49077 12.8407 7.35881C12.7208 7.09088 12.8971 6.75097 13.1676 6.68517C13.1763 6.68299 13.1854 6.68845 13.1876 6.69717C13.1894 6.70517 13.1854 6.71317 13.1785 6.71644Z" fill="#891D46"/>
<path d="M12.8905 7.27047C12.7614 7.48277 12.809 7.76706 12.6625 8.00227C12.5244 8.22439 12.3321 8.41125 12.1125 8.55193C12.002 8.62137 11.8889 8.68535 11.7653 8.73298C11.6435 8.77987 11.5203 8.81477 11.4131 8.87366C11.1917 8.97945 11.0932 9.26301 11.1895 9.48041C11.1989 9.50149 11.1891 9.52658 11.168 9.53603C11.147 9.54548 11.1219 9.53566 11.1124 9.51458L11.1121 9.51385C10.9986 9.25392 11.1248 8.92492 11.3767 8.8075C11.4956 8.74388 11.6221 8.7108 11.7399 8.66608C11.8566 8.62282 11.9689 8.56102 12.0762 8.49522C12.2903 8.36144 12.4768 8.18403 12.6124 7.97064C12.7498 7.76379 12.7058 7.47914 12.8476 7.24393C12.8549 7.23193 12.8705 7.22793 12.8825 7.2352C12.8945 7.24247 12.8985 7.25811 12.8912 7.2701L12.8905 7.27047Z" fill="#891D46"/>
<path d="M10.9688 6.14822C11.1113 6.03153 11.3026 6.09187 11.4043 6.18821C11.5123 6.28346 11.585 6.40997 11.6192 6.54557C11.6934 6.81895 11.577 7.12141 11.3545 7.28137C11.3415 7.29082 11.3229 7.28791 11.3135 7.27482C11.3044 7.2621 11.3069 7.24429 11.3189 7.23447C11.5159 7.07888 11.605 6.80332 11.5298 6.56956C11.4952 6.45323 11.4262 6.34599 11.3338 6.27183C11.2469 6.19585 11.1193 6.17912 11.0521 6.24274C11.0266 6.26674 10.9866 6.26564 10.9626 6.24056C10.9387 6.21511 10.9397 6.17512 10.9648 6.15113C10.9663 6.1504 10.9677 6.14931 10.9688 6.14822Z" fill="#891D46"/>
<path d="M11.3175 8.90532C11.0001 9.07036 10.6417 9.13835 10.289 9.1587C9.93494 9.18161 9.58158 9.15616 9.23295 9.11835C9.06063 9.09727 8.87923 9.09399 8.70546 9.01874C8.52733 8.94785 8.40954 8.7599 8.39972 8.57595C8.38264 8.39055 8.44844 8.20587 8.55386 8.06191C8.65784 7.91468 8.78871 7.79471 8.91776 7.67656C8.92467 7.67002 8.93558 7.67038 8.94212 7.67729C8.9483 7.6842 8.94794 7.69474 8.94139 7.70128C8.69892 7.9394 8.43281 8.22405 8.47061 8.56905C8.48516 8.73482 8.58367 8.88496 8.73781 8.94385C8.88977 9.00711 9.06682 9.01002 9.24095 9.02674C9.93203 9.08054 10.6493 9.13144 11.2913 8.85079C11.3066 8.84424 11.3244 8.85115 11.3309 8.86642C11.3378 8.88096 11.3313 8.89805 11.3175 8.90532Z" fill="#891D46"/>
<path d="M6.10793 8.50795C6.09775 8.74533 6.23917 8.97 6.42857 9.10815C6.62306 9.24665 6.87063 9.30082 7.11457 9.307C7.60898 9.32918 8.10375 9.17431 8.52 8.90166C8.54108 8.88784 8.56908 8.89366 8.58289 8.91438C8.59598 8.93437 8.59125 8.96091 8.57271 8.97545C8.16119 9.295 7.63261 9.45423 7.10911 9.44369C6.84809 9.43169 6.57617 9.36916 6.35623 9.20594C6.13956 9.04598 5.98687 8.77842 6.01705 8.50031C6.01959 8.47523 6.04213 8.45741 6.06722 8.45996C6.09157 8.46287 6.10902 8.48432 6.10793 8.50795Z" fill="#891D46"/>
<path d="M13.8895 8.56142C14.1335 8.53851 14.3818 8.59086 14.5944 8.70865C14.7002 8.76718 14.8006 8.84061 14.8787 8.9384C14.9569 9.03329 15.01 9.16598 14.9852 9.29612C14.9278 9.55387 14.7159 9.69674 14.6799 9.92359C14.629 10.1413 14.673 10.3838 14.8075 10.5656C14.8151 10.5761 14.8129 10.5907 14.8028 10.5983C14.7926 10.6059 14.778 10.6038 14.77 10.5939C14.6221 10.4031 14.5686 10.1464 14.6177 9.90977C14.6555 9.66184 14.8722 9.49134 14.9056 9.2834C14.9362 9.06964 14.7402 8.8926 14.5483 8.79481C14.3505 8.6912 14.1215 8.64975 13.9023 8.67557C13.8706 8.67956 13.8423 8.65703 13.8383 8.62576C13.8343 8.59413 13.8568 8.56578 13.8881 8.56178C13.8881 8.56142 13.8892 8.56142 13.8895 8.56142Z" fill="#891D46"/>
<path d="M14.9332 9.22375C15.0645 9.16231 15.2197 9.16486 15.3466 9.22812C15.4734 9.29173 15.5661 9.41316 15.5949 9.54912C15.597 9.56002 15.5901 9.57057 15.5796 9.57275C15.569 9.57493 15.5589 9.56839 15.5563 9.55821C15.5251 9.43569 15.4353 9.33027 15.3226 9.28046C15.2099 9.2303 15.0739 9.23539 14.9674 9.29173C14.9489 9.30155 14.9263 9.29428 14.9165 9.2761C14.9067 9.25756 14.914 9.23502 14.9321 9.22521C14.9321 9.22448 14.9329 9.22412 14.9332 9.22375Z" fill="#891D46"/>
<path d="M1.06566 8.73408C0.91806 8.67374 0.858076 8.50033 0.881706 8.35746C0.900974 8.2055 1.01585 8.08517 1.13764 8.01464C1.39102 7.87614 1.67385 7.84269 1.95123 7.83978C2.50744 7.84415 3.06838 8.05645 3.47481 8.45489C3.5079 8.4876 3.50862 8.54068 3.4759 8.57413C3.44319 8.60757 3.39011 8.60794 3.35666 8.57522C3.35594 8.57449 3.35485 8.5734 3.35448 8.57304C2.99604 8.19641 2.47545 7.97538 1.94869 7.95466C1.68803 7.94739 1.40993 7.97465 1.18126 8.09099C1.07002 8.1517 0.974772 8.24694 0.955141 8.36946C0.931511 8.48906 0.977316 8.62902 1.09001 8.67846C1.10528 8.68537 1.11219 8.70318 1.10564 8.71845C1.09874 8.73336 1.08056 8.74026 1.06566 8.73408Z" fill="#891D46"/>
<path d="M1.25428 4.92205C1.29899 5.23542 1.16412 5.53643 1.00998 5.79454C0.853298 6.05556 0.667894 6.29985 0.574102 6.58305C0.477037 6.86297 0.511573 7.17998 0.66026 7.43227C0.810764 7.68238 1.05615 7.88778 1.34698 7.91796C1.37206 7.9205 1.39024 7.94304 1.38733 7.96776C1.38443 7.99248 1.36225 8.01102 1.33753 8.00811C1.33717 8.00811 1.33535 8.00775 1.33498 8.00775C1.01144 7.96812 0.747872 7.73764 0.593369 7.47044C0.437048 7.19706 0.406875 6.85643 0.513391 6.56269C0.616636 6.2675 0.808583 6.02393 0.966721 5.76836C1.12304 5.5157 1.2561 5.22633 1.21756 4.92677C1.21611 4.9166 1.22301 4.90751 1.23319 4.90605C1.24337 4.90496 1.25246 4.91223 1.25428 4.92205Z" fill="#891D46"/>
<path d="M4.33836 7.94954C3.97701 7.95027 3.59929 7.80158 3.36663 7.51439C3.13033 7.23337 3.01582 6.88074 2.96565 6.5332C2.91475 6.18094 2.96129 5.82213 3.05472 5.48694C3.14851 5.14995 3.28702 4.83076 3.43461 4.51812C3.4397 4.50685 3.45315 4.50212 3.46406 4.50758C3.47496 4.51267 3.47969 4.52539 3.47496 4.5363C3.20849 5.16412 2.97474 5.8443 3.0918 6.5143C3.14415 6.84512 3.25975 7.17376 3.47496 7.4206C3.68727 7.67216 4.01082 7.79359 4.33836 7.79031C4.38235 7.78995 4.41834 7.82521 4.41871 7.8692C4.41907 7.91319 4.38381 7.94918 4.33982 7.94954H4.33836Z" fill="#891D46"/>
<path d="M1.6658 6.03156C1.73741 5.25287 2.11404 4.50544 2.70188 3.98194C2.99307 3.72638 3.37115 3.51044 3.78849 3.55006C3.99534 3.5726 4.18838 3.67148 4.33306 3.82017C4.47703 3.96631 4.57191 4.18371 4.53374 4.4011C4.52828 4.43527 4.49593 4.45854 4.46176 4.45272C4.42758 4.44691 4.40432 4.41492 4.41013 4.38074L4.4105 4.37965C4.47521 4.02848 4.12876 3.69511 3.77685 3.65549C3.4075 3.61259 3.04433 3.80381 2.75895 4.04738C2.17984 4.54543 1.79667 5.27105 1.71378 6.03629C1.71233 6.04938 1.7007 6.05883 1.68761 6.05738C1.67416 6.05629 1.66471 6.04465 1.6658 6.03156Z" fill="#891D46"/>
<path d="M3.94421 6.18603C3.94603 5.74578 4.02383 5.30481 4.17906 4.89111C4.33574 4.47886 4.5495 4.08515 4.8516 3.75324C5.1457 3.42097 5.61103 3.19049 6.07418 3.27919C6.54023 3.34244 6.9074 3.87175 6.71545 4.32581C6.70564 4.34908 6.6791 4.35962 6.65583 4.3498C6.6333 4.34035 6.62312 4.31345 6.63148 4.29091C6.77398 3.90193 6.45444 3.45078 6.05127 3.4017C5.64011 3.32863 5.23113 3.53984 4.9483 3.84485C4.66074 4.15386 4.44589 4.53666 4.29103 4.93328C4.1398 5.33353 4.05037 5.75814 4.0351 6.18785C4.03437 6.21293 4.01329 6.23256 3.9882 6.23183C3.96348 6.23111 3.94421 6.21038 3.94421 6.18603Z" fill="#891D46"/>
<path d="M5.63401 4.68319C5.26174 5.5535 5.27956 6.56922 5.66454 7.40754C5.6889 7.46061 5.66563 7.52387 5.61256 7.54823C5.55948 7.57258 5.49623 7.54932 5.47187 7.49624C5.47114 7.49442 5.47005 7.49224 5.46932 7.49042C5.11197 6.57322 5.16468 5.52369 5.59256 4.66429C5.59802 4.65302 5.61183 4.64829 5.6231 4.65411C5.63401 4.6592 5.63873 4.67229 5.63401 4.68319Z" fill="#891D46"/>
<path d="M8.65318 6.73719C8.83676 6.48308 8.972 6.14899 8.9331 5.8458C8.88657 5.52734 8.74442 5.21325 8.73352 4.85989C8.71062 4.16735 9.07997 3.47445 9.6838 3.12036C10.2891 2.77391 11.0736 2.783 11.6654 3.14727C12.2576 3.51117 12.6154 4.20843 12.5685 4.89442C12.5666 4.91951 12.5452 4.93841 12.5201 4.93659C12.4958 4.93478 12.4772 4.91405 12.4779 4.8897C12.499 4.23933 12.1449 3.59405 11.5967 3.26069C11.0463 2.92805 10.3116 2.92914 9.76124 3.25342C9.20721 3.57115 8.8513 4.21352 8.8673 4.85589C8.8713 5.17471 9.0069 5.48735 9.05488 5.82908C9.07851 6.01085 9.03453 6.18571 8.976 6.34566C8.9142 6.50671 8.83422 6.65939 8.7237 6.79463C8.70771 6.8139 8.67935 6.81681 8.65972 6.80117C8.64118 6.78591 8.63754 6.759 8.65172 6.73937L8.65318 6.73719Z" fill="#891D46"/>
<path d="M9.7757 5.61169C9.94692 5.14963 10.3748 4.79082 10.8692 4.70466C11.364 4.61996 11.8966 4.81299 12.2252 5.20489C12.2517 5.23615 12.2474 5.28305 12.2161 5.30959C12.1849 5.33612 12.138 5.33176 12.1114 5.3005C12.1111 5.29977 12.11 5.29904 12.1096 5.29832C11.83 4.93878 11.3447 4.7392 10.8845 4.80282C10.4242 4.86607 10.0015 5.19107 9.82223 5.62986C9.81714 5.64259 9.8026 5.64877 9.78951 5.64368C9.77715 5.63822 9.77097 5.62405 9.7757 5.61169Z" fill="#891D46"/>
<path d="M10.5641 4.83118C10.3766 4.65814 10.2933 4.39166 10.3453 4.14846C10.3984 3.90525 10.5823 3.70313 10.8128 3.62715C10.8299 3.62133 10.8484 3.63078 10.8542 3.64787C10.8597 3.66459 10.851 3.6824 10.8346 3.68858C10.631 3.76638 10.4765 3.95796 10.4427 4.167C10.4078 4.37603 10.4936 4.6007 10.6518 4.73121C10.6801 4.75447 10.6841 4.79628 10.6608 4.82464C10.6376 4.85299 10.5958 4.85699 10.5674 4.83372C10.5663 4.833 10.5649 4.83191 10.5641 4.83118Z" fill="#891D46"/>
<path d="M13.5994 5.34487C13.5652 5.24707 13.6252 5.15401 13.6681 5.07549C13.7197 4.99696 13.7913 4.93189 13.8757 4.89081C14.0447 4.80974 14.249 4.83046 14.3945 4.93589C14.405 4.94352 14.4075 4.95843 14.3999 4.96933C14.3926 4.97951 14.3785 4.98206 14.3679 4.97551C14.2309 4.89117 14.0491 4.89117 13.9171 4.96897C13.8513 5.0075 13.7972 5.06531 13.7612 5.13183C13.7165 5.198 13.7252 5.27325 13.6903 5.34559L13.6881 5.35032C13.6765 5.37431 13.6477 5.38413 13.6238 5.37249C13.6121 5.36668 13.6038 5.3565 13.5994 5.34487Z" fill="#891D46"/>
<path d="M7.23321 5.27103C7.04198 5.32993 6.82095 5.29539 6.65591 5.16706C6.49377 5.03728 6.40398 4.81443 6.44797 4.60249C6.4905 4.38909 6.64428 4.22877 6.80314 4.11244C6.96564 3.9932 7.14959 3.91686 7.32409 3.84343C7.5004 3.77145 7.67127 3.69801 7.81995 3.59331C7.96464 3.48534 8.08424 3.33811 8.15877 3.17306C8.23002 3.00693 8.25074 2.81752 8.2013 2.63939C8.15404 2.46126 8.05698 2.29621 7.93592 2.15225C7.92683 2.14171 7.92756 2.12608 7.9381 2.11663C7.94865 2.10754 7.96464 2.10899 7.97409 2.11917C8.09842 2.2664 8.21148 2.42999 8.26892 2.62049C8.33 2.80953 8.31691 3.02183 8.24529 3.20833C8.10206 3.59113 7.73089 3.83652 7.37826 3.9703C7.2023 4.04555 7.02817 4.11317 6.88094 4.21969C6.73298 4.32293 6.60829 4.46253 6.56684 4.62757C6.52467 4.7908 6.58793 4.97766 6.7188 5.09217C6.84677 5.20996 7.04235 5.25976 7.21975 5.21905C7.23393 5.21578 7.24847 5.2245 7.25175 5.23868C7.25465 5.25322 7.24629 5.26704 7.23321 5.27103Z" fill="#891D46"/>
<path d="M9.76768 3.13382C9.67317 2.96623 9.67171 2.75466 9.76187 2.58961C9.85202 2.42456 10.0185 2.31332 10.1967 2.27915C10.2072 2.27697 10.2174 2.28388 10.2196 2.29442C10.2214 2.3046 10.2148 2.31441 10.205 2.31696C10.0396 2.35695 9.89165 2.46964 9.82003 2.61906C9.74769 2.76774 9.76005 2.95169 9.84621 3.08766C9.85966 3.10874 9.85348 3.1371 9.83203 3.15055C9.81095 3.164 9.78259 3.15782 9.76914 3.13673C9.76878 3.13601 9.76805 3.13455 9.76768 3.13382Z" fill="#891D46"/>
<path d="M5.6531 3.40935C5.30556 3.39517 5.03655 3.08398 5.04164 2.75789C5.05109 2.43107 5.33392 2.14715 5.6531 2.15042C5.66801 2.15042 5.68001 2.16278 5.68001 2.17805C5.68001 2.19259 5.66765 2.20459 5.6531 2.20495C5.36882 2.21404 5.13107 2.48814 5.14015 2.75789C5.14561 3.02836 5.39717 3.27484 5.6531 3.26648C5.69273 3.26502 5.72581 3.29592 5.72727 3.33519C5.72872 3.37481 5.69782 3.40789 5.65856 3.40935C5.6571 3.40935 5.65492 3.40935 5.6531 3.40935Z" fill="#891D46"/>
<path d="M3.18436 3.68823C3.23889 3.51373 3.37013 3.40467 3.4432 3.26943C3.51409 3.1462 3.513 2.93934 3.36141 2.88154C3.35377 2.87863 3.34977 2.86991 3.35268 2.86227C3.35559 2.855 3.36359 2.85137 3.37086 2.85319C3.45665 2.87645 3.51627 2.96007 3.53009 3.04404C3.54608 3.12911 3.53336 3.21745 3.49664 3.29634C3.42393 3.44793 3.3036 3.56826 3.27198 3.71113C3.26689 3.73585 3.24253 3.75148 3.21781 3.74603C3.19309 3.74058 3.17746 3.71659 3.18291 3.69186C3.18364 3.69114 3.184 3.68932 3.18436 3.68823Z" fill="#891D46"/>
<path d="M1.81433 3.86957C1.79979 4.02626 1.88522 4.18549 2.01755 4.25965C2.14915 4.33417 2.32474 4.32181 2.44143 4.23493C2.46143 4.22002 2.49015 4.22402 2.50505 4.24438C2.51996 4.26437 2.51596 4.29309 2.4956 4.308C2.49487 4.30873 2.49378 4.30945 2.49306 4.30982C2.33892 4.40942 2.13497 4.4087 1.98519 4.31345C1.83578 4.21711 1.75508 4.03535 1.78016 3.86557C1.78161 3.85612 1.79034 3.84958 1.79979 3.85103C1.80888 3.85212 1.81542 3.86048 1.81433 3.86957Z" fill="#891D46"/>
<path d="M0.149204 6.27873C0.339697 6.24056 0.519285 6.40997 0.562182 6.6001C0.568726 6.62446 0.554184 6.64954 0.529827 6.65609C0.50547 6.66263 0.480386 6.64809 0.473842 6.62373C0.473115 6.62155 0.472752 6.61719 0.472388 6.61501C0.461846 6.45869 0.335335 6.28019 0.150658 6.28782C0.148114 6.28819 0.145932 6.28637 0.145569 6.28382C0.145569 6.28128 0.147023 6.2791 0.149204 6.27873Z" fill="#891D46"/>
<path d="M8.05863 3.38429C8.24912 3.20652 8.48179 3.03021 8.76753 3.01457C8.90531 3.00658 9.05726 3.03966 9.16633 3.13818C9.27357 3.23088 9.34918 3.37484 9.32737 3.52171C9.32446 3.53988 9.30774 3.55261 9.28956 3.5497C9.27284 3.54716 9.26084 3.53225 9.26121 3.51553C9.26303 3.39665 9.20195 3.28141 9.10889 3.20688C9.01618 3.13272 8.89476 3.09746 8.77152 3.10146C8.51959 3.10691 8.29529 3.26178 8.10262 3.43264C8.08917 3.44464 8.06844 3.44355 8.05645 3.42973C8.04445 3.41665 8.0459 3.39629 8.05863 3.38429Z" fill="#891D46"/>
<path d="M12.0208 3.45117C12.1368 3.49407 12.2757 3.48643 12.3909 3.42681C12.5062 3.36756 12.5978 3.25595 12.6334 3.12544C12.6341 3.1229 12.637 3.12108 12.6396 3.1218C12.6421 3.12253 12.6436 3.12508 12.6432 3.12762C12.6199 3.26395 12.5374 3.39191 12.4164 3.47044C12.2953 3.5486 12.1397 3.57514 11.9943 3.53805C11.9699 3.53187 11.955 3.50752 11.9609 3.4828C11.967 3.45844 11.9914 3.44353 12.0161 3.44935C12.0176 3.44971 12.0194 3.45044 12.0208 3.45117Z" fill="#891D46"/>
<path d="M1.54021 8.46728C2.12441 8.32659 2.78423 8.53962 3.18121 9.01476C3.20775 9.04639 3.20375 9.09365 3.17212 9.12019C3.14049 9.14673 3.09323 9.14273 3.0667 9.1111C3.06597 9.11001 3.06488 9.10892 3.06415 9.10783C2.7297 8.66032 2.11968 8.41784 1.55257 8.52472C1.53657 8.52763 1.5213 8.51745 1.51839 8.50145C1.51549 8.48618 1.5253 8.47128 1.54021 8.46728Z" fill="#891D46"/>
<path d="M6.82016 11.0124C7.16625 10.9826 7.49779 10.8422 7.76935 10.6292C7.90641 10.5252 8.02274 10.3907 8.17797 10.2893C8.33065 10.1751 8.55096 10.17 8.72 10.2206C9.05918 10.3176 9.40091 10.3682 9.74772 10.3573C10.0927 10.3478 10.4355 10.282 10.7587 10.1642C10.7973 10.1501 10.8398 10.17 10.854 10.2086C10.8681 10.2471 10.8481 10.2897 10.8096 10.3038C10.8092 10.3038 10.8085 10.3042 10.8078 10.3046C10.4668 10.4198 10.108 10.4798 9.74954 10.4812C9.39182 10.4849 9.03083 10.4216 8.69565 10.3169C8.52987 10.2675 8.36555 10.2667 8.22414 10.3631C8.08127 10.4511 7.96021 10.5827 7.8148 10.6888C7.52797 10.9029 7.18151 11.0404 6.82416 11.0625C6.81034 11.0633 6.79835 11.0531 6.79762 11.0393C6.79617 11.0254 6.80671 11.0138 6.82016 11.0124Z" fill="#891D46"/>
<path d="M5.36333 10.9437C5.1423 10.8495 4.96272 10.6576 4.88346 10.4231C4.80458 10.1886 4.82893 9.91995 4.95435 9.69856C4.97435 9.66293 5.01943 9.64984 5.05542 9.66984C5.09104 9.68983 5.10413 9.73491 5.08414 9.7709C5.08341 9.77236 5.08196 9.77454 5.08087 9.77599C4.96381 9.95122 4.92309 10.1835 4.97835 10.3947C5.03324 10.6059 5.18375 10.7957 5.38442 10.8986C5.39678 10.9048 5.4015 10.92 5.39532 10.9324C5.38951 10.944 5.37533 10.9488 5.36333 10.9437Z" fill="#891D46"/>
<path d="M14.338 6.50345C14.3878 6.43329 14.4754 6.42929 14.5463 6.40421C14.6215 6.38639 14.6986 6.37803 14.7749 6.37912C14.9276 6.3813 15.0785 6.42057 15.2086 6.49545C15.2199 6.502 15.2239 6.51654 15.2174 6.52817C15.2112 6.53908 15.1977 6.54308 15.1865 6.53799C15.0578 6.4791 14.9153 6.45656 14.7775 6.46746C14.7084 6.47292 14.6404 6.48673 14.5761 6.50891C14.507 6.52345 14.4598 6.57689 14.3849 6.58161L14.3816 6.58198C14.3543 6.58379 14.3307 6.56307 14.3289 6.53544C14.3282 6.52345 14.3318 6.51254 14.338 6.50345Z" fill="#891D46"/>
<path d="M13.0551 11.7347C13.1205 11.5806 13.238 11.4646 13.3128 11.321C13.3943 11.1829 13.4626 11.0367 13.5008 10.8826C13.5757 10.5823 13.519 10.2173 13.2656 10.0159C13.255 10.0079 13.2532 9.99301 13.2612 9.98246C13.2692 9.97228 13.2838 9.97047 13.2943 9.97774C13.5779 10.1857 13.6546 10.5743 13.5873 10.9022C13.5531 11.0687 13.487 11.2265 13.4077 11.3741C13.3216 11.517 13.2521 11.6715 13.1296 11.7867C13.1111 11.8041 13.0816 11.8034 13.0638 11.7845C13.0511 11.7711 13.0482 11.7511 13.0551 11.7347Z" fill="#891D46"/>
<path d="M12.452 9.97302C12.4083 10.0341 12.3778 10.1213 12.4203 10.2286C12.4574 10.3311 12.4974 10.4627 12.4854 10.5852C12.4705 10.8313 12.332 11.0658 12.119 11.1829C12.1073 11.189 12.0928 11.185 12.0866 11.1734C12.0804 11.1621 12.0844 11.1483 12.095 11.1414C12.2851 11.0222 12.3974 10.799 12.3971 10.5823C12.3992 10.4703 12.3643 10.3762 12.3174 10.2635C12.2964 10.2075 12.2767 10.1399 12.2844 10.0679C12.2949 10.0068 12.3145 9.9014 12.4094 9.89231C12.4363 9.88977 12.4603 9.9094 12.4629 9.9363C12.464 9.94866 12.4607 9.96029 12.4541 9.96938L12.452 9.97302Z" fill="#891D46"/>
<path d="M7.76464 10.6332C7.87515 10.5929 7.99003 10.6332 8.098 10.6561C8.20633 10.6877 8.3103 10.739 8.39755 10.8121C8.57132 10.9571 8.67311 11.1952 8.61786 11.417C8.61458 11.4297 8.60186 11.4377 8.58877 11.4344C8.57641 11.4315 8.56878 11.4188 8.57096 11.4068C8.6084 11.2051 8.50152 10.9975 8.34266 10.8815C8.26195 10.8226 8.16816 10.783 8.07001 10.7612C7.97149 10.7306 7.87115 10.7532 7.769 10.7237C7.74355 10.7176 7.72792 10.6917 7.73446 10.6659C7.73846 10.651 7.75118 10.6387 7.76464 10.6332Z" fill="#891D46"/>
<path d="M4.56614 8.96058C4.53924 9.16344 4.54033 9.39428 4.71047 9.50952C4.8726 9.6244 5.08055 9.68075 5.28086 9.6862C5.68547 9.70292 6.08682 9.47281 6.25804 9.11836C6.27586 9.08164 6.32021 9.06601 6.35729 9.08382C6.39401 9.10163 6.40964 9.14599 6.39182 9.18307C6.39146 9.18379 6.39073 9.18525 6.39037 9.18597C6.17443 9.58914 5.71456 9.81962 5.27649 9.78508C5.05764 9.76945 4.84243 9.70401 4.6643 9.56805C4.57414 9.49898 4.51488 9.38737 4.50216 9.27722C4.48726 9.16671 4.5018 9.05874 4.5167 8.9544C4.51852 8.94059 4.53088 8.93077 4.54469 8.93259C4.55778 8.93441 4.5676 8.94713 4.56614 8.96058Z" fill="#891D46"/>
<path d="M6.39113 9.19102C6.62052 9.33971 6.90481 9.37751 7.17819 9.3717C7.53736 9.36443 7.89508 9.28772 8.22554 9.1474C8.33896 9.09941 8.46002 9.03143 8.49637 8.91364C8.52873 8.80785 8.48256 8.69625 8.46838 8.58646C8.44802 8.42832 8.4971 8.26764 8.57562 8.12877C8.65415 7.98989 8.76139 7.86993 8.86754 7.75105C8.26843 7.63763 7.6446 7.65908 7.05458 7.81285C6.84919 7.86629 6.64597 7.93682 6.46711 8.0506C6.29188 8.16221 6.06358 8.36288 6.04868 8.58537C6.03232 8.82712 6.19555 9.06451 6.39113 9.19102Z" fill="url(#paint14_radial)"/>
<path opacity="0.059" d="M8.64381 11.4199C8.62272 11.4974 8.61254 11.5897 8.61145 11.7042C8.61363 11.7162 8.61254 11.7286 8.61363 11.7409C8.61727 11.7885 8.62381 11.8358 8.6329 11.8827C8.67834 12.1139 8.78813 12.3379 8.93972 12.5287C9.35997 12.263 9.78058 12.1186 10.2012 12.0648C10.5324 12.0223 10.8636 12.0358 11.1944 12.0906C11.5499 12.1495 11.9047 12.2557 12.2595 12.3906C12.6554 12.5411 13.0517 12.7265 13.4479 12.9155C13.5472 12.8312 13.6381 12.7381 13.7181 12.637C13.7221 12.6312 13.726 12.6254 13.73 12.62C13.7849 12.5396 13.8333 12.4549 13.874 12.3666C13.898 12.3091 13.9187 12.2495 13.9358 12.1881C13.9569 12.111 13.9685 12.0296 13.974 11.9474C13.5403 11.951 13.1164 11.8013 12.6969 11.6599C12.6184 11.6333 12.5402 11.6075 12.462 11.5824C11.8713 11.3952 11.2565 11.2854 10.6378 11.2527C10.0147 11.2196 9.38724 11.2647 8.77577 11.3876C8.73105 11.3959 8.68779 11.4094 8.64381 11.4199Z" fill="#752836"/>
<path opacity="0.118" d="M8.64381 11.4199C8.62272 11.4974 8.61254 11.5897 8.61145 11.7042C8.61581 11.7147 8.61363 11.7267 8.61545 11.738C8.62163 11.782 8.63035 11.8253 8.64199 11.8689C8.69797 12.083 8.81503 12.2906 8.97099 12.4684C9.39015 12.2164 9.8093 12.0805 10.2288 12.0314C10.5578 11.9925 10.8865 12.0074 11.2151 12.0619C11.5685 12.1208 11.9215 12.2252 12.2737 12.3578C12.6678 12.5062 13.0622 12.689 13.4574 12.8701C13.5577 12.7923 13.6501 12.7057 13.7326 12.6112C13.7366 12.6054 13.7406 12.5996 13.7442 12.5941C13.7973 12.5138 13.8438 12.4291 13.8824 12.3404C13.9013 12.2866 13.9169 12.2306 13.9293 12.1728C13.9445 12.1001 13.9504 12.0234 13.9511 11.9452C13.5206 11.9445 13.1 11.7951 12.6838 11.6551C12.606 11.629 12.5282 11.6031 12.4504 11.5788C11.8633 11.3937 11.2529 11.285 10.6385 11.2527C10.0154 11.2196 9.38796 11.2647 8.7765 11.3876C8.73105 11.3959 8.68779 11.4094 8.64381 11.4199Z" fill="#752836"/>
<path opacity="0.176" d="M8.64399 11.4205C8.6229 11.498 8.61272 11.5903 8.61163 11.7048C8.61818 11.7139 8.61491 11.7255 8.61745 11.7357C8.62618 11.7761 8.63708 11.8157 8.6509 11.8557C8.71779 12.0527 8.84139 12.2439 9.00171 12.4083C9.41941 12.1705 9.83784 12.0425 10.2555 11.9982C10.5824 11.9629 10.9088 11.9789 11.2346 12.0331C11.5861 12.0916 11.9365 12.1945 12.2863 12.3246C12.6785 12.4708 13.0711 12.6511 13.4652 12.8245C13.5663 12.7529 13.6604 12.6733 13.7451 12.5853C13.7488 12.5795 13.7528 12.574 13.7564 12.5682C13.808 12.4879 13.8524 12.4028 13.8891 12.3145C13.9029 12.2643 13.9135 12.2119 13.9211 12.1578C13.9302 12.0898 13.9309 12.0171 13.9265 11.9437C13.4997 11.9386 13.0824 11.7892 12.6691 11.651C12.5916 11.6252 12.5146 11.5998 12.4371 11.5754C11.854 11.3925 11.2476 11.2853 10.6376 11.2529C10.0145 11.2199 9.38706 11.2649 8.77559 11.3878C8.73124 11.3965 8.68798 11.41 8.64399 11.4205Z" fill="#752836"/>
<path opacity="0.235" d="M8.64381 11.4199C8.62272 11.4974 8.61254 11.5897 8.61145 11.7042C8.62018 11.7122 8.61581 11.7231 8.61945 11.7326C8.63072 11.7693 8.64417 11.8053 8.6598 11.8416C8.7376 12.0212 8.86811 12.1968 9.03279 12.3477C9.44904 12.1237 9.86638 12.0041 10.283 11.9645C10.6073 11.9329 10.9315 11.95 11.2551 12.0041C11.6044 12.0627 11.9531 12.1634 12.2999 12.2917C12.6903 12.4356 13.0815 12.6134 13.4741 12.7788C13.5763 12.7137 13.6722 12.6407 13.7591 12.5589C13.7628 12.5531 13.7668 12.5476 13.7704 12.5418C13.8202 12.4611 13.8624 12.3764 13.8976 12.288C13.906 12.2415 13.9118 12.1928 13.9147 12.1423C13.918 12.0786 13.9133 12.0107 13.9038 11.9416C13.4803 11.9325 13.0662 11.7831 12.6562 11.6464C12.5795 11.621 12.5024 11.5955 12.4257 11.5715C11.8462 11.3912 11.2445 11.285 10.6385 11.2527C10.0154 11.2196 9.38796 11.2647 8.7765 11.3876C8.73105 11.3959 8.68779 11.4094 8.64381 11.4199Z" fill="#752836"/>
<path opacity="0.294" d="M8.64399 11.4205C8.6229 11.498 8.61272 11.5903 8.61163 11.7048C8.6229 11.7114 8.61709 11.7219 8.62145 11.7303C8.63526 11.7633 8.6509 11.7953 8.66907 11.8284C8.75741 11.9909 8.89483 12.1501 9.06387 12.2876C9.47903 12.0774 9.89492 11.9666 10.3104 11.9313C10.6325 11.9033 10.9543 11.9218 11.2753 11.9756C11.6228 12.0338 11.9689 12.1331 12.3135 12.2592C12.7021 12.4013 13.0915 12.5762 13.483 12.7336C13.5863 12.6751 13.6837 12.6086 13.7731 12.5333C13.7768 12.5275 13.7804 12.522 13.784 12.5162C13.832 12.4355 13.8724 12.3505 13.9055 12.2625C13.9087 12.2196 13.9095 12.1745 13.9076 12.1272C13.9051 12.068 13.8945 12.0047 13.88 11.9397C13.4598 11.9262 13.049 11.7772 12.6418 11.6416C12.5655 11.6161 12.4891 11.5914 12.4131 11.5678C11.8377 11.3896 11.24 11.2846 10.6384 11.2529C10.0152 11.2199 9.38778 11.2649 8.77632 11.3878C8.73124 11.3965 8.68798 11.41 8.64399 11.4205Z" fill="#752836"/>
<path opacity="0.353" d="M8.64399 11.4199C8.6229 11.4973 8.61272 11.5897 8.61163 11.7042C8.62508 11.7093 8.61818 11.7195 8.62327 11.7267C8.63963 11.7562 8.65744 11.7845 8.6778 11.814C8.77704 11.9594 8.92137 12.1026 9.09477 12.2262C9.50848 12.0299 9.92364 11.9274 10.3377 11.8969C10.6576 11.8725 10.9772 11.8921 11.2956 11.9456C11.641 12.0038 11.9853 12.1012 12.327 12.2248C12.7138 12.3647 13.1017 12.5371 13.4914 12.6868C13.5957 12.6349 13.6946 12.5749 13.7862 12.5062C13.7895 12.5003 13.7935 12.4949 13.7968 12.4891C13.8429 12.4084 13.8815 12.3233 13.9127 12.2353C13.9109 12.1961 13.9065 12.1546 13.8996 12.111C13.8909 12.0561 13.8753 11.9972 13.8557 11.9369C13.439 11.919 13.0312 11.77 12.6273 11.6362C12.5516 11.6111 12.4757 11.5864 12.4001 11.5631C11.8282 11.3872 11.2349 11.2836 10.6376 11.252C10.0145 11.2189 9.38706 11.264 8.77559 11.3868C8.73124 11.3959 8.68798 11.4094 8.64399 11.4199Z" fill="#752836"/>
<path opacity="0.412" d="M8.64399 11.4205C8.6229 11.498 8.61272 11.5903 8.61163 11.7048C8.62727 11.7088 8.61927 11.7183 8.62508 11.7248C8.64399 11.7506 8.66398 11.775 8.68652 11.8011C8.79667 11.9291 8.9479 12.0564 9.12531 12.1669C9.53756 11.9844 9.95163 11.8902 10.3646 11.8644C10.6823 11.8437 10.9993 11.8644 11.3153 11.9178C11.6588 11.9756 12.0005 12.0716 12.3397 12.193C12.7247 12.3308 13.1108 12.5006 13.4994 12.6424C13.6048 12.5969 13.7051 12.5435 13.7993 12.481C13.8026 12.4751 13.8062 12.4697 13.8095 12.4639C13.8542 12.3832 13.8906 12.2981 13.92 12.2101C13.9127 12.1745 13.9036 12.1367 13.892 12.0967C13.8775 12.0465 13.8564 11.992 13.8317 11.9357C13.4183 11.9135 13.0137 11.7648 12.6131 11.6325C12.5378 11.6077 12.4626 11.5834 12.3873 11.5605C11.8195 11.3867 11.2302 11.2846 10.6373 11.2529C10.0142 11.2199 9.38669 11.2649 8.77523 11.3878C8.73124 11.3965 8.68798 11.41 8.64399 11.4205Z" fill="#752836"/>
<path opacity="0.471" d="M8.64399 11.4205C8.6229 11.498 8.61272 11.5903 8.61163 11.7048C8.62945 11.7074 8.61999 11.7164 8.6269 11.7219C8.64835 11.7441 8.67089 11.7648 8.69561 11.7873C8.8163 11.8982 8.97444 12.0095 9.15658 12.1062C9.56774 11.9378 9.98035 11.8517 10.3922 11.8306C10.7074 11.8135 11.0226 11.8357 11.336 11.8888C11.6773 11.9466 12.0172 12.0404 12.3539 12.16C12.737 12.2956 13.1213 12.4624 13.5088 12.5969C13.6154 12.558 13.7175 12.5111 13.8135 12.4552C13.8168 12.4493 13.8204 12.4439 13.8233 12.4381C13.8662 12.3574 13.9007 12.2719 13.928 12.1843C13.9156 12.1523 13.9015 12.1182 13.8851 12.0818C13.8644 12.036 13.8378 11.9862 13.8084 11.9342C13.3987 11.908 12.9973 11.7593 12.5996 11.6281C12.5251 11.6034 12.4502 11.5794 12.3753 11.5569C11.8111 11.3856 11.2266 11.2842 10.6376 11.2529C10.0145 11.2199 9.38706 11.2649 8.77559 11.3878C8.73124 11.3965 8.68798 11.41 8.64399 11.4205Z" fill="#752836"/>
<path opacity="0.529" d="M8.64381 11.4199C8.62272 11.4974 8.61254 11.5897 8.61145 11.7042C8.63144 11.7053 8.6209 11.714 8.6289 11.7184C8.65289 11.7369 8.67761 11.754 8.70452 11.7729C8.83612 11.8667 9.00116 11.9616 9.18766 12.0452C9.59736 11.8907 10.0089 11.8129 10.4197 11.7965C10.7327 11.7831 11.0453 11.8064 11.3565 11.8591C11.6961 11.9169 12.0334 12.0088 12.3675 12.1263C12.7489 12.2597 13.1317 12.424 13.5177 12.5505C13.6253 12.5182 13.729 12.4778 13.8275 12.4284C13.8304 12.4226 13.834 12.4171 13.8369 12.4113C13.878 12.3302 13.9104 12.2451 13.9362 12.1575C13.9187 12.1292 13.8995 12.0986 13.8784 12.0659C13.8518 12.0245 13.8198 11.979 13.7853 11.9318C13.3789 11.9012 12.9808 11.7526 12.586 11.6231C12.5118 11.5988 12.4377 11.5751 12.3631 11.5526C11.8029 11.3836 11.2224 11.2836 10.6378 11.2527C10.0147 11.2196 9.38724 11.2647 8.77577 11.3876C8.73105 11.3959 8.68779 11.4094 8.64381 11.4199Z" fill="#752836"/>
<path opacity="0.588" d="M8.64381 11.4199C8.62272 11.4974 8.61254 11.5897 8.61145 11.7042C8.63363 11.7042 8.62199 11.7122 8.63072 11.7158C8.65726 11.7307 8.68416 11.7438 8.71324 11.7595C8.85575 11.8362 9.0277 11.9147 9.21819 11.9849C9.62681 11.8442 10.0372 11.7747 10.4466 11.7631C10.7574 11.7533 11.0679 11.778 11.3761 11.8304C11.7135 11.8878 12.0491 11.9783 12.3802 12.0932C12.7598 12.2248 13.1408 12.3862 13.5257 12.5051C13.6344 12.4793 13.7395 12.4455 13.8406 12.4026C13.8435 12.3967 13.8471 12.3913 13.85 12.3855C13.8893 12.3044 13.9198 12.219 13.9438 12.1317C13.9209 12.107 13.8969 12.0801 13.8711 12.0507C13.8384 12.0136 13.8013 11.9729 13.7617 11.9296C13.3585 11.8947 12.9637 11.7464 12.5722 11.6184C12.4987 11.5944 12.4249 11.5712 12.3512 11.549C11.7946 11.3821 11.2184 11.2836 10.6382 11.2527C10.0151 11.2196 9.3876 11.2647 8.77613 11.3876C8.73105 11.3959 8.68779 11.4094 8.64381 11.4199Z" fill="#752836"/>
<path opacity="0.647" d="M8.64399 11.4205C8.6229 11.498 8.61272 11.5903 8.61163 11.7048C8.63635 11.7034 8.62327 11.711 8.63272 11.7135C8.6618 11.7248 8.69125 11.7343 8.72251 11.7463C8.87592 11.8055 9.05442 11.8684 9.24964 11.9251C9.6568 11.7982 10.0661 11.7372 10.4744 11.7303C10.783 11.7241 11.091 11.7499 11.3971 11.8022C11.7326 11.8597 12.0656 11.948 12.3942 12.0611C12.7719 12.1905 13.1515 12.3494 13.535 12.4602C13.6444 12.441 13.7513 12.4137 13.8546 12.377C13.8575 12.3712 13.8607 12.3657 13.8636 12.3599C13.9015 12.2788 13.9298 12.1934 13.9516 12.1062C13.9236 12.0854 13.8945 12.0618 13.864 12.036C13.8251 12.0036 13.7826 11.9673 13.7382 11.9284C13.3387 11.8891 12.9468 11.7412 12.5586 11.6143C12.4855 11.5907 12.4124 11.5674 12.339 11.5456C11.7864 11.3809 11.2142 11.2835 10.6384 11.2529C10.0152 11.2199 9.38778 11.2649 8.77632 11.3878C8.73124 11.3965 8.68798 11.41 8.64399 11.4205Z" fill="#752836"/>
<path opacity="0.706" d="M8.64399 11.4205C8.6229 11.498 8.61272 11.5903 8.61163 11.7048C8.63854 11.7023 8.62436 11.7092 8.63454 11.7106C8.66616 11.7183 8.69779 11.7241 8.73124 11.7324C8.89519 11.7746 9.08096 11.8211 9.28018 11.8644C9.68588 11.7517 10.0941 11.699 10.5013 11.6965C10.8078 11.6939 11.1131 11.7208 11.4167 11.7728C11.75 11.8299 12.0812 11.9168 12.4073 12.0276C12.7832 12.1549 13.1609 12.3112 13.5434 12.4144C13.6539 12.4017 13.7626 12.381 13.868 12.3508C13.8706 12.345 13.8742 12.3395 13.8767 12.3337C13.9127 12.2527 13.9393 12.1669 13.9593 12.08C13.9262 12.0629 13.892 12.0429 13.8564 12.0207C13.8117 11.9927 13.7637 11.9607 13.7142 11.9262C13.318 11.8829 12.9297 11.7346 12.5444 11.6096C12.4717 11.5859 12.399 11.5634 12.3263 11.5416C11.7773 11.3791 11.2095 11.2831 10.6384 11.2529C10.0152 11.2199 9.38778 11.2649 8.77632 11.3878C8.73124 11.3965 8.68798 11.41 8.64399 11.4205Z" fill="#752836"/>
<path opacity="0.765" d="M8.64399 11.4205C8.6229 11.498 8.61272 11.5903 8.61163 11.7048C8.64072 11.7008 8.62545 11.7074 8.63672 11.7081C8.67053 11.7121 8.7047 11.7139 8.74033 11.719C8.91519 11.7441 9.1075 11.7746 9.31144 11.8041C9.71606 11.7052 10.1232 11.6608 10.5289 11.663C10.8328 11.6641 11.1364 11.6925 11.4374 11.7441C11.7689 11.8012 12.0976 11.8862 12.4211 11.9946C12.7952 12.1196 13.1715 12.2734 13.5521 12.3686C13.6637 12.3625 13.7739 12.3483 13.8818 12.3246C13.8844 12.3188 13.8876 12.3134 13.8902 12.3076C13.9244 12.2265 13.9491 12.1407 13.9669 12.0534C13.9284 12.04 13.8891 12.0236 13.8491 12.0051C13.7982 11.9815 13.7451 11.9542 13.6906 11.924C13.298 11.8764 12.9126 11.7284 12.5302 11.6048C12.4582 11.5816 12.3859 11.559 12.3135 11.5379C11.7686 11.378 11.2051 11.2831 10.638 11.2529C10.0149 11.2199 9.38742 11.2649 8.77595 11.3878C8.73124 11.3965 8.68798 11.41 8.64399 11.4205Z" fill="#752836"/>
<path opacity="0.824" d="M8.64399 11.4205C8.6229 11.498 8.61272 11.5903 8.61163 11.7048C8.6429 11.6994 8.62654 11.7055 8.63853 11.7052C8.67489 11.7055 8.71124 11.7037 8.74941 11.7052C8.93518 11.7128 9.1344 11.7274 9.34234 11.7437C9.7455 11.6586 10.1516 11.6227 10.5562 11.6296C10.8579 11.6343 11.1589 11.6637 11.4574 11.7154C11.7871 11.7721 12.1136 11.8557 12.4342 11.9618C12.8065 12.0851 13.1809 12.2359 13.5605 12.3236C13.6732 12.3239 13.7848 12.3163 13.8949 12.2988C13.8975 12.293 13.9007 12.2876 13.9029 12.2817C13.9353 12.2003 13.9582 12.1149 13.9742 12.0276C13.9305 12.0178 13.8862 12.0051 13.8415 11.9902C13.7844 11.9713 13.7259 11.9484 13.6666 11.9226C13.2773 11.8706 12.8952 11.723 12.516 11.6005C12.4444 11.5776 12.3728 11.5554 12.3008 11.5343C11.7599 11.3765 11.2004 11.2827 10.6376 11.2529C10.0145 11.2199 9.38706 11.2649 8.77559 11.3878C8.73124 11.3965 8.68798 11.41 8.64399 11.4205Z" fill="#752836"/>
<path opacity="0.882" d="M8.64399 11.4199C8.6229 11.4973 8.61272 11.5897 8.61163 11.7042C8.64508 11.6977 8.62763 11.7031 8.64035 11.7017C8.67925 11.6984 8.71815 11.6926 8.75814 11.6907C8.95445 11.6813 9.16094 11.6795 9.37324 11.6824C9.77495 11.6111 10.1799 11.5835 10.5835 11.5955C10.883 11.6039 11.1818 11.6344 11.4778 11.6857C11.8053 11.7424 12.1296 11.8238 12.448 11.9281C12.8185 12.0492 13.1911 12.1975 13.5695 12.2771C13.6833 12.284 13.7968 12.283 13.9091 12.272C13.9113 12.2662 13.9145 12.2608 13.9167 12.255C13.9476 12.1735 13.968 12.0877 13.9825 12.0008C13.9334 11.9947 13.8844 11.9856 13.8349 11.9739C13.772 11.9594 13.7081 11.9409 13.6433 11.9194C13.2576 11.8631 12.8785 11.7155 12.5026 11.5948C12.4317 11.5719 12.3604 11.5501 12.2892 11.5297C11.7519 11.3741 11.1967 11.2818 10.6384 11.252C10.0152 11.2189 9.38778 11.264 8.77632 11.3868C8.73124 11.3959 8.68798 11.4094 8.64399 11.4199Z" fill="#752836"/>
<path opacity="0.941" d="M8.64381 11.4199C8.62272 11.4974 8.61254 11.5897 8.61145 11.7042C8.64708 11.6962 8.62854 11.7013 8.64199 11.6991C8.68343 11.6922 8.72451 11.6828 8.76668 11.6773C8.9739 11.6508 9.18693 11.633 9.40396 11.6224C9.80458 11.5653 10.2085 11.5457 10.6105 11.5624C10.9079 11.5744 11.2042 11.6064 11.4976 11.6573C11.8233 11.7137 12.1454 11.7936 12.4609 11.8954C12.8296 12.0143 13.2007 12.1601 13.5777 12.2321C13.6926 12.2455 13.8075 12.251 13.9224 12.2466C13.9245 12.2408 13.9278 12.2353 13.93 12.2295C13.9591 12.1481 13.9776 12.0623 13.99 11.9754C13.9358 11.9729 13.8816 11.9674 13.8275 11.9594C13.7584 11.9496 13.689 11.9354 13.6195 11.9183C13.2371 11.8576 12.8616 11.7104 12.4882 11.5911C12.4177 11.5686 12.3472 11.5472 12.2763 11.5268C11.743 11.3734 11.1918 11.2821 10.6378 11.2531C10.0147 11.22 9.38724 11.2651 8.77577 11.3879C8.73105 11.3959 8.68779 11.4094 8.64381 11.4199Z" fill="#752836"/>
<path d="M8.64399 11.6965C8.68798 11.6859 8.73124 11.6728 8.77595 11.6637C9.38778 11.5409 10.0149 11.4958 10.638 11.5289C11.2611 11.5619 11.8798 11.6728 12.4746 11.8626C12.9544 12.0156 13.439 12.213 13.936 12.2207C13.9382 12.2149 13.9411 12.2094 13.9433 12.2036C13.9705 12.1222 13.9873 12.036 13.9978 11.9495C13.479 11.9589 12.9744 11.7459 12.4746 11.5867C11.8798 11.3973 11.2611 11.286 10.638 11.2529C10.0149 11.2199 9.38742 11.2649 8.77595 11.3878C8.73124 11.3969 8.68834 11.41 8.64399 11.4205C8.6229 11.498 8.61272 11.5903 8.61163 11.7048C8.64944 11.6954 8.62981 11.6997 8.64399 11.6965Z" fill="#752836"/>
<defs>
<radialGradient id="paint0_radial" cx="0" cy="0" r="1" gradientUnits="userSpaceOnUse" gradientTransform="translate(6.10036 2.32966) scale(8.46713)">
<stop offset="0.013" stop-color="#E6DDE4"/>
<stop offset="0.503" stop-color="#F2B0CC"/>
<stop offset="1" stop-color="#F1709F"/>
</radialGradient>
<radialGradient id="paint1_radial" cx="0" cy="0" r="1" gradientUnits="userSpaceOnUse" gradientTransform="translate(7.88901 4.76667) rotate(-5.91184) scale(8.07903 4.0732)">
<stop stop-color="#E6DDE4" stop-opacity="0"/>
<stop offset="0.151" stop-color="#E4D8E0" stop-opacity="0.151"/>
<stop offset="0.325" stop-color="#E0CAD4" stop-opacity="0.325"/>
<stop offset="0.509" stop-color="#D8B3C1" stop-opacity="0.509"/>
<stop offset="0.702" stop-color="#CD93A6" stop-opacity="0.702"/>
<stop offset="0.898" stop-color="#BF6A84" stop-opacity="0.898"/>
<stop offset="1" stop-color="#B75270"/>
</radialGradient>
<radialGradient id="paint2_radial" cx="0" cy="0" r="1" gradientUnits="userSpaceOnUse" gradientTransform="translate(7.01214 12.7792) scale(2.92574)">
<stop offset="0.005" stop-color="#9B4A59"/>
<stop offset="0.071" stop-color="#974655"/>
<stop offset="0.622" stop-color="#752836"/>
</radialGradient>
<radialGradient id="paint3_radial" cx="0" cy="0" r="1" gradientUnits="userSpaceOnUse" gradientTransform="translate(12.3771 12.8846) scale(4.50277)">
<stop stop-color="#CD6D84"/>
<stop offset="0.192" stop-color="#BD6276"/>
<stop offset="0.627" stop-color="#9B4A59"/>
</radialGradient>
<radialGradient id="paint4_radial" cx="0" cy="0" r="1" gradientUnits="userSpaceOnUse" gradientTransform="translate(9.18601 6.32707) rotate(-92.602) scale(6.17232 6.923)">
<stop offset="0.013" stop-color="#E6DDE4"/>
<stop offset="0.503" stop-color="#F2B0CC"/>
<stop offset="1" stop-color="#F1709F"/>
</radialGradient>
<radialGradient id="paint5_radial" cx="0" cy="0" r="1" gradientUnits="userSpaceOnUse" gradientTransform="translate(10.4757 7.74788) rotate(-8.32537) scale(7.36445 4.28028)">
<stop stop-color="#E6DDE4" stop-opacity="0"/>
<stop offset="0.025" stop-color="#E6DDE4" stop-opacity="0.1"/>
<stop offset="1" stop-color="#B75270"/>
</radialGradient>
<radialGradient id="paint6_radial" cx="0" cy="0" r="1" gradientUnits="userSpaceOnUse" gradientTransform="translate(6.85268 4.57378) rotate(-6.45566) scale(3.63238 3.32397)">
<stop stop-color="#E6DDE4" stop-opacity="0"/>
<stop offset="0.151" stop-color="#E4D8E0" stop-opacity="0.151"/>
<stop offset="0.325" stop-color="#E0CAD4" stop-opacity="0.325"/>
<stop offset="0.509" stop-color="#D8B3C1" stop-opacity="0.509"/>
<stop offset="0.702" stop-color="#CD93A6" stop-opacity="0.702"/>
<stop offset="0.898" stop-color="#BF6A84" stop-opacity="0.898"/>
<stop offset="1" stop-color="#B75270"/>
</radialGradient>
<radialGradient id="paint7_radial" cx="0" cy="0" r="1" gradientUnits="userSpaceOnUse" gradientTransform="translate(4.24219 6.012) rotate(-93.9338) scale(1.7987 2.90737)">
<stop stop-color="#E6DDE4" stop-opacity="0"/>
<stop offset="0.151" stop-color="#E4D8E0" stop-opacity="0.151"/>
<stop offset="0.325" stop-color="#E0CAD4" stop-opacity="0.325"/>
<stop offset="0.509" stop-color="#D8B3C1" stop-opacity="0.509"/>
<stop offset="0.702" stop-color="#CD93A6" stop-opacity="0.702"/>
<stop offset="0.898" stop-color="#BF6A84" stop-opacity="0.898"/>
<stop offset="1" stop-color="#B75270"/>
</radialGradient>
<radialGradient id="paint8_radial" cx="0" cy="0" r="1" gradientUnits="userSpaceOnUse" gradientTransform="translate(9.97222 5.45424) rotate(82.7844) scale(3.48517 4.31188)">
<stop offset="0.629" stop-color="#E6DDE4" stop-opacity="0"/>
<stop offset="0.681" stop-color="#E2D2DA" stop-opacity="0.07"/>
<stop offset="0.773" stop-color="#D8B3C1" stop-opacity="0.194"/>
<stop offset="0.894" stop-color="#C78298" stop-opacity="0.358"/>
<stop offset="1" stop-color="#B75270" stop-opacity="0.5"/>
</radialGradient>
<radialGradient id="paint9_radial" cx="0" cy="0" r="1" gradientUnits="userSpaceOnUse" gradientTransform="translate(1.87939 8.54069) scale(2.05144)">
<stop stop-color="#9B4A59" stop-opacity="0"/>
<stop offset="0.107" stop-color="#974655" stop-opacity="0.107"/>
<stop offset="1" stop-color="#752836"/>
</radialGradient>
<radialGradient id="paint10_radial" cx="0" cy="0" r="1" gradientUnits="userSpaceOnUse" gradientTransform="translate(4.50877 2.45184) rotate(-4.53669) scale(1.93626 1.74786)">
<stop offset="0.111" stop-color="#E6DDE4" stop-opacity="0"/>
<stop offset="0.245" stop-color="#E4D8E0" stop-opacity="0.151"/>
<stop offset="0.4" stop-color="#E0CAD4" stop-opacity="0.325"/>
<stop offset="0.564" stop-color="#D8B3C1" stop-opacity="0.509"/>
<stop offset="0.735" stop-color="#CD93A6" stop-opacity="0.702"/>
<stop offset="0.909" stop-color="#BF6A84" stop-opacity="0.898"/>
<stop offset="1" stop-color="#B75270"/>
</radialGradient>
<radialGradient id="paint11_radial" cx="0" cy="0" r="1" gradientUnits="userSpaceOnUse" gradientTransform="translate(6.93361 1.81772) rotate(16.1587) scale(2.69782 2.43545)">
<stop offset="0.111" stop-color="#E6DDE4" stop-opacity="0"/>
<stop offset="0.245" stop-color="#E4D8E0" stop-opacity="0.151"/>
<stop offset="0.4" stop-color="#E0CAD4" stop-opacity="0.325"/>
<stop offset="0.564" stop-color="#D8B3C1" stop-opacity="0.509"/>
<stop offset="0.735" stop-color="#CD93A6" stop-opacity="0.702"/>
<stop offset="0.909" stop-color="#BF6A84" stop-opacity="0.898"/>
<stop offset="1" stop-color="#B75270"/>
</radialGradient>
<radialGradient id="paint12_radial" cx="0" cy="0" r="1" gradientUnits="userSpaceOnUse" gradientTransform="translate(9.06048 1.88867) rotate(-4.53668) scale(1.57344 1.42034)">
<stop offset="0.111" stop-color="#E6DDE4" stop-opacity="0"/>
<stop offset="0.245" stop-color="#E4D8E0" stop-opacity="0.151"/>
<stop offset="0.4" stop-color="#E0CAD4" stop-opacity="0.325"/>
<stop offset="0.564" stop-color="#D8B3C1" stop-opacity="0.509"/>
<stop offset="0.735" stop-color="#CD93A6" stop-opacity="0.702"/>
<stop offset="0.909" stop-color="#BF6A84" stop-opacity="0.898"/>
<stop offset="1" stop-color="#B75270"/>
</radialGradient>
<radialGradient id="paint13_radial" cx="0" cy="0" r="1" gradientUnits="userSpaceOnUse" gradientTransform="translate(10.6256 5.00963) rotate(95.6229) scale(1.94804 3.87945)">
<stop offset="0.227" stop-color="#E6DDE4" stop-opacity="0"/>
<stop offset="0.329" stop-color="#E2D2DA" stop-opacity="0.07"/>
<stop offset="0.511" stop-color="#D8B3C1" stop-opacity="0.194"/>
<stop offset="0.75" stop-color="#C78298" stop-opacity="0.358"/>
<stop offset="0.958" stop-color="#B75270" stop-opacity="0.5"/>
</radialGradient>
<radialGradient id="paint14_radial" cx="0" cy="0" r="1" gradientUnits="userSpaceOnUse" gradientTransform="translate(7.45701 7.4675) rotate(-8.87075) scale(2.1037 1.75579)">
<stop offset="0.397" stop-color="#E6DDE4" stop-opacity="0"/>
<stop offset="0.482" stop-color="#E2D2DA" stop-opacity="0.07"/>
<stop offset="0.632" stop-color="#D8B3C1" stop-opacity="0.194"/>
<stop offset="0.829" stop-color="#C78298" stop-opacity="0.358"/>
<stop offset="1" stop-color="#B75270" stop-opacity="0.5"/>
</radialGradient>
</defs>
</svg>
