<svg width="30" height="30" viewBox="0 0 30 30" fill="none" xmlns="http://www.w3.org/2000/svg">
<g clip-path="url(#clip0)">
<path d="M3.49654 13.4654L5.83438 6.97778L18.5126 3.58067L23.781 8.03018L14.4313 13.7055L3.49654 13.4654Z" fill="url(#paint0_linear)"/>
<path d="M3.49658 13.4656L23.781 8.03038L17.2204 24.1148L3.49658 13.4656Z" fill="url(#paint1_linear)"/>
<path d="M9.20618 11.9357L17.2253 24.1135L18.0812 9.55761L9.20618 11.9357Z" fill="url(#paint2_linear)"/>
<path d="M5.83057 6.97876L9.19743 11.9378L18.0725 9.55972L18.5087 3.58165L5.83057 6.97876Z" fill="url(#paint3_linear)"/>
<path d="M9.20614 11.9355L12.1784 5.27789L18.0812 9.55741L9.20614 11.9355Z" fill="url(#paint4_linear)"/>
</g>
<defs>
<linearGradient id="paint0_linear" x1="15.0416" y1="15.9833" x2="11.9442" y2="4.42368" gradientUnits="userSpaceOnUse">
<stop offset="0.159" stop-color="#189EEC"/>
<stop offset="0.902" stop-color="#C4F0F8"/>
</linearGradient>
<linearGradient id="paint1_linear" x1="13.3942" y1="9.83509" x2="16.8763" y2="22.8304" gradientUnits="userSpaceOnUse">
<stop stop-color="#068BD9"/>
<stop offset="0.174" stop-color="#049CE5"/>
<stop offset="0.445" stop-color="#02AFF4"/>
<stop offset="0.719" stop-color="#00BBFC"/>
<stop offset="1" stop-color="#00BFFF"/>
</linearGradient>
<linearGradient id="paint2_linear" x1="12.7813" y1="7.52802" x2="17.9146" y2="26.6858" gradientUnits="userSpaceOnUse">
<stop offset="0.023" stop-color="#139CEC"/>
<stop offset="0.212" stop-color="#3FB1EF"/>
<stop offset="0.48" stop-color="#78CCF3"/>
<stop offset="0.71" stop-color="#A1E0F6"/>
<stop offset="0.891" stop-color="#BBECF7"/>
<stop offset="1" stop-color="#C4F0F8"/>
</linearGradient>
<linearGradient id="paint3_linear" x1="14.4021" y1="13.6119" x2="11.2888" y2="1.99288" gradientUnits="userSpaceOnUse">
<stop offset="0.295" stop-color="#189EEC"/>
<stop offset="0.389" stop-color="#3BB0EF"/>
<stop offset="0.494" stop-color="#59C1F3"/>
<stop offset="0.604" stop-color="#71CEF5"/>
<stop offset="0.72" stop-color="#83D7F7"/>
<stop offset="0.846" stop-color="#8DDCF8"/>
<stop offset="1" stop-color="#90DEF8"/>
</linearGradient>
<linearGradient id="paint4_linear" x1="14.5451" y1="14.1107" x2="12.6683" y2="7.10625" gradientUnits="userSpaceOnUse">
<stop stop-color="#189EEC"/>
<stop offset="0.053" stop-color="#2FA8ED"/>
<stop offset="0.168" stop-color="#5CBCF0"/>
<stop offset="0.288" stop-color="#82CCF3"/>
<stop offset="0.411" stop-color="#A1DAF5"/>
<stop offset="0.539" stop-color="#B9E5F6"/>
<stop offset="0.674" stop-color="#CBECF7"/>
<stop offset="0.821" stop-color="#D5F1F8"/>
<stop offset="1" stop-color="#D8F2F8"/>
</linearGradient>
<clipPath id="clip0">
<rect width="24" height="24" fill="white" transform="translate(0 6.21167) rotate(-15)"/>
</clipPath>
</defs>
</svg>
