<svg width="30" height="30" viewBox="0 0 30 30" fill="none" xmlns="http://www.w3.org/2000/svg">
<g clip-path="url(#clip0)">
<path d="M6.05425 22.7104C9.10879 23.5289 12.6845 20.0889 14.0408 15.0271C15.3972 9.96519 14.0205 5.19825 10.9659 4.37979C7.91138 3.56132 4.33566 7.00128 2.97934 12.0631C1.62302 17.125 2.9997 21.8919 6.05425 22.7104Z" fill="url(#paint0_radial)"/>
<path d="M5.71984 16.6072C7.38545 17.0535 9.12831 15.95 9.61264 14.1425C10.097 12.335 9.13934 10.5079 7.47373 10.0616C5.80813 9.61534 4.06526 10.7188 3.58094 12.5263C3.09662 14.3339 4.05424 16.1609 5.71984 16.6072Z" fill="url(#paint1_linear)"/>
<path d="M5.94954 15.09C6.85797 15.3335 7.80855 14.7315 8.07273 13.7456C8.3369 12.7597 7.81463 11.7631 6.90621 11.5197C5.99778 11.2763 5.0472 11.8782 4.78302 12.8641C4.51884 13.8501 5.04111 14.8466 5.94954 15.09Z" fill="url(#paint2_radial)"/>
<path d="M7.66045 13.0299C7.97166 13.1133 8.29155 12.9286 8.37494 12.6174C8.45832 12.3062 8.27364 11.9863 7.96243 11.9029C7.65121 11.8196 7.33133 12.0042 7.24794 12.3155C7.16455 12.6267 7.34923 12.9466 7.66045 13.0299Z" fill="white"/>
<path d="M18.175 25.9581C21.2295 26.7766 24.8052 23.3366 26.1616 18.2747C27.5179 13.2129 26.1412 8.44593 23.0867 7.62747C20.0321 6.809 16.4564 10.249 15.1001 15.3108C13.7437 20.3727 15.1204 25.1396 18.175 25.9581Z" fill="url(#paint3_radial)"/>
<path d="M17.8414 19.8552C19.507 20.3015 21.2499 19.198 21.7342 17.3905C22.2185 15.5829 21.2609 13.7559 19.5953 13.3096C17.9297 12.8633 16.1868 13.9667 15.7025 15.7743C15.2182 17.5818 16.1758 19.4089 17.8414 19.8552Z" fill="url(#paint4_linear)"/>
<path d="M18.0705 18.3378C18.9789 18.5813 19.9295 17.9793 20.1937 16.9934C20.4579 16.0075 19.9356 15.0109 19.0272 14.7675C18.1188 14.5241 17.1682 15.126 16.904 16.1119C16.6398 17.0979 17.1621 18.0944 18.0705 18.3378Z" fill="url(#paint5_radial)"/>
<path d="M19.7814 16.2777C20.0926 16.3611 20.4125 16.1764 20.4959 15.8652C20.5793 15.554 20.3946 15.2341 20.0834 15.1507C19.7722 15.0674 19.4523 15.252 19.3689 15.5633C19.2855 15.8745 19.4702 16.1944 19.7814 16.2777Z" fill="white"/>
</g>
<defs>
<radialGradient id="paint0_radial" cx="0" cy="0" r="1" gradientUnits="userSpaceOnUse" gradientTransform="translate(8.18783 13.4936) rotate(15) scale(5.67502 9.64588)">
<stop stop-color="#F0F0DE"/>
<stop offset="0.489" stop-color="#EEEEDD"/>
<stop offset="0.665" stop-color="#E7E8D8"/>
<stop offset="0.79" stop-color="#DCDCCF"/>
<stop offset="0.892" stop-color="#CBCCC2"/>
<stop offset="0.978" stop-color="#B5B7B2"/>
<stop offset="1" stop-color="#AEB0AD"/>
</radialGradient>
<linearGradient id="paint1_linear" x1="3.58094" y1="12.5263" x2="9.61264" y2="14.1425" gradientUnits="userSpaceOnUse">
<stop stop-color="#C69C6D"/>
<stop offset="1" stop-color="#754C24"/>
</linearGradient>
<radialGradient id="paint2_radial" cx="0" cy="0" r="1" gradientUnits="userSpaceOnUse" gradientTransform="translate(6.42745 13.3042) rotate(15) scale(1.70295 1.84812)">
<stop stop-color="#1C1911"/>
<stop offset="0.999" stop-color="#171714"/>
</radialGradient>
<radialGradient id="paint3_radial" cx="0" cy="0" r="1" gradientUnits="userSpaceOnUse" gradientTransform="translate(20.3088 16.7414) rotate(15) scale(5.67502 9.64588)">
<stop stop-color="#F0F0DE"/>
<stop offset="0.489" stop-color="#EEEEDD"/>
<stop offset="0.665" stop-color="#E7E8D8"/>
<stop offset="0.79" stop-color="#DCDCCF"/>
<stop offset="0.892" stop-color="#CBCCC2"/>
<stop offset="0.978" stop-color="#B5B7B2"/>
<stop offset="1" stop-color="#AEB0AD"/>
</radialGradient>
<linearGradient id="paint4_linear" x1="15.7025" y1="15.7743" x2="21.7342" y2="17.3905" gradientUnits="userSpaceOnUse">
<stop stop-color="#C69C6D"/>
<stop offset="1" stop-color="#754C24"/>
</linearGradient>
<radialGradient id="paint5_radial" cx="0" cy="0" r="1" gradientUnits="userSpaceOnUse" gradientTransform="translate(18.5485 16.5521) rotate(15) scale(1.70295 1.84812)">
<stop stop-color="#1C1911"/>
<stop offset="0.999" stop-color="#171714"/>
</radialGradient>
<clipPath id="clip0">
<rect width="24" height="24" fill="white" transform="translate(6.21167) rotate(15)"/>
</clipPath>
</defs>
</svg>
