<svg width="1440" height="607" viewBox="0 0 1440 607" fill="none" xmlns="http://www.w3.org/2000/svg">
<circle cx="720" cy="311" r="290" fill="white" fill-opacity="0.12"/>
<circle cx="640" cy="40" r="40" fill="#55AEEF"/>
<circle cx="844" cy="575" r="32" fill="white"/>
<path d="M1440 196.719C1413.88 182.512 1351.4 160.335 1310.48 185.284C1259.32 216.471 1185.31 289.239 1108.03 248.697C1030.75 208.154 962.177 206.075 909.932 231.024C857.687 255.974 811.125 243.266 772.789 222.708C726.569 197.921 698.775 257.013 683.537 290.279C668.299 323.545 622.536 438.624 570.219 450.647C488.759 469.368 450.657 403.846 376.599 398.393C309.294 393.437 249.635 360.165 232.555 308.164C218.854 266.453 119.728 175.928 -3.14713e-05 279.883" stroke="white" stroke-width="3" stroke-linecap="round"/>
<g filter="url(#filter0_d)">
<path d="M0 321.923C36.082 287.342 123.335 228.554 183.69 270.051C259.134 321.923 355.353 356.906 402.369 346.049C449.385 335.192 512.802 237.48 630.888 346.049C748.975 454.618 784.201 583.317 894.396 489.601C946.879 444.967 1067.15 143.387 1160.09 212.147C1253.03 280.908 1279.27 483.569 1440 414.809" stroke="#52B6FF" stroke-width="3" stroke-linecap="round"/>
</g>
<circle cx="936" cy="219" r="14" fill="white" stroke="#8A68F9" stroke-width="4"/>
<circle cx="468" cy="309" r="14" fill="#51B4FC" stroke="#8A68F9" stroke-width="4"/>
<g filter="url(#filter1_d)">
<path fill-rule="evenodd" clip-rule="evenodd" d="M358 195C351.373 195 346 200.373 346 207V259C346 265.627 351.373 271 358 271H457.531L465.648 279.956C466.64 281.051 468.36 281.051 469.353 279.956L477.469 271H578C584.627 271 590 265.627 590 259V207C590 200.373 584.627 195 578 195H358Z" fill="white"/>
</g>
<path d="M410.098 218.02H412.716V226H414.732V218.02H417.378V216.2H410.098V218.02ZM418.277 217.068C418.277 217.357 418.38 217.6 418.585 217.796C418.791 217.992 419.047 218.09 419.355 218.09C419.663 218.09 419.92 217.992 420.125 217.796C420.34 217.6 420.447 217.357 420.447 217.068C420.447 216.769 420.34 216.522 420.125 216.326C419.92 216.13 419.663 216.032 419.355 216.032C419.047 216.032 418.791 216.13 418.585 216.326C418.38 216.522 418.277 216.769 418.277 217.068ZM418.473 219.56V226H420.223V219.56H418.473ZM422.12 215.08V226H423.87V215.08H422.12ZM426.236 219.56L423.464 222.22L426.53 226H428.7L425.648 222.22L428.42 219.56H426.236ZM428.814 219.56V221.1H432.804V219.56H428.814ZM429.92 217.32V226H431.684V217.32H429.92ZM433.321 222.78C433.321 223.443 433.475 224.031 433.783 224.544C434.101 225.048 434.525 225.44 435.057 225.72C435.599 226 436.21 226.14 436.891 226.14C437.573 226.14 438.184 226 438.725 225.72C439.267 225.44 439.691 225.048 439.999 224.544C440.317 224.031 440.475 223.443 440.475 222.78C440.475 222.108 440.317 221.52 439.999 221.016C439.691 220.512 439.267 220.12 438.725 219.84C438.184 219.56 437.573 219.42 436.891 219.42C436.21 219.42 435.599 219.56 435.057 219.84C434.525 220.12 434.101 220.512 433.783 221.016C433.475 221.52 433.321 222.108 433.321 222.78ZM435.183 222.78C435.183 222.416 435.258 222.099 435.407 221.828C435.566 221.548 435.771 221.333 436.023 221.184C436.275 221.035 436.565 220.96 436.891 220.96C437.209 220.96 437.493 221.035 437.745 221.184C438.007 221.333 438.212 221.548 438.361 221.828C438.52 222.108 438.599 222.425 438.599 222.78C438.599 223.144 438.52 223.461 438.361 223.732C438.212 224.003 438.007 224.217 437.745 224.376C437.493 224.525 437.209 224.6 436.891 224.6C436.565 224.6 436.275 224.525 436.023 224.376C435.771 224.217 435.566 224.003 435.407 223.732C435.258 223.452 435.183 223.135 435.183 222.78ZM441.794 215.08V226H443.544V215.08H441.794ZM445.91 219.56L443.138 222.22L446.204 226H448.374L445.322 222.22L448.094 219.56H445.91ZM455.303 229.08V219.56H453.483V229.08H455.303ZM460.595 222.78C460.595 222.043 460.446 221.422 460.147 220.918C459.858 220.405 459.475 220.017 458.999 219.756C458.533 219.495 458.029 219.364 457.487 219.364C457.067 219.364 456.689 219.443 456.353 219.602C456.027 219.761 455.747 219.989 455.513 220.288C455.28 220.587 455.103 220.946 454.981 221.366C454.86 221.786 454.799 222.257 454.799 222.78C454.799 223.303 454.86 223.774 454.981 224.194C455.103 224.614 455.28 224.973 455.513 225.272C455.747 225.571 456.027 225.799 456.353 225.958C456.689 226.107 457.067 226.182 457.487 226.182C458.029 226.182 458.533 226.056 458.999 225.804C459.475 225.543 459.858 225.16 460.147 224.656C460.446 224.143 460.595 223.517 460.595 222.78ZM458.691 222.78C458.691 223.163 458.612 223.489 458.453 223.76C458.295 224.021 458.085 224.222 457.823 224.362C457.562 224.502 457.273 224.572 456.955 224.572C456.759 224.572 456.563 224.535 456.367 224.46C456.171 224.385 455.994 224.273 455.835 224.124C455.677 223.965 455.546 223.774 455.443 223.55C455.35 223.326 455.303 223.069 455.303 222.78C455.303 222.481 455.35 222.225 455.443 222.01C455.546 221.786 455.677 221.595 455.835 221.436C455.994 221.277 456.171 221.165 456.367 221.1C456.563 221.025 456.759 220.988 456.955 220.988C457.273 220.988 457.562 221.058 457.823 221.198C458.085 221.338 458.295 221.543 458.453 221.814C458.612 222.075 458.691 222.397 458.691 222.78ZM463.725 219.56H461.933V226H463.725V219.56ZM465.615 221.464L466.441 219.91C466.32 219.751 466.152 219.63 465.937 219.546C465.722 219.462 465.498 219.42 465.265 219.42C464.92 219.42 464.588 219.537 464.271 219.77C463.963 220.003 463.711 220.321 463.515 220.722C463.319 221.114 463.221 221.567 463.221 222.08L463.725 222.598C463.725 222.29 463.762 222.029 463.837 221.814C463.921 221.59 464.042 221.417 464.201 221.296C464.36 221.175 464.551 221.114 464.775 221.114C464.962 221.114 465.116 221.147 465.237 221.212C465.368 221.268 465.494 221.352 465.615 221.464ZM466.749 222.78C466.749 223.443 466.903 224.031 467.211 224.544C467.528 225.048 467.953 225.44 468.485 225.72C469.026 226 469.638 226.14 470.319 226.14C471 226.14 471.612 226 472.153 225.72C472.694 225.44 473.119 225.048 473.427 224.544C473.744 224.031 473.903 223.443 473.903 222.78C473.903 222.108 473.744 221.52 473.427 221.016C473.119 220.512 472.694 220.12 472.153 219.84C471.612 219.56 471 219.42 470.319 219.42C469.638 219.42 469.026 219.56 468.485 219.84C467.953 220.12 467.528 220.512 467.211 221.016C466.903 221.52 466.749 222.108 466.749 222.78ZM468.611 222.78C468.611 222.416 468.686 222.099 468.835 221.828C468.994 221.548 469.199 221.333 469.451 221.184C469.703 221.035 469.992 220.96 470.319 220.96C470.636 220.96 470.921 221.035 471.173 221.184C471.434 221.333 471.64 221.548 471.789 221.828C471.948 222.108 472.027 222.425 472.027 222.78C472.027 223.144 471.948 223.461 471.789 223.732C471.64 224.003 471.434 224.217 471.173 224.376C470.921 224.525 470.636 224.6 470.319 224.6C469.992 224.6 469.703 224.525 469.451 224.376C469.199 224.217 468.994 224.003 468.835 223.732C468.686 223.452 468.611 223.135 468.611 222.78ZM475.054 217.068C475.054 217.357 475.156 217.6 475.362 217.796C475.576 217.992 475.833 218.09 476.132 218.09C476.449 218.09 476.71 217.992 476.916 217.796C477.13 217.6 477.238 217.357 477.238 217.068C477.238 216.769 477.13 216.527 476.916 216.34C476.71 216.144 476.449 216.046 476.132 216.046C475.833 216.046 475.576 216.144 475.362 216.34C475.156 216.527 475.054 216.769 475.054 217.068ZM473.962 227.232L473.178 228.604C473.28 228.707 473.406 228.809 473.556 228.912C473.705 229.024 473.882 229.113 474.088 229.178C474.284 229.243 474.517 229.276 474.788 229.276C475.282 229.276 475.698 229.178 476.034 228.982C476.37 228.795 476.622 228.525 476.79 228.17C476.967 227.825 477.056 227.419 477.056 226.952V219.56H475.278V226.546C475.278 226.789 475.25 226.985 475.194 227.134C475.147 227.293 475.072 227.409 474.97 227.484C474.876 227.559 474.755 227.596 474.606 227.596C474.466 227.596 474.344 227.563 474.242 227.498C474.139 227.433 474.046 227.344 473.962 227.232ZM481.993 226.14C482.777 226.14 483.444 225.991 483.995 225.692C484.546 225.384 484.989 224.927 485.325 224.32L483.729 223.816C483.552 224.133 483.314 224.371 483.015 224.53C482.726 224.679 482.385 224.754 481.993 224.754C481.638 224.754 481.335 224.675 481.083 224.516C480.84 224.357 480.654 224.129 480.523 223.83C480.392 223.522 480.332 223.158 480.341 222.738C480.341 222.393 480.374 222.099 480.439 221.856C480.514 221.604 480.621 221.389 480.761 221.212C480.901 221.035 481.069 220.909 481.265 220.834C481.47 220.75 481.704 220.708 481.965 220.708C482.254 220.708 482.506 220.773 482.721 220.904C482.936 221.025 483.099 221.198 483.211 221.422C483.332 221.646 483.393 221.917 483.393 222.234C483.393 222.299 483.374 222.379 483.337 222.472C483.309 222.565 483.272 222.645 483.225 222.71L483.729 222.066H479.557V223.172H485.325C485.325 223.116 485.33 223.046 485.339 222.962C485.348 222.878 485.353 222.789 485.353 222.696C485.353 222.005 485.218 221.417 484.947 220.932C484.686 220.437 484.303 220.064 483.799 219.812C483.304 219.551 482.702 219.42 481.993 219.42C481.452 219.42 480.966 219.499 480.537 219.658C480.108 219.807 479.739 220.031 479.431 220.33C479.132 220.619 478.904 220.974 478.745 221.394C478.586 221.805 478.507 222.267 478.507 222.78C478.507 223.461 478.647 224.054 478.927 224.558C479.216 225.062 479.622 225.454 480.145 225.734C480.668 226.005 481.284 226.14 481.993 226.14ZM488.107 222.78C488.107 222.425 488.186 222.108 488.345 221.828C488.513 221.548 488.737 221.324 489.017 221.156C489.297 220.988 489.609 220.904 489.955 220.904C490.216 220.904 490.477 220.951 490.739 221.044C491 221.128 491.238 221.249 491.453 221.408C491.677 221.557 491.845 221.735 491.957 221.94V220.064C491.733 219.877 491.439 219.723 491.075 219.602C490.72 219.481 490.309 219.42 489.843 219.42C489.152 219.42 488.531 219.56 487.981 219.84C487.439 220.12 487.01 220.512 486.693 221.016C486.385 221.52 486.231 222.108 486.231 222.78C486.231 223.443 486.385 224.031 486.693 224.544C487.01 225.048 487.439 225.44 487.981 225.72C488.531 226 489.152 226.14 489.843 226.14C490.309 226.14 490.72 226.084 491.075 225.972C491.439 225.851 491.733 225.687 491.957 225.482V223.62C491.845 223.825 491.681 224.007 491.467 224.166C491.261 224.315 491.028 224.432 490.767 224.516C490.505 224.6 490.235 224.642 489.955 224.642C489.609 224.642 489.297 224.567 489.017 224.418C488.737 224.259 488.513 224.04 488.345 223.76C488.186 223.48 488.107 223.153 488.107 222.78ZM492.716 219.56V221.1H496.706V219.56H492.716ZM493.822 217.32V226H495.586V217.32H493.822Z" fill="#0E0C20"/>
<path d="M386.751 228.551C388.794 230.028 391.297 230.896 394 230.896V225.638C393.488 225.638 392.978 225.584 392.478 225.477V229.616C389.775 229.616 387.272 228.747 385.229 227.271V238.001C385.229 243.369 380.924 247.72 375.614 247.72C373.633 247.72 371.791 247.114 370.262 246.076C372.008 247.881 374.443 249 377.136 249C382.446 249 386.751 244.649 386.751 239.281V228.551H386.751ZM388.629 223.247C387.585 222.094 386.899 220.604 386.751 218.956V218.28H385.308C385.672 220.374 386.91 222.163 388.629 223.247ZM373.62 241.957C373.037 241.184 372.722 240.238 372.723 239.266C372.723 236.811 374.692 234.82 377.121 234.82C377.574 234.82 378.024 234.89 378.455 235.029V229.653C377.951 229.583 377.442 229.554 376.934 229.564V233.748C376.502 233.61 376.052 233.54 375.599 233.54C373.17 233.54 371.201 235.531 371.201 237.986C371.201 239.722 372.185 241.225 373.62 241.957Z" fill="#FF004F"/>
<path d="M385.228 227.271C387.272 228.747 389.774 229.616 392.477 229.616V225.477C390.969 225.152 389.633 224.355 388.629 223.247C386.91 222.162 385.671 220.374 385.308 218.28H381.519V239.281C381.51 241.729 379.545 243.712 377.121 243.712C375.692 243.712 374.423 243.023 373.62 241.957C372.184 241.225 371.2 239.722 371.2 237.986C371.2 235.531 373.169 233.54 375.598 233.54C376.064 233.54 376.512 233.614 376.933 233.749V229.565C371.717 229.674 367.521 233.982 367.521 239.281C367.521 241.926 368.566 244.324 370.262 246.076C371.791 247.114 373.633 247.72 375.614 247.72C380.924 247.72 385.229 243.369 385.229 238.001V227.271H385.228Z" fill="black"/>
<path d="M392.478 225.477V224.358C391.118 224.36 389.784 223.975 388.63 223.247C389.652 224.377 390.997 225.157 392.478 225.477ZM385.309 218.28C385.275 218.08 385.248 217.878 385.23 217.676V217H379.997V238.001C379.989 240.449 378.024 242.431 375.599 242.431C374.888 242.431 374.216 242.261 373.621 241.957C374.424 243.023 375.693 243.711 377.122 243.711C379.545 243.711 381.511 241.729 381.52 239.281V218.28H385.309ZM376.934 229.565V228.373C376.497 228.313 376.056 228.282 375.615 228.283C370.305 228.283 366 232.634 366 238.001C366 241.366 367.692 244.332 370.263 246.076C368.567 244.324 367.522 241.926 367.522 239.281C367.522 233.982 371.718 229.673 376.934 229.565Z" fill="#00F2EA"/>
<path d="M410.28 248.04H417.742V246.99H415.74H415.502H412.24L415.012 242.846V247.382V247.536V250H416.202V240.2H415.712L410.28 248.04ZM420.64 243.378L423.832 249.09L427.024 243.378L427.752 250H428.942L427.752 239.71L423.832 246.808L419.912 239.71L418.722 250H419.912L420.64 243.378ZM433.693 243.56L436.773 250.49L439.853 243.56H438.593L436.773 248.11L434.953 243.56H433.693ZM440.909 240.9C440.909 241.105 440.984 241.287 441.133 241.446C441.292 241.595 441.474 241.67 441.679 241.67C441.894 241.67 442.076 241.595 442.225 241.446C442.375 241.287 442.449 241.105 442.449 240.9C442.449 240.685 442.375 240.503 442.225 240.354C442.076 240.205 441.894 240.13 441.679 240.13C441.474 240.13 441.292 240.205 441.133 240.354C440.984 240.503 440.909 240.685 440.909 240.9ZM441.119 243.56V250H442.239V243.56H441.119ZM447.038 250.14C447.729 250.14 448.326 250.005 448.83 249.734C449.343 249.454 449.768 249.043 450.104 248.502L449.194 247.928C448.961 248.32 448.676 248.614 448.34 248.81C448.004 248.997 447.617 249.09 447.178 249.09C446.739 249.09 446.366 248.997 446.058 248.81C445.75 248.623 445.517 248.353 445.358 247.998C445.199 247.643 445.12 247.214 445.12 246.71C445.12 246.346 445.167 246.019 445.26 245.73C445.353 245.441 445.489 245.198 445.666 245.002C445.843 244.806 446.058 244.657 446.31 244.554C446.571 244.451 446.861 244.4 447.178 244.4C447.542 244.4 447.859 244.479 448.13 244.638C448.401 244.797 448.611 245.016 448.76 245.296C448.919 245.576 448.998 245.907 448.998 246.29C448.998 246.355 448.984 246.439 448.956 246.542C448.928 246.635 448.9 246.705 448.872 246.752L449.32 246.108H444.7V247.06H450.202C450.202 247.041 450.202 246.999 450.202 246.934C450.211 246.859 450.216 246.789 450.216 246.724C450.216 246.043 450.095 245.455 449.852 244.96C449.609 244.465 449.259 244.087 448.802 243.826C448.354 243.555 447.813 243.42 447.178 243.42C446.702 243.42 446.268 243.504 445.876 243.672C445.484 243.831 445.148 244.059 444.868 244.358C444.588 244.647 444.369 244.997 444.21 245.408C444.061 245.819 443.986 246.276 443.986 246.78C443.986 247.443 444.112 248.026 444.364 248.53C444.625 249.034 444.985 249.431 445.442 249.72C445.909 250 446.441 250.14 447.038 250.14ZM450.566 243.56L453.366 250.49L455.2 245.8L457.146 250.49L459.946 243.56H458.686L457.062 247.774L455.186 243.07L453.436 247.746L451.826 243.56H450.566ZM461.328 248.026L460.446 248.572C460.567 248.824 460.744 249.071 460.978 249.314C461.22 249.557 461.514 249.757 461.86 249.916C462.205 250.065 462.592 250.14 463.022 250.14C463.46 250.14 463.843 250.056 464.17 249.888C464.506 249.711 464.767 249.477 464.954 249.188C465.14 248.889 465.234 248.553 465.234 248.18C465.234 247.797 465.14 247.485 464.954 247.242C464.776 246.999 464.534 246.794 464.226 246.626C463.918 246.449 463.577 246.285 463.204 246.136C462.98 246.043 462.765 245.945 462.56 245.842C462.354 245.739 462.186 245.623 462.056 245.492C461.925 245.361 461.86 245.212 461.86 245.044C461.86 244.829 461.944 244.671 462.112 244.568C462.28 244.465 462.48 244.414 462.714 244.414C463.05 244.414 463.348 244.493 463.61 244.652C463.88 244.811 464.104 245.011 464.282 245.254L465.178 244.68C465.047 244.437 464.865 244.223 464.632 244.036C464.398 243.849 464.128 243.7 463.82 243.588C463.521 243.476 463.199 243.42 462.854 243.42C462.508 243.42 462.172 243.481 461.846 243.602C461.528 243.723 461.267 243.91 461.062 244.162C460.866 244.414 460.768 244.731 460.768 245.114C460.768 245.487 460.861 245.8 461.048 246.052C461.244 246.295 461.482 246.495 461.762 246.654C462.051 246.803 462.336 246.934 462.616 247.046C462.868 247.139 463.106 247.242 463.33 247.354C463.554 247.457 463.736 247.587 463.876 247.746C464.025 247.895 464.1 248.082 464.1 248.306C464.1 248.558 464.006 248.759 463.82 248.908C463.642 249.048 463.395 249.118 463.078 249.118C462.816 249.118 462.574 249.071 462.35 248.978C462.135 248.875 461.944 248.74 461.776 248.572C461.608 248.404 461.458 248.222 461.328 248.026Z" fill="#0E0C20"/>
<path d="M533.703 223.06H538.883L538.463 221.94H534.123L533.703 223.06ZM536.265 218.412L537.945 222.36L538.057 222.64L539.485 226H540.815L536.265 215.71L531.715 226H533.045L534.501 222.556L534.613 222.304L536.265 218.412ZM542.987 229.08V219.56H541.867V229.08H542.987ZM548.377 222.78C548.377 222.08 548.232 221.483 547.943 220.988C547.653 220.484 547.266 220.097 546.781 219.826C546.305 219.555 545.773 219.42 545.185 219.42C544.783 219.42 544.415 219.499 544.079 219.658C543.752 219.807 543.467 220.027 543.225 220.316C542.991 220.605 542.809 220.96 542.679 221.38C542.548 221.791 542.483 222.257 542.483 222.78C542.483 223.303 542.548 223.774 542.679 224.194C542.809 224.605 542.991 224.955 543.225 225.244C543.467 225.533 543.752 225.757 544.079 225.916C544.415 226.065 544.783 226.14 545.185 226.14C545.773 226.14 546.305 226.005 546.781 225.734C547.266 225.463 547.653 225.076 547.943 224.572C548.232 224.068 548.377 223.471 548.377 222.78ZM547.243 222.78C547.243 223.275 547.14 223.695 546.935 224.04C546.739 224.385 546.473 224.647 546.137 224.824C545.81 225.001 545.446 225.09 545.045 225.09C544.802 225.09 544.559 225.039 544.317 224.936C544.074 224.833 543.85 224.684 543.645 224.488C543.449 224.292 543.29 224.054 543.169 223.774C543.047 223.485 542.987 223.153 542.987 222.78C542.987 222.407 543.047 222.08 543.169 221.8C543.29 221.511 543.449 221.268 543.645 221.072C543.85 220.876 544.074 220.727 544.317 220.624C544.559 220.521 544.802 220.47 545.045 220.47C545.446 220.47 545.81 220.559 546.137 220.736C546.473 220.913 546.739 221.175 546.935 221.52C547.14 221.865 547.243 222.285 547.243 222.78ZM551.041 219.56H549.921V226H551.041V219.56ZM552.987 220.792L553.603 219.868C553.435 219.691 553.248 219.574 553.043 219.518C552.847 219.453 552.632 219.42 552.399 219.42C552.1 219.42 551.806 219.537 551.517 219.77C551.228 220.003 550.99 220.321 550.803 220.722C550.626 221.114 550.537 221.567 550.537 222.08H551.041C551.041 221.772 551.069 221.497 551.125 221.254C551.19 221.011 551.302 220.82 551.461 220.68C551.62 220.54 551.839 220.47 552.119 220.47C552.306 220.47 552.46 220.498 552.581 220.554C552.702 220.601 552.838 220.68 552.987 220.792ZM558.147 226H565.063V224.88H560.597L563.719 221.702C564.102 221.31 564.415 220.867 564.657 220.372C564.9 219.877 565.021 219.378 565.021 218.874C565.021 218.575 564.961 218.263 564.839 217.936C564.718 217.609 564.531 217.306 564.279 217.026C564.027 216.737 563.705 216.503 563.313 216.326C562.921 216.139 562.455 216.046 561.913 216.046C561.241 216.046 560.663 216.195 560.177 216.494C559.701 216.783 559.337 217.194 559.085 217.726C558.833 218.249 558.707 218.86 558.707 219.56H559.897C559.897 219.065 559.977 218.641 560.135 218.286C560.294 217.922 560.523 217.647 560.821 217.46C561.129 217.264 561.493 217.166 561.913 217.166C562.212 217.166 562.478 217.217 562.711 217.32C562.945 217.423 563.141 217.558 563.299 217.726C563.467 217.894 563.593 218.081 563.677 218.286C563.761 218.491 563.803 218.701 563.803 218.916C563.803 219.177 563.761 219.429 563.677 219.672C563.603 219.905 563.486 220.139 563.327 220.372C563.178 220.596 562.996 220.825 562.781 221.058L558.147 226ZM566.118 224.04H573.58V222.99H571.578H571.34H568.078L570.85 218.846V223.382V223.536V226H572.04V216.2H571.55L566.118 224.04Z" fill="#A5A3A4"/>
<g filter="url(#filter2_d)">
<path fill-rule="evenodd" clip-rule="evenodd" d="M822 105C815.373 105 810 110.373 810 117V169C810 175.627 815.373 181 822 181H925.531L933.648 189.956C934.64 191.051 936.36 191.051 937.353 189.956L945.469 181H1050C1056.63 181 1062 175.627 1062 169V117C1062 110.373 1056.63 105 1050 105H822Z" fill="white"/>
</g>
<path d="M888.51 126.2L886.41 130.148L884.324 126.2H882.028L885.388 131.954V136H887.446V131.94L890.82 126.2H888.51ZM889.886 132.78C889.886 133.443 890.04 134.031 890.348 134.544C890.665 135.048 891.09 135.44 891.622 135.72C892.163 136 892.774 136.14 893.456 136.14C894.137 136.14 894.748 136 895.29 135.72C895.831 135.44 896.256 135.048 896.564 134.544C896.881 134.031 897.04 133.443 897.04 132.78C897.04 132.108 896.881 131.52 896.564 131.016C896.256 130.512 895.831 130.12 895.29 129.84C894.748 129.56 894.137 129.42 893.456 129.42C892.774 129.42 892.163 129.56 891.622 129.84C891.09 130.12 890.665 130.512 890.348 131.016C890.04 131.52 889.886 132.108 889.886 132.78ZM891.748 132.78C891.748 132.416 891.822 132.099 891.972 131.828C892.13 131.548 892.336 131.333 892.588 131.184C892.84 131.035 893.129 130.96 893.456 130.96C893.773 130.96 894.058 131.035 894.31 131.184C894.571 131.333 894.776 131.548 894.926 131.828C895.084 132.108 895.164 132.425 895.164 132.78C895.164 133.144 895.084 133.461 894.926 133.732C894.776 134.003 894.571 134.217 894.31 134.376C894.058 134.525 893.773 134.6 893.456 134.6C893.129 134.6 892.84 134.525 892.588 134.376C892.336 134.217 892.13 134.003 891.972 133.732C891.822 133.452 891.748 133.135 891.748 132.78ZM900.276 133.48V129.56H898.386V133.662C898.386 134.175 898.47 134.619 898.638 134.992C898.806 135.365 899.058 135.65 899.394 135.846C899.73 136.042 900.15 136.14 900.654 136.14C901.121 136.14 901.513 136.047 901.83 135.86C902.157 135.664 902.423 135.384 902.628 135.02V136H904.434V129.56H902.628V133.48C902.628 133.751 902.572 133.984 902.46 134.18C902.348 134.376 902.194 134.53 901.998 134.642C901.802 134.745 901.578 134.796 901.326 134.796C901.074 134.796 900.869 134.745 900.71 134.642C900.561 134.539 900.449 134.39 900.374 134.194C900.309 133.989 900.276 133.751 900.276 133.48ZM905.394 129.56V131.1H909.384V129.56H905.394ZM906.5 127.32V136H908.264V127.32H906.5ZM912.225 133.48V129.56H910.335V133.662C910.335 134.175 910.419 134.619 910.587 134.992C910.755 135.365 911.007 135.65 911.343 135.846C911.679 136.042 912.099 136.14 912.603 136.14C913.07 136.14 913.462 136.047 913.779 135.86C914.106 135.664 914.372 135.384 914.577 135.02V136H916.383V129.56H914.577V133.48C914.577 133.751 914.521 133.984 914.409 134.18C914.297 134.376 914.143 134.53 913.947 134.642C913.751 134.745 913.527 134.796 913.275 134.796C913.023 134.796 912.818 134.745 912.659 134.642C912.51 134.539 912.398 134.39 912.323 134.194C912.258 133.989 912.225 133.751 912.225 133.48ZM919.961 125.08H918.141V136H919.961V125.08ZM925.253 132.78C925.253 132.061 925.104 131.455 924.805 130.96C924.516 130.456 924.133 130.073 923.657 129.812C923.191 129.551 922.687 129.42 922.145 129.42C921.744 129.42 921.375 129.499 921.039 129.658C920.703 129.807 920.409 130.027 920.157 130.316C919.915 130.605 919.728 130.96 919.597 131.38C919.467 131.791 919.401 132.257 919.401 132.78C919.401 133.303 919.467 133.774 919.597 134.194C919.728 134.605 919.915 134.955 920.157 135.244C920.409 135.533 920.703 135.757 921.039 135.916C921.375 136.065 921.744 136.14 922.145 136.14C922.687 136.14 923.191 136.009 923.657 135.748C924.133 135.487 924.516 135.104 924.805 134.6C925.104 134.096 925.253 133.489 925.253 132.78ZM923.349 132.78C923.349 133.163 923.27 133.494 923.111 133.774C922.953 134.045 922.743 134.255 922.481 134.404C922.22 134.553 921.931 134.628 921.613 134.628C921.417 134.628 921.221 134.586 921.025 134.502C920.829 134.418 920.652 134.301 920.493 134.152C920.335 133.993 920.204 133.797 920.101 133.564C920.008 133.331 919.961 133.065 919.961 132.766C919.961 132.477 920.008 132.22 920.101 131.996C920.204 131.763 920.335 131.571 920.493 131.422C920.652 131.263 920.829 131.142 921.025 131.058C921.221 130.974 921.417 130.932 921.613 130.932C921.931 130.932 922.22 131.007 922.481 131.156C922.743 131.305 922.953 131.52 923.111 131.8C923.27 132.071 923.349 132.397 923.349 132.78ZM929.643 136.14C930.427 136.14 931.095 135.991 931.645 135.692C932.196 135.384 932.639 134.927 932.975 134.32L931.379 133.816C931.202 134.133 930.964 134.371 930.665 134.53C930.376 134.679 930.035 134.754 929.643 134.754C929.289 134.754 928.985 134.675 928.733 134.516C928.491 134.357 928.304 134.129 928.173 133.83C928.043 133.522 927.982 133.158 927.991 132.738C927.991 132.393 928.024 132.099 928.089 131.856C928.164 131.604 928.271 131.389 928.411 131.212C928.551 131.035 928.719 130.909 928.915 130.834C929.121 130.75 929.354 130.708 929.615 130.708C929.905 130.708 930.157 130.773 930.371 130.904C930.586 131.025 930.749 131.198 930.861 131.422C930.983 131.646 931.043 131.917 931.043 132.234C931.043 132.299 931.025 132.379 930.987 132.472C930.959 132.565 930.922 132.645 930.875 132.71L931.379 132.066H927.207V133.172H932.975C932.975 133.116 932.98 133.046 932.989 132.962C932.999 132.878 933.003 132.789 933.003 132.696C933.003 132.005 932.868 131.417 932.597 130.932C932.336 130.437 931.953 130.064 931.449 129.812C930.955 129.551 930.353 129.42 929.643 129.42C929.102 129.42 928.617 129.499 928.187 129.658C927.758 129.807 927.389 130.031 927.081 130.33C926.783 130.619 926.554 130.974 926.395 131.394C926.237 131.805 926.157 132.267 926.157 132.78C926.157 133.461 926.297 134.054 926.577 134.558C926.867 135.062 927.273 135.454 927.795 135.734C928.318 136.005 928.934 136.14 929.643 136.14ZM940.346 139.08V129.56H938.526V139.08H940.346ZM945.638 132.78C945.638 132.043 945.489 131.422 945.19 130.918C944.901 130.405 944.518 130.017 944.042 129.756C943.576 129.495 943.072 129.364 942.53 129.364C942.11 129.364 941.732 129.443 941.396 129.602C941.07 129.761 940.79 129.989 940.556 130.288C940.323 130.587 940.146 130.946 940.024 131.366C939.903 131.786 939.842 132.257 939.842 132.78C939.842 133.303 939.903 133.774 940.024 134.194C940.146 134.614 940.323 134.973 940.556 135.272C940.79 135.571 941.07 135.799 941.396 135.958C941.732 136.107 942.11 136.182 942.53 136.182C943.072 136.182 943.576 136.056 944.042 135.804C944.518 135.543 944.901 135.16 945.19 134.656C945.489 134.143 945.638 133.517 945.638 132.78ZM943.734 132.78C943.734 133.163 943.655 133.489 943.496 133.76C943.338 134.021 943.128 134.222 942.866 134.362C942.605 134.502 942.316 134.572 941.998 134.572C941.802 134.572 941.606 134.535 941.41 134.46C941.214 134.385 941.037 134.273 940.878 134.124C940.72 133.965 940.589 133.774 940.486 133.55C940.393 133.326 940.346 133.069 940.346 132.78C940.346 132.481 940.393 132.225 940.486 132.01C940.589 131.786 940.72 131.595 940.878 131.436C941.037 131.277 941.214 131.165 941.41 131.1C941.606 131.025 941.802 130.988 941.998 130.988C942.316 130.988 942.605 131.058 942.866 131.198C943.128 131.338 943.338 131.543 943.496 131.814C943.655 132.075 943.734 132.397 943.734 132.78ZM948.768 129.56H946.976V136H948.768V129.56ZM950.658 131.464L951.484 129.91C951.363 129.751 951.195 129.63 950.98 129.546C950.765 129.462 950.541 129.42 950.308 129.42C949.963 129.42 949.631 129.537 949.314 129.77C949.006 130.003 948.754 130.321 948.558 130.722C948.362 131.114 948.264 131.567 948.264 132.08L948.768 132.598C948.768 132.29 948.805 132.029 948.88 131.814C948.964 131.59 949.085 131.417 949.244 131.296C949.403 131.175 949.594 131.114 949.818 131.114C950.005 131.114 950.159 131.147 950.28 131.212C950.411 131.268 950.537 131.352 950.658 131.464ZM951.792 132.78C951.792 133.443 951.946 134.031 952.254 134.544C952.571 135.048 952.996 135.44 953.528 135.72C954.069 136 954.681 136.14 955.362 136.14C956.043 136.14 956.655 136 957.196 135.72C957.737 135.44 958.162 135.048 958.47 134.544C958.787 134.031 958.946 133.443 958.946 132.78C958.946 132.108 958.787 131.52 958.47 131.016C958.162 130.512 957.737 130.12 957.196 129.84C956.655 129.56 956.043 129.42 955.362 129.42C954.681 129.42 954.069 129.56 953.528 129.84C952.996 130.12 952.571 130.512 952.254 131.016C951.946 131.52 951.792 132.108 951.792 132.78ZM953.654 132.78C953.654 132.416 953.729 132.099 953.878 131.828C954.037 131.548 954.242 131.333 954.494 131.184C954.746 131.035 955.035 130.96 955.362 130.96C955.679 130.96 955.964 131.035 956.216 131.184C956.477 131.333 956.683 131.548 956.832 131.828C956.991 132.108 957.07 132.425 957.07 132.78C957.07 133.144 956.991 133.461 956.832 133.732C956.683 134.003 956.477 134.217 956.216 134.376C955.964 134.525 955.679 134.6 955.362 134.6C955.035 134.6 954.746 134.525 954.494 134.376C954.242 134.217 954.037 134.003 953.878 133.732C953.729 133.452 953.654 133.135 953.654 132.78ZM960.096 127.068C960.096 127.357 960.199 127.6 960.404 127.796C960.619 127.992 960.876 128.09 961.174 128.09C961.492 128.09 961.753 127.992 961.958 127.796C962.173 127.6 962.28 127.357 962.28 127.068C962.28 126.769 962.173 126.527 961.958 126.34C961.753 126.144 961.492 126.046 961.174 126.046C960.876 126.046 960.619 126.144 960.404 126.34C960.199 126.527 960.096 126.769 960.096 127.068ZM959.004 137.232L958.22 138.604C958.323 138.707 958.449 138.809 958.598 138.912C958.748 139.024 958.925 139.113 959.13 139.178C959.326 139.243 959.56 139.276 959.83 139.276C960.325 139.276 960.74 139.178 961.076 138.982C961.412 138.795 961.664 138.525 961.832 138.17C962.01 137.825 962.098 137.419 962.098 136.952V129.56H960.32V136.546C960.32 136.789 960.292 136.985 960.236 137.134C960.19 137.293 960.115 137.409 960.012 137.484C959.919 137.559 959.798 137.596 959.648 137.596C959.508 137.596 959.387 137.563 959.284 137.498C959.182 137.433 959.088 137.344 959.004 137.232ZM967.036 136.14C967.82 136.14 968.487 135.991 969.038 135.692C969.589 135.384 970.032 134.927 970.368 134.32L968.772 133.816C968.595 134.133 968.357 134.371 968.058 134.53C967.769 134.679 967.428 134.754 967.036 134.754C966.681 134.754 966.378 134.675 966.126 134.516C965.883 134.357 965.697 134.129 965.566 133.83C965.435 133.522 965.375 133.158 965.384 132.738C965.384 132.393 965.417 132.099 965.482 131.856C965.557 131.604 965.664 131.389 965.804 131.212C965.944 131.035 966.112 130.909 966.308 130.834C966.513 130.75 966.747 130.708 967.008 130.708C967.297 130.708 967.549 130.773 967.764 130.904C967.979 131.025 968.142 131.198 968.254 131.422C968.375 131.646 968.436 131.917 968.436 132.234C968.436 132.299 968.417 132.379 968.38 132.472C968.352 132.565 968.315 132.645 968.268 132.71L968.772 132.066H964.6V133.172H970.368C970.368 133.116 970.373 133.046 970.382 132.962C970.391 132.878 970.396 132.789 970.396 132.696C970.396 132.005 970.261 131.417 969.99 130.932C969.729 130.437 969.346 130.064 968.842 129.812C968.347 129.551 967.745 129.42 967.036 129.42C966.495 129.42 966.009 129.499 965.58 129.658C965.151 129.807 964.782 130.031 964.474 130.33C964.175 130.619 963.947 130.974 963.788 131.394C963.629 131.805 963.55 132.267 963.55 132.78C963.55 133.461 963.69 134.054 963.97 134.558C964.259 135.062 964.665 135.454 965.188 135.734C965.711 136.005 966.327 136.14 967.036 136.14ZM973.15 132.78C973.15 132.425 973.229 132.108 973.388 131.828C973.556 131.548 973.78 131.324 974.06 131.156C974.34 130.988 974.652 130.904 974.998 130.904C975.259 130.904 975.52 130.951 975.782 131.044C976.043 131.128 976.281 131.249 976.496 131.408C976.72 131.557 976.888 131.735 977 131.94V130.064C976.776 129.877 976.482 129.723 976.118 129.602C975.763 129.481 975.352 129.42 974.886 129.42C974.195 129.42 973.574 129.56 973.024 129.84C972.482 130.12 972.053 130.512 971.736 131.016C971.428 131.52 971.274 132.108 971.274 132.78C971.274 133.443 971.428 134.031 971.736 134.544C972.053 135.048 972.482 135.44 973.024 135.72C973.574 136 974.195 136.14 974.886 136.14C975.352 136.14 975.763 136.084 976.118 135.972C976.482 135.851 976.776 135.687 977 135.482V133.62C976.888 133.825 976.724 134.007 976.51 134.166C976.304 134.315 976.071 134.432 975.81 134.516C975.548 134.6 975.278 134.642 974.998 134.642C974.652 134.642 974.34 134.567 974.06 134.418C973.78 134.259 973.556 134.04 973.388 133.76C973.229 133.48 973.15 133.153 973.15 132.78ZM977.759 129.56V131.1H981.749V129.56H977.759ZM978.865 127.32V136H980.629V127.32H978.865Z" fill="#0E0C20"/>
<path fill-rule="evenodd" clip-rule="evenodd" d="M862.085 130.826C863.627 131.271 864.843 132.573 865.258 134.225C866.03 137.242 866 143.532 866 143.532C866 143.532 866 149.789 865.259 152.807C864.843 154.459 863.628 155.761 862.085 156.206C859.268 157 848 157 848 157C848 157 836.761 157 833.914 156.174C832.372 155.729 831.157 154.427 830.741 152.775C830 149.789 830 143.5 830 143.5C830 143.5 830 137.242 830.741 134.225C831.156 132.573 832.402 131.239 833.914 130.794C836.731 130 848 130 848 130C848 130 859.268 130 862.085 130.826ZM853.782 143.5L844.412 149.281V137.719L853.782 143.5Z" fill="#FF3A3A"/>
<path d="M883.834 156.78C883.834 156.332 883.927 155.935 884.114 155.59C884.31 155.235 884.571 154.96 884.898 154.764C885.234 154.568 885.612 154.47 886.032 154.47C886.452 154.47 886.825 154.568 887.152 154.764C887.488 154.96 887.749 155.235 887.936 155.59C888.132 155.935 888.23 156.332 888.23 156.78C888.23 157.228 888.132 157.625 887.936 157.97C887.749 158.306 887.488 158.572 887.152 158.768C886.825 158.964 886.452 159.062 886.032 159.062C885.612 159.062 885.234 158.964 884.898 158.768C884.571 158.572 884.31 158.306 884.114 157.97C883.927 157.625 883.834 157.228 883.834 156.78ZM886.62 150.2L883.316 154.75C883.129 155.011 882.98 155.315 882.868 155.66C882.756 156.005 882.7 156.379 882.7 156.78C882.7 157.452 882.845 158.04 883.134 158.544C883.433 159.048 883.834 159.44 884.338 159.72C884.842 160 885.407 160.14 886.032 160.14C886.667 160.14 887.231 160 887.726 159.72C888.23 159.44 888.627 159.048 888.916 158.544C889.215 158.04 889.364 157.452 889.364 156.78C889.364 156.332 889.289 155.917 889.14 155.534C888.991 155.142 888.781 154.801 888.51 154.512C888.249 154.223 887.941 153.999 887.586 153.84C887.241 153.681 886.867 153.602 886.466 153.602C886.149 153.602 885.864 153.639 885.612 153.714C885.369 153.789 885.155 153.943 884.968 154.176L885.052 154.246L888.118 150.2H886.62ZM892.544 153.378L895.736 159.09L898.928 153.378L899.656 160H900.846L899.656 149.71L895.736 156.808L891.816 149.71L890.626 160H891.816L892.544 153.378ZM905.598 153.56L908.678 160.49L911.758 153.56H910.498L908.678 158.11L906.858 153.56H905.598ZM912.814 150.9C912.814 151.105 912.888 151.287 913.038 151.446C913.196 151.595 913.378 151.67 913.584 151.67C913.798 151.67 913.98 151.595 914.13 151.446C914.279 151.287 914.354 151.105 914.354 150.9C914.354 150.685 914.279 150.503 914.13 150.354C913.98 150.205 913.798 150.13 913.584 150.13C913.378 150.13 913.196 150.205 913.038 150.354C912.888 150.503 912.814 150.685 912.814 150.9ZM913.024 153.56V160H914.144V153.56H913.024ZM918.942 160.14C919.633 160.14 920.23 160.005 920.734 159.734C921.248 159.454 921.672 159.043 922.008 158.502L921.098 157.928C920.865 158.32 920.58 158.614 920.244 158.81C919.908 158.997 919.521 159.09 919.082 159.09C918.644 159.09 918.27 158.997 917.962 158.81C917.654 158.623 917.421 158.353 917.262 157.998C917.104 157.643 917.024 157.214 917.024 156.71C917.024 156.346 917.071 156.019 917.164 155.73C917.258 155.441 917.393 155.198 917.57 155.002C917.748 154.806 917.962 154.657 918.214 154.554C918.476 154.451 918.765 154.4 919.082 154.4C919.446 154.4 919.764 154.479 920.034 154.638C920.305 154.797 920.515 155.016 920.664 155.296C920.823 155.576 920.902 155.907 920.902 156.29C920.902 156.355 920.888 156.439 920.86 156.542C920.832 156.635 920.804 156.705 920.776 156.752L921.224 156.108H916.604V157.06H922.106C922.106 157.041 922.106 156.999 922.106 156.934C922.116 156.859 922.12 156.789 922.12 156.724C922.12 156.043 921.999 155.455 921.756 154.96C921.514 154.465 921.164 154.087 920.706 153.826C920.258 153.555 919.717 153.42 919.082 153.42C918.606 153.42 918.172 153.504 917.78 153.672C917.388 153.831 917.052 154.059 916.772 154.358C916.492 154.647 916.273 154.997 916.114 155.408C915.965 155.819 915.89 156.276 915.89 156.78C915.89 157.443 916.016 158.026 916.268 158.53C916.53 159.034 916.889 159.431 917.346 159.72C917.813 160 918.345 160.14 918.942 160.14ZM922.47 153.56L925.27 160.49L927.104 155.8L929.05 160.49L931.85 153.56H930.59L928.966 157.774L927.09 153.07L925.34 157.746L923.73 153.56H922.47ZM933.232 158.026L932.35 158.572C932.471 158.824 932.649 159.071 932.882 159.314C933.125 159.557 933.419 159.757 933.764 159.916C934.109 160.065 934.497 160.14 934.926 160.14C935.365 160.14 935.747 160.056 936.074 159.888C936.41 159.711 936.671 159.477 936.858 159.188C937.045 158.889 937.138 158.553 937.138 158.18C937.138 157.797 937.045 157.485 936.858 157.242C936.681 156.999 936.438 156.794 936.13 156.626C935.822 156.449 935.481 156.285 935.108 156.136C934.884 156.043 934.669 155.945 934.464 155.842C934.259 155.739 934.091 155.623 933.96 155.492C933.829 155.361 933.764 155.212 933.764 155.044C933.764 154.829 933.848 154.671 934.016 154.568C934.184 154.465 934.385 154.414 934.618 154.414C934.954 154.414 935.253 154.493 935.514 154.652C935.785 154.811 936.009 155.011 936.186 155.254L937.082 154.68C936.951 154.437 936.769 154.223 936.536 154.036C936.303 153.849 936.032 153.7 935.724 153.588C935.425 153.476 935.103 153.42 934.758 153.42C934.413 153.42 934.077 153.481 933.75 153.602C933.433 153.723 933.171 153.91 932.966 154.162C932.77 154.414 932.672 154.731 932.672 155.114C932.672 155.487 932.765 155.8 932.952 156.052C933.148 156.295 933.386 156.495 933.666 156.654C933.955 156.803 934.24 156.934 934.52 157.046C934.772 157.139 935.01 157.242 935.234 157.354C935.458 157.457 935.64 157.587 935.78 157.746C935.929 157.895 936.004 158.082 936.004 158.306C936.004 158.558 935.911 158.759 935.724 158.908C935.547 159.048 935.299 159.118 934.982 159.118C934.721 159.118 934.478 159.071 934.254 158.978C934.039 158.875 933.848 158.74 933.68 158.572C933.512 158.404 933.363 158.222 933.232 158.026Z" fill="#0E0C20"/>
<path d="M1012.65 137.456L1012.03 138.38C1012.1 138.473 1012.23 138.571 1012.39 138.674C1012.55 138.786 1012.75 138.879 1012.98 138.954C1013.21 139.038 1013.44 139.08 1013.68 139.08C1014.01 139.08 1014.3 139.033 1014.56 138.94C1014.83 138.856 1015.06 138.721 1015.25 138.534C1015.44 138.347 1015.58 138.114 1015.67 137.834C1015.77 137.554 1015.82 137.223 1015.82 136.84V126.2H1014.7V136.7C1014.7 137.157 1014.6 137.479 1014.38 137.666C1014.18 137.862 1013.97 137.96 1013.75 137.96C1013.5 137.96 1013.28 137.913 1013.09 137.82C1012.9 137.736 1012.75 137.615 1012.65 137.456ZM1019.12 133.48V129.56H1018V133.62C1018 134.133 1018.09 134.581 1018.26 134.964C1018.45 135.337 1018.71 135.627 1019.03 135.832C1019.37 136.037 1019.76 136.14 1020.21 136.14C1020.64 136.14 1021.01 136.047 1021.33 135.86C1021.65 135.664 1021.91 135.375 1022.13 134.992V136H1023.25V129.56H1022.13V133.48C1022.13 133.797 1022.06 134.077 1021.92 134.32C1021.79 134.563 1021.6 134.754 1021.34 134.894C1021.1 135.025 1020.82 135.09 1020.49 135.09C1020.19 135.09 1019.94 135.029 1019.73 134.908C1019.53 134.777 1019.37 134.595 1019.27 134.362C1019.17 134.119 1019.12 133.825 1019.12 133.48ZM1025.35 125.08V136H1026.47V125.08H1025.35ZM1032.85 128.132L1035.02 127.488V136H1036.21V126.06L1032.85 126.9V128.132ZM1038.31 136H1045.23V134.88H1040.76L1043.88 131.702C1044.26 131.31 1044.58 130.867 1044.82 130.372C1045.06 129.877 1045.18 129.378 1045.18 128.874C1045.18 128.575 1045.12 128.263 1045 127.936C1044.88 127.609 1044.69 127.306 1044.44 127.026C1044.19 126.737 1043.87 126.503 1043.48 126.326C1043.08 126.139 1042.62 126.046 1042.08 126.046C1041.4 126.046 1040.82 126.195 1040.34 126.494C1039.86 126.783 1039.5 127.194 1039.25 127.726C1039 128.249 1038.87 128.86 1038.87 129.56H1040.06C1040.06 129.065 1040.14 128.641 1040.3 128.286C1040.46 127.922 1040.68 127.647 1040.98 127.46C1041.29 127.264 1041.66 127.166 1042.08 127.166C1042.37 127.166 1042.64 127.217 1042.87 127.32C1043.11 127.423 1043.3 127.558 1043.46 127.726C1043.63 127.894 1043.76 128.081 1043.84 128.286C1043.92 128.491 1043.97 128.701 1043.97 128.916C1043.97 129.177 1043.92 129.429 1043.84 129.672C1043.76 129.905 1043.65 130.139 1043.49 130.372C1043.34 130.596 1043.16 130.825 1042.94 131.058L1038.31 136Z" fill="#A5A3A4"/>
<defs>
<filter id="filter0_d" x="-41.5" y="164.5" width="1523" height="403" filterUnits="userSpaceOnUse" color-interpolation-filters="sRGB">
<feFlood flood-opacity="0" result="BackgroundImageFix"/>
<feColorMatrix in="SourceAlpha" type="matrix" values="0 0 0 0 0 0 0 0 0 0 0 0 0 0 0 0 0 0 127 0" result="hardAlpha"/>
<feOffset dy="4"/>
<feGaussianBlur stdDeviation="20"/>
<feComposite in2="hardAlpha" operator="out"/>
<feColorMatrix type="matrix" values="0 0 0 0 0.109804 0 0 0 0 0.0509804 0 0 0 0 0.239216 0 0 0 0.3 0"/>
<feBlend mode="normal" in2="BackgroundImageFix" result="effect1_dropShadow"/>
<feBlend mode="normal" in="SourceGraphic" in2="effect1_dropShadow" result="shape"/>
</filter>
<filter id="filter1_d" x="306" y="159" width="324" height="165.777" filterUnits="userSpaceOnUse" color-interpolation-filters="sRGB">
<feFlood flood-opacity="0" result="BackgroundImageFix"/>
<feColorMatrix in="SourceAlpha" type="matrix" values="0 0 0 0 0 0 0 0 0 0 0 0 0 0 0 0 0 0 127 0" result="hardAlpha"/>
<feOffset dy="4"/>
<feGaussianBlur stdDeviation="20"/>
<feColorMatrix type="matrix" values="0 0 0 0 0 0 0 0 0 0 0 0 0 0 0 0 0 0 0.15 0"/>
<feBlend mode="normal" in2="BackgroundImageFix" result="effect1_dropShadow"/>
<feBlend mode="normal" in="SourceGraphic" in2="effect1_dropShadow" result="shape"/>
</filter>
<filter id="filter2_d" x="770" y="69" width="332" height="165.777" filterUnits="userSpaceOnUse" color-interpolation-filters="sRGB">
<feFlood flood-opacity="0" result="BackgroundImageFix"/>
<feColorMatrix in="SourceAlpha" type="matrix" values="0 0 0 0 0 0 0 0 0 0 0 0 0 0 0 0 0 0 127 0" result="hardAlpha"/>
<feOffset dy="4"/>
<feGaussianBlur stdDeviation="20"/>
<feColorMatrix type="matrix" values="0 0 0 0 0 0 0 0 0 0 0 0 0 0 0 0 0 0 0.15 0"/>
<feBlend mode="normal" in2="BackgroundImageFix" result="effect1_dropShadow"/>
<feBlend mode="normal" in="SourceGraphic" in2="effect1_dropShadow" result="shape"/>
</filter>
</defs>
</svg>
