<svg width="30" height="30" viewBox="0 0 30 30" fill="none" xmlns="http://www.w3.org/2000/svg">
<g clip-path="url(#clip0)">
<path d="M12.8766 1.78584L21.5699 4.11521L16.498 11.4525L21.714 12.8502L7.82403 25.2786L11.7784 15.1572L7.14194 13.9149L12.8766 1.78584Z" fill="#FFA200"/>
<path d="M12.9058 1.8365L21.5093 4.1418L16.4527 11.4615L21.6589 12.8565L7.87816 25.1968L11.8362 15.1404L7.18993 13.8954L12.9058 1.8365Z" fill="#FFA301"/>
<path d="M12.9352 1.88728L21.4489 4.16851L16.4075 11.4711L21.6038 12.8635L7.93197 25.115L11.8942 15.1243L7.23802 13.8767L12.9352 1.88728Z" fill="#FFA402"/>
<path d="M12.9644 1.93794L21.3877 4.19494L16.3621 11.4801L21.548 12.8696L7.98623 25.0326L11.9526 15.1076L7.28598 13.8572L12.9644 1.93794Z" fill="#FFA503"/>
<path d="M12.9936 1.9886L21.327 4.22153L16.3166 11.4896L21.4926 12.8765L8.04037 24.9508L12.0104 15.0908L7.33398 13.8377L12.9936 1.9886Z" fill="#FFA604"/>
<path d="M13.0231 2.03938L21.2667 4.24824L16.2715 11.4987L21.4377 12.8829L8.09478 24.8691L12.0685 15.0741L7.38225 13.8184L13.0231 2.03938Z" fill="#FFA704"/>
<path d="M13.0523 2.09004L21.206 4.27483L16.226 11.5082L21.3823 12.8898L8.14831 24.7872L12.1262 15.0578L7.43006 13.7995L13.0523 2.09004Z" fill="#FFA805"/>
<path d="M13.0814 2.14082L21.1454 4.30154L16.1806 11.5172L21.3271 12.8962L8.20242 24.7055L12.184 15.0411L7.47802 13.7801L13.0814 2.14082Z" fill="#FFA906"/>
<path d="M13.1106 2.19148L21.0841 4.32798L16.1351 11.5268L21.2711 12.903L8.25652 24.6237L12.2424 15.0244L7.52599 13.7607L13.1106 2.19148Z" fill="#FFAA07"/>
<path d="M13.1401 2.24214L21.0238 4.35457L16.0901 11.5357L21.2162 12.9093L8.31109 24.5413L12.3005 15.0076L7.57426 13.7412L13.1401 2.24214Z" fill="#FFAB08"/>
<path d="M13.1693 2.29292L20.9631 4.38128L16.0445 11.5454L21.1608 12.9163L8.36462 24.4595L12.3582 14.9915L7.62207 13.7224L13.1693 2.29292Z" fill="#FFAC09"/>
<path d="M13.1985 2.34358L20.9025 4.40787L15.9992 11.5543L21.1057 12.9226L8.41876 24.3777L12.416 14.9747L7.67006 13.703L13.1985 2.34358Z" fill="#FFAD0A"/>
<path d="M13.2279 2.39436L20.8421 4.43458L15.9539 11.564L21.0506 12.9296L8.47314 24.296L12.4741 14.958L7.7183 13.6836L13.2279 2.39436Z" fill="#FFAE0B"/>
<path d="M13.2571 2.44502L20.7809 4.46101L15.9086 11.5729L20.9948 12.9357L8.5267 24.2141L12.5324 14.9419L7.76614 13.6648L13.2571 2.44502Z" fill="#FFAF0B"/>
<path d="M13.2863 2.49568L20.7203 4.4876L15.8631 11.5824L20.9394 12.9426L8.58081 24.1323L12.5902 14.925L7.81411 13.6453L13.2863 2.49568Z" fill="#FFB00C"/>
<path d="M13.3154 2.54573L20.6601 4.51373L15.8186 11.5916L20.8845 12.949L8.63537 24.05L12.6483 14.9083L7.8618 13.6258L13.3154 2.54573Z" fill="#FFB10D"/>
<path d="M13.3446 2.59639L20.5994 4.54032L15.7731 11.6012L20.8291 12.9559L8.68951 23.9682L12.7062 14.8915L7.90979 13.6063L13.3446 2.59639Z" fill="#FFB20E"/>
<path d="M13.3737 2.64704L20.5382 4.56676L15.7277 11.6101L20.7733 12.9621L8.74304 23.8862L12.7644 14.8754L7.9576 13.5874L13.3737 2.64704Z" fill="#FFB30F"/>
<path d="M13.4032 2.69783L20.4778 4.59347L15.6825 11.6198L20.7183 12.9691L8.79745 23.8046L12.8226 14.8587L8.00587 13.5681L13.4032 2.69783Z" fill="#FFB410"/>
<path d="M13.4324 2.74848L20.4172 4.62006L15.6371 11.6287L20.663 12.9754L8.85156 23.7228L12.8804 14.8419L8.05384 13.5486L13.4324 2.74848Z" fill="#FFB511"/>
<path d="M13.4616 2.79914L20.3565 4.64665L15.5916 11.6382L20.6077 12.9823L8.90509 23.6408L12.938 14.8256L8.10165 13.5297L13.4616 2.79914Z" fill="#FFB612"/>
<path d="M13.491 2.84993L20.2962 4.67336L15.5466 11.6473L20.5528 12.9887L8.95966 23.5585L12.9962 14.8089L8.14992 13.5104L13.491 2.84993Z" fill="#FFB712"/>
<path d="M13.5202 2.90058L20.235 4.69979L15.5011 11.6568L20.4968 12.9954L9.01379 23.4767L13.0546 14.7923L8.19791 13.4909L13.5202 2.90058Z" fill="#FFB813"/>
<path d="M13.5494 2.95124L20.1743 4.72638L15.4557 11.6658L20.4416 13.0017L9.0679 23.3949L13.1124 14.7754L8.24588 13.4715L13.5494 2.95124Z" fill="#FFB914"/>
<path d="M13.5786 3.00203L20.1137 4.75309L15.4102 11.6754L20.3862 13.0087L9.12143 23.3131L13.1701 14.7593L8.29369 13.4527L13.5786 3.00203Z" fill="#FFBA15"/>
<path d="M13.6081 3.05268L20.0533 4.77968L15.3651 11.6844L20.3313 13.015L9.17584 23.2313L13.2282 14.7425L8.34196 13.4332L13.6081 3.05268Z" fill="#FFBB16"/>
<path d="M13.6373 3.10334L19.9927 4.80627L15.3196 11.6939L20.2759 13.0219L9.22995 23.1495L13.286 14.7257L8.38992 13.4138L13.6373 3.10334Z" fill="#FFBC17"/>
<path d="M13.6665 3.15412L19.9315 4.83283L15.2742 11.7029L20.2202 13.0282L9.28424 23.0672L13.3444 14.7091L8.43792 13.3944L13.6665 3.15412Z" fill="#FFBD18"/>
<path d="M13.6959 3.20491L19.8711 4.85954L15.229 11.7126L20.1651 13.0352L9.33805 22.9854L13.4024 14.693L8.486 13.3756L13.6959 3.20491Z" fill="#FFBE19"/>
<path d="M13.7251 3.25557L19.8104 4.88612L15.1837 11.7215L20.1099 13.0415L9.39218 22.9036L13.4602 14.6762L8.534 13.3562L13.7251 3.25557Z" fill="#FFBF1A"/>
<path d="M13.7543 3.30622L19.7498 4.91271L15.1383 11.7305L20.0547 13.0478L9.44629 22.8218L13.518 14.6593L8.58196 13.3367L13.7543 3.30622Z" fill="#FFBF1A"/>
<path d="M13.7838 3.35701L19.6894 4.93943L15.0931 11.7401L19.9996 13.0548L9.50013 22.74L13.576 14.6432L8.63008 13.3179L13.7838 3.35701Z" fill="#FFC01B"/>
<path d="M13.8129 3.40766L19.6282 4.96586L15.0477 11.7491L19.9438 13.061L9.55439 22.6576L13.6344 14.6265L8.67804 13.2985L13.8129 3.40766Z" fill="#FFC11C"/>
<path d="M13.8421 3.45832L19.5675 4.99245L15.0022 11.7586L19.8884 13.0679L9.60849 22.5758L13.6922 14.6097L8.72601 13.279L13.8421 3.45832Z" fill="#FFC21D"/>
<path d="M13.8716 3.5091L19.5072 5.01916L14.9571 11.7677L19.8335 13.0743L9.66291 22.4941L13.7503 14.593L8.77428 13.2597L13.8716 3.5091Z" fill="#FFC31E"/>
<path d="M13.9008 3.55976L19.4465 5.04575L14.9116 11.7772L19.7781 13.0812L9.71643 22.4122L13.808 14.5768L8.82209 13.2408L13.9008 3.55976Z" fill="#FFC41F"/>
<path d="M13.93 3.61042L19.3859 5.07234L14.8663 11.7861L19.7229 13.0875L9.77057 22.3304L13.8659 14.5599L8.87009 13.2213L13.93 3.61042Z" fill="#FFC520"/>
<path d="M13.9592 3.66108L19.3247 5.09877L14.8207 11.7957L19.667 13.0942L9.82468 22.2486L13.9242 14.5433L8.91805 13.2018L13.9592 3.66108Z" fill="#FFC621"/>
<path d="M13.9886 3.71186L19.2643 5.12548L14.7757 11.8047L19.6121 13.1006L9.87925 22.1663L13.9824 14.5265L8.96632 13.1825L13.9886 3.71186Z" fill="#FFC721"/>
<path d="M14.0178 3.76252L19.2037 5.15207L14.7301 11.8142L19.5567 13.1075L9.93278 22.0843L14.04 14.5103L9.01413 13.1636L14.0178 3.76252Z" fill="#FFC822"/>
<path d="M14.047 3.8133L19.143 5.17878L14.6848 11.8233L19.5015 13.1139L9.98689 22.0027L14.0979 14.4936L9.0621 13.1443L14.047 3.8133Z" fill="#FFC923"/>
<path d="M14.0765 3.86396L19.0827 5.20537L14.6396 11.8328L19.4464 13.1208L10.0413 21.9209L14.156 14.4768L9.11037 13.1248L14.0765 3.86396Z" fill="#FFCA24"/>
<path d="M14.1057 3.91462L19.0215 5.2318L14.5942 11.8418L19.3906 13.127L10.0949 21.8389L14.2142 14.4607L9.15821 13.1059L14.1057 3.91462Z" fill="#FFCB25"/>
<path d="M14.1348 3.9654L18.9608 5.25852L14.5487 11.8514L19.3352 13.134L10.149 21.7572L14.2721 14.444L9.20617 13.0866L14.1348 3.9654Z" fill="#FFCC26"/>
<path d="M14.1639 4.01533L18.9006 5.28453L14.5042 11.8605L19.2803 13.1403L10.2035 21.6748L14.3302 14.4271L9.25386 13.0669L14.1639 4.01533Z" fill="#FFCD27"/>
<path d="M14.1931 4.06611L18.8399 5.31124L14.4587 11.8702L19.2249 13.1473L10.2576 21.5932L14.388 14.4104L9.30182 13.0476L14.1931 4.06611Z" fill="#FFCE28"/>
<path d="M14.2223 4.11677L18.7787 5.33767L14.4133 11.8791L19.1692 13.1534L10.3112 21.5112L14.4463 14.3943L9.34966 13.0287L14.2223 4.11677Z" fill="#FFCF28"/>
<path d="M14.2517 4.16743L18.7184 5.36426L14.3681 11.8886L19.1141 13.1603L10.3656 21.4294L14.5044 14.3775L9.3979 13.0092L14.2517 4.16743Z" fill="#FFD029"/>
<path d="M14.2809 4.21821L18.6577 5.39097L14.3228 11.8977L19.0589 13.1668L10.4197 21.3477L14.5622 14.3608L9.4459 12.9899L14.2809 4.21821Z" fill="#FFD12A"/>
<path d="M14.3101 4.26887L18.5971 5.41756L14.2772 11.9072L19.0035 13.1736L10.4732 21.2658L14.6199 14.3446L9.49371 12.971L14.3101 4.26887Z" fill="#FFD22B"/>
<path d="M14.3396 4.31965L18.5367 5.44427L14.2322 11.9163L18.9486 13.1801L10.5278 21.1835L14.678 14.3279L9.54198 12.9517L14.3396 4.31965Z" fill="#FFD32C"/>
<path d="M14.3688 4.37031L18.4755 5.47071L14.1866 11.9258L18.8926 13.1868L10.5819 21.1017L14.7364 14.3112L9.58994 12.9322L14.3688 4.37031Z" fill="#FFD42D"/>
<path d="M14.3979 4.42097L18.4148 5.4973L14.1413 11.9348L18.8374 13.1931L10.636 21.0199L14.7942 14.2944L9.63791 12.9127L14.3979 4.42097Z" fill="#FFD52E"/>
<path d="M14.4271 4.47163L18.3542 5.52388L14.0958 11.9443L18.7821 13.2L10.6896 20.938L14.8519 14.2781L9.68575 12.8938L14.4271 4.47163Z" fill="#FFD62F"/>
<path d="M14.4566 4.52241L18.2938 5.5506L14.0507 11.9534L18.7271 13.2064L10.744 20.8563L14.91 14.2614L9.73399 12.8745L14.4566 4.52241Z" fill="#FFD72F"/>
<path d="M14.4858 4.57307L18.2332 5.57718L14.0052 11.9629L18.6718 13.2133L10.7981 20.7745L14.9678 14.2446L9.78199 12.855L14.4858 4.57307Z" fill="#FFD830"/>
<path d="M14.515 4.62373L18.172 5.60362L13.9598 11.9718L18.616 13.2194L10.8524 20.6921L15.0262 14.2279L9.82995 12.8356L14.515 4.62373Z" fill="#FFD931"/>
<path d="M14.5444 4.67451L18.1116 5.63033L13.9146 11.9815L18.5609 13.2264L10.9062 20.6103L15.0842 14.2118L9.87807 12.8168L14.5444 4.67451Z" fill="#FFDA32"/>
<path d="M14.5736 4.72517L18.051 5.65692L13.8692 11.9904L18.5057 13.2327L10.9603 20.5285L15.142 14.195L9.92603 12.7973L14.5736 4.72517Z" fill="#FFDB33"/>
</g>
<defs>
<clipPath id="clip0">
<rect width="24" height="24" fill="white" transform="translate(6.21167) rotate(15)"/>
</clipPath>
</defs>
</svg>
