<svg width="733" height="302" viewBox="0 0 733 302" fill="none" xmlns="http://www.w3.org/2000/svg">
<path d="M12 68.9252L23.5619 57.3633L68.4628 79.7266L45.8516 35.0735L56.9252 24L86.0261 87.0277L75.0277 98.0261L12 68.9252Z" fill="white"/>
<path d="M127.572 123L140.38 130.395L107.808 186.812L95 179.417L127.572 123Z" fill="white"/>
<path d="M199 95.4832L237.556 85.1522L243.951 96.7034L216.644 104.108L219.935 116.392L242.359 110.384L248.671 121.628L223.138 128.469L226.781 142.064L263.284 132.283L269.918 143.946L215.866 158.429L199 95.4832Z" fill="white"/>
<path d="M315 122L330.322 126.105L327.346 174.154L350.176 133.247L363.127 136.717L362.536 183.583L383.922 140.468L398.669 144.419L365.737 203.038L350.724 199.015L350.969 154.997L328.978 193.188L313.974 189.168L315 122Z" fill="white"/>
<path d="M480.112 103.198L507.389 95.8889L514.694 123.149C512.089 126.944 508.789 130.215 504.969 132.788C500.567 135.688 495.706 137.825 490.592 139.109C485.884 140.451 480.965 140.894 476.094 140.415C471.802 139.967 467.656 138.613 463.931 136.444C460.265 134.256 457.11 131.312 454.677 127.809C452.012 123.946 450.055 119.642 448.895 115.095C447.647 110.628 447.256 105.964 447.741 101.35C448.194 97.0309 449.519 92.8472 451.636 89.0515C453.753 85.2557 456.619 81.9267 460.06 79.2653C463.787 76.4029 468.061 74.3316 472.619 73.1794C477.793 71.6727 483.242 71.3685 488.549 72.2901C493.333 73.1922 497.826 75.2324 501.648 78.2379L494.454 89.9743C491.94 88.1973 489.16 86.8279 486.217 85.9165C483.088 85.0521 479.777 85.0946 476.669 86.039C473.987 86.7103 471.488 87.9684 469.352 89.7223C467.419 91.3259 465.847 93.3174 464.736 95.5671C463.627 97.8808 462.987 100.39 462.854 102.951C462.706 105.7 463.002 108.455 463.731 111.109C464.442 113.913 465.666 116.56 467.342 118.919C468.843 121.029 470.768 122.803 472.995 124.13C475.164 125.418 477.577 126.246 480.082 126.565C482.729 126.883 485.413 126.678 487.983 125.962C490.318 125.363 492.559 124.441 494.64 123.223C496.523 122.101 498.159 120.61 499.449 118.841L497.34 110.969L486.164 113.963L480.112 103.198Z" fill="white"/>
<path d="M582.861 135L597.126 138.822L580.265 201.747L566 197.925L582.861 135Z" fill="white"/>
<path d="M651 111.489L663.21 104.44L708.876 126.95L687.712 90.2936L700.345 83L732.917 139.417L721.306 146.121L674.671 123.313L696.205 160.613L683.572 167.906L651 111.489Z" fill="white"/>
<path d="M131.273 294.596V236.485H0V195.832L127.008 7H179.267V195.832H211.926V236.485H179.267V294.596H131.273ZM132.945 195.832L135.805 55.3619L45.9705 195.832H132.945Z" fill="#615FD1"/>
<path d="M615.025 294.596V236.485H483.736V195.832L610.728 7H663.003V195.832H695.662V236.485H663.003V294.596H615.025ZM616.698 195.832L619.54 55.3619L529.706 195.832H616.698Z" fill="#615FD1"/>
<path d="M456.003 153.514C456.003 199.668 446.438 235.8 427.307 261.91C408.176 288.02 381.872 301.08 348.393 301.091C314.502 301.091 288.13 287.897 269.278 261.509C250.426 235.12 241 198.063 241 150.337C241 103.011 250.526 66.1213 269.579 39.6661C288.632 13.2109 315.109 -0.0111414 349.012 7.04408e-06C383.304 7.04408e-06 409.709 13.2555 428.227 39.7664C446.744 66.2774 456.003 104.193 456.003 153.514ZM347.573 260.422C367.462 260.422 382.401 251.202 392.39 232.762C402.379 214.323 407.396 186.719 407.44 149.952C407.44 114.277 402.507 87.0692 392.641 68.3287C382.775 49.5882 368.376 40.2347 349.446 40.2681C329.714 40.2681 314.808 49.5882 304.73 68.2284C294.652 86.8685 289.635 114.372 289.68 150.738C289.68 186.034 294.696 213.141 304.73 232.06C314.764 250.979 329.045 260.433 347.573 260.422Z" fill="#615FD1"/>
</svg>
