<svg width="24" height="24" viewBox="0 0 24 24" fill="none" xmlns="http://www.w3.org/2000/svg">
<path d="M9.7899 9.02363C8.81669 9.25409 7.80742 9.10677 6.76452 8.59143C4.92508 9.6869 3.37785 11.0147 2.02808 12.5002L6.76391 14.6428L9.7899 9.02363Z" fill="url(#paint0_linear)"/>
<path d="M14.9769 14.21C14.7464 15.1832 14.8938 16.1924 15.4091 17.2353C14.3136 19.0748 12.9859 20.622 11.5004 21.9718L9.35773 17.236L14.9769 14.21Z" fill="url(#paint1_linear)"/>
<path d="M22.3824 2.13415C22.3518 1.86273 22.1372 1.64816 21.8658 1.61759C18.9022 1.28198 14.9091 1.47699 12.4388 4.75546L5.50159 14.2448L7.62834 16.3716L9.75509 18.4984L19.2445 11.5618C22.523 9.09149 22.718 5.0984 22.3824 2.13415Z" fill="url(#paint2_radial)"/>
<path d="M8.92567 19.3976L4.60309 15.075L5.89968 14.6428L9.35787 18.1004L8.92567 19.3976Z" fill="url(#paint3_linear)"/>
<path d="M7.82891 18.2979L6.76584 17.2348L5.70277 16.1718C5.70277 16.1718 3.32354 16.165 2.19934 18.1848C2.78437 18.2148 2.66761 18.6512 2.06852 19.1647C1.71824 19.4655 1.50122 20.0224 1.5 20.5194C2.08197 20.3501 1.93587 21.4859 1.55807 22.442C2.51417 22.0642 3.65059 21.9181 3.48065 22.5001C3.97826 22.4982 4.53272 22.28 4.83348 21.9297C5.34699 21.3312 5.7853 21.2157 5.81525 21.8013C7.83564 20.6771 7.82891 18.2979 7.82891 18.2979Z" fill="url(#paint4_linear)"/>
<path d="M7.66568 18.1347L6.76583 17.2348L5.86598 16.335C5.29379 16.3888 3.69827 16.9273 2.6841 18.1512C3.00015 18.3443 2.90723 18.8352 2.66699 19.1268C2.4732 19.3616 1.91569 19.7167 1.69867 20.4008C2.16816 20.3085 2.34544 20.9247 1.92241 22.0788C3.07657 21.6558 3.69277 21.8331 3.60046 22.3026C4.28452 22.0856 4.63969 21.5281 4.87443 21.3343C5.16603 21.0934 5.65753 21.0011 5.85009 21.3172C7.07393 20.3024 7.61189 18.7069 7.66568 18.1347Z" fill="url(#paint5_radial)"/>
<path d="M6.08104 17.8993C5.03447 19.2882 3.65413 19.2075 2.43823 21.5507C3.90966 19.839 5.48684 19.9215 6.08104 17.8993Z" fill="url(#paint6_linear)"/>
<path d="M3.92316 21.7977C4.81689 19.7803 5.91175 20.3586 6.98522 18.8787C6.30422 20.9449 5.08159 20.7627 3.92316 21.7977Z" fill="url(#paint7_linear)"/>
<path d="M4.00067 19.1922C4.50806 17.887 5.24897 18.1792 5.90063 17.2396C5.53751 18.5851 4.72936 18.5515 4.00067 19.1922Z" fill="url(#paint8_linear)"/>
<path d="M2.34021 21.9853C2.97414 20.9339 3.5231 21.3159 4.21144 20.608C3.68632 21.72 3.03894 21.5513 2.34021 21.9853Z" fill="url(#paint9_linear)"/>
<path d="M1.97485 20.877C3.02876 20.6355 2.81357 19.9679 3.57955 19.5522C2.4963 19.666 2.50364 20.3537 1.97485 20.877Z" fill="url(#paint10_linear)"/>
<path d="M5.52081 19.7436C6.70064 19.1494 6.34853 18.5082 7.16891 17.821C5.93467 18.2893 6.05021 19.018 5.52081 19.7436Z" fill="url(#paint11_linear)"/>
<path d="M2.25049 19.8897C4.25253 19.0057 3.9695 17.9598 5.46721 16.9065C3.43277 17.5857 3.32579 18.7582 2.25049 19.8897Z" fill="url(#paint12_linear)"/>
<path d="M6.77583 17.5985L6.34302 17.1663L10.6662 12.8438L11.0984 13.2759L6.77583 17.5985Z" fill="url(#paint13_linear)"/>
<path d="M12.1118 12.2614L11.6796 11.8291L10.6655 12.8432L11.0977 13.2754L12.1118 12.2614Z" fill="#288BD7"/>
<path d="M22.0501 7.45069C22.5857 5.64671 22.5643 3.74002 22.3827 2.13411C22.3521 1.86269 22.1376 1.64812 21.8661 1.61755C20.2608 1.43599 18.3535 1.41459 16.5496 1.9501L22.0501 7.45069Z" fill="url(#paint14_linear)"/>
<path d="M21.631 8.57616L15.4238 2.3689C15.3547 2.40007 15.285 2.42819 15.2172 2.46182L21.5387 8.78339C21.5718 8.71492 21.5999 8.64523 21.631 8.57616Z" fill="url(#paint15_linear)"/>
<path d="M21.7176 8.383L15.6167 2.2821C15.547 2.31145 15.4786 2.34324 15.4101 2.37502L21.6247 8.58962C21.6559 8.52115 21.6883 8.45269 21.7176 8.383Z" fill="url(#paint16_linear)"/>
<path d="M15.4865 14.309L9.69124 8.5144L9.5647 8.68741L15.3135 14.4356L15.4865 14.309Z" fill="url(#paint17_linear)"/>
<path d="M15.6478 14.1911L9.80916 8.35242L9.68262 8.52542L15.4748 14.3176L15.6478 14.1911Z" fill="url(#paint18_linear)"/>
<path d="M15.6597 12.8798C17.7424 12.8798 19.4309 11.1914 19.4309 9.10858C19.4309 7.02582 17.7424 5.3374 15.6597 5.3374C13.5769 5.3374 11.8885 7.02582 11.8885 9.10858C11.8885 11.1914 13.5769 12.8798 15.6597 12.8798Z" fill="url(#paint19_radial)"/>
<path d="M15.409 11.9255C17.2508 11.9255 18.7438 10.4325 18.7438 8.59081C18.7438 6.7491 17.2508 5.2561 15.409 5.2561C13.5673 5.2561 12.0743 6.7491 12.0743 8.59081C12.0743 10.4325 13.5673 11.9255 15.409 11.9255Z" fill="url(#paint20_linear)"/>
<path d="M15.4091 11.3154C16.9138 11.3154 18.1337 10.0956 18.1337 8.59083C18.1337 7.08606 16.9138 5.86621 15.4091 5.86621C13.9043 5.86621 12.6844 7.08606 12.6844 8.59083C12.6844 10.0956 13.9043 11.3154 15.4091 11.3154Z" fill="url(#paint21_linear)"/>
<path d="M15.4091 11.0361C16.7596 11.0361 17.8544 9.94135 17.8544 8.59088C17.8544 7.2404 16.7596 6.14563 15.4091 6.14563C14.0586 6.14563 12.9639 7.2404 12.9639 8.59088C12.9639 9.94135 14.0586 11.0361 15.4091 11.0361Z" fill="url(#paint22_linear)"/>
<path d="M15.8796 6.47694C16.0245 6.62182 15.0226 6.80522 14.3171 7.51067C13.6117 8.21612 13.4699 9.17649 13.325 9.03161C13.1801 8.88673 12.9319 7.8689 13.8116 6.98922C14.5953 6.20552 15.7354 6.33206 15.8796 6.47694Z" fill="url(#paint23_radial)"/>
<path d="M17.8309 3.23144C18.8432 2.77602 20.0285 2.40373 21.4223 2.20444C21.4223 2.20444 19.3903 1.67504 16.9738 2.37499L17.8309 3.23144Z" fill="url(#paint24_linear)"/>
<defs>
<linearGradient id="paint0_linear" x1="6.01475" y1="11.134" x2="7.54703" y2="16.5274" gradientUnits="userSpaceOnUse">
<stop stop-color="#0B71D9"/>
<stop offset="0.628" stop-color="#264774"/>
</linearGradient>
<linearGradient id="paint1_linear" x1="14.7693" y1="21.8403" x2="12.5752" y2="16.6808" gradientUnits="userSpaceOnUse">
<stop stop-color="#0B71D9"/>
<stop offset="1" stop-color="#264774"/>
</linearGradient>
<radialGradient id="paint2_radial" cx="0" cy="0" r="1" gradientUnits="userSpaceOnUse" gradientTransform="translate(15.9493 12.2759) rotate(47.1274) scale(9.77652 35.022)">
<stop offset="0.17" stop-color="#999999"/>
<stop offset="0.481" stop-color="#EEEEEE"/>
<stop offset="0.707" stop-color="#ECECEC"/>
<stop offset="0.788" stop-color="#E5E5E5"/>
<stop offset="0.846" stop-color="#DADADA"/>
<stop offset="0.893" stop-color="#C9C9C9"/>
<stop offset="0.933" stop-color="#B3B3B3"/>
<stop offset="0.968" stop-color="#989898"/>
<stop offset="0.999" stop-color="#797979"/>
<stop offset="1" stop-color="#787878"/>
</radialGradient>
<linearGradient id="paint3_linear" x1="5.71917" y1="15.3062" x2="8.73242" y2="18.3689" gradientUnits="userSpaceOnUse">
<stop stop-color="#0B71D9"/>
<stop offset="1" stop-color="#264774"/>
</linearGradient>
<linearGradient id="paint4_linear" x1="6.16602" y1="17.854" x2="1.95701" y2="22.0041" gradientUnits="userSpaceOnUse">
<stop stop-color="#FF7900"/>
<stop offset="1" stop-color="#E51E25"/>
</linearGradient>
<radialGradient id="paint5_radial" cx="0" cy="0" r="1" gradientUnits="userSpaceOnUse" gradientTransform="translate(6.78862 17.2685) rotate(45.001) scale(5.56049 6.71263)">
<stop stop-color="white"/>
<stop offset="0.254" stop-color="#FFDA4E"/>
<stop offset="0.699" stop-color="#FF7900"/>
<stop offset="0.975" stop-color="#E51F25"/>
</radialGradient>
<linearGradient id="paint6_linear" x1="9.13144" y1="15.7999" x2="1.56363" y2="21.954" gradientUnits="userSpaceOnUse">
<stop stop-color="white"/>
<stop offset="0.404" stop-color="#FFDA4E"/>
<stop offset="0.699" stop-color="#FF7900"/>
<stop offset="0.975" stop-color="#E51F25"/>
</linearGradient>
<linearGradient id="paint7_linear" x1="8.61092" y1="17.5809" x2="2.54498" y2="22.8518" gradientUnits="userSpaceOnUse">
<stop stop-color="white"/>
<stop offset="0.254" stop-color="#FFDA4E"/>
<stop offset="0.594" stop-color="#FF7900"/>
<stop offset="0.975" stop-color="#E51F25"/>
</linearGradient>
<linearGradient id="paint8_linear" x1="7.33956" y1="16.1587" x2="2.21204" y2="20.7249" gradientUnits="userSpaceOnUse">
<stop stop-color="white"/>
<stop offset="0.28" stop-color="#FFDA4E"/>
<stop offset="0.834" stop-color="#FF7900"/>
<stop offset="0.943" stop-color="#E51F25"/>
</linearGradient>
<linearGradient id="paint9_linear" x1="7.12623" y1="19.0917" x2="2.08791" y2="22.0396" gradientUnits="userSpaceOnUse">
<stop stop-color="white"/>
<stop offset="0.28" stop-color="#FFDA4E"/>
<stop offset="0.536" stop-color="#FF7900"/>
<stop offset="0.943" stop-color="#E51F25"/>
</linearGradient>
<linearGradient id="paint10_linear" x1="5.38713" y1="17.6946" x2="1.49058" y2="21.216" gradientUnits="userSpaceOnUse">
<stop stop-color="white"/>
<stop offset="0.28" stop-color="#FFDA4E"/>
<stop offset="0.491" stop-color="#FF7900"/>
<stop offset="0.943" stop-color="#E51F25"/>
</linearGradient>
<linearGradient id="paint11_linear" x1="7.99795" y1="16.3724" x2="4.30374" y2="21.5644" gradientUnits="userSpaceOnUse">
<stop stop-color="white"/>
<stop offset="0.37" stop-color="#FFDA4E"/>
<stop offset="0.834" stop-color="#FF7900"/>
<stop offset="0.943" stop-color="#E51F25"/>
</linearGradient>
<linearGradient id="paint12_linear" x1="6.83" y1="15.2369" x2="1.01801" y2="21.6145" gradientUnits="userSpaceOnUse">
<stop stop-color="white"/>
<stop offset="0.254" stop-color="#FFDA4E"/>
<stop offset="0.602" stop-color="#FF7900"/>
<stop offset="0.975" stop-color="#E51F25"/>
</linearGradient>
<linearGradient id="paint13_linear" x1="8.50438" y1="15.005" x2="8.93664" y2="15.4373" gradientUnits="userSpaceOnUse">
<stop stop-color="#264774"/>
<stop offset="1" stop-color="#264774"/>
</linearGradient>
<linearGradient id="paint14_linear" x1="19.1193" y1="1.60497" x2="22.3937" y2="4.87942" gradientUnits="userSpaceOnUse">
<stop stop-color="#F68381"/>
<stop offset="0.547" stop-color="#E62228"/>
<stop offset="0.903" stop-color="#8E2809"/>
</linearGradient>
<linearGradient id="paint15_linear" x1="15.2922" y1="2.38691" x2="21.6135" y2="8.70843" gradientUnits="userSpaceOnUse">
<stop stop-color="white" stop-opacity="0.8"/>
<stop offset="1" stop-color="white" stop-opacity="0"/>
</linearGradient>
<linearGradient id="paint16_linear" x1="15.4847" y1="2.30048" x2="21.6992" y2="8.51523" gradientUnits="userSpaceOnUse">
<stop offset="0.293" stop-color="#CBCBCB"/>
<stop offset="1" stop-color="#666666"/>
</linearGradient>
<linearGradient id="paint17_linear" x1="9.61591" y1="8.58891" x2="15.4112" y2="14.3844" gradientUnits="userSpaceOnUse">
<stop stop-color="white" stop-opacity="0.8"/>
<stop offset="1" stop-color="white" stop-opacity="0"/>
</linearGradient>
<linearGradient id="paint18_linear" x1="9.73429" y1="8.42725" x2="15.5728" y2="14.2659" gradientUnits="userSpaceOnUse">
<stop offset="0.293" stop-color="#CBCBCB"/>
<stop offset="1" stop-color="#666666"/>
</linearGradient>
<radialGradient id="paint19_radial" cx="0" cy="0" r="1" gradientUnits="userSpaceOnUse" gradientTransform="translate(15.681 9.08697) rotate(45.001) scale(3.59879)">
<stop stop-opacity="0.8"/>
<stop offset="0.384" stop-color="#020202" stop-opacity="0.491"/>
<stop offset="0.53" stop-color="#090909" stop-opacity="0.373"/>
<stop offset="0.636" stop-color="#151515" stop-opacity="0.288"/>
<stop offset="0.722" stop-color="#262626" stop-opacity="0.218"/>
<stop offset="0.797" stop-color="#3C3C3C" stop-opacity="0.158"/>
<stop offset="0.863" stop-color="#585858" stop-opacity="0.105"/>
<stop offset="0.923" stop-color="#797979" stop-opacity="0.057"/>
<stop offset="0.976" stop-color="#9E9E9E" stop-opacity="0.014"/>
<stop offset="0.993" stop-color="#ABABAB" stop-opacity="0"/>
</radialGradient>
<linearGradient id="paint20_linear" x1="13.3672" y1="6.54912" x2="17.8968" y2="11.0789" gradientUnits="userSpaceOnUse">
<stop stop-color="#E7E7E7"/>
<stop offset="1" stop-color="#999999"/>
</linearGradient>
<linearGradient id="paint21_linear" x1="17.4343" y1="10.5766" x2="13.697" y2="6.91181" gradientUnits="userSpaceOnUse">
<stop stop-color="#C8C8C8"/>
<stop offset="1" stop-color="#AAAAAA"/>
</linearGradient>
<linearGradient id="paint22_linear" x1="13.6802" y1="6.86215" x2="17.1382" y2="10.3203" gradientUnits="userSpaceOnUse">
<stop stop-color="#78D9F4"/>
<stop offset="0.846" stop-color="#0B71D9"/>
</linearGradient>
<radialGradient id="paint23_radial" cx="0" cy="0" r="1" gradientUnits="userSpaceOnUse" gradientTransform="translate(13.8589 7.25353) rotate(-44.998) scale(3.86538 0.737677)">
<stop stop-color="white" stop-opacity="0.5"/>
<stop offset="0.141" stop-color="white" stop-opacity="0.429"/>
<stop offset="0.999" stop-color="white" stop-opacity="0"/>
</radialGradient>
<linearGradient id="paint24_linear" x1="12.8848" y1="-2.25508" x2="24.8145" y2="6.54475" gradientUnits="userSpaceOnUse">
<stop stop-color="white" stop-opacity="0.8"/>
<stop offset="0.794" stop-color="white" stop-opacity="0"/>
</linearGradient>
</defs>
</svg>
