<svg width="32" height="32" viewBox="0 0 32 32" fill="none" xmlns="http://www.w3.org/2000/svg">
<path d="M17.8118 19.704L19.7061 17.8098L16.8646 14.9685L14.9703 16.8627L17.8118 19.704Z" fill="url(#paint0_linear)"/>
<path d="M17.8089 20.6498L20.6504 17.8085L19.7032 16.8614L16.8618 19.7027L17.8089 20.6498Z" fill="url(#paint1_linear)"/>
<path d="M29.0528 28.1058L28.1057 29.0529C27.8545 29.3041 27.5138 29.4452 27.1585 29.4452C26.8033 29.4452 26.4626 29.3041 26.2114 29.0529L17.8092 20.6511L20.6507 17.8098L29.0528 26.2116C29.304 26.4628 29.4452 26.8035 29.4452 27.1587C29.4452 27.5139 29.304 27.8546 29.0528 28.1058Z" fill="url(#paint2_linear)"/>
<path d="M10.7068 18.7427C15.1454 18.7427 18.7436 15.1446 18.7436 10.7062C18.7436 6.26775 15.1454 2.66968 10.7068 2.66968C6.26814 2.66968 2.66992 6.26775 2.66992 10.7062C2.66992 15.1446 6.26814 18.7427 10.7068 18.7427Z" fill="url(#paint3_radial)"/>
<path d="M10.7066 2C12.4286 2 14.1119 2.51061 15.5437 3.46726C16.9755 4.42391 18.0914 5.78364 18.7504 7.37449C19.4094 8.96535 19.5818 10.7159 19.2459 12.4047C18.9099 14.0936 18.0807 15.6449 16.8631 16.8624C15.6454 18.08 14.0941 18.9092 12.4052 19.2452C10.7162 19.5811 8.96564 19.4087 7.37472 18.7497C5.7838 18.0908 4.42402 16.9749 3.46732 15.5431C2.51063 14.1114 2 12.4281 2 10.7062C2 8.39719 2.9173 6.18273 4.5501 4.54999C6.1829 2.91726 8.39746 2 10.7066 2V2ZM2.66974 10.7062C2.66974 12.2957 3.14109 13.8495 4.02419 15.1711C4.90729 16.4927 6.16248 17.5227 7.63102 18.131C9.09956 18.7393 10.7155 18.8984 12.2745 18.5883C13.8335 18.2782 15.2655 17.5128 16.3895 16.3889C17.5135 15.265 18.2789 13.833 18.589 12.2741C18.8991 10.7151 18.74 9.09926 18.1317 7.63078C17.5234 6.1623 16.4933 4.90717 15.1716 4.02411C13.85 3.14104 12.2961 2.66971 10.7066 2.66971C8.57508 2.66971 6.53088 3.51641 5.02368 5.02355C3.51647 6.53069 2.66974 8.5748 2.66974 10.7062V10.7062Z" fill="url(#paint4_linear)"/>
<path d="M10.7068 18.7427C15.1454 18.7427 18.7436 15.1446 18.7436 10.7062C18.7436 6.26775 15.1454 2.66968 10.7068 2.66968C6.26814 2.66968 2.66992 6.26775 2.66992 10.7062C2.66992 15.1446 6.26814 18.7427 10.7068 18.7427Z" fill="url(#paint5_radial)"/>
<path d="M10.7067 10.0366C13.2959 10.0366 15.3949 8.71158 15.3949 7.07712C15.3949 5.44266 13.2959 4.11768 10.7067 4.11768C8.11752 4.11768 6.01855 5.44266 6.01855 7.07712C6.01855 8.71158 8.11752 10.0366 10.7067 10.0366Z" fill="url(#paint6_radial)"/>
<path d="M29.0528 28.1058L28.1057 29.0529C27.8545 29.3041 27.5138 29.4452 27.1585 29.4452C26.8033 29.4452 26.4626 29.3041 26.2114 29.0529L17.8092 20.6511L20.6507 17.8098L29.0528 26.2116C29.304 26.4628 29.4452 26.8035 29.4452 27.1587C29.4452 27.5139 29.304 27.8546 29.0528 28.1058Z" fill="url(#paint7_linear)"/>
<defs>
<linearGradient id="paint0_linear" x1="18.2853" y1="16.3891" x2="16.3911" y2="18.2834" gradientUnits="userSpaceOnUse">
<stop stop-color="#7B7D80"/>
<stop offset="0.002" stop-color="#7D7F82"/>
<stop offset="0.04" stop-color="#A9ABAD"/>
<stop offset="0.077" stop-color="#CCCDCE"/>
<stop offset="0.112" stop-color="#E5E5E6"/>
<stop offset="0.144" stop-color="#F4F4F4"/>
<stop offset="0.17" stop-color="#F9F9F9"/>
<stop offset="0.372" stop-color="#F7F7F7"/>
<stop offset="0.444" stop-color="#F0F0F0"/>
<stop offset="0.496" stop-color="#E5E5E5"/>
<stop offset="0.538" stop-color="#D4D4D4"/>
<stop offset="0.574" stop-color="#BEBEBE"/>
<stop offset="0.606" stop-color="#A2A2A3"/>
<stop offset="0.634" stop-color="#828283"/>
<stop offset="0.661" stop-color="#5C5C5D"/>
<stop offset="0.684" stop-color="#333334"/>
<stop offset="0.696" stop-color="#1B1B1C"/>
<stop offset="0.703" stop-color="#272728"/>
<stop offset="0.728" stop-color="#4A4A4A"/>
<stop offset="0.755" stop-color="#686869"/>
<stop offset="0.784" stop-color="#818181"/>
<stop offset="0.817" stop-color="#949494"/>
<stop offset="0.855" stop-color="#A1A1A1"/>
<stop offset="0.904" stop-color="#A9A9A9"/>
<stop offset="1" stop-color="#ABABAB"/>
</linearGradient>
<linearGradient id="paint1_linear" x1="-7.06186" y1="57.7733" x2="-24.1099" y2="74.822" gradientUnits="userSpaceOnUse">
<stop stop-color="#7B7D80"/>
<stop offset="0.002" stop-color="#7D7F82"/>
<stop offset="0.04" stop-color="#A9ABAD"/>
<stop offset="0.077" stop-color="#CCCDCE"/>
<stop offset="0.112" stop-color="#E5E5E6"/>
<stop offset="0.144" stop-color="#F4F4F4"/>
<stop offset="0.17" stop-color="#F9F9F9"/>
<stop offset="0.372" stop-color="#F7F7F7"/>
<stop offset="0.444" stop-color="#F0F0F0"/>
<stop offset="0.496" stop-color="#E5E5E5"/>
<stop offset="0.538" stop-color="#D4D4D4"/>
<stop offset="0.574" stop-color="#BEBEBE"/>
<stop offset="0.606" stop-color="#A2A2A3"/>
<stop offset="0.634" stop-color="#828283"/>
<stop offset="0.661" stop-color="#5C5C5D"/>
<stop offset="0.684" stop-color="#333334"/>
<stop offset="0.696" stop-color="#1B1B1C"/>
<stop offset="0.703" stop-color="#272728"/>
<stop offset="0.728" stop-color="#4A4A4A"/>
<stop offset="0.755" stop-color="#686869"/>
<stop offset="0.784" stop-color="#818181"/>
<stop offset="0.817" stop-color="#949494"/>
<stop offset="0.855" stop-color="#A1A1A1"/>
<stop offset="0.904" stop-color="#A9A9A9"/>
<stop offset="1" stop-color="#ABABAB"/>
</linearGradient>
<linearGradient id="paint2_linear" x1="25.3255" y1="22.4843" x2="22.4841" y2="25.3258" gradientUnits="userSpaceOnUse">
<stop stop-color="#54321D"/>
<stop offset="0.02" stop-color="#693F24"/>
<stop offset="0.064" stop-color="#915731"/>
<stop offset="0.107" stop-color="#B16B3C"/>
<stop offset="0.149" stop-color="#C87944"/>
<stop offset="0.189" stop-color="#D58148"/>
<stop offset="0.223" stop-color="#DA844A"/>
<stop offset="0.398" stop-color="#B6683A"/>
<stop offset="0.706" stop-color="#7A391F"/>
<stop offset="0.85" stop-color="#69341F"/>
<stop offset="1" stop-color="#5C311F"/>
</linearGradient>
<radialGradient id="paint3_radial" cx="0" cy="0" r="1" gradientUnits="userSpaceOnUse" gradientTransform="translate(10.7068 10.7062) rotate(180) scale(8.03685 8.03651)">
<stop stop-color="#FAFAFA"/>
<stop offset="0.348" stop-color="#F7F7F7"/>
<stop offset="0.562" stop-color="#EFEFEF"/>
<stop offset="0.74" stop-color="#E1E1E1"/>
<stop offset="0.896" stop-color="#CCCCCC"/>
<stop offset="1" stop-color="#BABABA"/>
</radialGradient>
<linearGradient id="paint4_linear" x1="4.55036" y1="16.8622" x2="16.8623" y2="4.54973" gradientUnits="userSpaceOnUse">
<stop stop-color="#6B6B6B"/>
<stop offset="0.164" stop-color="#6D6D6D"/>
<stop offset="0.244" stop-color="#757575"/>
<stop offset="0.306" stop-color="#828282"/>
<stop offset="0.358" stop-color="#959595"/>
<stop offset="0.405" stop-color="#ADADAD"/>
<stop offset="0.447" stop-color="#CACACA"/>
<stop offset="0.486" stop-color="#EDEDED"/>
<stop offset="0.498" stop-color="#FAFAFA"/>
<stop offset="0.506" stop-color="#F0F0F0"/>
<stop offset="0.536" stop-color="#D1D1D1"/>
<stop offset="0.57" stop-color="#B5B5B5"/>
<stop offset="0.609" stop-color="#9F9F9F"/>
<stop offset="0.653" stop-color="#8F8F8F"/>
<stop offset="0.709" stop-color="#838383"/>
<stop offset="0.786" stop-color="#7C7C7C"/>
<stop offset="1" stop-color="#7A7A7A"/>
</linearGradient>
<radialGradient id="paint5_radial" cx="0" cy="0" r="1" gradientUnits="userSpaceOnUse" gradientTransform="translate(10.7068 10.7062) rotate(180) scale(8.03685 8.03651)">
<stop stop-color="#FAFAFA" stop-opacity="0"/>
<stop offset="0.271" stop-color="#F8F8F8" stop-opacity="0.019"/>
<stop offset="0.437" stop-color="#F1F1F1" stop-opacity="0.08"/>
<stop offset="0.575" stop-color="#E5E5E5" stop-opacity="0.185"/>
<stop offset="0.697" stop-color="#D5D5D5" stop-opacity="0.333"/>
<stop offset="0.81" stop-color="#BFBFBF" stop-opacity="0.525"/>
<stop offset="0.913" stop-color="#A5A5A5" stop-opacity="0.757"/>
<stop offset="1" stop-color="#8A8A8A"/>
</radialGradient>
<radialGradient id="paint6_radial" cx="0" cy="0" r="1" gradientUnits="userSpaceOnUse" gradientTransform="translate(10.7305 3.89131) scale(13.6517 11.4909)">
<stop stop-color="white"/>
<stop offset="0.068" stop-color="white" stop-opacity="0.838"/>
<stop offset="0.162" stop-color="white" stop-opacity="0.644"/>
<stop offset="0.261" stop-color="white" stop-opacity="0.471"/>
<stop offset="0.363" stop-color="white" stop-opacity="0.326"/>
<stop offset="0.468" stop-color="white" stop-opacity="0.207"/>
<stop offset="0.579" stop-color="white" stop-opacity="0.116"/>
<stop offset="0.697" stop-color="white" stop-opacity="0.051"/>
<stop offset="0.827" stop-color="white" stop-opacity="0.012"/>
<stop offset="0.995" stop-color="white" stop-opacity="0"/>
</radialGradient>
<linearGradient id="paint7_linear" x1="28.5792" y1="28.5792" x2="19.2307" y2="19.2304" gradientUnits="userSpaceOnUse">
<stop stop-color="#522C1B"/>
<stop offset="0.022" stop-color="#582F1D" stop-opacity="0.802"/>
<stop offset="0.076" stop-color="#643621" stop-opacity="0.366"/>
<stop offset="0.12" stop-color="#6B3A23" stop-opacity="0.098"/>
<stop offset="0.148" stop-color="#6E3B24" stop-opacity="0"/>
</linearGradient>
</defs>
</svg>
