<svg width="23" height="23" viewBox="0 0 23 23" fill="none" xmlns="http://www.w3.org/2000/svg">
<g clip-path="url(#clip0)">
<path d="M13.7512 16.7355L11.8318 20.6577C11.6495 21.0297 11.1095 21.0027 10.9568 20.6134L9.40106 16.6495L13.7512 16.7355Z" fill="#BCDEE8"/>
<path d="M15.9059 15.9059C19.0301 12.7817 19.4267 8.113 16.7918 5.47807C14.1568 2.84314 9.48814 3.23976 6.36395 6.36396C3.23975 9.48815 2.84313 14.1568 5.47806 16.7918C8.11298 19.4267 12.7817 19.0301 15.9059 15.9059Z" fill="url(#paint0_radial)"/>
<path d="M9.52516 13.8352C9.8227 13.5377 9.81979 13.0523 9.51865 12.7512C9.21752 12.4501 8.73219 12.4472 8.43465 12.7447C8.13711 13.0422 8.14002 13.5276 8.44116 13.8287C8.74229 14.1298 9.22762 14.1327 9.52516 13.8352Z" fill="url(#paint1_linear)"/>
<path d="M11.6803 11.6801C11.9779 11.3825 11.9749 10.8972 11.6738 10.5961C11.3727 10.2949 10.8873 10.292 10.5898 10.5895C10.2923 10.8871 10.2952 11.3724 10.5963 11.6735C10.8974 11.9747 11.3828 11.9776 11.6803 11.6801Z" fill="url(#paint2_linear)"/>
<path d="M13.8351 9.52527C14.1327 9.22773 14.1298 8.7424 13.8286 8.44127C13.5275 8.14013 13.0422 8.13722 12.7446 8.43476C12.4471 8.73231 12.45 9.21763 12.7511 9.51876C13.0523 9.8199 13.5376 9.82281 13.8351 9.52527Z" fill="url(#paint3_linear)"/>
</g>
<defs>
<radialGradient id="paint0_radial" cx="0" cy="0" r="1" gradientUnits="userSpaceOnUse" gradientTransform="translate(11.1348 11.1348) rotate(-45) scale(7.84 6.64925)">
<stop offset="0.514" stop-color="#EDF6F9"/>
<stop offset="0.652" stop-color="#E9F4F8"/>
<stop offset="0.792" stop-color="#DDEEF3"/>
<stop offset="0.933" stop-color="#C8E4EC"/>
<stop offset="1" stop-color="#BCDEE8"/>
</radialGradient>
<linearGradient id="paint1_linear" x1="9.52516" y1="13.8352" x2="8.43465" y2="12.7447" gradientUnits="userSpaceOnUse">
<stop stop-color="#4D8299"/>
<stop offset="0.262" stop-color="#497E95"/>
<stop offset="0.521" stop-color="#3E7289"/>
<stop offset="0.779" stop-color="#2B5E75"/>
<stop offset="1" stop-color="#15475E"/>
</linearGradient>
<linearGradient id="paint2_linear" x1="11.6803" y1="11.6801" x2="10.5898" y2="10.5895" gradientUnits="userSpaceOnUse">
<stop stop-color="#4D8299"/>
<stop offset="0.262" stop-color="#497E95"/>
<stop offset="0.521" stop-color="#3E7289"/>
<stop offset="0.779" stop-color="#2B5E75"/>
<stop offset="1" stop-color="#15475E"/>
</linearGradient>
<linearGradient id="paint3_linear" x1="13.7512" y1="9.4413" x2="12.7959" y2="8.48602" gradientUnits="userSpaceOnUse">
<stop stop-color="#4D8299"/>
<stop offset="0.262" stop-color="#497E95"/>
<stop offset="0.521" stop-color="#3E7289"/>
<stop offset="0.779" stop-color="#2B5E75"/>
<stop offset="1" stop-color="#15475E"/>
</linearGradient>
<clipPath id="clip0">
<rect width="16" height="16" fill="white" transform="translate(0 11.3137) rotate(-45)"/>
</clipPath>
</defs>
</svg>
