<svg width="20" height="20" viewBox="0 0 20 20" fill="none" xmlns="http://www.w3.org/2000/svg">
<g clip-path="url(#clip0)">
<path d="M2.91075 12.9154L4.20625 12.5683C4.96582 12.3648 5.76884 12.4874 6.43435 12.8887C6.74038 13.0733 7.07486 13.2298 7.43189 13.3512C7.50321 13.3756 7.57535 13.3897 7.64715 13.4108L8.98505 13.8829L10.6613 14.4779L10.8011 14.5625C11.303 14.8665 11.7197 15.2902 12.0158 15.7957L12.6603 16.8987C12.7853 17.1152 13.0423 17.2161 13.282 17.1467C14.7968 16.6205 14.3422 13.8885 12.4209 11.5108C12.397 11.4812 12.3606 11.4332 12.3638 11.3707C12.3683 11.2913 12.4754 11.2222 12.6854 11.146C12.8718 11.0782 16.3481 10.02 16.9726 9.85264C17.3284 9.75731 13.3192 2.66207 13.1586 2.06294C12.9788 1.3917 12.2063 0.890973 11.52 1.07486C11.5188 1.07519 5.67768 2.5005 4.68252 3.23129C4.33422 3.487 4.06104 3.84415 3.86391 4.24823C3.50078 4.99202 2.83708 5.55497 2.02739 5.77193L1.0657 6.02961C0.777031 6.10696 0.956565 7.71134 1.46607 9.61285C1.97548 11.514 2.62208 12.9928 2.91075 12.9154Z" fill="url(#paint0_radial)"/>
<g opacity="0.31">
<path opacity="0.091" d="M1.2187 5.97932C1.18514 6.55318 1.37536 7.75178 1.73713 9.11022C1.75971 9.19448 1.78248 9.27781 1.80556 9.36064C2.30424 11.1522 2.91187 12.512 3.18853 12.4379L4.48403 12.0908C5.2436 11.8872 6.04662 12.0099 6.71213 12.4112C7.01817 12.5957 7.35264 12.7523 7.70967 12.8737C7.78099 12.898 7.85313 12.9121 7.92494 12.9333L9.26283 13.4054L10.8184 13.9576L10.9517 14.0079C10.9564 14.0105 11.0879 14.0904 11.0923 14.0935C11.506 14.347 11.8607 14.6817 12.1371 15.077C12.1925 15.1547 12.2613 15.2639 12.31 15.3463L12.7379 16.0784C12.7454 16.0915 12.9583 16.4422 12.9727 16.4444C13.0145 16.5061 13.0683 16.556 13.1293 16.5931C13.2669 16.676 13.4397 16.6979 13.602 16.6427C13.7944 16.5672 13.9493 16.4511 14.0748 16.3067C14.1147 16.1671 14.1311 16.0081 14.1251 15.8317C14.1157 15.641 14.0818 15.4182 14.0373 15.1727C13.9397 15.1333 13.8385 15.0336 13.7825 14.9375L13.333 14.1678C13.3272 14.1577 13.1426 13.8433 13.1357 13.8339C12.9015 13.4438 12.5955 13.1033 12.2335 12.8308C12.1944 12.8009 12.1418 12.7638 12.1014 12.7355C12.0451 12.6959 11.9679 12.6515 11.9086 12.6157L11.7683 12.5343L10.454 12.0676L10.0905 11.9384L9.14772 11.6057C9.14105 11.604 8.93676 11.5324 8.92998 11.5303C8.92456 11.5283 8.75645 11.4692 8.75103 11.4671C8.67953 11.4455 8.60748 11.43 8.53646 11.4052C8.31518 11.3282 8.10225 11.2376 7.89989 11.1351C7.77713 11.0729 7.65756 11.0077 7.54128 10.9399C6.98947 10.6166 6.34648 10.4833 5.71305 10.5661C5.58993 10.5805 5.43193 10.6137 5.31058 10.6462L4.40605 10.8886C4.39942 10.8903 4.03536 10.9779 4.02501 10.9624C3.75034 10.9844 3.17887 9.70645 2.69804 8.01304C2.66404 7.89276 2.63032 7.77024 2.59721 7.64669C2.41601 6.96712 2.27988 6.33149 2.19039 5.78713C2.11449 5.80703 2.03774 5.82543 1.95875 5.83877C1.95642 5.81682 1.39076 5.94885 1.3911 5.93356L1.21881 5.97973L1.2187 5.97932Z" fill="url(#paint1_linear)"/>
<path opacity="0.182" d="M1.20257 5.9837C1.14496 6.50756 1.33111 7.73243 1.70241 9.13303C1.72509 9.21769 1.74756 9.30155 1.77075 9.38477C2.2706 11.1873 2.8819 12.5592 3.16021 12.4846L4.45571 12.1375C5.21529 11.9339 6.01831 12.0566 6.68382 12.4579C6.98985 12.6425 7.32433 12.799 7.68135 12.9204C7.75268 12.9447 7.82481 12.9588 7.89662 12.98L9.23451 13.4521L10.8023 14.0085L10.9362 14.0625C10.9457 14.0682 11.0688 14.1433 11.0779 14.1491C11.4936 14.4068 11.8493 14.7469 12.1245 15.1477C12.1744 15.2178 12.2547 15.3469 12.2982 15.4216L12.7295 16.1597C12.7445 16.186 12.9505 16.5107 12.9789 16.5157C13.0248 16.5725 13.0811 16.6169 13.1435 16.6479C13.2857 16.7162 13.4562 16.7265 13.6149 16.6644C13.8028 16.582 13.9532 16.4592 14.0734 16.308C14.0961 16.1955 14.0952 16.0629 14.0705 15.9111C14.0384 15.7464 13.9819 15.5358 13.9294 15.2933C13.8417 15.2577 13.7316 15.1366 13.6816 15.0496L13.2309 14.2786C13.2188 14.2584 13.0459 13.9643 13.0316 13.9456C12.7941 13.5581 12.4846 13.2212 12.1199 12.952C12.0847 12.925 12.0234 12.8833 11.9872 12.8578C11.9365 12.8223 11.8455 12.7746 11.7925 12.7424L11.6516 12.6638L10.3369 12.1972L9.9715 12.0676L9.02718 11.734C9.01415 11.7301 8.8226 11.6647 8.80988 11.6602C8.79862 11.6563 8.64177 11.6011 8.63082 11.5966C8.55921 11.5746 8.48766 11.5577 8.41654 11.5325C8.19575 11.454 7.98416 11.3618 7.78282 11.2581C7.66068 11.1949 7.5408 11.1302 7.4235 11.0635C6.86875 10.7476 6.22441 10.6224 5.59191 10.7137C5.48134 10.7268 5.29901 10.767 5.19009 10.7962L4.28597 11.0385C4.2723 11.0421 3.93515 11.1125 3.91454 11.082C3.63431 11.0533 3.0749 9.78559 2.60426 8.12027C2.57015 7.99959 2.53685 7.87696 2.50385 7.75381C2.32346 7.07229 2.18804 6.43604 2.10034 5.89337C2.03075 5.90203 1.96064 5.91039 1.88891 5.91441C1.88425 5.87051 1.37376 5.96822 1.37445 5.93764L1.20257 5.9837V5.9837Z" fill="url(#paint2_linear)"/>
<path opacity="0.273" d="M1.18795 5.98754C1.10629 6.4614 1.28828 7.71214 1.6689 9.15583C1.69117 9.2406 1.71427 9.32516 1.73727 9.4093C2.23828 11.2228 2.85366 12.6066 3.13281 12.5318L4.42831 12.1847C5.18788 11.9812 5.9909 12.1038 6.65641 12.5051C6.96244 12.6897 7.29692 12.8462 7.65395 12.9677C7.72527 12.992 7.79741 13.0061 7.86921 13.0272L9.20711 13.4993L10.7871 14.0598L10.9214 14.1171C10.9352 14.1256 11.0508 14.1958 11.0639 14.2049C11.4821 14.4667 11.8382 14.8119 12.1125 15.2191C12.1567 15.2815 12.2483 15.431 12.2873 15.497L12.7218 16.2407C12.7444 16.2802 12.9434 16.579 12.9858 16.5863C13.0352 16.6382 13.0945 16.6775 13.1589 16.7023C13.3055 16.7559 13.4742 16.7542 13.629 16.6858C13.8124 16.5967 13.958 16.4674 14.0731 16.3089C14.0788 16.224 14.06 16.1174 14.0164 15.9897C13.961 15.8509 13.8826 15.6526 13.8215 15.4129C13.7437 15.3812 13.625 15.238 13.5804 15.1609L13.1288 14.3884C13.1108 14.3576 12.9488 14.0845 12.9279 14.0562C12.6868 13.6715 12.374 13.3376 12.0063 13.0718C11.975 13.0477 11.9053 13.0012 11.8726 12.9787C11.8273 12.947 11.7231 12.8963 11.676 12.8677L11.534 12.792L10.2194 12.3254L9.85249 12.1953L8.90629 11.8614C8.8866 11.8558 8.70851 11.7959 8.68901 11.7894C8.67243 11.7838 8.5258 11.732 8.50953 11.7259C8.43823 11.7033 8.36677 11.6851 8.29595 11.6594C8.07609 11.5794 7.86552 11.486 7.6651 11.3808C7.54326 11.317 7.42338 11.2523 7.30516 11.1872C6.74719 10.8791 6.10178 10.7615 5.47021 10.8613C5.37209 10.8728 5.16596 10.9203 5.06904 10.9462L4.16493 11.1885C4.14463 11.1939 3.83398 11.2472 3.8026 11.2013C3.51731 11.1223 2.96944 9.86457 2.50941 8.22724C2.47561 8.10605 2.44241 7.98382 2.40983 7.86056C2.22994 7.1776 2.09555 6.5402 2.00974 5.99963C1.94657 5.99745 1.88298 5.99539 1.81842 5.98968C1.81132 5.92341 1.3561 5.98721 1.35702 5.94094L1.18763 5.98633L1.18795 5.98754Z" fill="url(#paint3_linear)"/>
<path opacity="0.364" d="M1.17193 5.99185C1.06611 6.4153 1.24415 7.69271 1.63419 9.17817C1.65657 9.26335 1.67947 9.34882 1.70298 9.43327C2.20516 11.2577 2.82422 12.6536 3.1046 12.5785L4.4001 12.2313C5.15968 12.0278 5.9627 12.1504 6.62821 12.5517C6.93424 12.7363 7.26872 12.8929 7.62574 13.0143C7.69706 13.0386 7.7692 13.0527 7.84101 13.0738L9.1789 13.5459L10.7708 14.1111L10.906 14.1717C10.9245 14.1828 11.0317 14.2483 11.0496 14.2604C11.4697 14.526 11.827 14.877 12.1 15.2897C12.139 15.344 12.2419 15.5144 12.2756 15.5722L12.7135 16.3219C12.744 16.3745 12.9354 16.648 12.9924 16.6571C13.0454 16.7041 13.1073 16.7379 13.1741 16.7569C13.3248 16.7959 13.4917 16.7825 13.6433 16.7071C13.8221 16.611 13.9633 16.4751 14.0731 16.3102C14.0617 16.2525 14.0255 16.1723 13.9633 16.0691C13.8847 15.9564 13.7838 15.7703 13.715 15.5334C13.6467 15.5057 13.52 15.3408 13.481 15.2731L13.0284 14.4987C13.0046 14.4577 12.8539 14.205 12.8256 14.1675C12.5807 13.7854 12.2648 13.4546 11.8941 13.1927C11.8668 13.1718 11.7882 13.1203 11.7598 13.1006C11.7204 13.0729 11.6027 13.0194 11.5612 12.994L11.4187 12.921L10.1035 12.4541L9.73518 12.3236L8.78752 11.9892C8.76147 11.9814 8.59654 11.9275 8.57068 11.9188C8.54868 11.9112 8.4129 11.8634 8.39109 11.8549C8.31957 11.8315 8.24872 11.8123 8.17821 11.786C7.95926 11.7045 7.74961 11.6095 7.55063 11.5031C7.4294 11.4383 7.30911 11.3737 7.18997 11.3101C6.62866 11.0094 5.98231 10.8999 5.35136 11.0087C5.26527 11.0187 5.03585 11.0737 4.95095 11.0964L4.04766 11.3384C4.02074 11.3457 3.73617 11.382 3.69495 11.3209C3.40462 11.1916 2.8687 9.94368 2.41856 8.33496C2.38465 8.21336 2.35145 8.09113 2.31939 7.96817C2.14031 7.28326 2.00664 6.64523 1.92262 6.10635C1.86586 6.09334 1.8088 6.08084 1.75098 6.0655C1.74113 5.9774 1.34203 6.00706 1.34276 5.9452L1.17172 5.99104L1.17193 5.99185Z" fill="url(#paint4_linear)"/>
<path opacity="0.455" d="M1.15725 5.9959C1.02697 6.36947 1.20136 7.67304 1.60062 9.20117C1.62311 9.28676 1.64612 9.37264 1.66943 9.458C2.17236 11.2935 2.79592 12.7012 3.07755 12.6258L4.37305 12.2786C5.13262 12.0751 5.93564 12.1977 6.60115 12.599C6.90718 12.7836 7.24166 12.9402 7.59869 13.0616C7.67001 13.0859 7.74215 13.1 7.81395 13.1212L9.15185 13.5933L10.7559 14.1625L10.8916 14.2264C10.9149 14.2406 11.0138 14.3014 11.0359 14.3163C11.458 14.5861 11.8163 14.9425 12.0883 15.3611C12.1217 15.4078 12.2357 15.5982 12.2651 15.6481L12.7063 16.4034C12.7442 16.4688 12.9287 16.7168 12.9997 16.7282C13.0563 16.7703 13.1211 16.7985 13.1898 16.8114C13.345 16.8358 13.5101 16.8107 13.6577 16.7286C13.832 16.6254 13.9687 16.4829 14.0732 16.3112C14.0447 16.281 13.9907 16.2269 13.9097 16.1483C13.8083 16.0617 13.6849 15.8877 13.6081 15.6538C13.5497 15.6299 13.4145 15.4434 13.3807 15.3852L12.9274 14.6096C12.8973 14.5587 12.758 14.3268 12.7231 14.2793C12.4745 13.9 12.1554 13.5722 11.7821 13.314C11.7587 13.2959 11.6713 13.2399 11.6468 13.223C11.613 13.1995 11.4819 13.1426 11.4463 13.1209L11.3033 13.0511L9.9881 12.5842L9.6183 12.4532L8.66918 12.1183C8.63646 12.1088 8.48499 12.0604 8.45266 12.0491C8.42482 12.0396 8.3002 11.9953 8.27297 11.9848C8.20175 11.9609 8.13058 11.9405 8.06037 11.9137C7.84234 11.8306 7.63371 11.7345 7.43565 11.6265C7.31503 11.5607 7.19444 11.4966 7.07438 11.4346C6.51025 11.1416 5.86254 11.0403 5.23241 11.157C5.15877 11.1655 4.90554 11.2277 4.83265 11.2472L3.92936 11.4892C3.8954 11.4983 3.63774 11.5174 3.58617 11.4409C3.29068 11.2609 2.7663 10.0229 2.32646 8.44269C2.29244 8.32068 2.25966 8.19834 2.2277 8.07578C2.04902 7.38903 1.91648 6.75026 1.83435 6.21348C1.78401 6.18963 1.73389 6.16659 1.68292 6.14204C1.67075 6.03198 1.32681 6.02732 1.32789 5.95018L1.15725 5.9959V5.9959Z" fill="url(#paint5_linear)"/>
<path opacity="0.545" d="M1.14181 5.99996C0.987472 6.32353 1.15728 7.65308 1.56617 9.22379C1.58877 9.30978 1.61147 9.39618 1.63501 9.48235C2.1391 11.3289 2.76633 12.7486 3.0492 12.6728L4.3447 12.3257C5.10427 12.1222 5.90729 12.2448 6.5728 12.6461C6.87884 12.8307 7.21331 12.9872 7.57034 13.1086C7.64166 13.133 7.7138 13.1471 7.7856 13.1682L9.1235 13.6403L10.7394 14.2137L10.876 14.2813C10.904 14.2981 10.9949 14.3541 11.0216 14.3726C11.4457 14.6467 11.8049 15.008 12.0762 15.4325C12.104 15.4715 12.2297 15.6822 12.2541 15.7235L12.6987 16.4849C12.7441 16.5634 12.9217 16.7855 13.0066 16.7992C13.0668 16.8365 13.1346 16.8591 13.2048 16.8663C13.3646 16.8761 13.5274 16.8394 13.6713 16.75C13.8412 16.6403 13.9729 16.4908 14.0725 16.3126C14.0273 16.3095 13.9552 16.2823 13.8557 16.2274C13.7312 16.1669 13.5857 16.0049 13.5007 15.7737C13.4518 15.7538 13.3081 15.5453 13.2805 15.4971L12.8264 14.72C12.7905 14.6589 12.6624 14.4474 12.62 14.3906C12.3678 14.014 12.0455 13.6892 11.6693 13.4349C11.6497 13.4197 11.5535 13.3591 11.5333 13.345C11.5049 13.3252 11.3602 13.2654 11.3309 13.2472L11.1869 13.1803L9.87129 12.7135L9.50002 12.582L8.54934 12.2463C8.51025 12.2346 8.37194 12.1922 8.33284 12.1788C8.29957 12.1673 8.18538 12.1272 8.15273 12.1146C8.0814 12.0903 8.01073 12.0684 7.94083 12.0412C7.72372 11.9565 7.51601 11.8589 7.31907 11.7501C7.19866 11.6834 7.07817 11.6197 6.9572 11.5592C6.38972 11.2736 5.74107 11.1804 5.11187 11.3056C5.05036 11.313 4.77375 11.3823 4.71328 11.3985L3.81041 11.6404C3.76982 11.6513 3.53865 11.6533 3.47683 11.5618C3.17588 11.3315 2.66346 10.1034 2.23381 8.55124C2.2002 8.42912 2.16731 8.30638 2.13588 8.18411C1.95811 7.49581 1.82618 6.85601 1.74584 6.32092C1.70192 6.28623 1.65833 6.25276 1.6141 6.21859C1.59959 6.08658 1.31082 6.04759 1.31225 5.95516L1.14202 6.00077L1.14181 5.99996Z" fill="url(#paint6_linear)"/>
<path opacity="0.636" d="M1.12663 6.00406C0.94824 6.27764 1.114 7.63345 1.5324 9.24633C1.5547 9.33284 1.57792 9.41953 1.60168 9.50651C2.10694 11.364 2.73814 12.7953 3.02184 12.7192L4.31734 12.3721C5.07691 12.1686 5.87993 12.2912 6.54544 12.6925C6.85147 12.8771 7.18595 13.0337 7.54298 13.1551C7.6143 13.1794 7.68644 13.1935 7.75824 13.2146L9.09614 13.6867L10.7243 14.2647L10.8614 14.3357C10.8937 14.3552 10.9767 14.4064 11.0082 14.4279C11.4347 14.7061 11.7945 15.073 12.0647 15.5033C12.0868 15.5343 12.2242 15.7654 12.2434 15.7989L12.6917 16.5658C12.7447 16.6575 12.9149 16.8538 13.0147 16.87C13.0784 16.9024 13.1492 16.9199 13.2213 16.9206C13.3856 16.9156 13.5466 16.8673 13.6864 16.7712C13.8518 16.6544 13.9791 16.4983 14.0733 16.3132C14.0111 16.3377 13.9215 16.3365 13.8029 16.3063C13.6555 16.2715 13.4876 16.122 13.3945 15.8938C13.3557 15.8781 13.2034 15.6476 13.181 15.6089L12.7259 14.8299C12.6841 14.7582 12.5673 14.5676 12.5176 14.5015C12.2616 14.1276 11.9363 13.8062 11.557 13.5553C11.5414 13.5434 11.4363 13.4778 11.4204 13.4664C11.398 13.4507 11.2395 13.3877 11.2161 13.3731L11.0715 13.309L9.75586 12.8422L9.38272 12.7103L8.43058 12.3741C8.38483 12.3607 8.25987 12.3234 8.21452 12.3082C8.17552 12.2953 8.07237 12.2582 8.0343 12.2437C7.96328 12.2188 7.8927 12.1956 7.8231 12.1678C7.60701 12.082 7.40022 11.9828 7.2042 11.8726C7.0845 11.8052 6.96319 11.7418 6.84161 11.6823C6.2709 11.4045 5.62119 11.3189 4.99292 11.4526C4.94386 11.4583 4.64344 11.5349 4.59498 11.5479L3.6917 11.7899C3.64448 11.8026 3.4398 11.7875 3.36722 11.6806C3.06122 11.4001 2.56033 10.1818 2.14129 8.65768C2.10799 8.53505 2.0751 8.41231 2.04378 8.29045C1.8664 7.60031 1.73602 6.95966 1.65674 6.42689C1.61924 6.38136 1.58217 6.33745 1.54522 6.29395C1.52827 6.13959 1.29478 6.06669 1.29613 5.95908L1.12674 6.00447L1.12663 6.00406Z" fill="url(#paint7_linear)"/>
<path opacity="0.727" d="M1.11103 6.00821C0.908597 6.23178 1.07029 7.61386 1.49781 9.26902C1.52021 9.35593 1.54355 9.44303 1.5671 9.53093C2.07353 11.3994 2.7084 12.8427 2.99334 12.7664L4.28884 12.4192C5.04842 12.2157 5.85144 12.3383 6.51695 12.7396C6.82298 12.9242 7.15746 13.0808 7.51448 13.2022C7.5858 13.2265 7.65794 13.2406 7.72975 13.2617L9.06764 13.7338L10.7076 14.316L10.8451 14.3903C10.8823 14.4129 10.9569 14.4594 10.9927 14.4837C11.4212 14.7661 11.7819 15.1379 12.051 15.5742C12.0675 15.5976 12.2161 15.8491 12.2308 15.8739L12.6825 16.6468C12.743 16.7517 12.9062 16.922 13.02 16.9406C13.0873 16.9682 13.1611 16.9801 13.2352 16.975C13.4039 16.9554 13.5626 16.8951 13.6994 16.7924C13.8602 16.6686 13.9832 16.5063 14.0719 16.314C13.9925 16.3657 13.8852 16.391 13.7479 16.3852C13.5773 16.3766 13.3869 16.2392 13.2862 16.014C13.2568 16.0023 13.0964 15.7496 13.0797 15.7206L12.6238 14.9401C12.5757 14.8584 12.4702 14.6882 12.4139 14.6126C12.1542 14.2415 11.8257 13.9231 11.4437 13.6755C11.432 13.6665 11.3186 13.5961 11.3061 13.5878C11.2892 13.5758 11.1175 13.5098 11.0999 13.4989L10.9544 13.438L9.63868 12.9708L9.26408 12.8385L8.31006 12.5019C8.25795 12.4863 8.14615 12.455 8.09402 12.4378C8.0496 12.4227 7.95689 12.3898 7.91339 12.3733C7.84226 12.348 7.77218 12.3234 7.70248 12.2952C7.4873 12.2078 7.28143 12.1071 7.08644 11.9957C6.96735 11.9273 6.84562 11.864 6.72323 11.8064C6.14959 11.536 5.49852 11.4586 4.87077 11.6007C4.83374 11.605 4.51004 11.6891 4.47359 11.6989L3.57279 11.9403C3.51854 11.9548 3.34077 11.9226 3.25793 11.8006C2.94677 11.4693 2.45754 10.2614 2.04869 8.76539C2.01527 8.64235 1.98291 8.5199 1.95148 8.39763C1.77491 7.70554 1.64525 7.06426 1.56776 6.53319C1.53626 6.47693 1.50614 6.42248 1.47592 6.36936C1.45664 6.19304 1.27832 6.08582 1.2799 5.96252L1.11093 6.0078L1.11103 6.00821Z" fill="url(#paint8_linear)"/>
<path opacity="0.818" d="M1.09603 6.01221C0.869537 6.18578 1.02707 7.59373 1.46432 9.29187C1.48683 9.37918 1.50997 9.4672 1.53394 9.555C2.04112 11.4346 2.68049 12.8897 2.96667 12.813L4.26217 12.4659C5.02175 12.2623 5.82477 12.385 6.49028 12.7863C6.79631 12.9708 7.13079 13.1274 7.48781 13.2488C7.55914 13.2731 7.63127 13.2872 7.70308 13.3084L9.04097 13.7805L10.6931 14.3668L10.8315 14.4443C10.8734 14.4696 10.9396 14.5113 10.9802 14.5386C11.4107 14.8249 11.7725 15.2025 12.0405 15.6448C12.0518 15.6604 12.2117 15.9324 12.2215 15.9488L12.6764 16.7274C12.7445 16.8455 12.9008 16.9899 13.0285 17.0108C13.0998 17.0334 13.1757 17.04 13.2521 17.0286C13.4254 16.9944 13.5823 16.9224 13.715 16.813C13.8713 16.6821 13.9894 16.5133 14.0733 16.3145C13.9769 16.3937 13.8521 16.445 13.696 16.4638C13.5023 16.4814 13.2898 16.356 13.181 16.1337C13.1616 16.1259 12.9926 15.8516 12.9812 15.8321L12.5244 15.0501C12.4705 14.9582 12.3762 14.8085 12.3126 14.7235C12.0492 14.3551 11.7175 14.0398 11.3325 13.796C11.3247 13.7899 11.2025 13.7149 11.1943 13.7093C11.1829 13.7015 10.9979 13.6321 10.9857 13.625L10.8397 13.5668L9.52354 13.0998L9.14748 12.9669L8.192 12.6299C8.13323 12.6126 8.03488 12.5869 7.97628 12.567C7.92644 12.5499 7.84447 12.5207 7.79554 12.5021C7.72472 12.4763 7.65473 12.4504 7.58533 12.4216C7.37108 12.3327 7.16623 12.2309 6.97215 12.1179C6.85326 12.0486 6.73164 11.9857 6.60822 11.9293C6.03124 11.6662 5.37923 11.5969 4.7524 11.7475C4.72782 11.7502 4.38032 11.8416 4.35588 11.8481L3.45384 12.0898C3.39295 12.1061 3.24168 12.0568 3.14849 11.9194C2.83187 11.5379 2.355 10.3397 1.95593 8.87185C1.92241 8.74841 1.89045 8.62584 1.85955 8.50387C1.68348 7.81034 1.55485 7.16792 1.47925 6.63894C1.45417 6.57185 1.43057 6.50697 1.40762 6.44452C1.38601 6.24625 1.26286 6.1047 1.26479 5.96612L1.09581 6.0114L1.09603 6.01221Z" fill="url(#paint9_linear)"/>
<path opacity="0.909" d="M1.07996 6.01648C0.829006 6.14017 0.98289 7.57428 1.42926 9.3147C1.45188 9.40242 1.47512 9.49084 1.4989 9.57955C2.00724 11.4701 2.65028 12.9373 2.93771 12.8602L4.23321 12.5131C4.99278 12.3096 5.7958 12.4322 6.46131 12.8335C6.76734 13.0181 7.10182 13.1746 7.45885 13.2961C7.53017 13.3204 7.60231 13.3345 7.67411 13.3556L9.01201 13.8277L10.6764 14.4181L10.8153 14.4994C10.8619 14.5273 10.9203 14.5647 10.9647 14.5949C11.3977 14.8853 11.7595 15.2681 12.0269 15.7161C12.0325 15.7237 12.2036 16.0161 12.2085 16.0244L12.6669 16.809C12.7429 16.9401 12.8918 17.0587 13.0339 17.0819C13.1087 17.0996 13.1876 17.1006 13.266 17.0835C13.4439 17.035 13.5985 16.951 13.7276 16.8348C13.8794 16.6973 13.993 16.5214 14.0715 16.3158C13.958 16.4222 13.8154 16.4999 13.6405 16.5429C13.424 16.5866 13.1891 16.4732 13.0721 16.2536C13.0621 16.2498 12.8851 15.9534 12.8794 15.944L12.4218 15.1605C12.3621 15.0584 12.2786 14.9293 12.2085 14.8347C11.9418 14.469 11.6064 14.1568 11.2185 13.9168C11.2147 13.914 11.0836 13.834 11.0797 13.8312C11.0742 13.827 10.8755 13.7548 10.8693 13.7516L10.7226 13.6963L9.40651 13.2292L9.02899 13.0959L8.07195 12.758C8.00692 12.7389 7.92163 12.7188 7.85625 12.6968C7.80057 12.6779 7.72944 12.6526 7.6754 12.6315C7.60478 12.6048 7.53457 12.5781 7.46589 12.5487C7.25255 12.4582 7.04862 12.3548 6.85598 12.2406C6.7377 12.1703 6.61578 12.1079 6.49103 12.0531C5.91123 11.7978 5.25786 11.7366 4.63196 11.8957C4.61951 11.8973 4.24862 11.9958 4.2362 11.9991L3.33456 12.2407C3.26706 12.2588 3.14228 12.1924 3.03884 12.0399C2.71706 11.6077 2.25173 10.4194 1.86337 8.97998C1.83016 8.85602 1.79821 8.73346 1.76741 8.6119C1.59215 7.91641 1.46424 7.27337 1.39042 6.74608C1.37176 6.66815 1.35469 6.59284 1.3389 6.52065C1.31496 6.30043 1.24697 6.12456 1.24924 5.97069L1.07985 6.01608L1.07996 6.01648Z" fill="url(#paint10_linear)"/>
<path opacity="0.31" d="M13.5876 16.623C13.3479 16.6925 13.0909 16.5916 12.9659 16.375L12.3214 15.272C12.0253 14.7665 11.609 14.3427 11.1067 14.0388L10.9669 13.9543L9.29065 13.3592L7.95276 12.8871C7.88095 12.866 7.80881 12.8519 7.73749 12.8276C7.38046 12.7061 7.04599 12.5496 6.73995 12.365C6.07444 11.9637 5.27142 11.8411 4.51185 12.0446L3.21635 12.3917C2.92768 12.4691 2.28097 10.9899 1.77146 9.08837C1.4188 7.77222 1.22494 6.59977 1.23404 5.97603L1.06547 6.02119C0.776801 6.09854 0.956334 7.70292 1.46584 9.60444C1.97535 11.506 2.62248 12.985 2.91073 12.9078L4.20623 12.5607C4.96581 12.3571 5.76883 12.4798 6.43434 12.8811C6.74037 13.0657 7.07485 13.2222 7.43187 13.3436C7.50319 13.3679 7.57533 13.3821 7.64714 13.4032L8.98503 13.8753L10.6613 14.4703L10.8011 14.5549C11.303 14.8589 11.7197 15.2826 12.0158 15.7881L12.6602 16.891C12.7853 17.1076 13.0423 17.2085 13.282 17.1391C13.678 17.0017 13.9361 16.7107 14.0718 16.3179C13.9417 16.4517 13.7809 16.5556 13.5876 16.623Z" fill="#E5A015"/>
</g>
<path opacity="0.59" d="M7.49629 7.05172C5.94119 7.81662 4.28071 7.64154 3.78808 6.66117C3.29546 5.6808 4.15652 4.26564 5.71214 3.50104C7.26776 2.73643 8.92772 2.91122 9.42035 3.89159C9.91298 4.87196 9.05181 6.28671 7.49629 7.05172Z" fill="url(#paint11_radial)"/>
<path opacity="0.55" d="M11.9394 11.626C11.6396 10.9045 11.1956 10.2102 10.6333 9.59932C10.2878 9.22429 9.89525 8.87749 9.47316 8.58116C8.76458 8.08372 7.93916 7.70355 7.0739 7.54247C6.78142 7.48798 6.48357 7.46315 6.1858 7.46348C5.9139 7.46426 5.55838 7.4462 5.30289 7.55461C5.22803 7.5751 5.15804 7.61209 5.10732 7.67127C5.06346 7.72296 5.03774 7.78934 5.04641 7.85648C5.047 7.86197 5.0481 7.86775 5.0491 7.87313C5.07918 8.01356 5.24652 8.09637 5.43402 8.05394C6.98999 7.72299 8.87273 8.46417 10.2395 9.94843C10.7999 10.5572 11.2305 11.2533 11.506 11.9714L11.9394 11.626Z" fill="url(#paint12_linear)"/>
<path opacity="0.43" d="M8.04991 8.72925C6.51299 8.02132 4.91372 8.17241 4.47735 9.06694C4.0414 9.96137 4.93374 11.2606 6.47066 11.9685C8.00758 12.6764 9.60685 12.5253 10.0432 11.6308C10.4796 10.7363 9.58683 9.43718 8.04991 8.72925Z" fill="url(#paint13_radial)"/>
<g opacity="0.87">
<path opacity="0.091" d="M13.0894 6.29256C13.2233 6.79245 13.068 7.29951 12.73 7.65147C13.4402 7.65001 14.0819 8.15759 14.1694 8.91653C14.252 9.63249 14.8878 10.3817 14.1808 10.5712L12.4424 11.1242C11.4617 11.2893 10.5745 10.6387 10.2772 9.99981C10.1419 9.70868 10.1129 9.40646 10.1692 9.1261C10.2457 8.73741 10.03 8.36493 9.70427 8.13656C9.44073 7.95318 9.2391 7.68114 9.14988 7.34815C9.10038 7.16343 9.08992 6.97693 9.1137 6.79732C9.16534 6.40358 9.01219 6.02086 8.69359 5.78276C8.46824 5.61433 8.29626 5.37342 8.21388 5.08419C8.18586 5.05913 8.16729 5.01635 8.17143 4.97877C8.08508 4.62504 8.14558 4.26105 8.31328 3.9708C8.3421 3.92097 8.3137 3.86302 8.25694 3.85C7.87474 3.76051 7.56273 3.45422 7.5064 3.02862C7.44288 2.55632 7.82165 2.06146 8.28965 1.93606L9.69988 1.55819C10.3741 1.37753 10.9391 1.62386 11.1122 2.11932C11.2123 2.4051 11.1709 2.70103 11.0294 2.93997C11.5445 3.04855 11.981 3.42484 12.1248 3.96159C12.2493 4.42623 12.1245 4.89819 11.8348 5.24501C12.418 5.30105 12.9309 5.70113 13.0894 6.29256Z" fill="url(#paint14_linear)"/>
<path opacity="0.182" d="M13.2934 6.24142C13.4274 6.74171 13.2722 7.24918 12.9342 7.60113C13.6445 7.59968 14.2863 8.10806 14.3739 8.86741C14.4566 9.58378 15.0907 10.3317 14.3838 10.5212L12.5752 11.0427C11.5945 11.2078 10.7796 10.5903 10.4823 9.95098C10.3449 9.65522 10.3181 9.34806 10.3769 9.06397C10.4558 8.68246 10.2437 8.3151 9.92136 8.0945C9.6523 7.91043 9.44515 7.63596 9.3544 7.2973C9.30415 7.10974 9.29353 6.91938 9.31832 6.73689C9.36993 6.34967 9.21664 5.97306 8.90063 5.74296C8.68884 5.5887 8.52757 5.36619 8.44564 5.09855C8.38949 5.04803 8.35236 4.96246 8.36074 4.88771C8.28584 4.54524 8.34971 4.18556 8.51576 3.91399C8.54573 3.86514 8.51618 3.8062 8.45932 3.79278C8.08044 3.70413 7.771 3.4041 7.7115 2.98326C7.64243 2.5068 8.02115 2.00675 8.4937 1.88012L9.90268 1.50259C10.5769 1.32192 11.142 1.56866 11.3153 2.06452C11.4154 2.35031 11.374 2.64664 11.2325 2.88558C11.7477 2.99416 12.1842 3.37085 12.3281 3.90801C12.4527 4.37306 12.3281 4.84542 12.0384 5.19224C12.6218 5.24909 13.1348 5.64958 13.2934 6.24142Z" fill="url(#paint15_linear)"/>
<path opacity="0.273" d="M13.4979 6.19084C13.632 6.69154 13.4769 7.19941 13.1389 7.55136C13.8492 7.54991 14.4911 8.0587 14.5789 8.81886C14.6618 9.53563 15.2937 10.282 14.5867 10.4714L12.7076 10.9615C11.7269 11.1266 10.9849 10.5426 10.6869 9.90254C10.5474 9.60213 10.5224 9.29015 10.5846 9.00212C10.6655 8.62831 10.457 8.26605 10.1383 8.05231C9.86344 7.86806 9.65053 7.59035 9.55837 7.24643C9.50736 7.05603 9.4967 6.86221 9.52239 6.67644C9.57408 6.29614 9.42054 5.92525 9.10764 5.70343C8.91065 5.563 8.75915 5.35872 8.67801 5.11388C8.59383 5.0383 8.53814 4.90995 8.55054 4.79721C8.48668 4.46611 8.55486 4.11092 8.71832 3.85785C8.74945 3.81 8.71874 3.75006 8.66188 3.73664C8.28581 3.64854 7.98018 3.35443 7.91627 2.93868C7.84289 2.45773 8.22072 1.95271 8.69783 1.82487L10.1056 1.44767C10.7798 1.267 11.345 1.51414 11.5184 2.01041C11.6186 2.2966 11.5772 2.59293 11.4357 2.83187C11.951 2.94086 12.3875 3.31755 12.5316 3.85511C12.6563 4.32057 12.5316 4.79293 12.2421 5.14056C12.8265 5.19759 13.3391 5.59819 13.4979 6.19084Z" fill="url(#paint16_linear)"/>
<path opacity="0.364" d="M13.7037 6.14016C13.838 6.64126 13.683 7.14954 13.3449 7.5015C14.0553 7.50045 14.6974 8.00964 14.7853 8.7702C14.8684 9.48779 15.498 10.2322 14.791 10.4216L12.8416 10.8797C11.8609 11.0448 11.1913 10.4939 10.8932 9.85348C10.7515 9.54844 10.7278 9.23133 10.7935 8.93976C10.876 8.57335 10.6716 8.21651 10.3565 8.00961C10.0758 7.82518 9.85767 7.54454 9.7641 7.19535C9.71233 7.00212 9.70205 6.80471 9.72863 6.61567C9.7804 6.2423 9.62651 5.87671 9.31682 5.66358C9.1334 5.53732 8.99166 5.35126 8.91108 5.12841C8.79878 5.02738 8.72451 4.85624 8.74117 4.70633C8.68876 4.38649 8.76125 4.03578 8.9217 3.80132C8.95398 3.75446 8.92201 3.69312 8.86526 3.68011C8.492 3.59256 8.18935 3.3046 8.12239 2.89401C8.04345 2.40891 8.42163 1.89858 8.9033 1.76951L10.3098 1.39264C10.9841 1.21198 11.5493 1.45952 11.7227 1.95579C11.8229 2.24198 11.7817 2.53872 11.6403 2.77807C12.1556 2.88705 12.5923 3.26455 12.7364 3.80252C12.8613 4.26838 12.7367 4.74115 12.4472 5.08877C13.0317 5.14622 13.5448 5.5471 13.7037 6.14016Z" fill="url(#paint17_linear)"/>
<path opacity="0.455" d="M13.9074 6.08993C14.0418 6.59143 13.8868 7.09971 13.5489 7.45248C14.2593 7.45143 14.9015 7.96103 14.9896 8.7224C15.0728 9.44039 15.7006 10.1831 14.9936 10.3725L12.9737 10.7991C11.993 10.9642 11.3957 10.4465 11.0975 9.80568C10.9537 9.49599 10.9314 9.17417 11.0004 8.87865C11.0849 8.51954 10.8839 8.16873 10.5728 7.96857C10.2859 7.78408 10.0628 7.49997 9.96787 7.14552C9.91522 6.94905 9.9049 6.74818 9.93249 6.55626C9.98434 6.18982 9.83051 5.82942 9.5231 5.6248C9.35396 5.51208 9.22168 5.34476 9.14219 5.14419C9.00187 5.01811 8.90904 4.80418 8.92983 4.61669C8.88876 4.30771 8.96578 3.9623 9.12364 3.74633C9.15708 3.70047 9.12395 3.63814 9.0672 3.62512C8.69676 3.53812 8.39666 3.25642 8.32695 2.85048C8.24236 2.36081 8.62069 1.8461 9.10733 1.7157L10.5126 1.33917C11.1868 1.1585 11.7521 1.40605 11.9257 1.90313C12.026 2.18972 11.9848 2.48646 11.8434 2.72581C12.3588 2.83519 12.7955 3.2127 12.9398 3.75107C13.0647 4.21733 12.9401 4.6901 12.6508 5.03814C13.2351 5.09517 13.7484 5.49646 13.9074 6.08993Z" fill="url(#paint18_linear)"/>
<path opacity="0.545" d="M14.1114 6.03905C14.2458 6.54096 14.0909 7.04965 13.7531 7.40241C14.4635 7.40136 15.1059 7.91177 15.1941 8.67355C15.2774 9.39194 15.9032 10.1335 15.1962 10.3229L13.1061 10.7179C12.1252 10.8826 11.6004 10.3985 11.3021 9.75723C11.1562 9.44291 11.1352 9.11596 11.2081 8.8168C11.294 8.46468 11.0968 8.1198 10.7898 7.92638C10.4966 7.74182 10.2688 7.45466 10.1723 7.09453C10.1189 6.89522 10.1085 6.6909 10.137 6.4957C10.1889 6.13618 10.0356 5.78086 9.73054 5.58515C9.57567 5.48597 9.45327 5.33729 9.37446 5.15912C9.20601 5.00757 9.09461 4.75086 9.12005 4.52608C9.09044 4.22836 9.17281 3.88803 9.32662 3.69008C9.36163 3.6451 9.32693 3.58189 9.27018 3.56887C8.90255 3.48242 8.60554 3.20728 8.53214 2.80579C8.442 2.31197 8.82069 1.79195 9.31188 1.66033L10.7159 1.28413C11.3902 1.10346 11.9555 1.35142 12.1291 1.8485C12.2295 2.1355 12.1883 2.43223 12.047 2.67199C12.5624 2.78137 12.9993 3.15928 13.1436 3.69806C13.2687 4.16473 13.1442 4.6379 12.8548 4.98593C13.4389 5.04349 13.9523 5.44559 14.1114 6.03905Z" fill="url(#paint19_linear)"/>
<path opacity="0.636" d="M14.3171 5.98833C14.4517 6.49065 14.2969 6.99974 13.9591 7.3525C14.6696 7.35186 15.312 7.86267 15.4004 8.62486C15.4838 9.34365 16.1073 10.0836 15.4004 10.273L13.2397 10.6366C12.2588 10.8013 11.8065 10.3507 11.508 9.70865C11.3599 9.38969 11.3402 9.05762 11.4168 8.75532C11.5038 8.41071 11.3108 8.07165 11.0077 7.88456C10.7084 7.70033 10.4752 7.40983 10.3773 7.04444C10.3231 6.8423 10.3127 6.63451 10.3425 6.43592C10.3945 6.08332 10.2414 5.73228 9.939 5.54629C9.79873 5.46014 9.68548 5.3307 9.60775 5.17482C9.41087 4.99833 9.28132 4.69872 9.3109 4.43637C9.29273 4.1499 9.38057 3.81506 9.53064 3.63461C9.56721 3.59051 9.53095 3.52642 9.47409 3.513C9.10927 3.42709 8.81483 3.15821 8.73879 2.76177C8.64308 2.2638 9.02172 1.73858 9.51788 1.60564L10.9207 1.22977C11.5949 1.0491 12.1604 1.29746 12.3341 1.79494C12.4345 2.08194 12.3934 2.37908 12.2521 2.61883C12.7676 2.72863 13.2046 3.10694 13.3489 3.64572C13.4741 4.11279 13.3497 4.58637 13.0603 4.9344C13.6448 4.99185 14.1579 5.39406 14.3171 5.98833Z" fill="url(#paint20_linear)"/>
<path opacity="0.727" d="M14.5203 5.93814C14.6551 6.44086 14.5004 6.95035 14.1625 7.30312C14.873 7.30247 15.5156 7.81369 15.6041 8.57628C15.6877 9.29589 16.3093 10.0337 15.6024 10.2232L13.3714 10.5548C12.3906 10.7195 12.0106 10.302 11.7124 9.65945C11.5622 9.33585 11.5437 8.99866 11.6242 8.6927C11.7128 8.3555 11.5236 8.02237 11.2245 7.84201C10.9191 7.65813 10.6809 7.36376 10.5816 6.9931C10.5266 6.78812 10.5161 6.57647 10.5469 6.375C10.5986 6.02944 10.447 5.68234 10.1458 5.506C10.0205 5.43276 9.91643 5.32259 9.83938 5.1891C9.61437 4.98715 9.46636 4.64516 9.50007 4.34523C9.49336 4.07002 9.5876 3.74084 9.73257 3.57782C9.77082 3.53501 9.73288 3.46963 9.67602 3.45621C9.31442 3.37074 9.02255 3.10812 8.94293 2.71655C8.84126 2.21453 9.22066 1.6839 9.72097 1.54984L11.1229 1.17419C11.7972 0.993528 12.3627 1.24188 12.5366 1.74018C12.6371 2.02759 12.596 2.32473 12.4547 2.56448C12.9702 2.67427 13.4072 3.05299 13.5518 3.59258C13.677 4.05965 13.5527 4.53363 13.2635 4.88207C13.8478 4.94084 14.361 5.34346 14.5203 5.93814Z" fill="url(#paint21_linear)"/>
<path opacity="0.818" d="M14.7252 5.88758C14.86 6.39071 14.7054 6.9002 14.3676 7.25337C15.0781 7.25272 15.7209 7.76475 15.8095 8.52775C15.8933 9.24776 16.5128 9.98442 15.8058 10.1738L13.5043 10.474C12.5235 10.6387 12.2158 10.2544 11.9175 9.61143C11.7652 9.28319 11.7476 8.94099 11.832 8.63138C11.922 8.30118 11.7367 7.97438 11.4411 7.80046C11.1296 7.61692 10.8864 7.31909 10.7856 6.94276C10.7299 6.73495 10.7193 6.51983 10.751 6.31508C10.8028 5.97645 10.6529 5.63237 10.3529 5.46701C10.2425 5.40627 10.1478 5.31616 10.0713 5.20467C9.81826 4.97766 9.65158 4.59249 9.68954 4.25538C9.69375 3.99114 9.79472 3.66884 9.93491 3.52273C9.97483 3.48121 9.93521 3.41454 9.87835 3.40112C9.51957 3.3162 9.22943 3.06006 9.14799 2.67332C9.03942 2.16707 9.42011 1.63132 9.92539 1.49593L11.3261 1.12061C12.0003 0.939948 12.5659 1.18871 12.7399 1.687C12.8404 1.97441 12.7995 2.27236 12.6582 2.51211C13.1737 2.62191 13.6109 3.00103 13.7556 3.54102C13.8808 4.0085 13.7567 4.48289 13.4674 4.83133C14.0521 4.88958 14.5658 5.29249 14.7252 5.88758Z" fill="url(#paint22_linear)"/>
<path opacity="0.909" d="M14.9303 5.83707C15.0652 6.34061 14.9106 6.8505 14.573 7.20408C15.2836 7.20384 15.9264 7.71587 16.0152 8.47967C16.0991 9.20009 16.7168 9.93505 16.0098 10.1245L13.6382 10.3931C12.6573 10.5578 12.4221 10.2066 12.1236 9.56324C11.9692 9.23037 11.9524 8.88275 12.0412 8.56978C12.1318 8.2468 11.9506 7.92674 11.6596 7.75853C11.3412 7.57595 11.0934 7.27415 10.9912 6.89255C10.9347 6.6819 10.9245 6.46321 10.9567 6.2553C11.0084 5.92318 10.8608 5.58109 10.5615 5.42814C10.4664 5.3798 10.3801 5.30958 10.3048 5.22037C10.0236 4.9679 9.83845 4.54034 9.88043 4.16525C9.8961 3.91227 10.0037 3.59645 10.139 3.46685C10.1807 3.42702 10.1393 3.35866 10.0824 3.34524C9.72644 3.26087 9.43928 3.01088 9.35468 2.62889C9.24056 2.11848 9.6216 1.57743 10.1314 1.44082L11.5309 1.06584C12.2051 0.88517 12.7709 1.13434 12.9449 1.63304C13.0455 1.92085 13.0046 2.2188 12.8633 2.45855C13.3789 2.56875 13.8162 2.94828 13.9609 3.48827C14.0863 3.95616 13.9622 4.43095 13.673 4.77939C14.2569 4.83827 14.7707 5.24158 14.9303 5.83707Z" fill="url(#paint23_linear)"/>
<path opacity="0.87" d="M15.1347 5.78658C15.2698 6.29051 15.1153 6.80081 14.7777 7.15439C15.4883 7.15415 16.1313 7.66699 16.2202 8.4312C16.3043 9.15243 16.9197 9.8854 16.2127 10.0748L13.7708 10.3115C12.79 10.4762 12.6272 10.1585 12.3285 9.51437C12.1719 9.17685 12.1564 8.82411 12.2487 8.50761C12.3408 8.19203 12.1639 7.87777 11.8765 7.71641C11.552 7.53417 11.2992 7.22851 11.1955 6.84165C11.1383 6.62816 11.128 6.4056 11.1616 6.19471C11.2134 5.86952 11.0688 5.52705 10.7688 5.38817C10.6892 5.35131 10.6116 5.30178 10.5368 5.23497C10.2277 4.95744 10.0238 4.4867 10.0701 4.07443C10.0972 3.83271 10.212 3.52407 10.3414 3.41039C10.3849 3.37225 10.3416 3.30179 10.2848 3.28878C9.93165 3.20496 9.64706 2.96123 9.55941 2.5844C9.43973 2.06984 9.82082 1.52399 10.3356 1.38605L11.7338 1.0114C12.4081 0.830733 12.9738 1.0799 13.148 1.57941C13.2487 1.86722 13.2079 2.16558 13.0667 2.40573C13.5823 2.51593 14.0197 2.89587 14.1646 3.43667C14.2901 3.90496 14.1661 4.37975 13.8769 4.7286C14.4611 4.78655 14.975 5.19028 15.1347 5.78658Z" fill="url(#paint24_linear)"/>
</g>
<path d="M14.269 2.05193C14.3694 2.86387 13.7789 3.60909 12.9502 3.71696C12.6241 3.75917 12.3114 3.69361 12.0437 3.5526L10.6709 3.34297C10.622 3.35913 10.5718 3.37256 10.5189 3.37891C10.0359 3.4367 9.58546 3.03942 9.51287 2.49184C9.44518 1.98245 9.72979 1.52715 10.1585 1.41921L12.4789 0.801808C12.5151 0.79429 12.5494 0.781616 12.5868 0.776822C13.4151 0.669071 14.1682 1.2401 14.269 2.05193Z" fill="url(#paint25_radial)"/>
<path d="M15.8699 3.84989C16.0015 4.795 15.3253 5.67433 14.3604 5.81391C13.9686 5.87071 13.5922 5.79138 13.2711 5.61996L11.2512 5.64277C10.6767 5.6773 10.1481 5.21369 10.0517 4.567C9.95763 3.93615 10.3108 3.36566 10.8499 3.22901L13.7321 2.42852C13.783 2.41661 13.831 2.39854 13.8836 2.39097C14.8494 2.25156 15.7383 2.90478 15.8699 3.84989Z" fill="url(#paint26_radial)"/>
<path d="M16.9987 6.12959C17.1204 7.07604 16.4354 7.94864 15.4692 8.07858C15.4143 8.0859 12.325 7.89771 12.325 7.89771C11.7404 7.94234 11.2031 7.46803 11.1127 6.81102C11.0302 6.20966 11.3504 5.66362 11.8472 5.49837C11.8472 5.49837 14.955 4.66042 15.0288 4.65065C15.9949 4.52072 16.8769 5.18315 16.9987 6.12959Z" fill="url(#paint27_radial)"/>
<path d="M17.6732 8.32361C17.7891 9.15182 17.2145 9.91971 16.3826 10.0771C16.3826 10.0771 16.2705 10.0945 16.2476 10.0967L13.3222 10.3947C12.7521 10.4172 12.2243 9.92693 12.1216 9.25022C12.0214 8.59149 12.3608 7.9995 12.8906 7.85277L15.7184 7.05164C15.7737 7.03769 15.8265 7.01922 15.8841 7.01072C16.7527 6.88435 17.5539 7.47246 17.6732 8.32361Z" fill="url(#paint28_radial)"/>
<path opacity="0.61" d="M15.1985 9.76663C16.5537 9.40349 17.527 8.64118 17.3723 8.06396C17.2177 7.48674 15.9936 7.3132 14.6384 7.67634C13.2831 8.03948 12.3098 8.80179 12.4645 9.37901C12.6192 9.95622 13.8432 10.1298 15.1985 9.76663Z" fill="url(#paint29_radial)"/>
<path opacity="0.58" d="M14.2322 7.11731C15.5875 6.75417 16.5763 6.04971 16.4407 5.54386C16.3052 5.03802 15.0966 4.92233 13.7414 5.28547C12.3861 5.64861 11.3974 6.35306 11.5329 6.85891C11.6684 7.36476 12.877 7.48045 14.2322 7.11731Z" fill="url(#paint30_radial)"/>
<path opacity="0.61" d="M13.1454 4.88989C14.5007 4.52675 15.4895 3.8223 15.3539 3.31645C15.2184 2.8106 14.0099 2.69491 12.6546 3.05805C11.2993 3.42119 10.3106 4.12565 10.4461 4.6315C10.5816 5.13734 11.7902 5.25303 13.1454 4.88989Z" fill="url(#paint31_radial)"/>
<path opacity="0.58" d="M11.9449 2.62523C12.9159 2.36506 13.6243 1.86033 13.5272 1.49789C13.4301 1.13545 12.5642 1.05255 11.5932 1.31273C10.6222 1.5729 9.91381 2.07763 10.0109 2.44007C10.108 2.80251 10.9739 2.88541 11.9449 2.62523Z" fill="url(#paint32_radial)"/>
</g>
<defs>
<radialGradient id="paint0_radial" cx="0" cy="0" r="1" gradientUnits="userSpaceOnUse" gradientTransform="translate(6.95034 9.0277) rotate(-15) scale(8.51071 7.51191)">
<stop stop-color="#FFE16E"/>
<stop offset="0.629" stop-color="#FFD226"/>
<stop offset="0.75" stop-color="#FDCD23"/>
<stop offset="0.899" stop-color="#F6BD1B"/>
<stop offset="0.999" stop-color="#F0AF13"/>
</radialGradient>
<linearGradient id="paint1_linear" x1="0.63898" y1="7.39248" x2="12.6236" y2="16.7242" gradientUnits="userSpaceOnUse">
<stop stop-color="#EFAE13"/>
<stop offset="0.388" stop-color="#FDD95E" stop-opacity="0.482"/>
<stop offset="0.534" stop-color="#FDD859" stop-opacity="0.605"/>
<stop offset="0.715" stop-color="#FDD449" stop-opacity="0.759"/>
<stop offset="0.915" stop-color="#FCCE30" stop-opacity="0.928"/>
<stop offset="0.999" stop-color="#FCCB23"/>
</linearGradient>
<linearGradient id="paint2_linear" x1="0.563798" y1="7.47302" x2="12.5556" y2="16.8108" gradientUnits="userSpaceOnUse">
<stop stop-color="#EEAC13"/>
<stop offset="0.388" stop-color="#FAD456" stop-opacity="0.534"/>
<stop offset="0.543" stop-color="#FAD351" stop-opacity="0.652"/>
<stop offset="0.737" stop-color="#FACF41" stop-opacity="0.8"/>
<stop offset="0.95" stop-color="#F9C828" stop-opacity="0.962"/>
<stop offset="0.999" stop-color="#F9C621"/>
</linearGradient>
<linearGradient id="paint3_linear" x1="0.489831" y1="7.55355" x2="12.4896" y2="16.8967" gradientUnits="userSpaceOnUse">
<stop stop-color="#EDAB14"/>
<stop offset="0.388" stop-color="#F8CE4F" stop-opacity="0.586"/>
<stop offset="0.555" stop-color="#F8CD4A" stop-opacity="0.699"/>
<stop offset="0.763" stop-color="#F8C93A" stop-opacity="0.84"/>
<stop offset="0.992" stop-color="#F7C221" stop-opacity="0.995"/>
<stop offset="0.999" stop-color="#F7C220"/>
</linearGradient>
<linearGradient id="paint4_linear" x1="0.415177" y1="7.63392" x2="12.4239" y2="16.9848" gradientUnits="userSpaceOnUse">
<stop stop-color="#ECAA14"/>
<stop offset="0.388" stop-color="#F6C848" stop-opacity="0.637"/>
<stop offset="0.569" stop-color="#F6C743" stop-opacity="0.745"/>
<stop offset="0.794" stop-color="#F5C333" stop-opacity="0.878"/>
<stop offset="0.999" stop-color="#F5BE1F"/>
</linearGradient>
<linearGradient id="paint5_linear" x1="0.34145" y1="7.71415" x2="12.3615" y2="17.0735" gradientUnits="userSpaceOnUse">
<stop stop-color="#EBA814"/>
<stop offset="0.388" stop-color="#F3C241" stop-opacity="0.689"/>
<stop offset="0.584" stop-color="#F3C13C" stop-opacity="0.788"/>
<stop offset="0.827" stop-color="#F3BD2C" stop-opacity="0.912"/>
<stop offset="0.999" stop-color="#F3BA1D"/>
</linearGradient>
<linearGradient id="paint6_linear" x1="0.267371" y1="7.79427" x2="12.3" y2="17.1635" gradientUnits="userSpaceOnUse">
<stop stop-color="#EAA714"/>
<stop offset="0.388" stop-color="#F1BD39" stop-opacity="0.741"/>
<stop offset="0.611" stop-color="#F1BC34" stop-opacity="0.835"/>
<stop offset="0.888" stop-color="#F0B724" stop-opacity="0.953"/>
<stop offset="0.999" stop-color="#F0B51C"/>
</linearGradient>
<linearGradient id="paint7_linear" x1="0.193972" y1="7.87433" x2="12.2403" y2="17.2544" gradientUnits="userSpaceOnUse">
<stop stop-color="#E9A514"/>
<stop offset="0.388" stop-color="#EEB732" stop-opacity="0.793"/>
<stop offset="0.637" stop-color="#EEB62D" stop-opacity="0.877"/>
<stop offset="0.948" stop-color="#EEB21D" stop-opacity="0.983"/>
<stop offset="0.999" stop-color="#EEB11A"/>
</linearGradient>
<linearGradient id="paint8_linear" x1="0.152587" y1="7.91143" x2="12.2148" y2="17.304" gradientUnits="userSpaceOnUse">
<stop stop-color="#E8A414"/>
<stop offset="0.388" stop-color="#ECB12B" stop-opacity="0.845"/>
<stop offset="0.684" stop-color="#ECB026" stop-opacity="0.92"/>
<stop offset="0.999" stop-color="#ECAD19"/>
</linearGradient>
<linearGradient id="paint9_linear" x1="0.12259" y1="7.93073" x2="12.2038" y2="17.3381" gradientUnits="userSpaceOnUse">
<stop stop-color="#E7A315"/>
<stop offset="0.388" stop-color="#EAAB24" stop-opacity="0.896"/>
<stop offset="0.765" stop-color="#EAAA1F" stop-opacity="0.96"/>
<stop offset="0.999" stop-color="#EAA918"/>
</linearGradient>
<linearGradient id="paint10_linear" x1="0.0891208" y1="7.94792" x2="12.1932" y2="17.373" gradientUnits="userSpaceOnUse">
<stop stop-color="#E6A115"/>
<stop offset="0.388" stop-color="#E7A61C" stop-opacity="0.948"/>
<stop offset="0.959" stop-color="#E7A417" stop-opacity="0.997"/>
<stop offset="0.999" stop-color="#E7A416"/>
</linearGradient>
<radialGradient id="paint11_radial" cx="0" cy="0" r="1" gradientUnits="userSpaceOnUse" gradientTransform="translate(6.59399 5.27415) rotate(63.3188) scale(1.78478 2.75995)">
<stop offset="0.425" stop-color="#FFE16E"/>
<stop offset="1" stop-color="#FFE16E" stop-opacity="0"/>
</radialGradient>
<linearGradient id="paint12_linear" x1="12.2745" y1="11.373" x2="7.01077" y2="7.95574" gradientUnits="userSpaceOnUse">
<stop stop-color="#FFDB53" stop-opacity="0"/>
<stop offset="0.605" stop-color="#F6C02D"/>
<stop offset="0.999" stop-color="#F2B416" stop-opacity="0.636"/>
</linearGradient>
<radialGradient id="paint13_radial" cx="0" cy="0" r="1" gradientUnits="userSpaceOnUse" gradientTransform="translate(7.26024 10.3531) rotate(-64.0144) scale(1.61845 2.69419)">
<stop offset="0.425" stop-color="#FFE16E"/>
<stop offset="1" stop-color="#FFE16E" stop-opacity="0"/>
</radialGradient>
<linearGradient id="paint14_linear" x1="12.7261" y1="6.35301" x2="8.84244" y2="6.23688" gradientUnits="userSpaceOnUse">
<stop stop-color="#F4BA22" stop-opacity="0.409"/>
<stop offset="1" stop-color="#FBCE32"/>
</linearGradient>
<linearGradient id="paint15_linear" x1="13.5459" y1="6.96526" x2="8.55215" y2="5.31267" gradientUnits="userSpaceOnUse">
<stop stop-color="#F2B721" stop-opacity="0.468"/>
<stop offset="1" stop-color="#F9C930"/>
</linearGradient>
<linearGradient id="paint16_linear" x1="13.9381" y1="7.88993" x2="8.684" y2="4.24957" gradientUnits="userSpaceOnUse">
<stop stop-color="#F0B320" stop-opacity="0.527"/>
<stop offset="1" stop-color="#F6C32D"/>
</linearGradient>
<linearGradient id="paint17_linear" x1="13.7568" y1="8.82826" x2="9.25025" y2="3.27678" gradientUnits="userSpaceOnUse">
<stop stop-color="#EEB01F" stop-opacity="0.586"/>
<stop offset="1" stop-color="#F3BE2A"/>
</linearGradient>
<linearGradient id="paint18_linear" x1="13.1572" y1="9.39835" x2="10.2525" y2="2.55667" gradientUnits="userSpaceOnUse">
<stop stop-color="#ECAC1E" stop-opacity="0.645"/>
<stop offset="1" stop-color="#F0B827"/>
</linearGradient>
<linearGradient id="paint19_linear" x1="12.3992" y1="9.52622" x2="11.4934" y2="2.14328" gradientUnits="userSpaceOnUse">
<stop stop-color="#EAA91C" stop-opacity="0.705"/>
<stop offset="1" stop-color="#EEB325"/>
</linearGradient>
<linearGradient id="paint20_linear" x1="11.6475" y1="9.52191" x2="12.8273" y2="2.13092" gradientUnits="userSpaceOnUse">
<stop stop-color="#E8A51B" stop-opacity="0.764"/>
<stop offset="1" stop-color="#EBAD22"/>
</linearGradient>
<linearGradient id="paint21_linear" x1="10.9637" y1="9.07854" x2="13.9873" y2="2.67649" gradientUnits="userSpaceOnUse">
<stop stop-color="#E6A21A" stop-opacity="0.823"/>
<stop offset="1" stop-color="#E8A81F"/>
</linearGradient>
<linearGradient id="paint22_linear" x1="10.5987" y1="8.22809" x2="14.6893" y2="3.63565" gradientUnits="userSpaceOnUse">
<stop stop-color="#E49E19" stop-opacity="0.882"/>
<stop offset="1" stop-color="#E5A21C"/>
</linearGradient>
<linearGradient id="paint23_linear" x1="10.7567" y1="7.16725" x2="14.7493" y2="4.70057" gradientUnits="userSpaceOnUse">
<stop stop-color="#E29B18" stop-opacity="0.941"/>
<stop offset="1" stop-color="#E39D1A"/>
</linearGradient>
<linearGradient id="paint24_linear" x1="10.5948" y1="6.4486" x2="15.366" y2="5.17017" gradientUnits="userSpaceOnUse">
<stop stop-color="#E09717"/>
<stop offset="1" stop-color="#E09717"/>
</linearGradient>
<radialGradient id="paint25_radial" cx="0" cy="0" r="1" gradientUnits="userSpaceOnUse" gradientTransform="translate(11.4072 1.8781) rotate(-15) scale(2.83676 1.41146)">
<stop stop-color="#FFE16E"/>
<stop offset="0.629" stop-color="#FFD226"/>
<stop offset="0.75" stop-color="#FDCD23"/>
<stop offset="0.899" stop-color="#F6BD1B"/>
<stop offset="0.999" stop-color="#F0AF13"/>
</radialGradient>
<radialGradient id="paint26_radial" cx="0" cy="0" r="1" gradientUnits="userSpaceOnUse" gradientTransform="translate(12.6129 3.72204) rotate(-15) scale(3.27797 1.6948)">
<stop stop-color="#FFE16E"/>
<stop offset="0.629" stop-color="#FFD226"/>
<stop offset="0.75" stop-color="#FDCD23"/>
<stop offset="0.899" stop-color="#F6BD1B"/>
<stop offset="0.999" stop-color="#F0AF13"/>
</radialGradient>
<radialGradient id="paint27_radial" cx="0" cy="0" r="1" gradientUnits="userSpaceOnUse" gradientTransform="translate(13.5897 5.78896) rotate(-15) scale(3.55067 1.95977)">
<stop stop-color="#FFE16E"/>
<stop offset="0.629" stop-color="#FFD226"/>
<stop offset="0.75" stop-color="#FDCD23"/>
<stop offset="0.899" stop-color="#F6BD1B"/>
<stop offset="0.999" stop-color="#F0AF13"/>
</radialGradient>
<radialGradient id="paint28_radial" cx="0" cy="0" r="1" gradientUnits="userSpaceOnUse" gradientTransform="translate(14.7864 8.83174) rotate(-10.3933) scale(3.13079 1.99998)">
<stop stop-color="#FFE16E"/>
<stop offset="0.629" stop-color="#FFD226"/>
<stop offset="0.75" stop-color="#FDCD23"/>
<stop offset="0.899" stop-color="#F6BD1B"/>
<stop offset="0.999" stop-color="#F0AF13"/>
</radialGradient>
<radialGradient id="paint29_radial" cx="0" cy="0" r="1" gradientUnits="userSpaceOnUse" gradientTransform="translate(14.921 8.72215) rotate(75) scale(0.97184 2.23433)">
<stop offset="0.425" stop-color="#FFE16E"/>
<stop offset="1" stop-color="#FFE16E" stop-opacity="0"/>
</radialGradient>
<radialGradient id="paint30_radial" cx="0" cy="0" r="1" gradientUnits="userSpaceOnUse" gradientTransform="translate(13.9912 6.21067) rotate(75) scale(0.851679 2.23433)">
<stop offset="0.425" stop-color="#FFE16E"/>
<stop offset="1" stop-color="#FFE16E" stop-opacity="0"/>
</radialGradient>
<radialGradient id="paint31_radial" cx="0" cy="0" r="1" gradientUnits="userSpaceOnUse" gradientTransform="translate(12.9046 3.98364) rotate(75) scale(0.851679 2.23433)">
<stop offset="0.425" stop-color="#FFE16E"/>
<stop offset="1" stop-color="#FFE16E" stop-opacity="0"/>
</radialGradient>
<radialGradient id="paint32_radial" cx="0" cy="0" r="1" gradientUnits="userSpaceOnUse" gradientTransform="translate(11.7742 1.97834) rotate(75) scale(0.610264 1.60099)">
<stop offset="0.425" stop-color="#FFE16E"/>
<stop offset="1" stop-color="#FFE16E" stop-opacity="0"/>
</radialGradient>
<clipPath id="clip0">
<rect width="16" height="16" fill="white" transform="translate(0 4.14111) rotate(-15)"/>
</clipPath>
</defs>
</svg>
